<?xml version="1.0" encoding="UTF-8"?>
<svg version="1.1" xmlns="http://www.w3.org/2000/svg" width="40" height="40">
<path d="M0 0 C1.00611328 -0.02835937 2.01222656 -0.05671875 3.04882812 -0.0859375 C5.77417302 -0.09321965 8.26533116 -0.03851564 10.9375 0.5 C12.9921875 2.87109375 12.9921875 2.87109375 13.9375 5.5 C14.9584375 6.7684375 14.9584375 6.7684375 16 8.0625 C20.02034361 13.12035164 20.42163302 17.06341047 20.328125 23.453125 C19.74070173 28.03502648 17.79452726 30.96922601 14.9375 34.5 C14.36 35.28375 13.7825 36.0675 13.1875 36.875 C12.775 37.41125 12.3625 37.9475 11.9375 38.5 C11.6075 39.16 11.2775 39.82 10.9375 40.5 C7.41730654 40.6756269 3.89825065 40.78128466 0.375 40.875 C-0.61564453 40.92527344 -1.60628906 40.97554687 -2.62695312 41.02734375 C-7.76157147 41.12969495 -11.17064917 41.0058148 -15.22265625 37.6484375 C-17.8292756 35.11347376 -18.85619951 33.2134089 -19.0625 29.5 C-19.3925 28.84 -19.7225 28.18 -20.0625 27.5 C-20.55848505 20.59436202 -20.95053763 14.48159635 -17.0625 8.5 C-16.5984375 7.1696875 -16.5984375 7.1696875 -16.125 5.8125 C-12.98706577 -1.01712156 -6.4882749 -0.0166901 0 0 Z " fill="#242625" transform="translate(20.0625,-0.5)"/>
<path d="M0 0 C2.75105422 -0.10812003 5.49785087 -0.18734945 8.25 -0.25 C9.02730469 -0.28351562 9.80460937 -0.31703125 10.60546875 -0.3515625 C14.40464575 -0.4165057 16.37285633 -0.43594133 19.5625 1.78125 C21 4 21 4 20.75 7.75 C20.5025 8.8225 20.255 9.895 20 11 C19.34 11 18.68 11 18 11 C18 11.66 18 12.32 18 13 C19.32 13.66 20.64 14.32 22 15 C22.3125 18.25 22.3125 18.25 22 22 C19.88497856 24.38359559 18.20488446 25.81045772 14.99487305 26.31542969 C12.71262058 26.3933689 10.46876936 26.34943504 8.1875 26.25 C7.00510742 26.22292969 7.00510742 26.22292969 5.79882812 26.1953125 C3.86535739 26.14844048 1.93251715 26.0767041 0 26 C0.04882812 22.99707031 0.04882812 22.99707031 0.09765625 19.99414062 C-0.01960531 17.59965951 -0.6742177 15.98867345 -2 14 C-0.35 13.67 1.3 13.34 3 13 C4 16 4 16 4 19 C4.33 19.99 4.66 20.98 5 22 C8.3 21.67 11.6 21.34 15 21 C15.33 19.35 15.66 17.7 16 16 C14.865625 15.731875 13.73125 15.46375 12.5625 15.1875 C10.7990625 14.5996875 10.7990625 14.5996875 9 14 C8.67 13.01 8.34 12.02 8 11 C10.31 10.34 12.62 9.68 15 9 C15 8.01 15 7.02 15 6 C12.03 5.67 9.06 5.34 6 5 C6.33 8.96 6.66 12.92 7 17 C6.01 17 5.02 17 4 17 C3.896875 16.2575 3.79375 15.515 3.6875 14.75 C3.21174201 11.97090114 3.21174201 11.97090114 1.4375 10.1875 C-0.74921847 6.85988493 -0.09169913 3.94306278 0 0 Z " fill="#F2F2F2" transform="translate(10,7)"/>
<path d="M0 0 C2.97 0 5.94 0 9 0 C9.38218767 1.65614657 9.71395102 3.32457024 10 5 C9 6 9 6 6.71484375 6.09765625 C5.34005859 6.08025391 5.34005859 6.08025391 3.9375 6.0625 C3.01839844 6.05347656 2.09929688 6.04445313 1.15234375 6.03515625 C0.44207031 6.02355469 -0.26820312 6.01195312 -1 6 C-0.67 4.02 -0.34 2.04 0 0 Z " fill="#0A0C0B" transform="translate(17,22)"/>
<path d="M0 0 C3.49413605 2.86698342 5.28836874 4.84150148 5.8125 9.3125 C5.874375 10.529375 5.93625 11.74625 6 13 C8.97 13 11.94 13 15 13 C15 13.33 15 13.66 15 14 C13.3973218 14.10824843 11.79254252 14.18570645 10.1875 14.25 C9.29417969 14.29640625 8.40085937 14.3428125 7.48046875 14.390625 C5 14 5 14 3.15625 12.125 C2 10 2 10 2.3125 7.75 C2.539375 7.1725 2.76625 6.595 3 6 C1.02 6 -0.96 6 -3 6 C-1.125 1.125 -1.125 1.125 0 0 Z " fill="#6E6E6E" transform="translate(10,15)"/>
<path d="M0 0 C0.66 0.33 1.32 0.66 2 1 C2 2.65 2 4.3 2 6 C0.35 6 -1.3 6 -3 6 C-1.125 1.125 -1.125 1.125 0 0 Z " fill="#9F9F9F" transform="translate(10,15)"/>
<path d="M0 0 C0 0.99 0 1.98 0 3 C-0.66 2.67 -1.32 2.34 -2 2 C-1.34 1.34 -0.68 0.68 0 0 Z " fill="#BBAABB" transform="translate(35,34)"/>
<path d="" fill="#FFFFFF" transform="translate(0,0)"/>
<path d="" fill="#000000" transform="translate(0,0)"/>
<path d="" fill="#7F7F7F" transform="translate(0,0)"/>
<path d="" fill="#D4D4D4" transform="translate(0,0)"/>
<path d="" fill="#000000" transform="translate(0,0)"/>
<path d="" fill="#BFBFBF" transform="translate(0,0)"/>
<path d="" fill="#000000" transform="translate(0,0)"/>
<path d="" fill="#FFFFFF" transform="translate(0,0)"/>
<path d="" fill="#FFFFFF" transform="translate(0,0)"/>
<path d="" fill="#FFFFFF" transform="translate(0,0)"/>
<path d="" fill="#000000" transform="translate(0,0)"/>
<path d="" fill="#000000" transform="translate(0,0)"/>
<path d="" fill="#FFFFFF" transform="translate(0,0)"/>
<path d="" fill="#000000" transform="translate(0,0)"/>
<path d="" fill="#AAAAAA" transform="translate(0,0)"/>
<path d="" fill="#FFFFFF" transform="translate(0,0)"/>
<path d="" fill="#AAAAAA" transform="translate(0,0)"/>
<path d="" fill="#AAAAAA" transform="translate(0,0)"/>
<path d="" fill="#FFFFFF" transform="translate(0,0)"/>
</svg>
