<svg width="189" height="149" viewBox="0 0 189 149" fill="none" xmlns="http://www.w3.org/2000/svg">
<g clip-path="url(#clip0_2_401)">
<path d="M176.806 30.4647C170.683 31.3088 164.283 27.8146 164.592 18.1655C165.179 1.29299 184.295 -3.35525 184.157 2.27606C184.114 4.21016 183.068 7.38378 181.618 8.15314C174.396 5.59928 168.411 12.8655 168.23 18.3258C168.091 21.1041 171.59 24.5235 176.486 23.8503C180.295 23.3267 183.527 20.4736 185.287 17.9412C181.97 18.1762 176.39 18.3793 176.07 18.422C174.214 18.1549 172.571 16.6268 171.441 15.3766C171.302 15.2591 173.393 14.5859 177.479 13.4425C174.801 13.6776 170.939 14.7782 170.811 14.7996C170.491 14.7568 170.31 14.6927 170.267 14.5218C173.307 13.7524 181.884 11.1665 185.831 11.1451C187.688 11.1024 188.466 14.8103 188.146 16.6589C188.872 23.3481 183.975 29.4602 176.796 30.454M165.552 31.4691C164.912 33.307 159.973 36.1815 158.703 31.234C155.567 26.9277 152.399 20.9224 149.529 15.7933C148.985 23.4122 148.164 30.625 148.164 30.625L147.886 30.5288L146.756 33.0078L146.073 33.4566L145.529 35.0702L144.985 34.6641L144.345 36.3738C144.345 36.3738 143.801 36.4486 143.523 36.6196C143.342 36.7371 143.203 36.8867 142.979 37.218C142.659 35.3801 143.256 8.91182 142.158 5.20392C142.158 5.20392 142.926 4.78718 144.014 4.55209C146.51 3.10954 150.009 2.85308 151.097 5.5886C153.316 11.4229 156.634 18.2403 158.629 22.3009C159.215 13.9341 160.485 3.15228 161.306 0.149628C161.445 0.267169 161.488 1.1327 161.626 1.25024C161.722 1.32504 161.904 0.598423 161.989 0.673222C162.128 0.790764 162.448 2.23332 162.576 2.43635C162.853 2.66074 163.397 2.41497 163.397 2.41497C163.397 2.41497 164.581 4.4025 165.253 6.41139C165.296 6.53962 165.349 6.65716 165.392 6.82813C164.123 29.2679 165.979 30.112 165.531 31.4905L165.552 31.4691ZM141.582 12.5236C141.219 21.6491 140.27 32.4308 140.27 32.4308L139.949 32.0782L139.725 33.2002L139.181 33.4032L138.595 35.1022L137.283 36.0319L136.514 37.1432L136.152 36.8867L135.789 38.1156C135.789 38.1156 135.384 38.6498 135.202 38.6819C134.882 36.8867 135.021 12.1923 133.976 7.11664C133.933 6.94567 134.157 6.51824 134.616 6.36865C136.611 5.60997 141.88 4.35975 141.603 12.5022L141.582 12.5236ZM119.499 16.1994C119.403 21.3819 119.137 28.3489 118.955 31.9713C124.673 30.7425 131.533 25.8057 131.757 22.4505C131.938 19.6188 126.487 16.2956 119.499 16.2101V16.1994ZM118.145 32.1209C118.102 29.4923 118.145 26.5537 118.145 26.5537L117.739 32.1744C117.739 32.1744 117.878 32.153 117.963 32.1423C118.006 32.1423 118.059 32.1316 118.145 32.1209ZM135.576 23.4549C135.533 34.8137 122.23 38.3613 118.006 38.9384C117.601 38.9918 117.185 39.0025 116.737 39.0238L116.459 39.6329L115.638 39.697L115.136 40.9472L114.635 40.8831C114.635 40.8831 114.315 41.4495 114.23 41.4708C114.187 41.1716 114.134 40.1672 114.091 38.7674C111.051 38.0942 107.69 35.8395 107.69 29.3106C107.69 29.3106 108.458 27.665 108.458 29.2465C108.458 30.4326 110.677 31.8324 113.91 32.2171C113.771 27.1521 113.59 21.1255 113.27 17.0115C112.139 17.3855 110.997 17.7595 109.867 18.2724C108.373 17.8236 106.826 13.4746 108.554 11.5298C110.229 9.49953 135.693 2.56457 135.565 23.4549H135.576ZM111.275 38.1476C111.136 38.5216 110.731 40.0176 110.731 40.0176L110.325 39.9001C105.514 39.9001 100.34 41.8876 96.5745 43.5973C93.3956 44.9971 92.5315 40.9152 93.8009 37.9339C93.9823 37.8164 94.1637 37.7095 94.345 37.592C94.3877 29.5671 94.5264 16.3917 93.8436 12.7586C93.8009 12.5877 94.025 12.1602 94.4837 11.9679C96.5212 11.2092 101.887 9.98038 101.386 18.0694C100.98 25.2287 100.159 32.3988 99.8389 35.551C104.511 34.5145 109.685 34.7175 110.645 36.2135C110.688 36.299 110.421 36.2028 110.421 36.2028L111.008 36.8653L110.603 37.0043C110.603 37.0043 111.371 37.8591 111.285 38.1369L111.275 38.1476ZM91.9768 19.918C91.6141 29.0435 90.6646 39.8253 90.6646 39.8253L90.3446 39.4726L90.1206 40.5946L89.5765 40.7976L88.9898 42.4967L87.6777 43.4263L86.9096 44.5376L86.5469 44.2812L86.1842 45.51C86.1842 45.51 85.7788 46.0443 85.5975 46.0763C85.2774 44.2812 85.4161 19.5867 84.3707 14.5111C84.328 14.3401 84.552 13.9127 85.0107 13.7631C87.0056 13.0044 92.2755 11.7542 91.9981 19.8966L91.9768 19.918ZM69.6492 47.0808C73.3723 45.4245 78.3221 43.5225 83.0372 43.4797L83.4426 43.64C83.4426 43.64 83.8053 42.144 83.944 41.8128C84.04 41.4922 83.3039 40.6694 83.3039 40.6694L83.6666 40.5305L83.0799 39.9107C83.0799 39.9107 83.3572 39.9642 83.3039 39.9214C81.9384 37.7843 71.5908 38.34 67.0036 41.5563C65.7342 44.4949 66.5983 48.4485 69.6386 47.0701L69.6492 47.0808ZM67.8357 17.1718C69.6919 16.0819 73.2869 17.6526 73.0522 18.6037C70.0119 31.1699 74.1403 32.3881 74.6417 32.3667C75.5058 32.3347 78.8128 29.9945 78.8128 24.9082C78.8128 18.8174 77.4047 17.3428 77.4047 17.3428L77.2233 17.3214C77.2233 17.3214 77.682 17.129 77.586 16.9688C77.5433 16.926 77.3086 16.7871 77.3086 16.7016C77.3086 16.5734 77.4047 16.2528 77.8527 16.0177C80.1676 14.7355 84.1573 16.8085 84.072 24.4487C83.976 30.9455 80.6263 36.8867 75.3565 37.5279C69.4572 38.2545 66.0969 32.0996 66.0009 27.4193C65.8622 21.3499 67.313 17.4603 67.8144 17.1718H67.8357ZM49.4019 27.5475C52.0368 26.308 54.6717 24.8975 56.0265 23.6045C55.4825 23.3694 52.4422 24.0106 49.3592 24.7051C49.3592 25.7096 49.4019 26.6285 49.4019 27.5475ZM49.3592 35.177C49.2205 38.746 48.9538 41.2785 48.7192 42.9348C53.0716 42.4646 58.0214 40.9472 61.9685 37.6454C61.9685 37.6454 62.6512 33.649 49.3485 35.177H49.3592ZM53.893 48.534C52.2608 48.7584 49.3059 49.3889 46.4896 49.0683C46.3083 49.3996 46.1269 49.6881 45.9882 49.9659C45.7642 50.3506 45.4442 49.998 45.3055 49.5812C45.1241 50.5322 45.2095 50.778 44.9001 50.9917C44.6761 51.152 44.3987 51.8466 44.2174 51.9214C44.1214 51.5367 44.0787 50.3185 44.036 48.4806C41.7638 47.6151 39.9503 45.7558 39.4489 42.0158C40.4943 42.486 42.0412 42.8386 43.8973 43.0202C43.8547 40.787 43.8013 38.3827 43.716 36.0319C42.9906 36.128 42.2225 36.2776 41.4011 36.4379C41.4011 36.4379 38.9902 35.3694 40.4943 31.8324C40.5904 31.7363 40.9531 31.5546 41.6251 31.3302L41.5825 30.8494C41.5825 30.8494 42.3505 30.5715 43.5346 30.1014C43.4493 28.584 43.3533 27.1414 43.2573 25.8912C42.7132 25.966 42.3505 25.934 42.2118 25.8592C41.4864 25.4318 40.8037 23.2092 41.4438 22.0658C41.4438 22.0658 41.9452 21.9055 42.7559 21.6704C42.7132 21.4567 42.6706 21.2857 42.5746 21.1682C42.5746 21.1682 45.8922 19.3516 47.8444 20.3561C52.0155 19.341 57.2853 18.3472 60.3683 18.8067C61.8618 19.6508 62.2245 22.2795 62.2245 24.3846C62.2245 24.3846 61.8191 26.4576 58.2774 28.787C63.1846 29.2465 67.2597 31.3623 67.5797 36.8867C67.9851 43.7576 61.5844 47.4441 53.8717 48.5554L53.893 48.534ZM21.1964 37.1325C20.151 37.4958 19.1056 37.8164 18.1561 38.169C18.0601 39.2376 17.9748 40.3382 17.8788 41.535C18.9242 41.2144 20.0123 40.8938 21.1004 40.5626C21.1004 39.4192 21.1431 38.2758 21.1964 37.1325ZM183.858 56.0994C183.804 56.4841 182.855 57.6061 182.855 57.6061L182.588 58.29L180.572 59.6577L182.055 59.5509C182.055 59.5509 180.626 60.395 179.729 61.2392C178.887 62.1368 178.62 62.9275 177.98 63.3015C177.447 63.3977 166.224 68.0993 155.684 75.2908C154.042 76.4341 150.916 70.1189 153.465 68.2383C153.839 68.0139 154.202 67.7895 154.628 67.5544C154.468 58.4823 154.415 42.4646 153.412 39.2376C153.412 39.2376 155.535 38.0087 157.647 37.795C163.205 35.9571 175.334 33.8627 178.78 33.2536C178.727 33.6383 178.78 34.6427 178.78 34.6427C178.78 34.6427 177.831 35.2411 177.137 36.1067C176.977 36.299 175.921 37.2821 175.921 37.2821L176.977 37.0897L175.281 38.3506L175.228 39.0025C175.228 39.0025 173.105 40.3382 172.795 40.4985C172.529 40.5412 167.131 42.518 162.522 44.1316C162.522 44.559 162.469 44.9971 162.469 45.4138C162.416 46.803 162.362 48.0959 162.256 49.3889C166.917 47.9249 172.742 46.461 175.601 45.9588C175.548 46.29 175.174 47.1556 175.174 47.1556L174.961 48.4699L173.318 49.7201L174.012 49.6026L172.262 51.0879L172.369 51.6008L170.459 52.4663L170.139 53.1609C170.139 53.1609 168.23 54.4004 167.494 54.8599C167.174 54.9133 164.208 56.3452 161.616 57.4992C161.402 60.3523 161.136 62.5856 160.922 63.9533C168.016 60.192 177.713 56.1315 183.847 56.1101L183.858 56.0994ZM152.847 47.038C151.417 58.6319 151.524 68.826 151.524 68.826L151.311 69.3923H150.991L150.671 71.102H150.297L149.924 71.07L149.177 74.4466L148.59 74.0726L148.324 74.5962L147.684 74.7672C147.684 74.7672 147.524 75.59 147.31 75.6861C147.204 75.7609 147.044 75.7823 146.937 75.8037C145.774 73.0254 145.027 69.0076 144.611 64.509C144.398 64.7013 144.131 64.8616 143.918 64.9471C141.795 65.3211 137.667 66.8491 134.648 67.9177C134.488 70.3433 134.381 71.85 134.381 71.85L134.008 71.4333L133.741 72.8651L133.101 73.143L132.407 75.2908L130.871 76.5196L129.975 77.9622L129.495 77.7271L129.068 79.2444C129.068 79.2444 128.588 79.9176 128.375 80.0031C128.002 77.8874 127.948 48.2455 126.679 42.3043C126.626 42.1013 126.839 41.5884 127.415 41.3212C129.74 40.1672 135.992 38.0408 135.672 47.8929C135.565 52.0068 135.352 56.4093 135.138 60.3309C138.051 59.444 141.39 58.8456 144.195 58.6212C143.822 50.2758 144.302 41.8341 144.782 38.714C147.054 37.3035 152.409 36.3524 153.252 38.7033C153.732 40.1138 153.359 42.4112 152.772 47.038H152.847ZM134.072 40.7442C133.858 42.7531 132.162 46.6213 127.554 48.9294C124.855 49.5171 122.369 50.1155 120.14 50.6177C119.82 61.4209 118.337 73.9337 118.337 73.9337L117.174 76.744L116.747 76.7654L115.904 78.8277C115.904 78.8277 115.638 78.4537 115.264 78.9987C115.104 79.191 114.784 80.2061 114.784 80.2061L114.358 80.2809L113.664 81.467L113.184 80.2168C113.184 80.2168 112.704 82.1082 112.491 82.2043C112.224 80.6015 112.277 63.6114 111.797 52.5198C107.029 53.6311 104.33 54.2722 103.434 54.4859C98.9855 55.3835 98.8788 46.6747 101.738 45.7344C104.383 44.8902 107.616 44.217 111.221 43.5759C111.381 43.3836 111.541 43.2019 111.808 43.0523C113.131 42.4432 115.563 41.6418 117.473 42.6356C122.71 41.9196 128.386 41.3426 134.05 40.7549L134.072 40.7442ZM71.6761 57.0825C71.7294 57.6061 71.7294 58.2472 71.7294 58.9311C71.6761 62.2971 71.5161 65.8874 71.3027 69.2213C77.714 68.0352 85.9175 63.2267 86.1842 59.6577C86.3975 56.6444 81.0957 55.0202 71.6761 57.0718V57.0825ZM83.2186 71.7004C85.2348 75.0129 86.1309 79.3833 85.3948 82.76C85.7148 77.7484 83.5386 74.6817 83.5386 74.6817C83.5386 74.6817 85.5548 81.1358 84.8614 83.4973C84.7547 83.4118 84.5947 83.2302 84.5947 83.2302C84.5947 83.2302 83.9546 84.4056 83.6453 84.5124C83.3252 84.6193 82.2691 85.0788 82.2691 85.0788L81.7891 84.63C80.733 80.6656 78.2901 77.3745 75.9645 74.8099C74.055 75.419 72.3588 75.7716 71.2494 75.964C71.1427 75.9853 71.036 76.0067 70.9294 76.0174C70.716 79.3513 70.556 81.5632 70.556 81.5632C70.556 81.5632 70.1826 82.2685 69.6599 83.2088C69.3399 83.7431 68.6038 85.5276 68.6038 85.5276C68.6038 85.5276 67.9637 85.8481 67.601 86.3931C67.4943 86.5748 67.1743 87.5365 67.1743 87.5365L66.7476 87.5578L66.1075 88.6798C66.1075 88.6798 65.7342 88.4768 65.6275 88.5516C65.3608 88.7012 65.2008 89.321 64.9874 89.353C64.8274 88.4768 64.6674 82.3326 64.454 75.2373C62.8112 74.5214 61.3817 73.1216 60.6457 70.7494C60.5923 70.5464 60.2723 69.3282 60.4323 68.6016C60.699 69.9907 61.4884 71.8179 62.0218 72.2026C61.019 70.354 60.699 68.4413 60.9657 67.2231C61.2324 67.9711 62.4485 68.7191 64.3047 69.1358C64.1447 65.6523 63.9847 62.2223 63.8246 59.3692C62.7685 59.7218 61.7018 60.1172 60.5923 60.5767C58.8962 60.2347 57.2533 56.0033 59.1095 53.973C60.9657 51.8893 90.462 39.8466 90.3019 60.4164C90.2486 65.7485 87.0696 69.2961 83.2079 71.679L83.2186 71.7004ZM39.3422 55.0415C41.9345 53.1929 45.9562 55.7789 45.9562 57.7557C45.9562 59.1448 41.3478 62.5642 41.3478 72.4163C41.3478 82.2685 46.3829 85.1536 47.3857 85.0788C49.0285 84.9505 53.8503 79.4047 53.8503 68.9221C53.8503 55.672 46.1162 57.6275 46.1162 57.6275L45.7429 57.5847C45.7429 57.5847 46.5856 57.1146 46.4363 56.8795C46.3296 56.7406 50.7247 56.2811 51.8875 58.0976C50.938 55.7682 45.9562 56.4307 45.9562 56.2704C45.9562 55.9498 46.1162 55.2873 46.959 54.7637C51.4608 51.9427 61.2537 53.1823 61.2537 67.6078C61.2537 81.0182 53.573 88.8722 49.3379 89.6308C37.9554 91.6504 33.187 81.9052 33.187 73.9764C33.187 60.192 39.0115 55.2766 39.3316 55.0522L39.3422 55.0415ZM31.7895 62.3612C31.5228 62.4039 25.1648 63.964 19.8736 65.2249C19.8203 66.7209 19.767 68.2276 19.7136 69.7236C24.0554 68.4734 28.9839 67.3834 31.5228 66.9346C31.5228 67.2552 31.0961 68.1314 31.0961 68.1314L30.9361 69.4351L29.2932 70.6318L29.9333 70.5677L28.2371 71.9889L28.2905 72.5125L26.381 73.3246L26.0076 74.0299C26.0076 74.0299 24.1514 75.2587 23.362 75.7289C23.1486 75.7716 21.3458 76.5623 19.3403 77.4493C18.9669 83.6362 18.5935 88.4341 18.5935 88.4341L18.2201 88.0707L18.0068 89.4385L17.3667 89.7056L16.6733 91.8534L15.1372 93.0823L14.2411 94.5142L13.761 94.3325L13.3343 95.7964C13.3343 95.7964 12.9076 96.5124 12.6943 96.5444C12.3742 94.9523 12.2142 77.7912 11.5848 66.8812L10.9448 66.8384L11.3181 66.1332L10.3154 65.9943L8.88589 65.9302L9.36594 65.3104L8.57653 64.7548L9.41928 63.8572L7.34974 64.1671C7.34974 64.1671 6.92303 63.6007 6.92303 63.2801C7.34974 63.1519 8.93923 62.607 11.2115 61.8269C11.1048 60.566 10.9448 59.5829 10.7847 58.867C10.7314 58.664 10.9981 58.1404 11.5315 57.8839C13.281 57.0398 17.3027 55.5865 19.0522 59.2089C25.5702 56.9863 32.6109 54.518 34.3604 53.6204C35.4698 54.379 38.0194 61.2178 31.7682 62.3291L31.7895 62.3612ZM189 104.291C189 104.772 187.709 106.194 187.709 106.194L187.368 107.07L184.775 108.662L186.685 108.608C186.685 108.608 184.775 109.624 183.687 110.671C182.524 111.729 182.194 112.733 181.308 113.203C180.626 113.299 166.192 118.525 152.505 127.169C150.393 128.494 146.51 120.01 149.913 117.745C150.255 117.488 150.735 117.221 151.343 116.933C151.343 105.157 151.684 84.3735 150.457 80.1313C150.457 80.1313 153.113 78.6674 155.834 78.5605C163.056 76.6051 178.641 74.7992 183.068 74.2543C182.93 74.7565 183.004 76.0494 183.004 76.0494C183.004 76.0494 181.778 76.7654 180.892 77.8553C180.69 78.0904 179.324 79.2444 179.324 79.2444L180.69 79.1269L178.439 80.6122L178.375 81.4457C178.375 81.4457 175.654 82.9951 175.238 83.1874C174.897 83.2302 167.952 85.3673 161.957 87.1518C161.957 87.7074 161.893 88.2631 161.893 88.8187C161.829 90.6139 161.69 92.2915 161.552 93.9585C167.547 92.377 174.961 90.9345 178.641 90.4964C178.641 90.9131 178.097 92.0137 178.097 92.0137L177.82 93.702L175.708 95.166L176.593 95.1125L174.342 96.865L174.406 97.5489L171.953 98.5106L171.473 99.4082C171.473 99.4082 169.019 100.915 168.07 101.396C167.664 101.449 163.92 103.073 160.517 104.366C160.175 108.063 159.77 110.949 159.493 112.701C168.688 108.405 181.148 103.864 188.978 104.291H189ZM126.647 91.9496C126.711 92.6335 126.711 93.4563 126.711 94.3539C126.647 98.7029 126.433 103.351 126.167 107.657C134.402 106.45 144.963 100.658 145.294 96.0636C145.571 92.1633 138.755 89.8018 126.636 91.9603L126.647 91.9496ZM141.486 111.462C144.078 115.853 145.23 121.549 144.281 125.887C144.686 119.422 141.902 115.33 141.902 115.33C141.902 115.33 144.494 123.793 143.609 126.806C143.47 126.688 143.267 126.443 143.267 126.443C143.267 126.443 142.446 127.928 142.04 128.056C141.635 128.184 140.27 128.719 140.27 128.719L139.661 128.11C138.296 122.927 135.17 118.535 132.173 115.095C129.719 115.778 127.543 116.142 126.113 116.345C125.975 116.366 125.836 116.388 125.708 116.398C125.431 120.705 125.228 123.558 125.228 123.558C125.228 123.558 124.748 124.455 124.065 125.641C123.66 126.314 122.7 128.58 122.7 128.58C122.7 128.58 121.878 128.965 121.409 129.659C121.27 129.883 120.865 131.112 120.865 131.112H120.321L119.499 132.544C119.499 132.544 119.019 132.266 118.891 132.352C118.55 132.534 118.347 133.324 118.07 133.356C117.867 132.213 117.665 124.252 117.387 115.063C115.275 114.047 113.44 112.167 112.48 109.057C112.416 108.79 112 107.198 112.203 106.268C112.544 108.085 113.568 110.489 114.24 111.013C112.95 108.576 112.533 106.087 112.875 104.516C113.216 105.499 114.784 106.525 117.163 107.166C116.961 102.646 116.758 98.2007 116.555 94.5035C115.19 94.8988 113.835 95.3583 112.405 95.9033C110.229 95.3797 108.117 89.8125 110.496 87.28C112.875 84.6834 150.799 70.6318 150.596 97.2497C150.532 104.153 146.446 108.566 141.475 111.462H141.486ZM89.4058 136.252C94.9851 133.688 102.41 130.738 109.493 130.728L110.101 130.984C110.101 130.984 110.645 128.633 110.848 128.12C110.987 127.618 109.899 126.325 109.899 126.325L110.443 126.111L109.557 125.128C109.557 125.128 109.963 125.214 109.899 125.15C107.861 121.784 92.3288 122.542 85.4588 127.554C83.5493 132.16 84.8507 138.389 89.4058 136.241V136.252ZM86.6856 89.2355C89.4805 87.5365 94.857 90.0369 94.5157 91.5329C89.9499 111.237 96.1478 113.214 96.8946 113.182C98.1854 113.139 103.157 109.495 103.157 101.503C103.157 91.9282 101.044 89.5988 101.044 89.5988L100.767 89.5667C100.767 89.5667 101.45 89.2675 101.311 89.0111C101.247 88.947 100.906 88.7226 100.906 88.5836C100.906 88.3806 101.044 87.8784 101.727 87.5044C105.194 85.5062 111.189 88.8187 111.051 100.819C110.912 111.034 105.877 120.341 97.9827 121.292C89.1285 122.372 84.0933 112.669 83.9546 105.317C83.7519 95.775 85.9282 89.6843 86.6749 89.2355H86.6856ZM95.1237 88.5195C94.8464 91.1054 92.6702 96.0208 86.7496 98.767C83.2719 99.3868 80.0716 100.028 77.2126 100.562C76.8073 114.528 74.8977 130.642 74.8977 130.642L73.4043 134.222H72.8602L71.7721 136.861C71.7721 136.861 71.4307 136.359 70.9507 137.043C70.748 137.278 70.3426 138.571 70.3426 138.571L69.7986 138.646L68.9132 140.142L68.3051 138.507C68.3051 138.507 67.697 140.932 67.4197 141.039C67.0783 138.956 67.1423 116.965 66.5342 102.592C60.411 103.779 56.9333 104.473 55.7812 104.698C50.0633 105.627 49.9246 94.3432 53.605 93.2853C57.008 92.3343 61.1577 91.6184 65.7875 90.9879C65.9902 90.7528 66.1929 90.5177 66.5342 90.3361C68.2411 89.6201 71.3667 88.7012 73.8203 90.0903C80.5623 89.4385 87.8484 88.979 95.1344 88.5302L95.1237 88.5195ZM36.9633 144.063C42.5425 141.499 49.9673 138.549 57.0506 138.539L57.6587 138.795C57.6587 138.795 58.2028 136.444 58.4054 135.932C58.5441 135.429 57.456 134.136 57.456 134.136L58.0001 133.923L57.1147 132.94C57.1147 132.94 57.52 133.025 57.456 132.961C55.4185 129.595 39.8863 130.354 33.0163 135.365C31.1068 139.971 32.4082 146.19 36.9633 144.053V144.063ZM34.2431 97.0466C37.038 95.3476 42.4145 97.8481 42.0732 99.344C37.5074 119.048 43.7053 121.025 44.4521 120.993C45.7429 120.95 50.714 117.307 50.714 109.314C50.714 99.7394 48.6018 97.41 48.6018 97.41L48.3245 97.3779C48.3245 97.3779 49.0072 97.0787 48.8685 96.8222C48.8045 96.7581 48.4631 96.5337 48.4631 96.3948C48.4631 96.1918 48.6018 95.6896 49.2845 95.3156C52.7622 93.3174 58.7468 96.6299 58.6081 108.63C58.4695 118.845 53.4343 128.152 45.5402 129.103C36.686 130.183 31.6508 120.48 31.5121 113.128C31.3094 103.586 33.4857 97.4954 34.2324 97.0466H34.2431ZM31.9282 105.734C31.5868 105.777 23.4153 107.454 16.6093 108.811C16.5453 110.746 16.4706 112.69 16.4066 114.624C21.9859 113.235 28.3225 112.081 31.5868 111.632C31.5868 112.049 31.0427 113.15 31.0427 113.15L30.8401 114.827L28.7279 116.291L29.5493 116.249L27.3731 118.001L27.4371 118.685L24.9835 119.647L24.5034 120.544C24.5034 120.544 22.1245 122.04 21.1004 122.596C20.8231 122.639 18.5082 123.568 15.9266 124.615C15.4465 132.598 14.9772 138.795 14.9772 138.795L14.4971 138.314L14.2198 140.078L13.3983 140.398L12.5129 143.134L10.5394 144.651L9.38728 146.468L8.77921 146.211L8.23516 148.081C8.23516 148.081 7.69111 148.979 7.41375 149.021C7.00837 146.938 6.80569 124.722 5.98427 110.575L5.16286 110.478L5.64291 109.581L4.35211 109.346L2.51726 109.185L3.12532 108.416L2.10122 107.657L3.18933 106.546L0.533067 106.845C0.533067 106.845 -0.0109863 106.097 -0.0109863 105.681C0.533067 105.542 2.58127 104.911 5.50422 104.024C5.36554 102.389 5.16286 101.107 4.96017 100.178C4.89617 99.9104 5.23753 99.2479 5.9096 98.9487C8.16049 97.9549 13.3343 96.2666 15.5746 101.054C23.9487 98.5213 33.0056 95.6896 35.2458 94.621C36.6753 95.6682 39.9396 104.655 31.9068 105.755L31.9282 105.734ZM40.537 30.9562C39.8543 31.2661 39.0435 31.5973 38.2648 31.9286C38.0408 32.0034 34.5844 32.6125 34.3604 32.73C34.083 32.8155 37.3154 32.4522 37.0807 32.527C35.5339 33.1788 34.083 33.7238 33.1336 34.1726C30.9147 34.4825 27.1384 35.4335 27.053 35.4976C26.6476 35.5938 26.2316 35.7006 25.8689 35.7968C25.7302 36.9081 25.6449 38.1476 25.5489 39.4299C30.36 38.3293 35.3525 37.592 39.6623 37.8805C39.9396 38.1049 38.9369 38.4148 37.486 38.746C37.262 38.8208 38.4355 39.0132 38.2115 39.1307C37.5714 39.3978 36.0779 39.9535 35.3525 40.2313C35.1712 40.3489 34.3071 40.9472 34.1257 41.0114C33.9017 41.1289 36.5366 40.5091 36.3019 40.6267C34.9365 41.2144 31.6295 41.9731 30.8081 42.3471C28.8132 42.6249 25.4529 43.5652 25.3569 43.5759V46.6854C25.3569 46.8564 23.5007 55.0522 22.0392 54.1546C21.3991 51.6542 21.1324 48.3203 21.0364 44.8261C19.8523 45.2108 18.7642 45.5741 17.7188 45.9802V48.3951C17.7188 48.6195 15.8626 55.5758 14.4011 54.6782C13.8997 52.6907 13.633 50.2223 13.4943 47.6151C9.58996 49.25 7.18972 50.4574 6.22963 50.3292C3.41335 49.9766 4.59747 46.6534 4.59747 46.6534C4.73615 46.5038 8.27783 44.8795 13.3983 43.0309C13.3983 41.9837 13.441 40.9259 13.4943 39.9107C9.22726 41.5991 6.59233 42.8386 5.50422 42.7211C2.36792 42.3684 3.69071 38.8956 3.69071 38.8956C3.82939 38.746 7.91513 36.9508 13.7717 34.9633C14.0917 30.2296 14.5931 26.6499 14.7211 26.5003C14.7211 26.5003 17.9001 24.3525 19.1696 27.0667C19.5323 27.8467 19.1696 30.0052 18.7109 33.3925C19.5749 33.1468 20.5244 32.8369 21.4845 32.5697C21.8045 28.1459 22.2525 24.9188 22.3486 24.7372C22.3486 24.7372 25.5702 22.5787 26.797 25.3463C27.1597 26.0836 26.797 28.1566 26.3916 31.3195C32.0242 30.0159 37.9661 29.1503 43.0973 29.4068C43.3746 29.6312 41.0064 30.1334 39.3742 30.486C39.0969 30.5715 40.7824 30.86 40.505 30.9455L40.537 30.9562Z" fill="#3E2670"/>
</g>
<defs>
<clipPath id="clip0_2_401">
<rect width="189" height="149" fill="white"/>
</clipPath>
</defs>
</svg>
