<svg width="592" height="522" viewBox="0 0 592 522" fill="none" xmlns="http://www.w3.org/2000/svg">
<path d="M66.7224 155.238C55.1616 179.539 39.6784 235.869 46.1863 294.253C54.5325 369.152 96.4403 428.283 137.247 461.54C272.683 571.898 519.294 500.351 552.384 396.707C558.39 377.901 556.739 359.754 554.733 337.429C548.314 266.403 526.529 245.857 513.494 168.087C502.66 103.519 495.11 84.6643 482.999 62.5258C445.132 -6.62267 305.95 -6.02301 220.62 25.5234C187.845 37.6445 107.952 68.6011 66.7322 155.238H66.7224Z" fill="#D7CDEB"/>
<path d="M417.191 208.908V80.058C417.191 76.3112 414.165 73.2734 410.425 73.2734H150.856C147.121 73.2734 144.09 76.3112 144.09 80.058V259.14C144.09 262.887 147.116 265.925 150.856 265.925H389.778L417.191 208.908Z" fill="white"/>
<path d="M389.77 266.371H150.847C146.876 266.371 143.648 263.132 143.648 259.148V80.066C143.648 76.0828 146.88 72.8438 150.847 72.8438H410.421C414.393 72.8438 417.62 76.0828 417.62 80.066V208.916C417.62 209.157 417.423 209.354 417.183 209.354C416.942 209.354 416.746 209.157 416.746 208.916V80.066C416.746 76.5643 413.907 73.7192 410.421 73.7192H150.847C147.357 73.7192 144.523 76.5687 144.523 80.066V259.148C144.523 262.65 147.362 265.495 150.847 265.495H389.77C390.01 265.495 390.207 265.692 390.207 265.933C390.207 266.174 390.01 266.371 389.77 266.371Z" fill="black"/>
<path d="M267.703 90.6875H161.812V123.337H267.703V90.6875Z" fill="white"/>
<path d="M267.699 123.782H161.808C161.568 123.782 161.371 123.585 161.371 123.345V90.6955C161.371 90.4548 161.568 90.2578 161.808 90.2578H267.699C267.939 90.2578 268.136 90.4548 268.136 90.6955V123.345C268.136 123.585 267.939 123.782 267.699 123.782ZM162.246 122.907H267.262V91.1332H162.246V122.907Z" fill="black"/>
<path d="M399.469 90.6875H283.812V164.679H399.469V90.6875Z" fill="#D16CD6"/>
<path d="M399.469 174.211H283.812V248.202H399.469V174.211Z" fill="#D7CDEB"/>
<path d="M267.703 132.445H161.812V150.26H267.703V132.445Z" fill="#D7CDEB"/>
<path d="M267.703 163.516H161.812V248.515H267.703V163.516Z" fill="white"/>
<path d="M267.699 248.961H161.808C161.568 248.961 161.371 248.764 161.371 248.523V163.524C161.371 163.283 161.568 163.086 161.808 163.086H267.699C267.939 163.086 268.136 163.283 268.136 163.524V248.523C268.136 248.764 267.939 248.961 267.699 248.961ZM162.246 248.086H267.262V163.961H162.246V248.086Z" fill="black"/>
<path d="M473.647 422.382H441.008C440.767 422.382 440.57 422.185 440.57 421.944C440.57 421.703 440.767 421.506 441.008 421.506H473.21V345.453C473.21 345.213 473.406 345.016 473.647 345.016H513.266C513.507 345.016 513.703 345.213 513.703 345.453C513.703 345.694 513.507 345.891 513.266 345.891H474.084V421.944C474.084 422.185 473.887 422.382 473.647 422.382Z" fill="black"/>
<path d="M513.257 352.722C517.268 352.722 520.521 349.464 520.521 345.447C520.521 341.429 517.268 338.172 513.257 338.172C509.245 338.172 505.992 341.429 505.992 345.447C505.992 349.464 509.245 352.722 513.257 352.722Z" fill="#D7CDEB"/>
<path d="M448.3 421.831C448.31 417.813 445.066 414.548 441.054 414.538C437.042 414.529 433.781 417.778 433.772 421.796C433.762 425.813 437.006 429.078 441.018 429.088C445.03 429.098 448.291 425.849 448.3 421.831Z" fill="#D7CDEB"/>
<path d="M498.411 354.399H481.543C481.302 354.399 481.105 354.202 481.105 353.961C481.105 353.72 481.302 353.523 481.543 353.523H498.411C498.652 353.523 498.849 353.72 498.849 353.961C498.849 354.202 498.652 354.399 498.411 354.399Z" fill="black"/>
<path d="M493.281 361.797H481.543C481.302 361.797 481.105 361.6 481.105 361.36C481.105 361.119 481.302 360.922 481.543 360.922H493.281C493.522 360.922 493.719 361.119 493.719 361.36C493.719 361.6 493.522 361.797 493.281 361.797Z" fill="black"/>
<path d="M561.925 192.273H396.04C392.583 192.273 389.781 195.078 389.781 198.537V303.37C389.781 306.829 392.583 309.634 396.04 309.634H561.925C565.382 309.634 568.184 306.829 568.184 303.37V198.537C568.184 195.078 565.382 192.273 561.925 192.273Z" fill="white"/>
<path d="M561.926 310.076H396.036C392.344 310.076 389.34 307.069 389.34 303.374V198.537C389.34 194.843 392.344 191.836 396.036 191.836H561.926C565.617 191.836 568.622 194.843 568.622 198.537V303.374C568.622 307.069 565.617 310.076 561.926 310.076ZM396.036 192.716C392.825 192.716 390.215 195.329 390.215 198.542V303.379C390.215 306.592 392.825 309.205 396.036 309.205H561.926C565.136 309.205 567.747 306.592 567.747 303.379V198.542C567.747 195.329 565.136 192.716 561.926 192.716H396.036Z" fill="black"/>
<path d="M440.818 299.552H536.711C552.049 299.552 559.79 290.982 558.351 281.461C555.075 259.817 547.216 225.417 528.996 220.54C498.076 212.259 409.574 218.842 409.574 218.842L400.455 198.125C384.129 202.555 371.066 212.079 374.591 224.812C380.005 244.356 387.414 257.107 400.381 258.762C411.748 260.215 421.063 260.307 421.063 260.307L411.367 299.548H440.818V299.552Z" fill="white"/>
<path d="M411.363 300C411.328 300 411.293 300 411.258 299.987C411.022 299.93 410.882 299.694 410.939 299.458L420.504 260.75C418.334 260.702 410.025 260.448 400.32 259.21C388.376 257.682 380.307 247.116 374.167 224.941C373.03 220.831 373.519 216.869 375.627 213.166C379.371 206.592 388.376 200.959 400.338 197.711C400.543 197.654 400.766 197.759 400.854 197.956L409.846 218.388C415.627 217.973 499.384 212.164 529.101 220.126C546.674 224.832 554.935 256.049 558.775 281.406C559.418 285.661 558.251 289.78 555.486 292.997C551.607 297.51 544.938 299.996 536.707 299.996H440.814C440.574 299.996 440.377 299.799 440.377 299.558C440.377 299.317 440.574 299.12 440.814 299.12H536.707C544.68 299.12 551.113 296.744 554.826 292.423C557.424 289.403 558.517 285.534 557.914 281.533C555.701 266.927 552.657 254.596 548.865 244.879C543.494 231.126 536.772 223.081 528.878 220.966C498.386 212.799 410.488 219.216 409.605 219.281C409.408 219.294 409.246 219.189 409.172 219.023L400.206 198.652C388.652 201.851 379.983 207.284 376.393 213.595C374.403 217.088 373.939 220.826 375.015 224.705C381.051 246.49 388.892 256.863 400.438 258.339C411.643 259.77 420.976 259.879 421.068 259.884C421.203 259.884 421.326 259.949 421.409 260.054C421.492 260.159 421.518 260.3 421.488 260.426L411.792 299.668C411.744 299.869 411.564 300 411.367 300H411.363Z" fill="black"/>
<path d="M407.654 223.301C407.592 223.301 407.527 223.288 407.465 223.257C407.247 223.152 407.155 222.894 407.256 222.675L409.18 218.587C409.285 218.368 409.543 218.276 409.762 218.377C409.98 218.482 410.072 218.74 409.971 218.959L408.047 223.047C407.973 223.205 407.815 223.297 407.649 223.297L407.654 223.301Z" fill="black"/>
<path d="M421.476 259.18C421.436 259.18 421.401 259.175 421.362 259.167C421.13 259.105 420.99 258.865 421.051 258.633C421.541 256.799 422.044 254.899 421.843 253.008C421.629 250.995 420.513 249.322 419 248.745C418.773 248.657 418.663 248.408 418.746 248.18C418.834 247.952 419.088 247.843 419.311 247.926C421.126 248.618 422.46 250.579 422.709 252.916C422.928 254.969 422.376 257.035 421.891 258.86C421.839 259.057 421.664 259.184 421.471 259.184L421.476 259.18Z" fill="black"/>
<path d="M524.604 273.111C524.394 273.111 524.211 272.958 524.171 272.748C522.846 264.86 521.158 256.929 519.155 249.181C519.094 248.949 519.234 248.708 519.47 248.647C519.702 248.586 519.942 248.726 520.003 248.962C522.015 256.736 523.708 264.689 525.037 272.603C525.077 272.84 524.915 273.067 524.679 273.107C524.652 273.107 524.631 273.111 524.604 273.111Z" fill="black"/>
<path d="M512.216 276.412C512.08 276.412 512.05 276.395 512.019 276.377C511.809 276.259 511.735 275.992 511.853 275.782C511.94 275.624 512.111 275.546 512.282 275.563C513.016 275.532 522.31 274.119 528.437 273.169C528.678 273.134 528.901 273.296 528.936 273.536C528.975 273.777 528.809 274 528.573 274.035C515.365 276.084 512.806 276.417 512.22 276.417L512.216 276.412Z" fill="black"/>
<path d="M446.609 299.106H493.427L478.146 249.386C477.63 247.705 476.082 246.562 474.328 246.562H435.185C432.837 246.562 431.157 248.839 431.848 251.084L446.604 299.106H446.609Z" fill="#D7CDEB"/>
<path d="M510.391 275.998C510.391 275.998 519.829 288.027 519.002 299.67L458.062 299.46C458.062 299.46 456.422 299.333 455.101 298.479C453.724 297.591 454.148 295.463 455.753 295.122L458.95 294.448C458.95 294.448 451.537 293.371 451.095 290.578C450.653 287.786 452.997 287.913 459.077 289.055C465.16 290.198 475.359 288.613 478.587 287.283C481.819 285.952 483.354 282.809 484.486 278.134C485.619 273.459 485.064 268.378 488.108 268.789C491.152 269.201 491.449 278.134 491.449 278.134L510.391 276.003V275.998Z" fill="white"/>
<path d="M518.999 300.112L458.059 299.902C457.954 299.893 456.261 299.757 454.862 298.851C454.083 298.348 453.703 297.459 453.873 296.54C454.048 295.599 454.73 294.894 455.657 294.702L456.751 294.47C454.407 293.909 450.991 292.741 450.659 290.653C450.506 289.681 450.659 288.985 451.14 288.517C452.167 287.519 454.442 287.742 459.152 288.63C465.214 289.769 475.273 288.175 478.417 286.88C481.177 285.742 482.812 283.177 484.059 278.033C484.378 276.716 484.557 275.385 484.732 274.098C484.955 272.461 485.143 271.047 485.576 270.01C486.101 268.749 486.972 268.194 488.161 268.356C491.153 268.763 491.747 275.617 491.857 277.648L510.335 275.569C510.483 275.552 510.632 275.613 510.728 275.735C511.118 276.23 520.262 288.031 519.431 299.709C519.414 299.937 519.226 300.116 518.994 300.116L518.999 300.112ZM453.445 288.736C452.64 288.736 452.049 288.854 451.748 289.143C451.49 289.397 451.415 289.843 451.52 290.513C451.844 292.539 457.035 293.73 459.008 294.014C459.218 294.045 459.375 294.22 459.384 294.435C459.392 294.645 459.244 294.833 459.038 294.877L455.841 295.551C455.155 295.695 454.818 296.238 454.735 296.693C454.652 297.135 454.77 297.744 455.338 298.111C456.545 298.891 458.08 299.022 458.094 299.022L518.587 299.232C519.108 288.81 511.358 278.025 510.19 276.462L491.494 278.567C491.371 278.581 491.253 278.546 491.157 278.462C491.065 278.384 491.008 278.27 491.008 278.147C490.899 274.838 489.994 269.485 488.047 269.222C487.247 269.113 486.766 269.437 486.386 270.343C485.996 271.275 485.813 272.636 485.598 274.212C485.428 275.46 485.24 276.873 484.907 278.235C483.941 282.222 482.528 286.127 478.749 287.685C475.522 289.016 465.2 290.653 458.99 289.484C456.795 289.073 454.813 288.731 453.445 288.731V288.736Z" fill="black"/>
<path d="M461.471 295.037C460.963 295.037 460.456 295.037 459.944 295.024C459.704 295.024 459.511 294.823 459.516 294.577C459.516 294.337 459.717 294.149 459.953 294.149C459.953 294.149 459.957 294.149 459.962 294.149C464.79 294.227 469.667 293.925 474.451 293.247C474.692 293.212 474.91 293.378 474.945 293.619C474.98 293.86 474.814 294.078 474.574 294.114C470.248 294.726 465.848 295.037 461.471 295.037Z" fill="black"/>
<path d="M400.394 199.449L375.387 140.291C374.639 138.523 372.321 138.112 371.013 139.512C370.37 140.199 370.139 141.176 370.405 142.077L374.613 156.334C365.468 155.843 366.609 163.057 366.609 163.057C361.947 161.188 360.613 168.121 360.613 168.121C356.944 168.695 355.514 172.927 357.897 180.29C360.705 188.97 365.345 185.7 365.345 185.7C366.22 193.5 369.942 208.277 374.591 224.753C381.221 221.61 392.461 214.401 400.394 199.444V199.449Z" fill="white"/>
<path d="M374.59 225.188C374.529 225.188 374.468 225.175 374.411 225.149C374.293 225.096 374.205 224.991 374.171 224.868C368.962 206.423 365.874 193.484 364.986 186.38C364.348 186.656 363.263 186.945 362.03 186.529C360.119 185.89 358.583 183.833 357.481 180.414C355.964 175.726 355.889 172.063 357.263 169.821C357.941 168.723 358.964 168.005 360.245 167.729C360.337 167.348 360.534 166.635 360.871 165.851C360.967 165.628 361.221 165.528 361.444 165.619C361.667 165.716 361.767 165.97 361.676 166.193C361.225 167.248 361.041 168.18 361.041 168.189C361.006 168.368 360.862 168.508 360.678 168.539C359.506 168.723 358.605 169.309 358.011 170.281C356.79 172.268 356.9 175.77 358.312 180.143C359.309 183.229 360.687 185.146 362.297 185.693C363.81 186.205 365.043 185.369 365.096 185.334C365.222 185.247 365.384 185.233 365.524 185.295C365.664 185.36 365.76 185.492 365.778 185.645C366.543 192.491 369.605 205.434 374.87 224.129C381.076 221.1 392.115 214 399.908 199.42L385.673 165.742C385.581 165.519 385.681 165.261 385.905 165.169C386.128 165.072 386.386 165.177 386.477 165.401L400.796 199.271C400.849 199.394 400.84 199.529 400.779 199.647C392.662 214.954 381.002 222.194 374.778 225.144C374.717 225.171 374.656 225.188 374.59 225.188Z" fill="black"/>
<path d="M382.293 177.202C382.232 177.202 382.171 177.189 382.109 177.163C380.124 176.243 379.411 173.814 378.939 172.203C378.418 170.431 377.675 168.54 376.087 167.984C375.715 167.853 375.304 167.8 374.871 167.743C374.123 167.642 373.354 167.542 372.715 167.034C371.757 166.277 371.491 164.767 372.098 163.532C372.562 162.587 373.441 161.812 374.718 161.239C377.487 159.987 380.828 160.171 383.439 161.72C383.649 161.843 383.714 162.11 383.592 162.32C383.47 162.53 383.203 162.596 382.993 162.473C380.622 161.068 377.587 160.902 375.077 162.035C373.992 162.526 373.253 163.16 372.881 163.917C372.51 164.675 372.549 165.791 373.257 166.351C373.708 166.706 374.329 166.789 374.985 166.876C375.444 166.938 375.921 166.999 376.376 167.161C378.335 167.848 379.197 169.975 379.778 171.963C380.342 173.893 380.977 175.679 382.477 176.375C382.695 176.475 382.792 176.738 382.691 176.957C382.617 177.119 382.459 177.211 382.293 177.211V177.202Z" fill="black"/>
<path d="M375.409 176.271C374.127 176.271 372.841 175.462 371.586 173.855C369.496 171.185 368.03 168.016 367.353 164.689C367.304 164.453 367.458 164.221 367.694 164.173C367.93 164.125 368.162 164.278 368.21 164.514C368.861 167.705 370.27 170.752 372.277 173.317C373.445 174.809 374.582 175.505 375.653 175.387C376.882 175.251 377.722 174.052 377.919 172.936C378.159 171.562 377.656 170.113 377.259 169.145C377.167 168.922 377.272 168.664 377.495 168.572C377.718 168.48 377.971 168.585 378.068 168.808C378.509 169.876 379.06 171.483 378.78 173.085C378.527 174.52 377.403 176.074 375.75 176.254C375.636 176.267 375.527 176.271 375.413 176.271H375.409Z" fill="black"/>
<path d="M368.502 181.194C368.148 181.194 367.794 181.141 367.444 181.019C366.031 180.542 365.165 179.215 364.501 177.985C363.106 175.394 362.047 172.623 361.356 169.761C361.299 169.524 361.444 169.288 361.68 169.231C361.916 169.174 362.152 169.319 362.209 169.555C362.882 172.348 363.91 175.04 365.27 177.57C365.852 178.651 366.6 179.806 367.724 180.187C369.053 180.638 370.492 179.846 371.231 178.83C371.953 177.841 372.307 176.462 372.294 174.733C372.294 174.492 372.487 174.296 372.727 174.291C372.968 174.291 373.165 174.484 373.165 174.724C373.182 176.646 372.771 178.2 371.936 179.347C371.196 180.362 369.88 181.19 368.498 181.19L368.502 181.194Z" fill="black"/>
<path d="M365.868 185.415C365.759 185.415 365.649 185.376 365.562 185.293C365.387 185.122 365.387 184.846 365.553 184.676C366.616 183.581 366.927 181.782 366.292 180.395C366.192 180.176 366.292 179.913 366.507 179.813C366.725 179.712 366.988 179.813 367.088 180.027C367.88 181.756 367.508 183.918 366.183 185.28C366.096 185.367 365.982 185.411 365.868 185.411V185.415Z" fill="black"/>
<path d="M450.422 180.406C449.036 178.322 447.894 175.744 448.686 173.367C449.525 170.859 452.683 169.428 455.119 170.452C454.091 168.666 453.26 166.767 452.644 164.801C459.309 164.609 466.162 165.786 471.865 169.248C477.564 172.711 481.955 178.686 482.48 185.334C482.698 188.101 482.213 191.025 480.564 193.257C478.832 195.603 476.029 196.93 473.203 197.639C469.525 198.558 465.467 198.532 462.117 196.759C459.856 195.559 458.006 193.472 457.21 191.025C457.009 190.403 456.873 189.76 456.82 189.108C456.785 188.635 457.022 187.768 456.842 187.357C456.628 186.866 455.71 186.376 455.307 186.017C454.734 185.505 454.179 184.976 453.645 184.42C452.456 183.181 451.375 181.837 450.426 180.406H450.422Z" fill="black"/>
<path d="M456.573 180.809C456.46 180.809 456.35 180.765 456.263 180.678C454.785 179.185 453.691 177.329 453.097 175.311C453.027 175.079 453.162 174.834 453.394 174.768C453.63 174.698 453.871 174.834 453.936 175.066C454.487 176.944 455.506 178.673 456.884 180.065C457.055 180.236 457.055 180.516 456.884 180.682C456.797 180.765 456.687 180.809 456.578 180.809H456.573Z" fill="black"/>
<path d="M455.052 216.688L459.119 216.281L458.047 203.543C458.047 203.543 461.428 188.018 474.444 199.613L476.722 216.136L480.803 216.373C480.803 216.373 479.106 225.42 468.181 225.399C458.9 225.381 454.89 222.505 455.052 216.692V216.688Z" fill="white"/>
<path d="M468.212 225.838H468.173C462.513 225.825 458.735 224.762 456.622 222.582C455.218 221.133 454.54 219.146 454.61 216.681C454.615 216.463 454.785 216.279 455.004 216.257L458.643 215.894L457.606 203.585C457.606 203.541 457.606 203.497 457.615 203.454C457.676 203.178 459.133 196.717 463.817 195.19C466.887 194.192 470.556 195.57 474.728 199.287C474.807 199.357 474.855 199.449 474.873 199.554L477.103 215.718L480.825 215.933C480.952 215.942 481.066 216.003 481.144 216.099C481.223 216.2 481.254 216.327 481.227 216.449C481.21 216.541 479.338 225.834 468.212 225.834V225.838ZM455.476 217.093C455.485 219.159 456.067 220.761 457.248 221.973C459.185 223.974 462.758 224.95 468.173 224.963H468.212C477.164 224.963 479.697 218.612 480.239 216.782L476.688 216.576C476.478 216.563 476.307 216.406 476.281 216.2L474.024 199.838C470.154 196.424 466.808 195.142 464.088 196.026C460.103 197.321 458.638 202.933 458.481 203.581L459.548 216.252C459.57 216.489 459.395 216.699 459.154 216.725L455.476 217.093Z" fill="black"/>
<path d="M468.667 199.903C466.703 201.588 464.363 202.893 461.822 203.374C459.281 203.856 456.526 203.462 454.374 202.031C450.766 199.636 449.458 194.773 450.097 190.488C450.736 186.203 452.962 182.342 455.175 178.617C455.175 178.617 463.62 185.1 471.378 186.142C472.367 188.663 472.48 191.118 471.907 193.53C471.907 193.53 473.631 191.963 475.214 192.996C476.924 194.112 477.615 196.524 476.788 198.393C475.962 200.262 473.827 201.413 471.794 201.212C470.644 201.098 469.594 200.875 468.667 199.899V199.903Z" fill="white"/>
<path d="M459.744 204.016C457.693 204.016 455.725 203.46 454.133 202.405C450.678 200.111 448.924 195.41 449.663 190.433C450.337 185.899 452.812 181.745 454.798 178.401C454.863 178.291 454.968 178.217 455.091 178.195C455.213 178.173 455.34 178.199 455.44 178.278C455.524 178.344 463.886 184.699 471.439 185.719C471.596 185.741 471.732 185.846 471.789 185.995C472.633 188.153 472.886 190.372 472.541 192.604C473.284 192.228 474.382 191.944 475.458 192.644C477.352 193.883 478.117 196.491 477.194 198.584C476.311 200.593 474.023 201.884 471.758 201.661C470.774 201.565 469.654 201.381 468.657 200.501C466.549 202.234 464.227 203.377 461.913 203.814C461.192 203.95 460.466 204.02 459.753 204.02L459.744 204.016ZM455.301 179.267C453.398 182.467 451.15 186.385 450.529 190.56C449.965 194.364 451.01 199.275 454.618 201.674C456.573 202.974 459.175 203.438 461.743 202.952C464.017 202.519 466.317 201.354 468.386 199.577C468.561 199.424 468.828 199.437 468.989 199.608C469.768 200.431 470.656 200.672 471.841 200.785C473.739 200.974 475.655 199.897 476.394 198.225C477.137 196.544 476.503 194.364 474.981 193.37C473.708 192.539 472.27 193.808 472.208 193.861C472.064 193.988 471.858 194.01 471.692 193.913C471.526 193.817 471.447 193.624 471.491 193.436C472.051 191.077 471.911 188.823 471.071 186.547C464.222 185.522 457.063 180.55 455.309 179.263L455.301 179.267Z" fill="black"/>
<path d="M450.091 188.967C446.566 196.084 447.747 203.442 451.775 206.393C454.648 208.498 458.715 208.179 459.039 208.148C459.865 208.073 463.316 207.763 465.77 205.193C466.679 204.239 467.427 202.51 468.927 199.043C469.811 196.999 470.357 195.445 471.958 193.988C472.693 193.323 473.406 192.894 473.896 192.64C473.156 191.165 472.417 189.694 471.678 188.219C471.648 188.871 471.429 192.548 468.564 194.649C465.708 196.741 461.86 196.067 459.638 194.946C457.381 193.804 457.106 192.355 453.861 190.552C452.356 189.716 451.005 189.243 450.082 188.972L450.091 188.967Z" fill="black"/>
<path d="M470.29 198.036C470.089 198.036 469.91 197.9 469.866 197.694C469.814 197.458 469.958 197.226 470.194 197.169C471.13 196.95 472.022 196.587 472.845 196.088C473.05 195.961 473.321 196.027 473.444 196.237C473.571 196.443 473.505 196.714 473.295 196.837C472.394 197.384 471.414 197.782 470.387 198.023C470.352 198.031 470.321 198.036 470.286 198.036H470.29Z" fill="black"/>
<path d="M421.877 329.648H356.161C354.055 329.648 352.348 331.357 352.348 333.465V399.258C352.348 401.366 354.055 403.075 356.161 403.075H421.877C423.983 403.075 425.691 401.366 425.691 399.258V333.465C425.691 331.357 423.983 329.648 421.877 329.648Z" fill="white"/>
<path d="M421.869 403.516H356.157C353.813 403.516 351.906 401.608 351.906 399.262V333.473C351.906 331.127 353.813 329.219 356.157 329.219H421.869C424.213 329.219 426.12 331.127 426.12 333.473V399.262C426.12 401.608 424.213 403.516 421.869 403.516ZM356.157 330.09C354.294 330.09 352.781 331.609 352.781 333.469V399.257C352.781 401.122 354.294 402.637 356.157 402.637H421.869C423.732 402.637 425.245 401.118 425.245 399.257V333.469C425.245 331.604 423.732 330.09 421.869 330.09H356.157Z" fill="black"/>
<path d="M413.682 343.391H364.371V353.265H384.095V390.23H393.958V353.265H413.682V343.391Z" fill="white"/>
<path d="M393.954 390.673H384.091C383.851 390.673 383.654 390.476 383.654 390.235V353.703H364.367C364.126 353.703 363.93 353.506 363.93 353.266V343.391C363.93 343.15 364.126 342.953 364.367 342.953H413.678C413.918 342.953 414.115 343.15 414.115 343.391V353.266C414.115 353.506 413.918 353.703 413.678 353.703H394.391V390.235C394.391 390.476 394.194 390.673 393.954 390.673ZM384.529 389.797H393.516V353.266C393.516 353.025 393.713 352.828 393.954 352.828H413.241V343.829H364.804V352.828H384.091C384.332 352.828 384.529 353.025 384.529 353.266V389.797Z" fill="black"/>
<path d="M345.025 367.528H319.234C318.994 367.528 318.797 367.331 318.797 367.09V242.258C318.797 242.017 318.994 241.82 319.234 241.82C319.475 241.82 319.672 242.017 319.672 242.258V366.652H345.025C345.265 366.652 345.462 366.849 345.462 367.09C345.462 367.331 345.265 367.528 345.025 367.528Z" fill="black"/>
<path d="M261.989 297.948H193.955C193.553 297.948 193.15 297.843 192.818 297.615C192.04 297.081 191.768 296.122 192.079 295.3C192.879 293.614 194.541 293.023 196.99 293.023H266.454L265.553 295.475C264.998 296.963 263.576 297.948 261.989 297.948Z" fill="#7859BC"/>
<path d="M264.633 297.938L277.513 265.591C277.832 264.79 277.731 263.879 277.25 263.166C276.765 262.452 275.96 262.023 275.094 262.023H233.279C230.76 262.023 228.512 263.612 227.673 265.989L216.367 297.942H264.633V297.938Z" fill="#7859BC"/>
<path d="M253.044 274.895C253.916 274.895 254.623 274.187 254.623 273.315C254.623 272.442 253.916 271.734 253.044 271.734C252.172 271.734 251.465 272.442 251.465 273.315C251.465 274.187 252.172 274.895 253.044 274.895Z" fill="#D16CD6"/>
<path d="M96.7417 371.092C127.434 371.092 152.315 346.19 152.315 315.472C152.315 284.754 127.434 259.852 96.7417 259.852C66.0492 259.852 41.168 284.754 41.168 315.472C41.168 346.19 66.0492 371.092 96.7417 371.092Z" fill="white"/>
<path d="M96.7376 371.538C65.8522 371.538 40.7266 346.391 40.7266 315.48C40.7266 284.569 65.8522 259.422 96.7376 259.422C127.623 259.422 152.749 284.569 152.749 315.48C152.749 346.391 127.623 371.538 96.7376 371.538ZM96.7376 260.293C66.3332 260.293 41.6013 285.05 41.6013 315.476C41.6013 345.901 66.3376 370.658 96.7376 370.658C127.138 370.658 151.874 345.901 151.874 315.476C151.874 285.05 127.138 260.293 96.7376 260.293Z" fill="black"/>
<path d="M98.1555 357.681C98.1555 357.681 98.1336 357.681 98.1249 357.681C72.1771 355.799 66.0717 342.786 65.8224 342.234C65.7262 342.015 65.8224 341.757 66.0411 341.656C66.2598 341.556 66.5178 341.656 66.6184 341.875C66.6752 342.007 72.8068 354.967 98.1861 356.81C98.4266 356.828 98.6059 357.038 98.5885 357.278C98.571 357.51 98.3785 357.685 98.1511 357.685L98.1555 357.681Z" fill="black"/>
<path d="M29.9001 427.401C29.8389 427.401 29.7776 427.388 29.7208 427.361C29.5021 427.261 29.4059 427.003 29.5021 426.784L60.7331 357.992C60.8336 357.774 61.0917 357.673 61.3104 357.774C61.529 357.874 61.6252 358.132 61.529 358.351L30.2981 427.143C30.2237 427.305 30.0663 427.401 29.9001 427.401Z" fill="black"/>
<path d="M27.9974 436.126C30.205 436.126 31.9947 434.335 31.9947 432.126C31.9947 429.916 30.205 428.125 27.9974 428.125C25.7897 428.125 24 429.916 24 432.126C24 434.335 25.7897 436.126 27.9974 436.126Z" fill="black"/>
<path d="M163.574 427.401C163.408 427.401 163.251 427.305 163.176 427.143L131.945 358.351C131.845 358.132 131.945 357.87 132.164 357.774C132.387 357.673 132.645 357.774 132.741 357.992L163.972 426.784C164.073 427.003 163.972 427.265 163.754 427.361C163.697 427.388 163.631 427.401 163.574 427.401Z" fill="black"/>
<path d="M165.474 436.142C167.682 436.142 169.471 434.351 169.471 432.141C169.471 429.932 167.682 428.141 165.474 428.141C163.266 428.141 161.477 429.932 161.477 432.141C161.477 434.351 163.266 436.142 165.474 436.142Z" fill="black"/>
<path d="M165.478 436.369C163.155 436.369 161.262 434.478 161.262 432.149C161.262 429.821 163.151 427.93 165.478 427.93C167.804 427.93 169.694 429.821 169.694 432.149C169.694 434.478 167.804 436.369 165.478 436.369ZM165.478 428.367C163.396 428.367 161.699 430.066 161.699 432.149C161.699 434.233 163.392 435.931 165.478 435.931C167.564 435.931 169.256 434.233 169.256 432.149C169.256 430.066 167.56 428.367 165.478 428.367Z" fill="#D7CDEB"/>
<path d="M319.76 427.396C319.594 427.396 319.436 427.3 319.362 427.142L262.852 304.263C262.752 304.044 262.848 303.781 263.067 303.681C263.285 303.58 263.548 303.676 263.648 303.895L320.158 426.775C320.259 426.994 320.162 427.256 319.944 427.357C319.882 427.383 319.821 427.396 319.76 427.396Z" fill="black"/>
<path d="M321.658 436.126C323.865 436.126 325.655 434.335 325.655 432.126C325.655 429.916 323.865 428.125 321.658 428.125C319.45 428.125 317.66 429.916 317.66 432.126C317.66 434.335 319.45 436.126 321.658 436.126Z" fill="black"/>
<path d="M274.475 298.078H157.664V303.545H274.475V298.078Z" fill="white"/>
<path d="M274.471 303.991H157.66C157.419 303.991 157.223 303.794 157.223 303.553V298.086C157.223 297.845 157.419 297.648 157.66 297.648H274.471C274.712 297.648 274.908 297.845 274.908 298.086V303.553C274.908 303.794 274.712 303.991 274.471 303.991ZM158.097 303.115H274.034V298.524H158.097V303.115Z" fill="black"/>
<path d="M172.644 194.526C169.412 190.171 163.639 190.294 158.807 191.13C153.165 192.101 147.825 194.255 142.257 195.52C139.62 196.12 136.935 196.492 134.223 196.448C131.774 196.409 129.338 196.041 126.959 195.467C122.1 194.294 117.504 192.263 112.968 190.197C108.411 188.123 103.867 185.969 99.0869 184.45C94.0486 182.848 88.8354 182.135 83.561 182.699C72.8067 183.851 61.943 189.628 56.0738 198.899C50.4364 207.802 49.5486 219.056 53.6946 228.734C55.7151 233.448 58.8378 237.637 62.7696 240.924C67.0424 244.5 72.1157 247.087 77.2764 249.114C87.624 253.18 98.9294 254.73 109.99 253.688C120.416 252.707 130.515 249.381 139.48 243.966C147.974 238.836 155.391 231.947 161.09 223.818C162.279 222.12 163.386 220.365 164.418 218.566C168.371 215.274 172.377 211.427 174.096 206.454C175.426 202.602 175.124 197.866 172.644 194.526Z" fill="black"/>
<path d="M132.67 230.126L141.574 218.75C142.2 217.949 146.971 216.277 147.715 216.969L152.211 226.042C152.849 226.633 152.95 227.605 152.451 228.318L145.904 237.668C144.789 239.261 142.891 240.11 140.967 239.87C138.517 239.568 135.211 238.355 132.526 234.486C131.607 233.164 131.677 231.391 132.67 230.126Z" fill="white"/>
<path d="M131.634 231.715C131.538 231.715 131.442 231.685 131.359 231.619C131.171 231.466 131.14 231.19 131.293 231.002L142.069 217.617C142.222 217.428 142.493 217.398 142.686 217.551C142.874 217.704 142.905 217.98 142.751 218.168L131.975 231.553C131.888 231.663 131.761 231.715 131.634 231.715Z" fill="black"/>
<path d="M145.014 239.278C144.926 239.278 144.834 239.252 144.756 239.195C144.559 239.055 144.515 238.779 144.659 238.582L153.052 227.017C153.192 226.82 153.468 226.777 153.664 226.921C153.861 227.061 153.905 227.337 153.761 227.534L145.368 239.098C145.28 239.217 145.149 239.278 145.014 239.278Z" fill="black"/>
<path d="M147.048 213.2C147.048 213.2 146.637 211.305 144.77 211.226C142.933 211.148 141.267 212.789 141.013 214.61C140.759 216.431 141.853 218.322 143.502 219.131C144.433 219.587 145.347 219.919 146.515 219.609C147.219 221.828 148.391 223.938 150.11 225.509C151.829 227.085 154.12 228.087 156.447 228.013C160.339 227.89 163.641 224.791 165.181 221.206C166.72 217.626 166.847 213.616 166.913 209.716C166.913 209.716 161.323 214.045 153.429 208.469C152.187 212.137 150.215 214.08 147.048 213.2Z" fill="white"/>
<path d="M156.202 228.459C153.954 228.459 151.636 227.513 149.808 225.837C148.247 224.406 147.014 222.44 146.218 220.125C145.041 220.313 144.101 219.923 143.305 219.534C141.446 218.623 140.3 216.531 140.576 214.557C140.873 212.434 142.789 210.714 144.788 210.797C146.344 210.863 147.127 212.049 147.399 212.846C149.979 213.454 151.768 212.014 153.01 208.337C153.053 208.206 153.158 208.105 153.29 208.061C153.421 208.018 153.565 208.039 153.679 208.118C161.223 213.445 166.589 209.418 166.642 209.379C166.773 209.274 166.957 209.256 167.105 209.335C167.254 209.409 167.35 209.567 167.346 209.733C167.285 213.235 167.21 217.595 165.579 221.39C163.782 225.565 160.204 228.341 156.456 228.459C156.373 228.459 156.285 228.459 156.202 228.459ZM146.511 219.175C146.694 219.175 146.869 219.293 146.926 219.481C147.67 221.814 148.868 223.788 150.399 225.193C152.126 226.778 154.317 227.649 156.425 227.583C160.3 227.461 163.41 224.209 164.774 221.044C166.218 217.687 166.392 213.791 166.454 210.517C164.691 211.467 159.85 213.292 153.644 209.16C152.209 212.968 149.953 214.469 146.926 213.629C146.769 213.585 146.651 213.458 146.616 213.301C146.598 213.231 146.24 211.734 144.748 211.668C143.217 211.602 141.674 213.007 141.442 214.675C141.219 216.286 142.163 217.997 143.69 218.746C144.665 219.223 145.422 219.451 146.397 219.192C146.432 219.184 146.471 219.179 146.511 219.179V219.175Z" fill="black"/>
<path d="M146.092 217.514C145.908 217.514 145.742 217.4 145.677 217.216C145.353 216.271 144.671 215.452 143.8 214.966C143.591 214.848 143.516 214.581 143.634 214.371C143.752 214.161 144.019 214.086 144.229 214.205C145.283 214.796 146.114 215.793 146.508 216.936C146.586 217.164 146.464 217.413 146.236 217.492C146.188 217.509 146.14 217.514 146.097 217.514H146.092Z" fill="black"/>
<path d="M166.694 210.319C166.532 210.319 166.379 210.231 166.3 210.074C166.191 209.859 166.283 209.596 166.497 209.487C167.542 208.971 168.443 208.187 169.104 207.228C169.239 207.031 169.51 206.979 169.712 207.115C169.913 207.25 169.961 207.526 169.825 207.723C169.082 208.804 168.063 209.688 166.891 210.271C166.829 210.301 166.764 210.314 166.698 210.314L166.694 210.319Z" fill="black"/>
<path d="M134.15 373.426L105.535 424.884C102.731 429.931 106.374 436.133 112.143 436.133H194.133C195.908 436.133 196.73 433.919 195.379 432.763L172.217 412.895L196.057 370.406L134.155 373.422L134.15 373.426Z" fill="white"/>
<path d="M194.129 436.58H112.14C109.275 436.58 106.695 435.105 105.243 432.632C103.791 430.159 103.756 427.187 105.151 424.678L133.767 373.216C133.841 373.085 133.977 372.997 134.13 372.993L196.032 369.977C196.198 369.968 196.342 370.047 196.426 370.183C196.509 370.319 196.513 370.489 196.434 370.629L172.769 412.803L195.66 432.435C196.417 433.083 196.679 434.107 196.334 435.039C195.988 435.971 195.122 436.576 194.129 436.576V436.58ZM134.41 373.86L105.912 425.107C104.67 427.34 104.701 429.988 105.995 432.19C107.29 434.391 109.586 435.704 112.136 435.704H194.125C194.882 435.704 195.337 435.205 195.511 434.737C195.682 434.269 195.665 433.595 195.087 433.1L171.925 413.232C171.768 413.097 171.724 412.869 171.829 412.685L195.28 370.888L134.41 373.855V373.86Z" fill="black"/>
<path d="M133.305 418.133C125.166 418.133 117.867 417.345 111.141 415.743C110.905 415.686 110.76 415.45 110.817 415.218C110.874 414.981 111.106 414.837 111.342 414.894C119.822 416.907 129.238 417.625 140.119 417.083C149.789 416.601 159.538 415.187 168.962 413.817C169.199 413.782 169.422 413.948 169.457 414.189C169.492 414.43 169.325 414.649 169.085 414.684C159.638 416.054 149.868 417.472 140.159 417.958C137.806 418.076 135.523 418.133 133.301 418.133H133.305Z" fill="black"/>
<path d="M175.617 366.258L207.99 427.866C210.649 432.926 215.892 436.095 221.604 436.095H281.477C283.152 436.095 283.9 433.994 282.601 432.935L257.301 412.262L238.783 374.539L175.617 366.262V366.258Z" fill="white"/>
<path d="M281.47 436.533H221.598C215.707 436.533 210.34 433.289 207.598 428.072L175.226 366.463C175.151 366.319 175.16 366.144 175.252 366.008C175.344 365.872 175.501 365.802 175.667 365.824L238.833 374.101C238.978 374.119 239.105 374.211 239.17 374.342L257.644 411.981L282.87 432.593C283.605 433.193 283.876 434.16 283.557 435.058C283.237 435.955 282.419 436.533 281.466 436.533H281.47ZM176.389 366.8L208.368 427.66C210.957 432.593 216.026 435.653 221.593 435.653H281.466C282.166 435.653 282.577 435.193 282.73 434.76C282.883 434.327 282.857 433.709 282.314 433.267L257.014 412.594C256.966 412.555 256.926 412.507 256.9 412.45L238.488 374.937L176.389 366.8Z" fill="black"/>
<path d="M222.023 417.699C215.245 417.699 208.466 417.345 201.704 416.631C201.464 416.605 201.289 416.391 201.315 416.15C201.341 415.909 201.56 415.734 201.796 415.76C219.806 417.66 237.978 417.012 255.804 413.843C256.045 413.799 256.268 413.961 256.311 414.198C256.355 414.434 256.193 414.662 255.957 414.705C244.739 416.701 233.386 417.699 222.023 417.699Z" fill="black"/>
<path d="M123.933 384.067C123.933 384.067 182.655 401.611 241.842 376.206C241.842 376.206 226.504 347.452 213.738 326.105C205.791 312.816 191.455 304.688 175.981 304.688H77.1235L70.489 317.648C63.0847 332.115 72.5358 349.514 88.6957 351.147C109.299 353.23 127.926 354.46 142.642 353.996L123.933 384.067Z" fill="#7859BC"/>
<path d="M185.813 387.985C185.748 387.985 185.678 387.967 185.612 387.937C185.398 387.827 185.315 387.56 185.424 387.346C190.921 376.683 195.264 365.399 198.326 353.804C200.482 345.64 202.45 335.122 198.505 326.18C195.872 320.209 190.637 314.948 182.503 310.102C182.297 309.98 182.227 309.708 182.349 309.503C182.472 309.297 182.743 309.227 182.949 309.35C191.245 314.296 196.594 319.684 199.301 325.83C203.355 335.022 201.357 345.728 199.165 354.031C196.087 365.692 191.722 377.038 186.198 387.753C186.119 387.902 185.966 387.989 185.809 387.989L185.813 387.985Z" fill="black"/>
<path d="M143.133 354.266C142.897 354.266 142.704 354.077 142.696 353.841C142.687 353.6 142.879 353.399 143.12 353.39L155.418 353.031C155.65 353.031 155.86 353.215 155.868 353.456C155.877 353.697 155.685 353.898 155.444 353.907L143.146 354.266C143.146 354.266 143.137 354.266 143.133 354.266Z" fill="black"/>
<path d="M77.1294 304.662H127.494L135.056 289.578C135.056 289.578 144.984 299.803 157.641 298.057C170.297 296.31 184.148 285.385 196.066 285.494C196.066 285.494 199.512 286.23 201.375 289.088C203.238 291.951 205.959 291.522 206.427 289.701C206.895 287.88 203.829 282.706 203.829 282.706C203.829 282.706 205.43 285.048 207.616 288.992C209.304 292.038 211.163 288.782 211.163 288.782C211.163 288.782 214.032 286.886 213.214 282.286C213.214 282.286 214.281 280.859 213.739 278.885C213.197 276.915 207.564 266.012 191.972 268.043C181.765 269.373 171.959 271.82 166.401 273.357C163.361 274.197 160.125 272.998 158.362 270.38C156.884 268.187 155.253 265.316 154.199 262.151C151.365 253.629 147.835 232.688 135.839 232.68C126.799 232.671 118.817 235.061 97.5797 268.043C82.9111 290.821 77.125 304.653 77.125 304.653L77.1294 304.662Z" fill="white"/>
<path d="M77.1235 305.103C77.0667 305.103 77.0098 305.09 76.953 305.068C76.7299 304.976 76.625 304.718 76.7168 304.495C76.7737 304.355 82.6866 290.37 97.2065 267.814C118.431 234.846 126.601 232.25 135.781 232.25H135.833C146.211 232.259 150.384 247.176 153.143 257.042C153.686 258.977 154.149 260.645 154.608 262.023C155.487 264.663 156.869 267.394 158.719 270.147C160.377 272.612 163.412 273.737 166.281 272.944C171.372 271.539 181.475 268.979 191.914 267.622C207.291 265.621 213.37 275.916 214.158 278.783C214.647 280.561 213.952 281.935 213.672 282.395C214.363 286.697 211.993 288.72 211.49 289.096C211.258 289.468 210.392 290.742 209.216 290.742C209.216 290.742 209.211 290.742 209.207 290.742C208.455 290.737 207.79 290.225 207.23 289.214C207.09 288.96 206.95 288.711 206.814 288.47C206.915 288.991 206.937 289.455 206.845 289.818C206.609 290.737 205.87 291.403 204.921 291.56C203.526 291.792 202.061 290.956 201.002 289.337C199.371 286.829 196.388 286.032 196.008 285.94C195.968 285.94 195.929 285.94 195.885 285.94C189.583 285.94 182.537 289.122 175.719 292.204C169.749 294.9 163.574 297.688 157.696 298.503C146.461 300.052 137.254 292.243 135.177 290.313L127.878 304.867C127.768 305.081 127.506 305.169 127.292 305.064C127.077 304.954 126.99 304.692 127.095 304.477L134.657 289.394C134.718 289.267 134.84 289.179 134.98 289.157C135.12 289.135 135.26 289.184 135.361 289.284C135.457 289.385 145.293 299.33 157.574 297.636C163.329 296.844 169.443 294.082 175.36 291.407C182.323 288.26 189.548 285.008 196.064 285.065C196.095 285.065 196.121 285.065 196.152 285.073C196.301 285.104 199.795 285.879 201.737 288.855C202.752 290.414 203.976 290.829 204.781 290.694C205.393 290.593 205.852 290.182 206.001 289.595C206.307 288.396 204.602 284.872 203.451 282.933C203.329 282.732 203.394 282.469 203.591 282.342C203.788 282.215 204.055 282.268 204.186 282.465C204.204 282.487 205.822 284.868 207.995 288.785C208.266 289.275 208.699 289.858 209.211 289.862C209.889 289.862 210.584 288.908 210.777 288.571C210.812 288.509 210.86 288.461 210.917 288.422C211.022 288.352 213.532 286.61 212.78 282.368C212.758 282.25 212.789 282.128 212.859 282.031C212.894 281.979 213.786 280.74 213.313 279.011C212.614 276.464 206.626 266.584 192.028 268.488C181.641 269.841 171.586 272.388 166.517 273.789C163.29 274.678 159.87 273.413 157.998 270.638C156.104 267.823 154.683 265.017 153.782 262.303C153.318 260.907 152.846 259.226 152.304 257.283C149.614 247.666 145.551 233.139 135.837 233.13H135.789C126.885 233.13 118.934 235.695 97.9457 268.296C83.4738 290.777 77.5828 304.701 77.5259 304.841C77.4559 305.007 77.2941 305.108 77.1235 305.108V305.103Z" fill="black"/>
<path d="M211.252 289.034C211.252 289.034 211.239 289.034 211.23 289.034C210.989 289.021 210.801 288.815 210.815 288.575C210.968 285.458 209.778 282.25 207.635 279.987C207.469 279.812 207.478 279.536 207.652 279.369C207.827 279.203 208.107 279.212 208.269 279.387C210.574 281.821 211.851 285.274 211.689 288.623C211.676 288.855 211.484 289.039 211.252 289.039V289.034Z" fill="black"/>
<path d="M213.237 282.894C213.053 282.894 212.883 282.776 212.822 282.592C212.013 280.154 210.596 277.948 208.715 276.202C208.536 276.035 208.527 275.76 208.693 275.585C208.859 275.41 209.135 275.396 209.31 275.563C211.3 277.41 212.8 279.743 213.653 282.321C213.727 282.549 213.605 282.798 213.377 282.873C213.333 282.886 213.285 282.894 213.242 282.894H213.237Z" fill="black"/>
<path d="M183.639 288.702C183.438 288.702 183.254 288.562 183.21 288.356L179.327 270.305C179.274 270.068 179.427 269.836 179.663 269.784C179.904 269.731 180.131 269.884 180.184 270.121L184.068 288.172C184.12 288.409 183.967 288.641 183.731 288.693C183.7 288.702 183.67 288.702 183.639 288.702Z" fill="black"/>
<path d="M133.807 289.263C133.684 289.263 133.562 289.21 133.475 289.11C125.873 280.206 120.708 269.421 118.535 257.918C118.491 257.682 118.644 257.45 118.885 257.406C119.121 257.362 119.353 257.515 119.396 257.756C121.539 269.11 126.639 279.756 134.139 288.541C134.297 288.724 134.275 289 134.091 289.158C134.008 289.228 133.908 289.263 133.807 289.263Z" fill="black"/>
<path d="M490.643 95.6053C487.84 94.9531 485.036 96.6996 484.385 99.5054C484.337 99.7155 484.306 99.9256 484.284 100.131C482.128 100.162 480.024 100.521 478.026 101.169C477.938 100.98 477.842 100.792 477.728 100.608C476.206 98.1616 472.992 97.4131 470.552 98.9363C468.107 100.46 467.359 103.677 468.881 106.124C468.995 106.307 469.121 106.474 469.253 106.64C467.787 108.146 466.541 109.884 465.561 111.805C465.365 111.735 465.163 111.669 464.953 111.621C462.15 110.969 459.347 112.716 458.695 115.521C458.043 118.327 459.788 121.133 462.592 121.785C462.802 121.833 463.007 121.864 463.217 121.886C463.248 124.044 463.606 126.153 464.254 128.149C464.066 128.237 463.878 128.333 463.694 128.447C461.249 129.97 460.501 133.188 462.023 135.634C463.545 138.081 466.76 138.83 469.2 137.306C469.384 137.193 469.55 137.066 469.716 136.934C471.221 138.401 472.953 139.648 474.873 140.629C474.803 140.826 474.737 141.027 474.689 141.237C474.037 144.043 475.782 146.849 478.586 147.501C481.389 148.153 484.192 146.406 484.844 143.601C484.892 143.391 484.923 143.181 484.945 142.975C487.101 142.944 489.204 142.585 491.203 141.937C491.291 142.126 491.387 142.314 491.5 142.498C493.022 144.945 496.237 145.693 498.677 144.17C501.122 142.647 501.87 139.429 500.348 136.983C500.234 136.799 500.107 136.632 499.976 136.466C501.441 134.96 502.688 133.223 503.667 131.301C503.864 131.371 504.065 131.437 504.275 131.485C507.079 132.137 509.882 130.391 510.534 127.585C511.185 124.779 509.44 121.973 506.637 121.321C506.427 121.273 506.222 121.242 506.012 121.22C505.981 119.062 505.622 116.953 504.975 114.957C505.163 114.869 505.351 114.773 505.535 114.659C507.98 113.136 508.728 109.919 507.206 107.472C505.684 105.025 502.469 104.276 500.029 105.8C499.845 105.914 499.679 106.04 499.513 106.172C498.008 104.705 496.276 103.458 494.356 102.477C494.426 102.28 494.492 102.079 494.54 101.869C495.192 99.0633 493.447 96.2575 490.643 95.6053ZM486.803 112.12C492.008 113.333 495.249 118.542 494.037 123.755C492.826 128.968 487.621 132.211 482.417 130.999C477.212 129.786 473.972 124.578 475.183 119.364C476.394 114.151 481.599 110.908 486.803 112.12Z" fill="white"/>
<path d="M479.757 148.095C479.333 148.095 478.904 148.047 478.476 147.946C475.44 147.241 473.547 144.195 474.255 141.157C474.277 141.061 474.303 140.964 474.334 140.864C472.637 139.962 471.076 138.841 469.676 137.524C469.593 137.585 469.51 137.638 469.427 137.69C468.145 138.487 466.628 138.741 465.163 138.399C463.693 138.058 462.447 137.161 461.646 135.878C460.002 133.23 460.811 129.737 463.457 128.087C463.54 128.034 463.628 127.986 463.719 127.934C463.16 126.095 462.845 124.195 462.784 122.274C462.679 122.256 462.582 122.239 462.486 122.217C459.451 121.512 457.557 118.466 458.266 115.428C458.97 112.39 462.014 110.495 465.049 111.2C465.145 111.222 465.241 111.248 465.342 111.279C466.243 109.58 467.363 108.013 468.679 106.612C468.618 106.529 468.561 106.442 468.513 106.359C466.868 103.71 467.677 100.217 470.323 98.5673C471.605 97.7706 473.118 97.5168 474.588 97.8582C476.057 98.1996 477.303 99.0969 478.104 100.379C478.156 100.463 478.204 100.55 478.257 100.642C480.089 100.082 481.987 99.7666 483.907 99.7053C483.925 99.6003 483.947 99.504 483.969 99.4077C484.31 97.937 485.206 96.6851 486.483 95.8885C487.765 95.0918 489.278 94.838 490.748 95.1794C492.217 95.5208 493.463 96.4181 494.264 97.7006C495.06 98.9831 495.313 100.498 494.968 101.973C494.946 102.069 494.92 102.165 494.889 102.266C496.586 103.168 498.147 104.288 499.547 105.606C499.634 105.544 499.718 105.488 499.796 105.439C501.078 104.643 502.595 104.389 504.06 104.73C505.53 105.072 506.781 105.969 507.577 107.252C509.221 109.9 508.412 113.393 505.766 115.043C505.683 115.095 505.595 115.144 505.504 115.196C506.063 117.034 506.378 118.934 506.44 120.856C506.545 120.873 506.641 120.891 506.737 120.917C508.206 121.258 509.453 122.156 510.253 123.438C511.049 124.721 511.303 126.235 510.957 127.71C510.616 129.181 509.72 130.433 508.443 131.23C507.161 132.026 505.648 132.28 504.178 131.939C504.082 131.917 503.986 131.891 503.885 131.86C502.985 133.558 501.865 135.125 500.553 136.526C500.614 136.613 500.671 136.697 500.719 136.78C502.363 139.428 501.554 142.921 498.908 144.571C497.627 145.368 496.114 145.622 494.644 145.28C493.175 144.939 491.924 144.041 491.128 142.759C491.076 142.676 491.027 142.588 490.975 142.496C489.138 143.057 487.244 143.372 485.324 143.433C485.307 143.538 485.289 143.634 485.263 143.731C484.655 146.339 482.329 148.108 479.761 148.108L479.757 148.095ZM469.707 136.517C469.816 136.517 469.925 136.561 470.013 136.64C471.509 138.093 473.206 139.31 475.064 140.26C475.261 140.36 475.353 140.592 475.279 140.798C475.204 141.004 475.147 141.183 475.108 141.354C474.513 143.919 476.114 146.497 478.677 147.092C481.24 147.688 483.811 146.086 484.41 143.521C484.45 143.35 484.48 143.162 484.502 142.947C484.524 142.728 484.708 142.558 484.931 142.558C487.017 142.527 489.081 142.186 491.062 141.542C491.268 141.472 491.5 141.573 491.596 141.774C491.688 141.967 491.775 142.137 491.867 142.286C492.541 143.372 493.595 144.125 494.837 144.414C496.079 144.702 497.36 144.492 498.44 143.814C500.675 142.422 501.362 139.467 499.971 137.231C499.879 137.082 499.77 136.929 499.63 136.758C499.49 136.587 499.503 136.338 499.656 136.18C501.108 134.683 502.324 132.985 503.273 131.12C503.374 130.923 503.606 130.831 503.811 130.906C504.017 130.98 504.196 131.037 504.367 131.076C505.609 131.365 506.89 131.155 507.97 130.477C509.055 129.803 509.807 128.743 510.096 127.5C510.384 126.257 510.174 124.975 509.501 123.889C508.827 122.804 507.773 122.051 506.531 121.762C506.361 121.722 506.173 121.692 505.958 121.67C505.74 121.648 505.574 121.464 505.569 121.241C505.539 119.153 505.198 117.087 504.555 115.104C504.485 114.894 504.585 114.666 504.786 114.57C504.983 114.478 505.149 114.391 505.298 114.294C507.533 112.902 508.22 109.948 506.829 107.711C506.155 106.626 505.101 105.873 503.859 105.584C502.617 105.295 501.336 105.505 500.255 106.184C500.107 106.275 499.954 106.389 499.783 106.525C499.613 106.665 499.363 106.652 499.206 106.499C497.71 105.045 496.013 103.829 494.154 102.879C493.958 102.778 493.866 102.546 493.94 102.34C494.015 102.13 494.071 101.951 494.111 101.784C494.399 100.541 494.189 99.2589 493.516 98.1733C492.842 97.0878 491.788 96.3349 490.546 96.046C489.304 95.7572 488.023 95.9673 486.943 96.6457C485.858 97.3198 485.106 98.3791 484.817 99.6222C484.778 99.7929 484.747 99.9767 484.725 100.196C484.703 100.414 484.52 100.581 484.297 100.585C482.211 100.616 480.146 100.957 478.165 101.601C477.955 101.671 477.728 101.57 477.636 101.369C477.544 101.167 477.457 101.005 477.365 100.857C476.691 99.771 475.637 99.0181 474.395 98.7292C473.153 98.4403 471.872 98.6505 470.791 99.3289C468.557 100.721 467.87 103.675 469.261 105.912C469.353 106.061 469.466 106.219 469.602 106.385C469.742 106.556 469.729 106.805 469.576 106.963C468.124 108.46 466.908 110.162 465.959 112.023C465.858 112.22 465.626 112.312 465.421 112.237C465.215 112.163 465.036 112.106 464.865 112.066C462.298 111.471 459.731 113.073 459.132 115.638C458.537 118.203 460.138 120.781 462.7 121.377C462.871 121.416 463.059 121.447 463.273 121.469C463.492 121.49 463.658 121.674 463.663 121.897C463.693 123.985 464.034 126.051 464.677 128.034C464.747 128.244 464.647 128.472 464.445 128.568C464.249 128.66 464.082 128.748 463.934 128.84C461.699 130.232 461.012 133.186 462.403 135.423C463.077 136.508 464.131 137.261 465.373 137.55C466.615 137.839 467.896 137.629 468.976 136.95C469.125 136.859 469.278 136.745 469.449 136.609C469.527 136.543 469.628 136.513 469.724 136.513L469.707 136.517ZM484.625 131.702C483.855 131.702 483.081 131.615 482.315 131.435C479.683 130.822 477.448 129.22 476.018 126.922C474.592 124.624 474.141 121.911 474.754 119.276C476.018 113.835 481.467 110.438 486.899 111.703C489.532 112.316 491.767 113.918 493.192 116.216C494.618 118.514 495.069 121.228 494.456 123.863C493.844 126.498 492.243 128.735 489.952 130.166C488.325 131.177 486.492 131.702 484.625 131.702ZM484.607 112.316C480.409 112.316 476.599 115.205 475.607 119.473C475.047 121.88 475.458 124.362 476.761 126.458C478.064 128.555 480.107 130.021 482.512 130.582C484.918 131.142 487.393 130.731 489.488 129.426C491.583 128.122 493.048 126.073 493.608 123.666C494.168 121.258 493.756 118.777 492.453 116.68C491.15 114.583 489.107 113.117 486.702 112.557C486.002 112.395 485.298 112.316 484.607 112.316Z" fill="black"/>
<path d="M515.172 138.658C514.008 138.387 512.84 139.114 512.569 140.278C512.547 140.365 512.534 140.453 512.526 140.536C511.629 140.549 510.754 140.698 509.923 140.97C509.888 140.891 509.845 140.812 509.801 140.738C509.167 139.722 507.833 139.411 506.818 140.042C505.804 140.676 505.493 142.011 506.123 143.031C506.171 143.106 506.223 143.176 506.276 143.246C505.668 143.872 505.148 144.594 504.741 145.395C504.658 145.364 504.575 145.338 504.487 145.316C503.324 145.045 502.156 145.771 501.885 146.936C501.614 148.104 502.34 149.269 503.503 149.54C503.591 149.562 503.678 149.575 503.761 149.584C503.774 150.481 503.923 151.357 504.19 152.188C504.111 152.223 504.032 152.267 503.958 152.311C502.943 152.945 502.633 154.28 503.263 155.3C503.897 156.316 505.231 156.627 506.245 155.996C506.32 155.948 506.39 155.896 506.46 155.843C507.085 156.452 507.807 156.972 508.603 157.379C508.572 157.463 508.546 157.546 508.524 157.633C508.253 158.802 508.979 159.966 510.142 160.238C511.305 160.509 512.473 159.783 512.744 158.618C512.766 158.531 512.779 158.443 512.788 158.36C513.685 158.347 514.559 158.198 515.39 157.927C515.425 158.005 515.469 158.084 515.513 158.159C516.147 159.174 517.481 159.485 518.495 158.855C519.51 158.22 519.821 156.885 519.191 155.865C519.143 155.791 519.09 155.721 519.038 155.65C519.646 155.025 520.166 154.302 520.573 153.501C520.656 153.532 520.739 153.558 520.826 153.58C521.99 153.851 523.157 153.125 523.429 151.961C523.7 150.792 522.974 149.628 521.81 149.356C521.723 149.334 521.636 149.321 521.552 149.312C521.539 148.415 521.391 147.54 521.124 146.708C521.203 146.673 521.281 146.629 521.356 146.585C522.37 145.951 522.681 144.616 522.051 143.596C521.421 142.576 520.083 142.27 519.068 142.9C518.994 142.948 518.924 143.001 518.854 143.053C518.229 142.445 517.507 141.924 516.711 141.517C516.742 141.434 516.768 141.35 516.79 141.263C517.061 140.094 516.335 138.93 515.172 138.658ZM513.575 145.522C515.74 146.025 517.087 148.192 516.584 150.359C516.081 152.525 513.916 153.873 511.751 153.37C509.587 152.867 508.24 150.7 508.743 148.533C509.245 146.367 511.41 145.018 513.575 145.522Z" fill="#D7CDEB"/>
<path d="M454.419 106.368H437.551C437.31 106.368 437.113 106.171 437.113 105.93C437.113 105.689 437.31 105.492 437.551 105.492H454.419C454.66 105.492 454.856 105.689 454.856 105.93C454.856 106.171 454.66 106.368 454.419 106.368Z" fill="black"/>
<path d="M445.258 112.946H433.519C433.279 112.946 433.082 112.749 433.082 112.508C433.082 112.267 433.279 112.07 433.519 112.07H445.258C445.498 112.07 445.695 112.267 445.695 112.508C445.695 112.749 445.498 112.946 445.258 112.946Z" fill="black"/>
<path d="M547.474 150.625H530.605C530.365 150.625 530.168 150.428 530.168 150.188C530.168 149.947 530.365 149.75 530.605 149.75H547.474C547.714 149.75 547.911 149.947 547.911 150.188C547.911 150.428 547.714 150.625 547.474 150.625Z" fill="black"/>
<path d="M538.32 157.188H526.582C526.341 157.188 526.145 156.991 526.145 156.75C526.145 156.509 526.341 156.312 526.582 156.312H538.32C538.561 156.312 538.758 156.509 538.758 156.75C538.758 156.991 538.561 157.188 538.32 157.188Z" fill="black"/>
<path d="M101.465 141.596C101.473 136.111 97.0381 131.658 91.56 131.65C86.0819 131.643 81.6348 136.083 81.6271 141.568C81.6195 147.053 86.0542 151.506 91.5323 151.514C97.0104 151.522 101.458 147.081 101.465 141.596Z" fill="#D7CDEB"/>
<path d="M91.5389 126.047C91.2984 126.047 91.1016 125.85 91.1016 125.609V107.86C91.1016 107.619 91.2984 107.422 91.5389 107.422H137.985C138.226 107.422 138.423 107.619 138.423 107.86C138.423 108.1 138.226 108.297 137.985 108.297H91.9763V125.609C91.9763 125.85 91.7795 126.047 91.5389 126.047Z" fill="black"/>
<path d="M126.173 138.313H109.305C109.064 138.313 108.867 138.116 108.867 137.875C108.867 137.634 109.064 137.438 109.305 137.438H126.173C126.414 137.438 126.61 137.634 126.61 137.875C126.61 138.116 126.414 138.313 126.173 138.313Z" fill="black"/>
<path d="M121.043 145.711H109.305C109.064 145.711 108.867 145.514 108.867 145.274C108.867 145.033 109.064 144.836 109.305 144.836H121.043C121.283 144.836 121.48 145.033 121.48 145.274C121.48 145.514 121.283 145.711 121.043 145.711Z" fill="black"/>
</svg>
