<svg width="592" height="522" viewBox="0 0 592 522" fill="none" xmlns="http://www.w3.org/2000/svg">
<path d="M91.8856 167.512C81.6119 189.108 67.8524 239.167 73.6357 291.051C81.0528 357.612 118.295 410.16 154.559 439.714C274.917 537.787 494.073 474.205 523.479 382.099C528.817 365.387 527.349 349.26 525.567 329.42C519.862 266.301 500.503 248.043 488.919 178.931C479.291 121.551 472.582 104.795 461.819 85.1215C428.167 23.6713 304.48 24.2042 228.65 52.2386C199.524 63.0103 128.525 90.5205 91.8944 167.512H91.8856Z" fill="#D7CDEB"/>
<g clip-path="url(#clip0_1027_3666)">
<path d="M388.026 347.586H155.492V434.585H388.026V347.586Z" fill="white"/>
<path d="M388.026 435.033H155.492C155.243 435.033 155.043 434.833 155.043 434.583V347.582C155.043 347.333 155.245 347.133 155.492 347.133H388.026C388.276 347.133 388.476 347.335 388.476 347.582V434.583C388.476 434.833 388.276 435.033 388.026 435.033ZM155.942 434.134H387.575V348.034H155.942V434.134Z" fill="black"/>
<path d="M314.18 408.954C314.1 408.954 314.02 408.933 313.947 408.889C313.734 408.76 313.667 408.482 313.796 408.269L332.564 377.428C332.644 377.297 332.785 377.215 332.938 377.211C333.091 377.223 333.236 377.282 333.322 377.409L354.248 408.251C354.387 408.457 354.334 408.737 354.129 408.876C353.923 409.015 353.645 408.962 353.504 408.758L332.973 378.494L314.568 408.739C314.482 408.878 314.335 408.956 314.184 408.956L314.18 408.954Z" fill="black"/>
<path d="M366.039 398.7C365.904 398.7 365.772 398.64 365.684 398.526L352.826 381.923L346.253 391.175C346.108 391.377 345.829 391.424 345.626 391.281C345.424 391.136 345.377 390.856 345.52 390.653L352.444 380.909C352.526 380.793 352.659 380.723 352.802 380.719C352.941 380.715 353.079 380.78 353.165 380.893L366.395 397.976C366.548 398.172 366.511 398.454 366.315 398.608C366.233 398.671 366.135 398.702 366.039 398.702V398.7Z" fill="black"/>
<path d="M360.19 376.081C357.623 376.081 355.535 373.99 355.535 371.423C355.535 368.856 357.625 366.766 360.19 366.766C362.755 366.766 364.847 368.856 364.847 371.423C364.847 373.99 362.757 376.081 360.19 376.081ZM360.19 367.665C358.119 367.665 356.434 369.351 356.434 371.423C356.434 373.496 358.119 375.182 360.19 375.182C362.261 375.182 363.946 373.496 363.946 371.423C363.946 369.351 362.261 367.665 360.19 367.665Z" fill="black"/>
<path d="M336.257 403.001C336.044 403.001 335.834 402.984 335.626 402.951C333.665 402.647 332.174 400.953 331.093 399.51C330.938 399.303 330.785 399.093 330.63 398.884C329.692 397.607 328.726 396.289 327.456 395.574C326.667 395.13 325.673 395.016 324.858 395.275C324.406 395.42 323.793 395.747 323.442 396.491C323.336 396.716 323.068 396.812 322.844 396.706C322.619 396.6 322.523 396.332 322.629 396.107C323.017 395.286 323.693 394.701 324.586 394.417C325.646 394.078 326.884 394.217 327.897 394.789C329.337 395.6 330.362 396.998 331.355 398.351C331.508 398.56 331.659 398.766 331.812 398.97C332.791 400.276 334.122 401.807 335.763 402.062C337.062 402.263 338.549 401.611 339.748 400.315C340.881 399.089 341.67 397.487 342.431 395.937C342.54 395.715 342.809 395.623 343.034 395.733C343.257 395.843 343.348 396.113 343.238 396.336C342.448 397.942 341.633 399.604 340.409 400.928C339.169 402.269 337.687 403.003 336.257 403.003V403.001Z" fill="black"/>
<path d="M285.631 376.946H269.164C268.915 376.946 268.715 376.744 268.715 376.496C268.715 376.249 268.915 376.047 269.164 376.047H285.631C285.88 376.047 286.08 376.247 286.08 376.496C286.08 376.746 285.878 376.946 285.631 376.946Z" fill="black"/>
<path d="M255.645 376.946H184.629C184.38 376.946 184.18 376.744 184.18 376.496C184.18 376.249 184.38 376.047 184.629 376.047H255.645C255.894 376.047 256.095 376.247 256.095 376.496C256.095 376.746 255.892 376.946 255.645 376.946Z" fill="black"/>
<path d="M285.63 391.54H228.434C228.185 391.54 227.984 391.34 227.984 391.09C227.984 390.841 228.185 390.641 228.434 390.641H285.63C285.879 390.641 286.08 390.841 286.08 391.09C286.08 391.34 285.877 391.54 285.63 391.54Z" fill="black"/>
<path d="M213.776 391.54H184.625C184.376 391.54 184.176 391.34 184.176 391.09C184.176 390.841 184.376 390.641 184.625 390.641H213.776C214.025 390.641 214.225 390.841 214.225 391.09C214.225 391.34 214.025 391.54 213.776 391.54Z" fill="black"/>
<path d="M285.633 406.126H263.223C262.974 406.126 262.773 405.923 262.773 405.676C262.773 405.429 262.974 405.227 263.223 405.227H285.633C285.882 405.227 286.083 405.429 286.083 405.676C286.083 405.923 285.88 406.126 285.633 406.126Z" fill="black"/>
<path d="M245.58 406.126H184.625C184.376 406.126 184.176 405.923 184.176 405.676C184.176 405.429 184.376 405.227 184.625 405.227H245.58C245.829 405.227 246.029 405.429 246.029 405.676C246.029 405.923 245.827 406.126 245.58 406.126Z" fill="black"/>
<path d="M388.127 176.211H154.906V309.302H388.127V176.211Z" fill="white"/>
<path d="M337.754 309.746H154.906C154.657 309.746 154.457 309.544 154.457 309.296V176.207C154.457 175.958 154.657 175.758 154.906 175.758H388.127C388.376 175.758 388.576 175.958 388.576 176.207V268.493C388.576 268.743 388.376 268.943 388.127 268.943C387.878 268.943 387.677 268.741 387.677 268.493V176.659H155.356V308.849H337.752C338.001 308.849 338.202 309.049 338.202 309.298C338.202 309.548 338.001 309.748 337.752 309.748L337.754 309.746Z" fill="black"/>
<path d="M365.849 206.664H177.184V218.892H365.849V206.664Z" fill="#D7CDEB"/>
<path d="M365.849 231.461H177.184V243.688H365.849V231.461Z" fill="#D7CDEB"/>
<path d="M365.849 256.266H177.184V268.493H365.849V256.266Z" fill="#D7CDEB"/>
<path d="M416.493 283.422H359.758V340.19H416.493V283.422Z" fill="#D7CDEB"/>
<path d="M398.16 301.096H388.943V325.496H388.003V301.096H378.785V300.156H398.162V301.096H398.16Z" fill="#7859BC"/>
<path d="M388.026 105.695H155.492V152.523H388.026V105.695Z" fill="white"/>
<path d="M388.026 152.977H155.492C155.243 152.977 155.043 152.777 155.043 152.527V105.7C155.043 105.45 155.245 105.25 155.492 105.25H388.026C388.276 105.25 388.476 105.45 388.476 105.7V152.527C388.476 152.777 388.276 152.977 388.026 152.977ZM155.942 152.078H387.575V106.149H155.942V152.078Z" fill="black"/>
<path d="M185.478 116.438C178.483 116.438 172.812 122.111 172.812 129.111C172.812 131.89 173.709 134.459 175.227 136.55L172.812 141.784L178.182 139.468C180.245 140.925 182.76 141.784 185.478 141.784C192.474 141.784 198.144 136.11 198.144 129.111C198.144 122.111 192.474 116.438 185.478 116.438Z" fill="#D7CDEB"/>
<path d="M372.078 119.345H350.574C350.325 119.345 350.125 119.142 350.125 118.895C350.125 118.648 350.325 118.445 350.574 118.445H372.078C372.327 118.445 372.527 118.646 372.527 118.895C372.527 119.144 372.327 119.345 372.078 119.345Z" fill="black"/>
<path d="M333.504 119.345H216.945C216.696 119.345 216.496 119.142 216.496 118.895C216.496 118.648 216.696 118.445 216.945 118.445H333.504C333.753 118.445 333.953 118.646 333.953 118.895C333.953 119.144 333.751 119.345 333.504 119.345Z" fill="black"/>
<path d="M372.078 129.563H271.762C271.513 129.563 271.312 129.363 271.312 129.114C271.312 128.864 271.513 128.664 271.762 128.664H372.078C372.327 128.664 372.527 128.864 372.527 129.114C372.527 129.363 372.327 129.563 372.078 129.563Z" fill="black"/>
<path d="M254.995 129.563H216.945C216.696 129.563 216.496 129.363 216.496 129.114C216.496 128.864 216.696 128.664 216.945 128.664H254.995C255.245 128.664 255.445 128.864 255.445 129.114C255.445 129.363 255.243 129.563 254.995 129.563Z" fill="black"/>
<path d="M372.075 139.782H329.309C329.06 139.782 328.859 139.58 328.859 139.332C328.859 139.085 329.06 138.883 329.309 138.883H372.075C372.324 138.883 372.524 139.083 372.524 139.332C372.524 139.582 372.324 139.782 372.075 139.782Z" fill="black"/>
<path d="M306.538 139.782H216.945C216.696 139.782 216.496 139.58 216.496 139.332C216.496 139.085 216.696 138.883 216.945 138.883H306.538C306.787 138.883 306.988 139.083 306.988 139.332C306.988 139.582 306.785 139.782 306.538 139.782Z" fill="black"/>
<path d="M127.656 116.092L133.439 99.7933C133.439 99.7933 130.832 92.3603 135.393 88.7102C139.954 85.0601 147.383 87.4063 147.383 87.4063C147.383 87.4063 153.312 96.8606 154.681 103.315C155.682 108.038 153.508 111.115 143.994 111.518L142.17 116.094H127.656V116.092Z" fill="white"/>
<path d="M142.172 116.544H127.658C127.51 116.544 127.374 116.472 127.29 116.354C127.206 116.235 127.184 116.082 127.233 115.943L132.964 99.7895C132.6 98.6552 130.672 91.913 135.113 88.359C139.808 84.6006 147.206 86.8773 147.519 86.9774C147.621 87.0101 147.707 87.0775 147.764 87.1675C148.007 87.5558 153.753 96.7627 155.121 103.221C155.605 105.506 155.332 107.276 154.282 108.629C152.744 110.613 149.48 111.7 144.304 111.954L142.588 116.258C142.521 116.429 142.355 116.542 142.17 116.542L142.172 116.544ZM128.295 115.645H141.867L143.579 111.353C143.644 111.187 143.802 111.077 143.977 111.069C149.041 110.854 152.178 109.877 153.573 108.079C154.449 106.947 154.67 105.42 154.243 103.409C152.999 97.5373 147.84 89.0027 147.094 87.7908C146.018 87.4883 139.639 85.8922 135.676 89.062C131.414 92.473 133.84 99.5728 133.865 99.6444C133.899 99.7425 133.899 99.8467 133.865 99.9448L128.295 115.643V115.645Z" fill="black"/>
<path d="M144.409 110.909C144.364 110.909 144.319 110.902 144.274 110.888C144.038 110.813 143.907 110.561 143.982 110.324L146.395 102.705C146.47 102.468 146.721 102.335 146.958 102.413C147.195 102.488 147.326 102.74 147.25 102.977L144.838 110.596C144.777 110.788 144.601 110.911 144.409 110.911V110.909Z" fill="black"/>
<path d="M149.124 76.4505C145.29 73.5341 135.941 75.7127 131.192 76.9532C126.446 78.1938 122.444 81.6885 120.637 86.0335C118.829 90.3764 119.211 95.4632 121.542 99.5792C122.203 100.748 123.116 101.915 124.456 102.299C124.528 101.329 124.601 100.358 124.673 99.3891C124.703 98.9845 124.801 98.4858 125.281 98.4306C125.67 98.3857 126.027 98.6636 126.111 99.0254C127.346 104.443 132.892 105.109 137.784 104.932C138.946 104.889 139.734 103.789 139.348 102.749C139.301 102.62 139.265 102.487 139.222 102.357C138.658 101.878 138.178 101.31 137.776 100.691C136.934 99.3932 136.389 97.8666 136.254 96.3236C136.137 94.987 136.387 93.5053 137.406 92.5468C138.292 91.715 139.591 91.4677 140.741 91.8233C141.123 91.9418 141.472 92.1156 141.791 92.3281C145.615 99.0008 144.502 90.2762 146.148 89.7878C147.645 89.3443 149.516 89.0173 149.583 87.1698C149.593 86.8612 155.788 81.5271 149.124 76.4546V76.4505Z" fill="black"/>
<path d="M141.197 103.795C140.648 103.795 140.1 103.648 139.63 103.355C139.42 103.225 139.355 102.947 139.485 102.736C139.616 102.526 139.894 102.46 140.104 102.591C140.664 102.936 141.387 102.994 141.992 102.736C142.598 102.479 143.06 101.921 143.201 101.277C143.254 101.034 143.493 100.876 143.736 100.934C143.979 100.987 144.132 101.226 144.079 101.469C143.879 102.393 143.211 103.196 142.341 103.566C141.979 103.719 141.587 103.795 141.193 103.795H141.197Z" fill="black"/>
<path d="M142.927 99.4468C142.772 99.4468 142.623 99.3671 142.539 99.224C142.039 98.3697 141.275 97.6626 140.386 97.2293C140.164 97.121 140.07 96.8512 140.178 96.6285C140.286 96.4057 140.556 96.3117 140.778 96.42C141.826 96.9289 142.727 97.7627 143.315 98.7682C143.44 98.9828 143.368 99.2587 143.154 99.3854C143.082 99.4263 143.005 99.4468 142.927 99.4468Z" fill="black"/>
<path d="M205.604 140.171C205.604 140.171 223.449 143.353 233.378 141.99C233.378 141.99 239.673 134.739 242.671 125.62C245.672 116.501 237.941 116.039 237.941 116.039C237.941 116.039 236.325 110.844 230.788 113.615C230.788 113.615 229.922 110.96 225.943 111.999C221.962 113.037 213.426 117.656 213.136 122.503C213.136 122.503 209.964 123.772 208.868 127.044C208.322 128.673 205.602 140.173 205.602 140.173L205.604 140.171Z" fill="white"/>
<path d="M227.573 142.772C217.781 142.772 205.673 140.637 205.526 140.612C205.403 140.59 205.297 140.52 205.23 140.416C205.162 140.312 205.14 140.185 205.168 140.064C205.279 139.594 207.899 128.526 208.445 126.897C209.419 123.987 211.903 122.587 212.715 122.196C213.324 116.975 222.283 112.485 225.833 111.559C229.109 110.704 230.504 112.213 230.994 113.016C232.712 112.245 234.244 112.137 235.557 112.697C237.217 113.404 238.006 114.97 238.269 115.616C239.099 115.728 241.439 116.214 242.812 118.238C244.048 120.057 244.144 122.587 243.102 125.754C240.108 134.855 233.784 142.206 233.721 142.28C233.649 142.362 233.551 142.417 233.443 142.431C231.69 142.672 229.687 142.77 227.577 142.77L227.573 142.772ZM206.153 139.805C209.019 140.287 224.268 142.725 233.147 141.563C233.99 140.555 239.523 133.745 242.244 125.474C243.194 122.585 243.135 120.32 242.064 118.744C240.657 116.67 237.941 116.486 237.914 116.484C237.728 116.474 237.567 116.347 237.512 116.169C237.505 116.151 236.885 114.24 235.193 113.525C234.033 113.034 232.62 113.2 230.99 114.015C230.873 114.075 230.737 114.079 230.616 114.028C230.496 113.976 230.402 113.876 230.361 113.752C230.33 113.664 229.552 111.52 226.055 112.431C221.964 113.5 213.853 118.031 213.586 122.527C213.575 122.701 213.465 122.852 213.304 122.918C213.273 122.93 210.307 124.158 209.294 127.185C208.822 128.591 206.666 137.639 206.151 139.809L206.153 139.805Z" fill="black"/>
<path d="M228.969 121.348C228.906 121.348 228.84 121.333 228.779 121.305C228.554 121.201 228.456 120.933 228.562 120.706C229.588 118.503 230.217 116.159 230.429 113.739C230.452 113.492 230.664 113.306 230.917 113.33C231.165 113.353 231.348 113.569 231.326 113.819C231.103 116.345 230.45 118.789 229.377 121.088C229.302 121.252 229.138 121.348 228.969 121.348Z" fill="black"/>
<path d="M236.033 124.143C235.969 124.143 235.904 124.128 235.843 124.102C235.62 123.998 235.52 123.732 235.622 123.507L235.675 123.391C235.681 123.378 235.687 123.364 235.696 123.352C236.754 121.077 237.399 118.559 237.567 116.06C237.583 115.813 237.797 115.633 238.045 115.641C238.294 115.657 238.48 115.872 238.463 116.119C238.284 118.786 237.583 121.472 236.437 123.885C236.359 124.047 236.198 124.143 236.031 124.143H236.033Z" fill="black"/>
<path d="M212.982 125.481C212.797 125.481 212.625 125.366 212.558 125.182C212.474 124.947 212.596 124.69 212.831 124.608C216.093 123.445 218.861 122.677 222.58 122.446C222.833 122.434 223.042 122.62 223.056 122.867C223.07 123.114 222.883 123.329 222.635 123.343C219.022 123.568 216.32 124.318 213.134 125.456C213.083 125.475 213.034 125.483 212.982 125.483V125.481Z" fill="black"/>
<path d="M219.57 122.08C219.503 122.08 219.435 122.066 219.372 122.033C219.149 121.923 219.057 121.653 219.168 121.43C220.312 119.109 221.605 116.832 223.016 114.666C223.151 114.457 223.431 114.398 223.639 114.535C223.847 114.67 223.906 114.95 223.77 115.158C222.379 117.294 221.102 119.538 219.977 121.829C219.897 121.988 219.738 122.08 219.572 122.08H219.57Z" fill="black"/>
<path d="M201.797 138.382C201.313 138.382 200.831 138.186 200.479 137.8C199.817 137.072 199.871 135.944 200.598 135.282L217.042 120.308C217.769 119.645 218.897 119.699 219.558 120.426C220.22 121.154 220.167 122.282 219.44 122.944L202.996 137.918C202.654 138.229 202.226 138.382 201.797 138.382Z" fill="black"/>
<path d="M98.193 206.491L80.4844 201.467C80.4844 201.467 85.8541 182.579 90.0883 181.141L105.37 182.729L98.193 206.489V206.491Z" fill="white"/>
<path d="M98.193 206.938C98.1521 206.938 98.1113 206.932 98.0704 206.922L80.3618 201.898C80.2475 201.866 80.1494 201.788 80.0922 201.684C80.033 201.58 80.0208 201.457 80.0514 201.34C80.607 199.385 85.6111 182.183 89.9433 180.711C90.0046 180.691 90.0699 180.685 90.1353 180.689L105.417 182.277C105.55 182.291 105.671 182.365 105.746 182.475C105.822 182.585 105.84 182.726 105.801 182.855L98.624 206.615C98.5647 206.809 98.387 206.936 98.193 206.936V206.938ZM81.042 201.154L97.8907 205.935L104.782 183.119L90.1455 181.596C86.951 182.886 82.6188 195.724 81.04 201.154H81.042Z" fill="black"/>
<path d="M79.1133 204.369L90.0898 181.136L80.4859 170.815L98.3967 153.413C98.3967 153.413 98.9155 164.582 95.5413 174.192C92.167 183.801 95.4105 192.113 105.923 194.451C114.283 196.311 151.543 195.211 166.445 194.684C169.901 194.561 172.634 191.725 172.634 188.265V183.023C172.634 183.023 191.842 205.23 211.57 202.761C231.297 200.294 234.024 175.489 233.374 141.985C233.374 141.985 215.075 136.142 205.6 140.166L203.004 144.842L186.672 124.495C180.297 116.553 170.432 112.249 160.277 112.978C144.071 114.141 118.971 116.068 100.317 118.069C85.5717 119.651 71.8113 126.254 61.3598 136.781C50.9246 147.29 37.1233 161.942 37.1172 171.13C37.1009 197.549 79.1113 204.369 79.1113 204.369H79.1133Z" fill="#7859BC"/>
<path d="M172.953 181.568C172.712 181.568 172.512 181.376 172.504 181.133C172.226 172.364 173.821 163.428 177.118 155.296C177.212 155.066 177.475 154.955 177.704 155.049C177.935 155.143 178.045 155.405 177.951 155.636C174.701 163.651 173.129 172.46 173.402 181.104C173.41 181.354 173.216 181.56 172.967 181.568C172.961 181.568 172.957 181.568 172.953 181.568Z" fill="black"/>
<path d="M98.195 153.295H98.1929C97.9438 153.295 97.7436 153.091 97.7456 152.841C97.762 150.103 96.4507 147.329 94.3224 145.604C94.1304 145.447 94.0997 145.165 94.257 144.971C94.4143 144.779 94.6962 144.748 94.8902 144.906C97.2595 146.827 98.6627 149.796 98.6464 152.847C98.6464 153.095 98.4442 153.295 98.197 153.295H98.195Z" fill="black"/>
<path d="M72.605 178.411C72.4866 178.411 72.3661 178.364 72.2782 178.27C72.1087 178.09 72.1169 177.804 72.2966 177.635L79.5394 170.803C79.7191 170.631 80.0051 170.641 80.1746 170.821C80.3441 171.001 80.3359 171.287 80.1562 171.457L72.9134 178.289C72.8277 178.37 72.7153 178.411 72.605 178.411Z" fill="black"/>
<path d="M221.481 166.749C221.352 166.749 221.23 166.694 221.142 166.596C218.752 163.863 202.825 145.321 202.663 145.135C202.502 144.947 202.522 144.663 202.712 144.499C202.9 144.338 203.184 144.358 203.347 144.548C203.499 144.724 217.633 161.178 221.273 165.374L222.173 162.118C222.239 161.879 222.488 161.74 222.727 161.803C222.966 161.869 223.107 162.118 223.041 162.357L221.916 166.42C221.871 166.58 221.744 166.702 221.583 166.739C221.55 166.747 221.516 166.751 221.483 166.751L221.481 166.749Z" fill="black"/>
<path d="M84.2969 448.549H47.2824C38.6161 448.549 30.1335 446.039 22.8601 441.32C18.5218 438.506 16.5058 433.204 17.8805 428.216C28.3933 390.09 72.6443 233.031 100.322 188.134C100.322 188.134 136.408 190.149 160.824 185.504C165.268 184.658 169.378 188.083 169.388 192.61C169.49 234.796 169.882 408.882 169.366 431.107L181.655 442.26C184.102 444.48 182.532 448.551 179.229 448.551H118.66C111.178 448.551 105.278 442.18 105.845 434.715L116.707 285.483L82.3606 428.968C81.0901 434.204 82.6118 439.726 86.3843 443.572C88.2022 445.424 86.8909 448.551 84.2969 448.551V448.549Z" fill="white"/>
<path d="M179.234 448.996H118.665C114.974 448.996 111.418 447.443 108.908 444.733C106.4 442.025 105.121 438.358 105.401 434.676L115.861 290.959L82.8008 429.066C81.5569 434.187 83.0173 439.489 86.7081 443.249C87.6783 444.238 87.9479 445.646 87.4128 446.924C86.8776 448.201 85.6848 448.994 84.3 448.994H47.2855C38.5109 448.994 29.9814 446.47 22.6201 441.692C18.096 438.757 16.0187 433.29 17.4526 428.091C29.9017 382.939 72.6454 232.174 99.9436 187.893C100.074 187.682 100.35 187.617 100.562 187.746C100.773 187.876 100.838 188.154 100.71 188.365C72.7679 233.686 27.1729 396.213 18.3166 428.332C16.9869 433.151 18.913 438.217 23.1063 440.938C30.3225 445.62 38.6825 448.095 47.2835 448.095H84.2979C85.313 448.095 86.1893 447.512 86.5815 446.576C86.9736 445.64 86.7755 444.606 86.0647 443.883C82.1553 439.899 80.6071 434.283 81.9245 428.857L116.271 285.374C116.327 285.147 116.543 285 116.778 285.035C117.009 285.071 117.174 285.278 117.158 285.513L106.298 434.747C106.032 438.232 107.194 441.563 109.568 444.126C111.941 446.689 115.173 448.101 118.665 448.101H179.234C180.833 448.101 181.805 447.054 182.183 446.075C182.561 445.096 182.541 443.668 181.358 442.593L169.068 431.44C168.972 431.352 168.917 431.226 168.921 431.097C169.444 408.635 169.032 228.495 168.944 192.612C168.944 192.362 169.144 192.16 169.393 192.16C169.642 192.16 169.842 192.36 169.842 192.61C169.93 228.387 170.339 407.568 169.824 430.913L181.963 441.927C183.235 443.081 183.642 444.796 183.023 446.4C182.404 448.005 180.952 449 179.234 449V448.996Z" fill="black"/>
<path d="M116.247 283.988C116.234 283.988 116.224 283.988 116.212 283.988C115.965 283.969 115.779 283.753 115.797 283.506L119.026 240.947C119.239 238.158 119.478 234.996 118.291 232.284C117.206 229.809 114.369 227.667 111.669 228.53C111.434 228.605 111.179 228.474 111.103 228.237C111.028 228 111.159 227.747 111.396 227.671C114.57 226.66 117.872 229.09 119.114 231.922C120.391 234.839 120.142 238.119 119.923 241.015L116.694 283.573C116.675 283.808 116.479 283.988 116.247 283.988Z" fill="black"/>
<path d="M137.804 433.623C127.828 433.623 117.855 432.969 107.949 431.661C107.701 431.628 107.53 431.403 107.563 431.156C107.595 430.911 107.82 430.737 108.067 430.77C127.777 433.373 147.763 433.375 167.472 430.78C167.723 430.743 167.943 430.921 167.976 431.166C168.009 431.413 167.835 431.638 167.59 431.671C157.708 432.973 147.755 433.625 137.804 433.625V433.623Z" fill="black"/>
<path d="M79.655 435.033C79.655 435.033 79.6387 435.033 79.6305 435.033C59.622 433.913 39.8219 429.858 20.7775 422.983C20.5447 422.899 20.4221 422.64 20.5079 422.407C20.5916 422.174 20.851 422.051 21.0839 422.137C40.0445 428.981 59.7609 433.018 79.6815 434.133C79.9307 434.148 80.1186 434.36 80.1064 434.608C80.0941 434.847 79.894 435.033 79.657 435.033H79.655Z" fill="black"/>
<path d="M534.856 215.062H447.602V272.305H534.856V215.062Z" fill="white"/>
<path d="M534.856 272.759H447.602C447.353 272.759 447.152 272.559 447.152 272.309V215.067C447.152 214.817 447.353 214.617 447.602 214.617H534.856C535.105 214.617 535.305 214.817 535.305 215.067V272.309C535.305 272.559 535.105 272.759 534.856 272.759ZM448.051 271.86H534.404V215.516H448.051V271.86Z" fill="black"/>
<path d="M490.302 228.827C490.39 228.972 490.49 229.107 490.592 229.236C489.399 230.45 488.413 231.821 487.651 233.294C487.496 233.237 487.338 233.186 487.173 233.145C484.961 232.616 482.741 233.981 482.212 236.195C481.683 238.408 483.047 240.629 485.257 241.159C485.422 241.198 485.586 241.224 485.751 241.242C485.765 242.902 486.025 244.57 486.54 246.194C486.388 246.264 486.241 246.34 486.096 246.427C484.158 247.617 483.551 250.155 484.742 252.093C485.931 254.032 488.468 254.639 490.404 253.448C490.549 253.36 490.684 253.26 490.813 253.157C492.026 254.353 493.396 255.338 494.869 256.102C494.812 256.258 494.761 256.415 494.72 256.581C494.191 258.794 495.555 261.015 497.765 261.545C499.977 262.074 502.198 260.709 502.727 258.496C502.765 258.33 502.792 258.167 502.81 258.001C504.469 257.987 506.135 257.727 507.759 257.212C507.829 257.363 507.904 257.51 507.992 257.656C509.181 259.595 511.718 260.202 513.654 259.011C515.592 257.821 516.199 255.283 515.008 253.345C514.92 253.2 514.82 253.065 514.718 252.937C515.911 251.723 516.897 250.351 517.661 248.878C517.817 248.935 517.974 248.986 518.139 249.027C520.351 249.556 522.572 248.191 523.101 245.98C523.63 243.766 522.265 241.545 520.055 241.016C519.89 240.977 519.726 240.95 519.561 240.932C519.547 239.272 519.287 237.605 518.773 235.98C518.924 235.91 519.071 235.835 519.216 235.747C521.154 234.557 521.761 232.019 520.57 230.082C519.381 228.142 516.844 227.535 514.908 228.727C514.763 228.815 514.628 228.913 514.5 229.017C513.286 227.821 511.916 226.836 510.443 226.072C510.5 225.917 510.551 225.759 510.592 225.594C511.121 223.38 509.757 221.159 507.547 220.63C505.335 220.1 503.115 221.465 502.586 223.677C502.547 223.842 502.52 224.006 502.502 224.171C500.843 224.186 499.177 224.445 497.553 224.96C497.483 224.809 497.408 224.662 497.32 224.517C496.131 222.577 493.594 221.97 491.658 223.162C489.72 224.351 489.113 226.889 490.304 228.827H490.302ZM509.173 237.086C511.383 240.687 510.255 245.397 506.656 247.609C503.057 249.82 498.349 248.692 496.139 245.091C493.929 241.49 495.057 236.779 498.654 234.568C502.253 232.356 506.961 233.485 509.171 237.086H509.173Z" fill="#7859BC"/>
<path d="M464.05 244.323C464.101 244.407 464.16 244.486 464.219 244.562C463.521 245.273 462.943 246.076 462.495 246.939C462.406 246.904 462.312 246.875 462.216 246.851C460.921 246.54 459.62 247.339 459.309 248.635C458.999 249.931 459.797 251.233 461.092 251.543C461.188 251.566 461.284 251.582 461.382 251.592C461.39 252.563 461.542 253.542 461.844 254.492C461.756 254.533 461.668 254.576 461.584 254.629C460.449 255.326 460.096 256.812 460.792 257.948C461.489 259.085 462.973 259.438 464.109 258.741C464.193 258.69 464.272 258.631 464.348 258.572C465.059 259.271 465.862 259.849 466.723 260.297C466.691 260.386 466.66 260.48 466.636 260.577C466.325 261.872 467.124 263.174 468.419 263.485C469.714 263.795 471.015 262.996 471.325 261.701C471.348 261.605 471.364 261.508 471.374 261.41C472.347 261.402 473.323 261.251 474.273 260.948C474.313 261.036 474.356 261.124 474.409 261.208C475.106 262.344 476.591 262.698 477.726 262.001C478.862 261.304 479.215 259.818 478.519 258.682C478.468 258.598 478.409 258.519 478.349 258.443C479.048 257.732 479.626 256.928 480.073 256.066C480.163 256.101 480.257 256.129 480.353 256.154C481.648 256.465 482.949 255.665 483.26 254.37C483.57 253.074 482.772 251.772 481.477 251.462C481.381 251.439 481.285 251.423 481.187 251.413C481.178 250.442 481.027 249.463 480.725 248.512C480.813 248.472 480.901 248.429 480.984 248.376C482.12 247.679 482.473 246.193 481.777 245.057C481.08 243.92 479.595 243.567 478.46 244.264C478.376 244.315 478.296 244.374 478.221 244.433C477.51 243.734 476.707 243.156 475.845 242.708C475.878 242.618 475.909 242.524 475.933 242.428C476.244 241.133 475.445 239.831 474.15 239.52C472.855 239.209 471.554 240.009 471.244 241.304C471.221 241.4 471.205 241.496 471.195 241.594C470.222 241.603 469.246 241.754 468.296 242.056C468.255 241.968 468.212 241.881 468.159 241.797C467.463 240.661 465.978 240.307 464.842 241.004C463.707 241.701 463.353 243.187 464.05 244.323ZM475.102 249.158C476.395 251.267 475.737 254.026 473.629 255.32C471.521 256.614 468.764 255.956 467.471 253.847C466.178 251.737 466.836 248.978 468.944 247.685C471.052 246.391 473.809 247.049 475.102 249.158Z" fill="#7859BC"/>
<path d="M491.228 206.515C490.979 206.515 490.779 206.315 490.779 206.065V129.571H397.031C396.782 129.571 396.582 129.371 396.582 129.121C396.582 128.872 396.782 128.672 397.031 128.672H491.228C491.477 128.672 491.677 128.872 491.677 129.121V206.065C491.677 206.315 491.477 206.515 491.228 206.515Z" fill="black"/>
<path d="M438.597 244.141H397.473C397.224 244.141 397.023 243.939 397.023 243.692C397.023 243.445 397.224 243.242 397.473 243.242H438.597C438.846 243.242 439.046 243.442 439.046 243.692C439.046 243.941 438.844 244.141 438.597 244.141Z" fill="black"/>
<path d="M491.228 393.539H397.031C396.782 393.539 396.582 393.339 396.582 393.089C396.582 392.84 396.782 392.64 397.031 392.64H490.779V281.325C490.779 281.075 490.979 280.875 491.228 280.875C491.477 280.875 491.677 281.075 491.677 281.325V393.089C491.677 393.339 491.477 393.539 491.228 393.539Z" fill="black"/>
<path d="M525.851 129.571H491.227C490.978 129.571 490.777 129.371 490.777 129.121C490.777 128.872 490.978 128.672 491.227 128.672H525.851C526.101 128.672 526.301 128.872 526.301 129.121C526.301 129.371 526.101 129.571 525.851 129.571Z" fill="black"/>
<path d="M540.233 134.509C543.204 134.509 545.611 132.095 545.611 129.118C545.611 126.14 543.204 123.727 540.233 123.727C537.263 123.727 534.855 126.14 534.855 129.118C534.855 132.095 537.263 134.509 540.233 134.509Z" fill="#D7CDEB"/>
<path d="M555.929 134.509C558.899 134.509 561.307 132.095 561.307 129.118C561.307 126.14 558.899 123.727 555.929 123.727C552.959 123.727 550.551 126.14 550.551 129.118C550.551 132.095 552.959 134.509 555.929 134.509Z" fill="#D7CDEB"/>
<path d="M571.624 134.509C574.594 134.509 577.002 132.095 577.002 129.118C577.002 126.14 574.594 123.727 571.624 123.727C568.654 123.727 566.246 126.14 566.246 129.118C566.246 132.095 568.654 134.509 571.624 134.509Z" fill="#7859BC"/>
</g>
<defs>
<clipPath id="clip0_1027_3666">
<rect width="560" height="374" fill="white" transform="translate(17 75)"/>
</clipPath>
</defs>
</svg>
