<svg width="592" height="522" viewBox="0 0 592 522" fill="none" xmlns="http://www.w3.org/2000/svg">
<path d="M91.8876 167.512C81.6138 189.108 67.8543 239.167 73.6377 291.051C81.0547 357.612 118.297 410.16 154.561 439.714C274.919 537.787 494.075 474.205 523.481 382.099C528.819 365.387 527.351 349.26 525.569 329.42C519.864 266.301 500.505 248.043 488.921 178.931C479.293 121.551 472.584 104.795 461.821 85.1215C428.169 23.6713 304.482 24.2042 228.652 52.2386C199.526 63.0103 128.527 90.5205 91.8963 167.512H91.8876Z" fill="#D7CDEB"/>
<g clip-path="url(#clip0_1027_8659)">
<path d="M326.511 355.344H220.229V408.843H326.511V355.344Z" fill="white"/>
<path d="M326.511 409.315H220.228C219.969 409.315 219.758 409.104 219.758 408.845V355.345C219.758 355.087 219.969 354.875 220.228 354.875H326.511C326.77 354.875 326.981 355.087 326.981 355.345V408.845C326.981 409.104 326.77 409.315 326.511 409.315ZM220.699 408.374H326.041V355.816H220.699V408.374Z" fill="black"/>
<path d="M316.783 393.582H230.99C230.731 393.582 230.52 393.37 230.52 393.111C230.52 392.852 230.731 392.641 230.99 392.641H316.783C317.042 392.641 317.253 392.852 317.253 393.111C317.253 393.37 317.042 393.582 316.783 393.582Z" fill="black"/>
<path d="M316.783 383.402H230.99C230.731 383.402 230.52 383.19 230.52 382.931C230.52 382.673 230.731 382.461 230.99 382.461H316.783C317.042 382.461 317.253 382.673 317.253 382.931C317.253 383.19 317.042 383.402 316.783 383.402Z" fill="black"/>
<path d="M316.783 373.222H230.99C230.731 373.222 230.52 373.011 230.52 372.752C230.52 372.493 230.731 372.281 230.99 372.281H316.783C317.042 372.281 317.253 372.493 317.253 372.752C317.253 373.011 317.042 373.222 316.783 373.222Z" fill="black"/>
<path d="M253.932 393.107C253.932 391.08 252.29 389.438 250.263 389.438C248.235 389.438 246.594 391.08 246.594 393.107C246.594 395.135 248.235 396.777 250.263 396.777C252.29 396.777 253.932 395.135 253.932 393.107Z" fill="white"/>
<path d="M250.262 397.249C247.981 397.249 246.123 395.391 246.123 393.109C246.123 390.827 247.981 388.969 250.262 388.969C252.544 388.969 254.402 390.827 254.402 393.109C254.402 395.391 252.544 397.249 250.262 397.249ZM250.262 389.905C248.498 389.905 247.064 391.34 247.064 393.104C247.064 394.869 248.498 396.304 250.262 396.304C252.026 396.304 253.461 394.869 253.461 393.104C253.461 391.34 252.026 389.905 250.262 389.905Z" fill="black"/>
<path d="M288.993 387.582C291.342 387.027 292.797 384.673 292.242 382.324C291.688 379.975 289.334 378.52 286.985 379.074C284.637 379.629 283.182 381.983 283.736 384.332C284.291 386.681 286.644 388.137 288.993 387.582Z" fill="#7859BC"/>
<path d="M309.87 376.449C311.896 376.449 313.539 374.806 313.539 372.779C313.539 370.752 311.896 369.109 309.87 369.109C307.844 369.109 306.201 370.752 306.201 372.779C306.201 374.806 307.844 376.449 309.87 376.449Z" fill="white"/>
<path d="M309.87 376.921C307.588 376.921 305.73 375.063 305.73 372.781C305.73 370.499 307.588 368.641 309.87 368.641C312.151 368.641 314.009 370.499 314.009 372.781C314.009 375.063 312.151 376.921 309.87 376.921ZM309.87 369.577C308.106 369.577 306.671 371.012 306.671 372.776C306.671 374.541 308.106 375.976 309.87 375.976C311.634 375.976 313.068 374.541 313.068 372.776C313.068 371.012 311.634 369.577 309.87 369.577Z" fill="black"/>
<path d="M372.914 370.596H330.443C330.184 370.596 329.973 370.384 329.973 370.125C329.973 369.867 330.184 369.655 330.443 369.655H372.443V336.65C372.443 336.391 372.655 336.18 372.914 336.18C373.173 336.18 373.384 336.391 373.384 336.65V370.125C373.384 370.384 373.173 370.596 372.914 370.596Z" fill="black"/>
<path d="M29.7279 327.767L26.2988 455.998H94.1749L96.2305 435.429L103.771 455.998H175.758L126.396 290.734L28.3544 292.79L29.7279 327.767Z" fill="white"/>
<path d="M103.771 456.466C103.578 456.466 103.4 456.349 103.329 456.156L96.4945 437.51L94.6412 456.043C94.6129 456.302 94.3872 456.485 94.1285 456.466C93.8697 456.443 93.6816 456.212 93.7051 455.953L95.7607 435.384C95.7842 435.167 95.9535 434.993 96.1699 434.965C96.3863 434.937 96.5933 435.064 96.6685 435.271L104.209 455.84C104.298 456.085 104.171 456.353 103.931 456.443C103.879 456.461 103.823 456.471 103.771 456.471V456.466Z" fill="black"/>
<path d="M175.758 456.466C175.556 456.466 175.368 456.334 175.306 456.132L126.048 291.211L28.8483 293.249L30.1983 327.745L26.7692 456.01C26.7598 456.268 26.5528 456.466 26.2847 456.466C26.026 456.461 25.819 456.245 25.8284 455.981L29.2575 327.75L27.8887 292.806C27.884 292.679 27.931 292.557 28.0157 292.468C28.1004 292.373 28.2227 292.322 28.3497 292.322L126.387 290.266C126.608 290.27 126.787 290.397 126.848 290.6L176.21 455.864C176.285 456.113 176.144 456.377 175.894 456.447C175.847 456.461 175.805 456.466 175.758 456.466Z" fill="black"/>
<path d="M96.2314 435.896C96.2314 435.896 96.2079 435.896 96.1985 435.896C95.9398 435.877 95.7422 435.656 95.761 435.393C95.8927 433.459 101.015 358.359 101.015 358.359L101.956 358.425C101.956 358.425 96.8335 433.52 96.7018 435.458C96.683 435.708 96.476 435.896 96.2314 435.896Z" fill="black"/>
<path d="M13.4852 250.369C13.4852 250.369 27.3144 335.575 27.3144 341.55C27.3144 341.55 98.9865 341.865 101.498 341.55C104.015 341.235 104.641 334.949 104.641 334.949C104.641 334.949 107.467 341.55 109.043 341.865C110.614 342.18 147.394 340.924 147.394 340.924L114.072 224.906L13.4805 250.374L13.4852 250.369Z" fill="#7859BC"/>
<path d="M35.9274 187.945C35.9274 187.945 9.15799 199.298 5.50312 225.81C1.84826 252.326 18.3022 287.985 48.4678 307.642C78.6334 327.299 100.464 325.125 100.464 325.125L103.771 300.787H111.541L80.1669 180.492L53.8678 184.468L35.9321 187.949L35.9274 187.945Z" fill="#7859BC"/>
<path d="M103.78 301.251C103.747 301.251 103.71 301.251 103.677 301.242C68.7603 293.38 55.4814 263.363 43.7689 236.879L42.4189 233.835C42.3154 233.6 42.4189 233.317 42.6588 233.214C42.8987 233.106 43.1762 233.214 43.2797 233.454L44.6297 236.498C56.2528 262.779 69.4282 292.561 103.884 300.32C104.138 300.376 104.298 300.63 104.241 300.884C104.194 301.101 103.997 301.251 103.785 301.251H103.78Z" fill="black"/>
<path d="M82.9571 323.471C82.9242 323.471 82.896 323.471 82.8631 323.462C82.7643 323.443 72.8486 321.359 60.233 315.026C48.591 309.182 32.1841 298.413 20.1517 280.304C20.0059 280.087 20.0671 279.796 20.2835 279.65C20.4998 279.504 20.7915 279.565 20.9373 279.782C43.7508 314.113 82.6608 322.46 83.0512 322.54C83.3052 322.591 83.4699 322.841 83.4181 323.095C83.3711 323.316 83.1782 323.471 82.9571 323.471Z" fill="black"/>
<path d="M488.867 327.682L433.616 114.395C432.901 111.629 430.399 109.695 427.544 109.695H70.2886C66.1822 109.695 63.1858 113.572 64.216 117.548L119.467 330.835C120.182 333.601 122.684 335.535 125.54 335.535H482.79C486.896 335.535 489.893 331.658 488.863 327.682H488.867Z" fill="white"/>
<path d="M482.789 336.002H125.539C122.467 336.002 119.781 333.923 119.01 330.949L63.7543 117.662C63.2274 115.625 63.6602 113.503 64.949 111.842C66.2379 110.177 68.1806 109.227 70.2832 109.227H427.534C430.61 109.227 433.291 111.306 434.062 114.28L489.314 327.566C489.84 329.604 489.408 331.726 488.119 333.386C486.83 335.052 484.887 336.002 482.785 336.002H482.789ZM70.2879 110.163C68.4769 110.163 66.807 110.986 65.6969 112.416C64.5916 113.847 64.2152 115.672 64.6668 117.427L119.918 330.714C120.581 333.273 122.891 335.066 125.539 335.066H482.789C484.6 335.066 486.275 334.243 487.38 332.812C488.486 331.382 488.862 329.557 488.41 327.802L433.159 114.515C432.496 111.955 430.187 110.163 427.538 110.163H70.2879Z" fill="black"/>
<path d="M480.16 330.972H133.935C133.677 330.972 133.465 330.761 133.465 330.502C133.465 330.243 133.677 330.031 133.935 330.031H480.155C480.414 330.031 480.626 330.243 480.626 330.502C480.626 330.761 480.414 330.972 480.155 330.972H480.16Z" fill="black"/>
<path d="M124.367 319.943C124.155 319.943 123.967 319.802 123.91 319.586L71.7734 112.552C71.7122 112.298 71.8627 112.044 72.1167 111.982C72.3707 111.921 72.6247 112.072 72.6859 112.326L124.818 319.36C124.879 319.614 124.729 319.868 124.475 319.929C124.437 319.939 124.4 319.943 124.357 319.943H124.367Z" fill="black"/>
<path d="M117.613 231.689C117.406 231.689 117.214 231.553 117.157 231.341L107.072 193.41C107.006 193.161 107.157 192.902 107.406 192.836C107.655 192.77 107.914 192.916 107.98 193.17L118.065 231.101C118.131 231.35 117.98 231.609 117.731 231.675C117.689 231.684 117.651 231.689 117.609 231.689H117.613Z" fill="black"/>
<path d="M99.7715 130.719H402.688L448.621 314.497H147.421L99.7715 130.719H402.688H99.7715Z" fill="#D7CDEB"/>
<path d="M240.74 314.97C240.533 314.97 240.34 314.829 240.283 314.617L192.639 130.839C192.573 130.59 192.723 130.331 192.977 130.265C193.231 130.2 193.485 130.35 193.551 130.604L241.196 314.382C241.262 314.631 241.111 314.89 240.857 314.956C240.82 314.965 240.777 314.97 240.74 314.97Z" fill="white"/>
<path d="M300.828 314.97C300.621 314.97 300.428 314.829 300.371 314.617L252.726 130.839C252.661 130.59 252.811 130.331 253.065 130.265C253.314 130.2 253.573 130.35 253.639 130.604L301.284 314.382C301.35 314.631 301.199 314.89 300.945 314.956C300.908 314.965 300.865 314.97 300.828 314.97Z" fill="white"/>
<path d="M360.917 314.97C360.711 314.97 360.518 314.829 360.461 314.617L312.816 130.839C312.75 130.59 312.901 130.331 313.155 130.265C313.404 130.2 313.663 130.35 313.729 130.604L361.374 314.382C361.44 314.631 361.289 314.89 361.035 314.956C360.997 314.965 360.955 314.97 360.917 314.97Z" fill="white"/>
<path d="M180.654 314.97C180.447 314.97 180.254 314.829 180.198 314.617L132.553 130.839C132.487 130.59 132.637 130.331 132.891 130.265C133.145 130.2 133.399 130.35 133.465 130.604L181.11 314.382C181.176 314.631 181.025 314.89 180.771 314.956C180.734 314.965 180.691 314.97 180.654 314.97Z" fill="white"/>
<path d="M421.005 314.97C420.798 314.97 420.606 314.829 420.549 314.617L372.904 130.839C372.838 130.59 372.989 130.331 373.243 130.265C373.492 130.2 373.751 130.35 373.817 130.604L421.462 314.382C421.528 314.631 421.377 314.89 421.123 314.956C421.085 314.965 421.043 314.97 421.005 314.97Z" fill="white"/>
<path d="M453.381 288.824H139.209C138.95 288.824 138.738 288.612 138.738 288.353C138.738 288.095 138.95 287.883 139.209 287.883H453.386C453.645 287.883 453.857 288.095 453.857 288.353C453.857 288.612 453.645 288.824 453.386 288.824H453.381Z" fill="white"/>
<path d="M442.333 252.785H128.16C127.901 252.785 127.689 252.573 127.689 252.314C127.689 252.055 127.901 251.844 128.16 251.844H442.337C442.596 251.844 442.808 252.055 442.808 252.314C442.808 252.573 442.596 252.785 442.337 252.785H442.333Z" fill="white"/>
<path d="M431.282 216.753H117.109C116.85 216.753 116.639 216.542 116.639 216.283C116.639 216.024 116.85 215.812 117.109 215.812H431.287C431.545 215.812 431.757 216.024 431.757 216.283C431.757 216.542 431.545 216.753 431.287 216.753H431.282Z" fill="white"/>
<path d="M420.233 180.707H106.06C105.802 180.707 105.59 180.495 105.59 180.236C105.59 179.977 105.802 179.766 106.06 179.766H420.238C420.496 179.766 420.708 179.977 420.708 180.236C420.708 180.495 420.496 180.707 420.238 180.707H420.233Z" fill="white"/>
<path d="M409.189 144.675H95.0114C94.7527 144.675 94.541 144.464 94.541 144.205C94.541 143.946 94.7527 143.734 95.0114 143.734H409.189C409.448 143.734 409.659 143.946 409.659 144.205C409.659 144.464 409.448 144.675 409.189 144.675Z" fill="white"/>
<path d="M224.964 253.122C224.893 253.122 224.818 253.104 224.747 253.071L155.512 217.299C155.281 217.182 155.192 216.895 155.31 216.664C155.427 216.434 155.714 216.344 155.945 216.462L224.776 252.026L265.929 178.094C266.056 177.868 266.343 177.783 266.569 177.91L336.28 216.594L375.373 139.664C375.491 139.433 375.773 139.339 376.003 139.457C376.234 139.575 376.328 139.857 376.21 140.087L336.896 217.455C336.839 217.568 336.736 217.652 336.614 217.69C336.491 217.728 336.36 217.713 336.247 217.652L266.522 178.959L225.378 252.883C225.293 253.038 225.133 253.122 224.968 253.122H224.964Z" fill="black"/>
<path d="M272.082 178.813C272.082 181.899 269.565 184.407 266.461 184.407C263.356 184.407 260.84 181.904 260.84 178.813C260.84 175.722 263.356 173.219 266.461 173.219C269.565 173.219 272.082 175.722 272.082 178.813Z" fill="#7859BC"/>
<path d="M224.701 258.18C227.806 258.18 230.322 255.676 230.322 252.586C230.322 249.497 227.806 246.992 224.701 246.992C221.597 246.992 219.08 249.497 219.08 252.586C219.08 255.676 221.597 258.18 224.701 258.18Z" fill="#7859BC"/>
<path d="M155.564 222.759C158.669 222.759 161.185 220.254 161.185 217.164C161.185 214.075 158.669 211.57 155.564 211.57C152.46 211.57 149.943 214.075 149.943 217.164C149.943 220.254 152.46 222.759 155.564 222.759Z" fill="#7859BC"/>
<path d="M341.973 217.375C341.973 220.462 339.456 222.969 336.352 222.969C333.247 222.969 330.73 220.466 330.73 217.375C330.73 214.284 333.247 211.781 336.352 211.781C339.456 211.781 341.973 214.284 341.973 217.375Z" fill="#7859BC"/>
<path d="M381.574 140.328C381.574 143.415 379.058 145.923 375.953 145.923C372.849 145.923 370.332 143.42 370.332 140.328C370.332 137.237 372.849 134.734 375.953 134.734C379.058 134.734 381.574 137.237 381.574 140.328Z" fill="#7859BC"/>
<path d="M424.834 295.304L431.669 456.474L548.394 456.531C548.394 456.531 524.931 347.881 507.565 290.735C488.825 289.823 424.839 295.308 424.839 295.308L424.834 295.304Z" fill="white"/>
<path d="M445.216 456.695C444.971 456.695 444.764 456.502 444.745 456.253C443.353 433.434 441.768 405.802 440.234 379.078C438.701 352.355 437.116 324.728 435.723 301.914C435.709 301.655 435.907 301.429 436.166 301.415C436.429 301.401 436.65 301.598 436.664 301.857C438.056 324.671 439.642 352.303 441.175 379.027C442.709 405.75 444.294 433.382 445.686 456.201C445.7 456.46 445.503 456.686 445.244 456.7C445.234 456.7 445.225 456.7 445.216 456.7V456.695Z" fill="black"/>
<path d="M500.081 456.691C499.855 456.691 499.657 456.531 499.62 456.301C493.383 420.548 488.298 385.252 484.506 351.391C484.483 351.161 484.624 350.949 484.845 350.888C490.429 349.293 495.513 346.239 499.549 342.066C499.728 341.878 500.029 341.873 500.213 342.057C500.401 342.235 500.405 342.536 500.222 342.72C496.163 346.921 491.073 350.013 485.48 351.683C489.262 385.403 494.328 420.544 500.542 456.146C500.584 456.4 500.415 456.644 500.161 456.691C500.133 456.691 500.104 456.696 500.081 456.696V456.691Z" fill="black"/>
<path d="M548.394 457C548.178 457 547.98 456.85 547.933 456.628C547.698 455.546 524.362 347.748 507.207 291.186C489.149 290.4 431.043 295.251 425.323 295.735L432.134 456.454C432.144 456.713 431.941 456.934 431.683 456.944C431.678 456.944 431.669 456.944 431.664 456.944C431.415 456.944 431.203 456.746 431.194 456.492L424.364 295.321C424.354 295.072 424.542 294.855 424.792 294.832C425.431 294.775 489.022 289.351 507.584 290.259C507.781 290.268 507.955 290.4 508.012 290.593C525.185 347.103 548.615 455.339 548.85 456.426C548.907 456.68 548.742 456.93 548.488 456.986C548.455 456.995 548.422 456.995 548.389 456.995L548.394 457Z" fill="black"/>
<path d="M530.608 261.97C532.828 255.886 534.451 248.932 534.94 241.127C536.718 212.648 474.807 183.657 474.807 183.657L464.75 183.125L499.831 249.318L498.246 254.729C504.304 258.027 517.908 264.266 530.608 261.965V261.97Z" fill="#7859BC"/>
<path d="M498.246 254.734L489.77 283.688C489.77 283.688 504.29 296.359 510.297 291.578C514.657 288.106 524.733 278.094 530.608 261.975C517.908 264.276 504.3 258.033 498.246 254.739V254.734Z" fill="white"/>
<path d="M506.895 293.123C499.962 293.123 489.966 284.485 489.463 284.047C489.265 283.878 489.247 283.577 489.416 283.384C489.59 283.186 489.886 283.168 490.079 283.337C490.22 283.459 504.369 295.692 510.005 291.213C512.225 289.444 523.636 279.724 530.165 261.817C530.255 261.572 530.523 261.45 530.767 261.535C531.012 261.624 531.139 261.892 531.049 262.137C524.436 280.279 512.846 290.154 510.593 291.947C509.553 292.775 508.283 293.123 506.895 293.123Z" fill="black"/>
<path d="M476.995 282.616H511.883C513.073 282.616 514.108 281.788 514.367 280.626L525.275 231.455C525.628 229.865 524.419 228.359 522.791 228.359H480.452C479.116 228.359 478.011 229.39 477.917 230.726L474.46 279.897C474.356 281.369 475.523 282.616 476.995 282.616Z" fill="black"/>
<path d="M422.548 303.749C420.836 297.576 407.124 217 411.579 199.517C411.842 198.482 430.253 184.155 430.606 183.148C452.107 182.447 474.803 183.656 474.803 183.656C474.803 183.656 512.321 296.974 513.539 301.392C514.757 305.81 424.26 309.926 422.548 303.753V303.749Z" fill="#7859BC"/>
<path d="M489.394 227.937C489.206 227.937 489.027 227.82 488.957 227.636C488.787 227.199 484.846 216.838 484.474 214.335C484.446 214.147 484.535 213.964 484.695 213.865C484.86 213.766 485.067 213.776 485.217 213.889C485.56 214.143 487.014 214.491 487.936 214.66C488.19 214.707 488.359 214.952 488.312 215.206C488.265 215.46 488.021 215.634 487.767 215.582C487.489 215.531 486.431 215.328 485.589 215.055C486.468 218.466 489.794 227.199 489.832 227.293C489.926 227.537 489.803 227.806 489.559 227.9C489.502 227.923 489.446 227.933 489.389 227.933L489.394 227.937Z" fill="black"/>
<path d="M430.61 183.148C430.61 183.148 425.521 184.202 418.667 186.033C411.814 187.863 378.219 197.235 378.219 197.235C378.219 197.235 380.543 187.157 381.446 183.567C378.751 187.035 361.139 188.192 356.788 184.386C351.694 191.824 345.118 210.197 347.141 217.692C351.13 232.484 405.986 232.437 450.324 227.864L435.737 186.503L430.62 183.148H430.61Z" fill="#7859BC"/>
<path d="M381.44 183.568C383.138 176.797 385.612 165.538 385.758 156.9C385.974 143.679 379.704 137.93 377.428 138.805C375.151 139.68 376.487 142.334 377.428 144.653C378.368 146.968 378.857 148.987 378.857 148.987C378.857 148.987 375.443 145.213 372.87 149.481C372.87 149.481 368.9 145.458 367.027 149.923C367.027 149.923 362.756 146.686 360.959 151.828C359.163 156.971 363.57 156.905 363.57 156.905C363.57 156.905 363.645 165.261 365.249 169.269C365.249 169.269 360.56 176.374 356.891 184.391C358.655 188.254 377.418 189.246 381.44 183.572V183.568Z" fill="white"/>
<path d="M357.136 184.412C357.07 184.412 357 184.398 356.934 184.365C356.699 184.252 356.6 183.969 356.713 183.739C360.565 175.67 364.008 170.302 364.728 169.205C363.383 165.592 363.152 159.09 363.11 157.34C362.475 157.26 361.346 156.977 360.645 156.008C359.911 154.992 359.869 153.529 360.518 151.67C361.106 149.991 362.019 148.951 363.228 148.584C364.662 148.151 366.106 148.805 366.835 149.228C367.386 148.184 368.119 147.568 369.027 147.389C370.533 147.097 372.057 148.156 372.781 148.758C373.548 147.681 374.456 147.088 375.486 146.984C376.455 146.89 377.339 147.262 378.007 147.681C377.772 146.909 377.433 145.897 376.996 144.825L376.76 144.26C376.069 142.59 375.349 140.863 375.895 139.588C376.135 139.028 376.596 138.619 377.259 138.36C378.007 138.073 378.99 138.313 380.03 139.042C382.988 141.113 386.389 147.036 386.229 156.907C386.083 165.616 383.153 178.531 381.902 183.678C381.841 183.932 381.587 184.087 381.333 184.026C381.079 183.965 380.923 183.711 380.984 183.457C382.231 178.338 385.147 165.507 385.288 156.893C385.458 146.735 381.723 141.381 379.493 139.819C378.741 139.292 378.035 139.08 377.598 139.245C377.174 139.409 376.897 139.645 376.76 139.965C376.37 140.873 377.038 142.482 377.631 143.903C377.711 144.095 377.791 144.284 377.866 144.477C378.811 146.796 379.296 148.791 379.315 148.876C379.366 149.083 379.268 149.299 379.079 149.403C378.891 149.501 378.656 149.464 378.51 149.304C378.496 149.29 377.094 147.77 375.57 147.93C374.714 148.015 373.943 148.617 373.275 149.723C373.2 149.845 373.073 149.93 372.927 149.948C372.781 149.967 372.64 149.915 372.536 149.812C372.518 149.793 370.74 148.019 369.201 148.32C368.486 148.462 367.903 149.059 367.466 150.104C367.409 150.24 367.296 150.339 367.155 150.376C367.014 150.414 366.864 150.386 366.751 150.297C366.732 150.282 365.034 149.026 363.5 149.492C362.597 149.77 361.892 150.607 361.412 151.986C360.871 153.538 360.871 154.71 361.412 155.462C362.122 156.446 363.557 156.446 363.571 156.436C363.688 156.436 363.815 156.483 363.905 156.568C363.994 156.658 364.046 156.775 364.046 156.902C364.046 156.987 364.14 165.216 365.692 169.093C365.749 169.238 365.735 169.403 365.645 169.53C365.608 169.587 361.845 175.181 357.564 184.143C357.484 184.313 357.315 184.412 357.141 184.412H357.136Z" fill="black"/>
<path d="M363.81 156.068C363.777 156.068 363.749 156.068 363.716 156.059C363.462 156.007 363.298 155.758 363.349 155.504L363.806 153.259C363.857 153.005 364.107 152.841 364.361 152.892C364.615 152.944 364.779 153.193 364.728 153.448L364.271 155.692C364.224 155.913 364.031 156.068 363.81 156.068Z" fill="black"/>
<path d="M377.071 204.793C377.038 204.793 377 204.793 376.967 204.784C376.713 204.728 376.553 204.474 376.615 204.219C376.826 203.278 377.066 202.022 377.297 200.813C377.527 199.59 377.767 198.324 377.988 197.364C378.045 197.11 378.299 196.955 378.553 197.012C378.807 197.068 378.967 197.322 378.905 197.576C378.689 198.522 378.454 199.778 378.223 200.997C377.993 202.215 377.753 203.476 377.537 204.436C377.485 204.652 377.292 204.803 377.08 204.803L377.071 204.793Z" fill="black"/>
<path d="M440.251 166.905L442.66 182.041L436.695 183.222C436.695 183.222 437.683 185.569 459.415 184.478C454.885 172.551 450.75 158.431 450.75 158.431C450.75 158.431 439.184 156.7 440.256 166.905H440.251Z" fill="white"/>
<path d="M436.691 183.598C436.47 183.598 436.273 183.438 436.231 183.212C436.183 182.958 436.353 182.713 436.607 182.666L442.12 181.66L440.036 168.406C438.883 164.59 439.1 161.584 440.676 159.471C442.948 156.423 447.172 156.39 447.355 156.408C447.614 156.408 447.825 156.62 447.821 156.879C447.821 157.138 447.609 157.349 447.35 157.349C447.294 157.349 443.409 157.378 441.428 160.036C440.041 161.904 439.876 164.637 440.948 168.161C440.953 168.18 440.958 168.204 440.963 168.222L443.122 181.961C443.159 182.215 442.99 182.45 442.741 182.497L436.776 183.584C436.748 183.589 436.72 183.593 436.691 183.593V183.598Z" fill="black"/>
<path d="M431.089 147.118C431.089 147.118 433.648 146.995 434.584 150.896C435.52 154.791 436.31 156.622 438.69 157.407C438.69 157.407 443.032 152.956 445.675 157.012C448.319 161.072 445.473 164.507 441.419 164.766C441.419 164.766 442.091 168.624 438.996 169.419C432.1 171.188 430.092 158.376 431.094 147.118H431.089Z" fill="white"/>
<path d="M437.74 170.056C436.626 170.056 435.61 169.67 434.706 168.903C430.567 165.389 429.918 154.949 430.619 147.077C430.638 146.842 430.83 146.659 431.066 146.649C431.193 146.645 434.024 146.555 435.04 150.785C435.906 154.398 436.611 156.101 438.573 156.868C439.222 156.271 441.198 154.657 443.23 154.855C444.363 154.968 445.318 155.607 446.071 156.76C447.284 158.618 447.501 160.538 446.692 162.157C445.878 163.784 444.086 164.918 441.946 165.191C442.063 166.763 441.612 169.237 439.114 169.877C438.643 170 438.187 170.056 437.745 170.056H437.74ZM431.512 147.642C430.854 155.786 431.766 165.172 435.313 168.184C436.343 169.059 437.505 169.313 438.869 168.96C441.503 168.282 440.972 164.984 440.948 164.843C440.925 164.711 440.962 164.575 441.042 164.471C441.122 164.368 441.249 164.302 441.381 164.293C443.404 164.161 445.111 163.178 445.84 161.728C446.499 160.42 446.297 158.835 445.271 157.263C444.678 156.351 443.978 155.866 443.131 155.781C441.146 155.584 439.039 157.706 439.015 157.729C438.888 157.856 438.7 157.903 438.531 157.847C435.958 156.995 435.087 155.043 434.118 150.997C433.507 148.442 432.18 147.797 431.512 147.637V147.642Z" fill="black"/>
<path d="M440.996 160.371C440.921 160.371 440.85 160.353 440.779 160.32C440.549 160.202 440.46 159.915 440.577 159.684C441.316 158.259 441.988 157.577 443.823 157.563C444.105 157.558 444.293 157.77 444.298 158.028C444.298 158.287 444.091 158.499 443.832 158.504C442.463 158.513 442.049 158.899 441.414 160.117C441.33 160.277 441.165 160.371 440.996 160.371Z" fill="black"/>
<path d="M430.609 183.154C430.609 183.154 433.065 179.94 432.303 176.59C431.541 173.236 459.726 171.41 464.754 172.935C469.783 174.459 465.484 180.058 467.802 180.707C472.807 182.114 473.8 182.787 474.811 183.662C474.811 183.662 472.676 195.946 454.091 196.403C435.506 196.859 430.614 183.154 430.614 183.154H430.609Z" fill="#7859BC"/>
<path d="M430.606 183.621C430.371 183.621 430.169 183.447 430.141 183.207C430.108 182.948 430.291 182.713 430.55 182.685C441.011 181.414 461.158 179.866 461.36 179.852C461.619 179.838 461.844 180.026 461.863 180.285C461.882 180.544 461.689 180.77 461.43 180.789C461.228 180.803 441.1 182.351 430.658 183.616C430.639 183.616 430.62 183.616 430.602 183.616L430.606 183.621Z" fill="black"/>
<path d="M413.174 231.323C412.92 231.323 412.713 231.126 412.703 230.872C412.694 230.613 412.896 230.396 413.155 230.387L421.674 230.086C421.674 230.086 421.683 230.086 421.692 230.086C421.946 230.086 422.153 230.284 422.163 230.538C422.172 230.796 421.97 231.013 421.711 231.022L413.193 231.323C413.193 231.323 413.183 231.323 413.174 231.323Z" fill="black"/>
<path d="M446.569 161.407L447.402 162.814C446.899 165.081 444.58 172.812 450.751 175.583C456.923 178.354 467.549 175.155 467.422 168.732C467.295 162.31 461.753 159.666 461.753 159.666C465.277 155.634 469.162 145.368 460.874 139.139C454.481 128.755 445.695 133.93 445.695 133.93C438.14 130.529 430.906 136.367 429.269 142.286C427.632 148.205 430.779 150.722 430.779 150.722L431.085 147.123C431.085 147.123 432.877 146.45 434.09 149.607C435.304 152.764 435.351 154.025 436.033 155.239C436.71 156.453 438.681 157.412 438.681 157.412C438.681 157.412 440.596 155.192 443.409 155.582C446.221 155.973 447.049 158.448 446.565 161.407H446.569Z" fill="black"/>
<path d="M103.772 300.788C103.772 300.788 115.452 300.854 123.147 299.659C130.838 298.464 130.974 303.507 126.195 304.434C126.195 304.434 132.827 303.902 133.622 305.893C134.417 307.883 132.141 309.624 128.961 310.419C128.961 310.419 130.941 311.101 131.073 313.228C131.205 315.349 125.767 316.413 125.767 316.413C125.767 316.413 127.39 317.17 127.126 319.029C126.863 320.887 121.557 321.946 113.73 323.404C105.903 324.863 100.602 325.131 100.602 325.131L103.777 300.793L103.772 300.788Z" fill="white"/>
<path d="M100.596 325.597C100.347 325.597 100.14 325.399 100.126 325.15C100.112 324.891 100.314 324.67 100.573 324.656C100.624 324.656 105.94 324.374 113.64 322.939C119.929 321.767 126.429 320.553 126.655 318.958C126.867 317.462 125.578 316.841 125.564 316.836C125.381 316.752 125.272 316.554 125.296 316.352C125.319 316.15 125.475 315.985 125.672 315.947C127.314 315.627 130.677 314.545 130.597 313.256C130.484 311.468 128.819 310.871 128.8 310.866C128.603 310.8 128.476 310.607 128.485 310.4C128.494 310.193 128.64 310.014 128.843 309.963C130.987 309.426 132.587 308.485 133.118 307.441C133.349 306.989 133.372 306.537 133.184 306.067C132.723 304.914 128.838 304.693 126.232 304.9C125.978 304.914 125.762 304.74 125.729 304.496C125.696 304.246 125.86 304.016 126.105 303.969C128.146 303.573 129.087 302.421 128.937 301.541C128.748 300.459 126.876 299.551 123.217 300.12C115.573 301.306 103.893 301.254 103.766 301.254C103.508 301.254 103.296 301.042 103.301 300.779C103.301 300.52 103.512 300.313 103.771 300.313C103.781 300.313 103.856 300.313 104.03 300.313C105.789 300.313 116.133 300.266 123.071 299.188C127.676 298.473 129.605 299.922 129.859 301.381C130.004 302.218 129.619 303.164 128.673 303.889C130.799 303.931 133.48 304.284 134.054 305.714C134.341 306.429 134.308 307.173 133.956 307.864C133.391 308.965 132.027 309.92 130.141 310.56C130.766 311.049 131.453 311.877 131.538 313.195C131.655 315.11 128.523 316.197 126.834 316.644C127.328 317.18 127.742 318.003 127.587 319.095C127.276 321.254 122.403 322.266 113.814 323.87C106.048 325.319 100.676 325.597 100.62 325.602C100.61 325.602 100.605 325.602 100.596 325.602V325.597Z" fill="black"/>
<path d="M145.085 104.908C145.372 104.828 147.512 101.807 149.657 102.193C151.802 102.579 152.085 100.641 153.947 100.641C155.81 100.641 156.652 102.579 157.96 102.062C159.267 101.544 160.476 100.509 161.972 101.158C163.468 101.807 163.651 103.487 164.677 103.097C165.702 102.711 168.035 102.32 168.783 103.873C169.531 105.425 168.252 113.607 167.264 114.953C165.834 116.891 164.315 115.767 163.755 114.214C163.755 114.214 162.461 118.096 160.801 118.096C158.228 118.096 157.245 114.402 157.245 114.402C157.245 114.402 156.647 119.343 154.244 119.437C151.887 119.531 151.247 114.092 151.247 114.092C151.247 114.092 149.958 117.362 147.983 115.903C146.308 114.661 145.231 109.702 145.231 109.702L140.32 109.627C140.32 109.627 138.467 108.15 139.215 106.211C139.963 104.273 142.762 105.567 145.09 104.917L145.085 104.908Z" fill="white"/>
<path d="M154.177 119.899C152.263 119.899 151.378 117.199 151.007 115.477C150.645 115.98 150.137 116.484 149.497 116.667C149.083 116.785 148.434 116.813 147.705 116.272C146.157 115.124 145.155 111.402 144.854 110.156L140.315 110.085C140.212 110.085 140.113 110.047 140.028 109.982C139.943 109.911 137.916 108.264 138.777 106.029C139.36 104.51 140.908 104.566 142.399 104.618C143.236 104.646 144.102 104.674 144.897 104.472C144.962 104.411 145.094 104.275 145.207 104.152C146.058 103.254 147.832 101.381 149.746 101.729C150.706 101.903 151.176 101.536 151.774 101.075C152.319 100.652 152.94 100.172 153.951 100.172C154.963 100.172 155.777 100.704 156.393 101.132C157.023 101.569 157.376 101.795 157.79 101.626C158.081 101.513 158.368 101.367 158.669 101.216C159.676 100.713 160.819 100.144 162.16 100.727C162.959 101.071 163.416 101.654 163.782 102.12C164.234 102.689 164.323 102.731 164.507 102.661C165.937 102.12 168.369 101.941 169.201 103.672C170.038 105.413 168.736 113.741 167.635 115.232C166.793 116.371 165.956 116.517 165.396 116.432C164.798 116.347 164.239 115.952 163.811 115.35C163.265 116.606 162.193 118.563 160.791 118.563C159.06 118.563 157.983 117.185 157.385 116.037C156.967 117.622 156.063 119.834 154.248 119.904C154.22 119.904 154.191 119.904 154.168 119.904L154.177 119.899ZM151.242 113.614C151.242 113.614 151.284 113.614 151.303 113.614C151.515 113.642 151.684 113.811 151.708 114.023C151.858 115.312 152.639 118.954 154.177 118.954C154.191 118.954 154.201 118.954 154.215 118.954C155.856 118.888 156.614 115.595 156.769 114.334C156.797 114.112 156.981 113.938 157.202 113.92C157.423 113.91 157.63 114.051 157.691 114.268C157.7 114.301 158.613 117.613 160.791 117.613C161.788 117.613 162.912 115.218 163.298 114.056C163.359 113.868 163.538 113.736 163.74 113.736H163.745C163.942 113.736 164.121 113.858 164.187 114.047C164.474 114.837 165.01 115.416 165.528 115.496C166.078 115.576 166.562 115.091 166.873 114.668C167.734 113.496 169.018 105.465 168.345 104.072C167.724 102.783 165.546 103.263 164.831 103.531C163.961 103.861 163.444 103.216 163.035 102.694C162.715 102.289 162.352 101.833 161.774 101.583C160.838 101.174 160.019 101.583 159.074 102.054C158.768 102.209 158.448 102.364 158.124 102.496C157.221 102.854 156.492 102.346 155.842 101.899C155.283 101.508 154.704 101.108 153.937 101.108C153.246 101.108 152.823 101.437 152.333 101.814C151.679 102.322 150.936 102.896 149.563 102.651C148.152 102.397 146.613 104.016 145.875 104.797C145.527 105.164 145.395 105.305 145.202 105.357C144.252 105.62 143.241 105.583 142.352 105.554C140.842 105.503 139.967 105.512 139.642 106.364C139.125 107.704 140.141 108.815 140.489 109.144L145.226 109.219C145.442 109.219 145.63 109.375 145.677 109.591C145.969 110.923 146.994 114.588 148.25 115.515C148.598 115.773 148.918 115.853 149.224 115.764C150 115.543 150.621 114.352 150.795 113.91C150.866 113.727 151.04 113.614 151.233 113.614H151.242Z" fill="black"/>
<path d="M35.9277 187.944L48.4352 169.195L59.0611 172.282L53.8634 184.463L58.7177 202.798L35.9277 187.944Z" fill="white"/>
<path d="M35.9268 188.413C35.8374 188.413 35.7481 188.389 35.6681 188.333C35.4517 188.187 35.3953 187.895 35.5364 187.679L48.0438 168.93C48.1567 168.76 48.3684 168.68 48.566 168.737L59.1919 171.823C59.3189 171.861 59.4271 171.95 59.4835 172.072C59.54 172.195 59.5447 172.336 59.4929 172.458L54.2952 184.639C54.1917 184.879 53.9142 184.987 53.679 184.889C53.4391 184.785 53.3309 184.512 53.4297 184.272L58.4205 172.581L48.6365 169.739L36.3219 188.201C36.2326 188.337 36.082 188.413 35.9315 188.413H35.9268Z" fill="black"/>
<path d="M63.8194 155.031C63.8194 155.031 71.1573 168.901 64.0028 175.069C56.8483 181.233 49.7361 175.592 48.706 172.797C48.706 172.797 44.9664 160.131 63.8194 155.031Z" fill="white"/>
<path d="M57.202 178.312C56.2941 178.312 55.471 178.18 54.7654 178.001C51.5574 177.173 48.9421 174.788 48.2694 172.962C48.2083 172.755 46.9994 168.507 49.5959 163.858C51.9807 159.591 56.7269 156.467 63.7027 154.58C63.9143 154.519 64.1354 154.622 64.2389 154.815C64.5446 155.394 71.6662 169.09 64.3142 175.427C61.7365 177.648 59.2528 178.312 57.202 178.312ZM63.5757 155.587C57.0609 157.412 52.6346 160.348 50.4191 164.31C48.0154 168.615 49.1537 172.619 49.1632 172.661C49.6382 173.945 51.8302 176.265 55.0006 177.088C57.0844 177.625 60.2877 177.653 63.7027 174.712C69.8929 169.377 64.6152 157.718 63.5757 155.587Z" fill="black"/>
<path d="M47.6198 163.945C46.5567 163.112 44.9762 162.698 43.8709 163.474C42.8125 164.218 42.6196 165.728 42.8736 166.998C43.0806 168.029 43.5134 169.012 44.139 169.859C44.3789 170.184 44.647 170.489 44.9668 170.725C45.536 171.143 46.2416 171.341 46.9424 171.43C47.5681 171.51 48.2172 171.51 48.8146 171.308C49.412 171.106 49.9576 170.682 50.1928 170.099C50.6396 168.998 49.887 167.714 49.539 166.683C49.1768 165.61 48.5088 164.646 47.6151 163.945H47.6198Z" fill="white"/>
<path d="M49.5495 166.675C49.1873 165.603 48.5194 164.638 47.6257 163.937C46.5626 163.104 44.9821 162.69 43.8767 163.467C42.8184 164.21 42.6255 165.72 42.8795 166.991C43.0865 168.021 43.5192 169.004 44.1448 169.851C44.3847 170.176 44.6528 170.482 44.9727 170.717C45.5419 171.136 46.2474 171.333 46.9483 171.423C47.5739 171.503 48.223 171.503 48.8204 171.3L49.5495 166.675Z" fill="white"/>
<path d="M47.6819 171.945C47.4326 171.945 47.1692 171.927 46.887 171.894C45.9744 171.776 45.2547 171.517 44.695 171.103C44.3704 170.863 44.0741 170.553 43.7683 170.139C43.1051 169.24 42.6394 168.186 42.4183 167.09C42.1502 165.744 42.3243 163.989 43.6084 163.086C44.9443 162.15 46.7788 162.682 47.9171 163.575C48.8673 164.319 49.6058 165.368 49.9962 166.535C50.0809 166.779 49.9444 167.048 49.6998 167.132C49.4552 167.212 49.1871 167.081 49.1025 166.836C48.7685 165.843 48.1429 164.949 47.3338 164.319C46.4589 163.637 45.0901 163.199 44.1446 163.862C43.2274 164.507 43.138 165.904 43.3356 166.911C43.5284 167.871 43.9377 168.798 44.5162 169.584C44.7702 169.927 45.0007 170.172 45.25 170.355C45.6781 170.675 46.2519 170.877 47.0046 170.972C47.6725 171.056 48.2134 171.023 48.6697 170.873C48.9143 170.793 49.1824 170.924 49.2671 171.169C49.3518 171.414 49.2153 171.682 48.9707 171.767C48.585 171.898 48.157 171.96 47.6819 171.96V171.945Z" fill="black"/>
<path d="M45.748 165.641C46.5477 165.641 47.6343 166.553 48.2034 167.927L45.748 165.641Z" fill="white"/>
<path d="M48.2031 168.399C48.0197 168.399 47.8456 168.291 47.7704 168.108C47.2577 166.875 46.3216 166.113 45.7477 166.113C45.489 166.113 45.2773 165.901 45.2773 165.642C45.2773 165.384 45.489 165.172 45.7477 165.172C46.8014 165.172 48.015 166.254 48.6359 167.745C48.7347 167.985 48.6218 168.263 48.3819 168.362C48.3207 168.385 48.2596 168.399 48.2031 168.399Z" fill="black"/>
<path d="M49.4651 165.892C49.4651 165.892 51.9628 165.84 53.929 163.873C55.8952 161.907 56.154 158.35 57.7533 158.133C63.4966 157.371 63.967 155.602 63.967 155.602L65.1571 157.804C65.1571 157.804 68.9483 157.244 68.2804 151.448C67.6125 145.647 63.7083 145.759 62.3677 145.534C61.0271 145.313 61.2717 141.676 56.6996 140.895C52.7013 140.208 50.1001 142.635 49.3193 143.304C48.5385 143.972 44.3003 142.076 41.2899 143.863C38.2794 145.647 37.9455 149.999 37.6115 150.667C37.2775 151.335 33.4956 152.972 33.1617 156.096C32.8277 159.22 34.5493 161.488 35.2172 162.382C35.8852 163.276 33.9801 165.078 34.761 167.755C35.5418 170.432 38.9474 172.422 39.954 172.53C40.9606 172.639 39.9023 175.64 43.5618 175.984L46.5958 171.359C46.5958 171.359 44.4085 171.265 43.2184 168.884C42.0284 166.508 42.5035 164.174 43.6935 163.417C44.8836 162.655 46.3089 162.655 47.4472 163.464C48.5855 164.273 49.4698 165.892 49.4698 165.892H49.4651Z" fill="black"/>
<path d="M227.039 109.837C226.78 109.837 226.568 109.626 226.568 109.367V73.5721C226.568 73.3133 226.78 73.1016 227.039 73.1016H263.253C263.512 73.1016 263.724 73.3133 263.724 73.5721C263.724 73.8308 263.512 74.0425 263.253 74.0425H227.509V109.367C227.509 109.626 227.297 109.837 227.039 109.837Z" fill="black"/>
<path d="M278.075 80.9521C282.187 80.9521 285.521 77.605 285.521 73.4761C285.521 69.3472 282.187 66 278.075 66C273.963 66 270.629 69.3472 270.629 73.4761C270.629 77.605 273.963 80.9521 278.075 80.9521Z" fill="#D7CDEB"/>
<path d="M299.811 80.9521C303.924 80.9521 307.258 77.605 307.258 73.4761C307.258 69.3472 303.924 66 299.811 66C295.699 66 292.365 69.3472 292.365 73.4761C292.365 77.605 295.699 80.9521 299.811 80.9521Z" fill="#D7CDEB"/>
<path d="M321.548 80.9521C325.66 80.9521 328.994 77.605 328.994 73.4761C328.994 69.3472 325.66 66 321.548 66C317.435 66 314.102 69.3472 314.102 73.4761C314.102 77.605 317.435 80.9521 321.548 80.9521Z" fill="#D7CDEB"/>
<path d="M543.164 87.8377C542.905 87.8377 542.693 87.626 542.693 87.3672V73.9254H337.677C337.419 73.9254 337.207 73.7136 337.207 73.4549C337.207 73.1961 337.419 72.9844 337.677 72.9844H543.164C543.422 72.9844 543.634 73.1961 543.634 73.4549V87.3672C543.634 87.626 543.422 87.8377 543.164 87.8377Z" fill="black"/>
<path d="M552.919 181.587C575.907 176.227 590.187 153.194 584.815 130.14C579.443 107.086 556.453 92.742 533.465 98.1011C510.477 103.46 496.197 126.494 501.569 149.547C506.941 172.601 529.931 186.946 552.919 181.587Z" fill="white"/>
<path d="M543.327 183.199C541.526 183.199 539.715 183.086 537.894 182.86C526.422 181.43 516.196 175.601 509.093 166.45C494.45 147.588 497.832 120.313 516.633 105.653C525.73 98.5626 537.043 95.4433 548.483 96.8689C559.955 98.2992 570.181 104.129 577.284 113.28C591.927 132.141 588.545 159.416 569.744 174.076C562.091 180.042 552.871 183.199 543.322 183.199H543.327ZM543.059 97.4758C533.717 97.4758 524.7 100.562 517.216 106.396C498.824 120.737 495.518 147.418 509.841 165.871C516.788 174.82 526.793 180.522 538.012 181.924C549.202 183.321 560.27 180.272 569.17 173.333C587.562 158.992 590.869 132.311 576.545 113.858C569.598 104.91 559.593 99.2072 548.374 97.8051C546.596 97.584 544.823 97.4711 543.064 97.4711L543.059 97.4758Z" fill="black"/>
<path d="M523.021 94.7477C543.257 85.465 567.934 90.9273 582.252 109.267L543.253 139.675C543.253 139.675 526.465 102.181 523.021 94.7477Z" fill="#D7CDEB"/>
<path d="M589.524 139.484C589.754 151.929 584.904 163.766 576.485 172.428C568.432 164.491 543.666 140.021 543.666 140.021C543.666 140.021 581.899 139.654 589.524 139.484Z" fill="white"/>
<path d="M576.485 172.9C576.363 172.9 576.246 172.853 576.156 172.764C568.193 164.921 543.582 140.601 543.338 140.357C543.201 140.225 543.159 140.022 543.234 139.844C543.305 139.665 543.474 139.552 543.667 139.552C544.048 139.552 581.984 139.185 589.52 139.016C589.652 139.016 589.764 139.058 589.854 139.147C589.943 139.232 589.995 139.354 590 139.477C590.225 151.78 585.427 163.909 576.829 172.759C576.74 172.849 576.622 172.9 576.495 172.9H576.49H576.485ZM544.801 140.484C549.062 144.694 569.044 164.436 576.476 171.762C584.586 163.236 589.153 151.7 589.059 139.966C581.382 140.121 551.057 140.422 544.801 140.484Z" fill="black"/>
<path d="M222.956 289.408C212.622 289.408 202.736 285.761 194.815 278.964C176.704 263.423 174.626 236.061 190.181 217.968C205.735 199.874 233.124 197.796 251.234 213.337C260.007 220.865 265.321 231.355 266.195 242.875C267.071 254.396 263.402 265.568 255.868 274.333C248.333 283.097 237.833 288.406 226.301 289.279C225.183 289.363 224.066 289.405 222.956 289.405V289.408ZM194.325 221.524C180.732 237.333 182.55 261.244 198.374 274.824C206.039 281.403 215.812 284.604 225.887 283.84C235.965 283.076 245.139 278.437 251.724 270.779C258.309 263.121 261.513 253.357 260.749 243.291C259.984 233.225 255.34 224.058 247.675 217.479C231.848 203.898 207.916 205.712 194.325 221.524Z" fill="black"/>
<path d="M152.454 318.086C151.674 318.086 150.895 317.788 150.3 317.194C149.111 316.006 149.111 314.079 150.3 312.889L190.507 272.719C191.696 271.531 193.625 271.531 194.817 272.719C196.006 273.907 196.006 275.835 194.817 277.025L154.608 317.194C154.013 317.788 153.233 318.086 152.454 318.086Z" fill="black"/>
</g>
<defs>
<clipPath id="clip0_1027_8659">
<rect width="585" height="391" fill="white" transform="translate(5 66)"/>
</clipPath>
</defs>
</svg>
