<svg width="592" height="522" viewBox="0 0 592 522" fill="none" xmlns="http://www.w3.org/2000/svg">
<path d="M66.4271 154.994C54.8941 179.237 39.4482 235.431 45.9404 293.674C54.2665 368.393 96.0736 427.382 136.782 460.559C271.893 570.652 517.91 499.277 550.92 395.882C556.912 377.122 555.265 359.018 553.264 336.746C546.86 265.891 525.128 245.395 512.124 167.812C501.317 103.4 493.785 84.5899 481.703 62.5046C443.926 -6.47753 305.079 -5.87931 219.955 25.5912C187.259 37.6832 107.558 68.5653 66.4369 154.994H66.4271Z" fill="#D7CDEB"/>
<g clip-path="url(#clip0_1027_2548)">
<path d="M511.754 159.641H87.184C77.03 159.641 68.7227 151.311 68.7227 141.129C68.7227 130.947 77.03 122.617 87.184 122.617H511.754C521.908 122.617 530.216 130.947 530.216 141.129C530.216 151.311 521.908 159.641 511.754 159.641Z" fill="white"/>
<path d="M511.754 160.088H87.1836C76.7583 160.088 68.2773 151.584 68.2773 141.13C68.2773 130.676 76.7583 122.172 87.1836 122.172H511.754C522.179 122.172 530.66 130.676 530.66 141.13C530.66 151.584 522.179 160.088 511.754 160.088ZM87.1836 123.064C77.2477 123.064 69.1673 131.167 69.1673 141.13C69.1673 151.093 77.2477 159.196 87.1836 159.196H511.754C521.69 159.196 529.77 151.093 529.77 141.13C529.77 131.167 521.69 123.064 511.754 123.064H87.1836Z" fill="black"/>
<path d="M504.963 146.828C500.633 146.828 497.109 143.294 497.109 138.953C497.109 134.612 500.633 131.078 504.963 131.078C509.292 131.078 512.816 134.612 512.816 138.953C512.816 143.294 509.292 146.828 504.963 146.828ZM504.963 131.975C501.123 131.975 497.999 135.107 497.999 138.958C497.999 142.808 501.123 145.94 504.963 145.94C508.803 145.94 511.927 142.808 511.927 138.958C511.927 135.107 508.803 131.975 504.963 131.975Z" fill="black"/>
<path d="M517.107 151.409C516.991 151.409 516.88 151.364 516.791 151.279L509.97 144.439C509.796 144.265 509.796 143.984 509.97 143.81C510.144 143.636 510.424 143.636 510.597 143.81L517.419 150.65C517.592 150.824 517.592 151.105 517.419 151.279C517.33 151.368 517.218 151.409 517.103 151.409H517.107Z" fill="black"/>
<path d="M139.484 146.54H90.3207C87.1214 146.54 84.5273 143.939 84.5273 140.731C84.5273 137.523 87.1214 134.922 90.3207 134.922H139.484C142.683 134.922 145.278 137.523 145.278 140.731C145.278 143.939 142.683 146.54 139.484 146.54Z" fill="#D7CDEB"/>
<path d="M477.651 146.54H442.282C439.082 146.54 436.488 143.939 436.488 140.731C436.488 137.523 439.082 134.922 442.282 134.922H477.651C480.851 134.922 483.445 137.523 483.445 140.731C483.445 143.939 480.851 146.54 477.651 146.54Z" fill="#D7CDEB"/>
<path d="M259.689 146.54H164.352C161.153 146.54 158.559 143.939 158.559 140.731C158.559 137.523 161.153 134.922 164.352 134.922H259.689C262.888 134.922 265.482 137.523 265.482 140.731C265.482 143.939 262.888 146.54 259.689 146.54Z" fill="#D7CDEB"/>
<path d="M393.299 147.878H309.451C305.504 147.878 302.305 144.67 302.305 140.712C302.305 136.755 305.504 133.547 309.451 133.547H393.299C397.245 133.547 400.445 136.755 400.445 140.712C400.445 144.67 397.245 147.878 393.299 147.878Z" fill="#7859BC"/>
<path d="M230.572 180.965C229.628 177.628 226.438 175.258 223.056 174.616C219.675 173.973 216.159 174.826 213.023 176.244C209.881 177.668 207.024 179.64 204.061 181.398C198.401 184.753 192.296 187.336 185.96 189.063C172.985 192.597 159.156 192.525 146.479 197.014C141.113 198.915 135.493 202.27 134.163 207.843C133.326 211.341 134.452 215.155 136.734 217.926C139.013 220.693 142.341 222.464 145.825 223.254C146.443 226.627 148.966 229.42 151.948 231.071C154.929 232.721 158.346 233.382 161.723 233.806C176.167 235.617 191.384 233.324 203.807 225.672C210.064 221.817 215.483 216.552 219.506 210.364C221.503 207.289 223.154 203.983 224.365 200.521C225.508 197.259 225.517 193.601 226.669 190.424C227.243 188.84 228.752 188.09 229.651 186.721C230.736 185.061 231.123 182.884 230.581 180.96L230.572 180.965Z" fill="black"/>
<path d="M91.5691 429.014L34.8324 425.984C32.5009 429.366 30.4718 432.516 28.7988 435.381C27.3972 437.786 29.1459 440.811 31.9269 440.811L95.8451 441.672C98.7062 441.712 100.072 438.161 97.9231 436.269C95.022 433.717 92.1653 430.848 91.5691 429.018V429.014Z" fill="white"/>
<path d="M264.201 437.992L252.414 429.015C252.414 429.015 252.316 428.765 252.525 428.939L196.118 427.641L190.56 433.668C188.051 436.39 189.977 440.807 193.675 440.807H263.253C264.753 440.807 265.393 438.898 264.201 437.987V437.992Z" fill="white"/>
<path d="M263.251 441.254H193.673C191.782 441.254 190.135 440.174 189.379 438.439C188.622 436.703 188.947 434.758 190.233 433.366L195.791 427.338C195.96 427.159 196.24 427.146 196.418 427.311C196.6 427.481 196.609 427.762 196.445 427.94L190.887 433.968C189.846 435.097 189.583 436.668 190.197 438.077C190.812 439.483 192.146 440.357 193.677 440.357H263.255C263.847 440.357 264.194 439.96 264.319 439.594C264.443 439.224 264.408 438.702 263.936 438.341L252.149 429.364C251.953 429.216 251.913 428.935 252.064 428.739C252.211 428.543 252.492 428.502 252.687 428.654L264.474 437.631C265.173 438.162 265.444 439.046 265.164 439.88C264.884 440.714 264.136 441.254 263.26 441.254H263.251Z" fill="black"/>
<path d="M32.1851 442.235C30.6811 442.177 29.3195 441.276 28.5231 439.825C27.6776 438.282 27.6376 436.493 28.4163 435.158C29.9603 432.513 31.9581 429.456 34.3609 426.07C34.5033 425.869 34.7836 425.824 34.9794 425.963C35.1796 426.106 35.2286 426.382 35.0862 426.583C32.7012 429.947 30.7167 432.981 29.186 435.605C28.572 436.653 28.6209 438.139 29.3062 439.393C29.9603 440.584 31.0148 441.293 32.2029 441.342H96.1033C97.4382 441.302 98.4438 440.852 98.7775 440.133C99.1691 439.303 98.7509 438.063 97.5717 436.542C96.6106 435.301 95.4226 434.172 94.3725 433.177C93.1266 431.995 92.0542 430.978 91.5025 429.961C91.3868 429.746 91.4624 429.474 91.6805 429.354C91.894 429.238 92.1655 429.314 92.2856 429.532C92.7706 430.425 93.7985 431.397 94.9865 432.526C96.0589 433.543 97.2736 434.694 98.2747 435.988C99.6897 437.818 100.13 439.339 99.5829 440.508C99.0935 441.552 97.8298 442.177 96.1167 442.23H32.1851V442.235Z" fill="black"/>
<path d="M168.597 272.241L224.355 271.406C224.355 271.406 278.796 327.816 289.635 356.68C297.043 376.414 259.493 416.289 252.525 428.938C250.034 429.009 233.503 429.33 227.221 429.415C220.858 429.5 214.499 429.228 208.154 428.75C204.136 428.447 200.123 428.059 196.118 427.639L244.721 360.414L198.018 319.857C162.479 347.172 91.5661 429.009 91.5661 429.009C91.6328 429.21 56.1163 428.884 50.9458 428.501C45.5574 428.099 40.0711 427.479 34.7227 426.323C72.8689 372.55 168.597 272.236 168.597 272.236V272.241Z" fill="#7859BC"/>
<path d="M251.485 366.338C251.373 366.338 251.262 366.298 251.173 366.213C249.416 364.491 247.48 362.947 245.411 361.617C245.206 361.483 245.144 361.207 245.278 361.001C245.411 360.796 245.687 360.734 245.892 360.868C248.01 362.228 249.999 363.812 251.796 365.579C251.97 365.753 251.974 366.034 251.805 366.208C251.716 366.298 251.605 366.342 251.489 366.342L251.485 366.338Z" fill="black"/>
<path d="M198.896 319.465C198.794 319.465 198.687 319.43 198.603 319.354C198.416 319.193 198.398 318.912 198.558 318.725C199.884 317.194 201.393 315.816 203.043 314.638C204.018 313.937 205.201 313.197 206.572 312.974C208.085 312.728 209.571 313.255 210.35 314.308C210.496 314.504 210.456 314.785 210.256 314.932C210.06 315.08 209.78 315.039 209.633 314.839C209.046 314.049 207.898 313.661 206.71 313.853C205.522 314.044 204.449 314.723 203.559 315.361C201.967 316.498 200.512 317.828 199.23 319.309C199.141 319.412 199.016 319.461 198.892 319.461L198.896 319.465Z" fill="black"/>
<path d="M198.404 273.865L224.354 271.407L236.791 252.092C236.791 252.092 255.47 271.973 274.234 278.822C292.998 285.671 303.108 267.806 293.132 252.092C283.156 236.377 278.657 230.997 278.657 230.997L266.568 235.534C266.568 235.534 260.814 223.425 250.496 219.427C240.177 215.429 182.653 218.78 176.116 220.552C163.262 224.036 149.779 248.027 147.15 255.144C144.52 262.26 154.674 272.103 187.316 293.613C187.316 293.613 203.744 278.376 203.731 277.814C203.726 277.555 198.4 273.865 198.4 273.865H198.404Z" fill="white"/>
<path d="M282.07 280.751C279.551 280.751 276.855 280.256 274.078 279.239C256.783 272.925 239.381 255.408 236.791 252.736L222.979 267.482C222.81 267.66 222.53 267.669 222.352 267.5C222.174 267.33 222.165 267.049 222.334 266.871L236.466 251.781C236.551 251.692 236.666 251.638 236.791 251.638C236.916 251.638 237.031 251.687 237.116 251.777C237.303 251.973 255.938 271.658 274.385 278.391C282.257 281.264 289.145 279.944 293.287 274.768C297.866 269.053 297.652 260.031 292.758 252.321C284.059 238.614 279.485 232.734 278.515 231.516L266.723 235.942C266.505 236.022 266.265 235.924 266.167 235.714C266.109 235.594 260.365 223.717 250.335 219.83C240.208 215.908 183.182 219.085 176.237 220.968C163.11 224.524 149.788 249.278 147.572 255.284C145.89 259.839 149.939 265.59 161.112 274.518C161.304 274.67 161.335 274.951 161.184 275.143C161.032 275.335 160.752 275.366 160.556 275.214C149.027 266.005 144.898 259.951 146.736 254.971C148.987 248.881 162.55 223.752 176.005 220.107C182.995 218.211 240.435 215.038 250.66 219C260.133 222.672 265.722 232.859 266.79 234.965L278.506 230.57C278.684 230.503 278.88 230.556 279.004 230.699C279.049 230.753 283.636 236.281 293.514 251.839C298.613 259.87 298.805 269.311 293.986 275.326C291.134 278.886 286.933 280.738 282.074 280.738L282.07 280.751Z" fill="black"/>
<path d="M188.46 266.384C188.376 266.384 188.291 266.362 188.216 266.309L173.483 256.444C173.278 256.305 173.225 256.029 173.358 255.823C173.496 255.618 173.772 255.565 173.977 255.698L188.709 265.563C188.914 265.702 188.968 265.978 188.834 266.184C188.749 266.313 188.607 266.38 188.465 266.38L188.46 266.384Z" fill="black"/>
<path d="M176.616 257.759C176.523 257.759 176.434 257.732 176.354 257.674C176.153 257.527 176.113 257.25 176.26 257.049L188.617 240.175C188.732 240.014 188.941 239.952 189.124 240.019L190.312 240.447C190.543 240.532 190.663 240.786 190.579 241.018C190.494 241.25 190.241 241.371 190.009 241.286L189.133 240.969L176.972 257.576C176.883 257.696 176.75 257.759 176.612 257.759H176.616Z" fill="black"/>
<path d="M237.726 251.875C237.628 251.875 237.53 251.844 237.445 251.777C237.254 251.621 237.227 251.34 237.379 251.148C239.056 249.077 240.943 247.154 242.981 245.432C243.768 244.772 244.712 244.12 245.775 244.317C246.015 244.361 246.176 244.593 246.131 244.839C246.087 245.08 245.855 245.24 245.61 245.196C244.912 245.066 244.178 245.588 243.55 246.115C241.557 247.797 239.71 249.68 238.064 251.71C237.975 251.817 237.846 251.875 237.717 251.875H237.726Z" fill="black"/>
<path d="M272.816 267.664C272.678 267.664 272.54 267.597 272.451 267.472L260.117 249.866C259.974 249.665 260.023 249.384 260.224 249.246C260.424 249.103 260.704 249.152 260.842 249.353L273.176 266.959C273.319 267.16 273.27 267.441 273.07 267.579C272.994 267.633 272.9 267.66 272.816 267.66V267.664Z" fill="black"/>
<path d="M185.131 290.6C185.082 290.6 185.033 290.591 184.984 290.574C184.752 290.493 184.632 290.239 184.712 290.002C187.031 283.395 191.796 277.536 197.781 273.922C197.99 273.797 198.266 273.864 198.39 274.074C198.515 274.284 198.448 274.56 198.239 274.685C192.428 278.192 187.805 283.885 185.553 290.297C185.487 290.48 185.317 290.596 185.135 290.596L185.131 290.6Z" fill="black"/>
<path d="M175.57 284.682C175.468 284.682 175.366 284.647 175.281 284.575C175.094 284.415 175.072 284.133 175.232 283.946C176.918 281.978 179.713 281.086 182.227 281.657C181.955 279.056 182.525 276.415 183.851 274.152C185.293 271.69 187.557 269.798 190.236 268.816C190.467 268.731 190.721 268.852 190.806 269.084C190.89 269.316 190.77 269.57 190.539 269.655C188.091 270.547 185.933 272.354 184.616 274.603C183.299 276.852 182.779 279.623 183.197 282.197C183.224 282.353 183.166 282.509 183.046 282.608C182.925 282.71 182.765 282.741 182.614 282.688C180.273 281.889 177.519 282.648 175.908 284.526C175.819 284.629 175.695 284.682 175.57 284.682Z" fill="black"/>
<path d="M266.568 256.85C266.43 256.85 266.297 256.787 266.208 256.667C266.061 256.466 266.105 256.189 266.306 256.042C268.78 254.24 270.248 251.098 270.052 248.038C270.043 247.89 270.106 247.748 270.221 247.658C270.337 247.569 270.488 247.538 270.626 247.583C276.188 249.291 282.84 246.681 285.768 241.644C285.893 241.43 286.164 241.358 286.378 241.483C286.591 241.608 286.662 241.88 286.538 242.095C283.517 247.297 276.776 250.072 270.96 248.604C270.955 251.759 269.376 254.909 266.831 256.765C266.751 256.823 266.662 256.85 266.568 256.85Z" fill="black"/>
<path d="M185.891 307.168C185.068 307.168 184.249 306.842 183.64 306.2C182.452 304.951 182.496 302.974 183.742 301.783L298.319 192.068C299.565 190.877 301.536 190.921 302.724 192.17C303.912 193.42 303.867 195.396 302.622 196.588L188.045 306.302C187.44 306.878 186.665 307.168 185.896 307.168H185.891Z" fill="black"/>
<path d="M351.411 217.534C350.886 217.534 350.37 217.53 349.845 217.517C330.516 217.102 312.504 209.164 299.124 195.168C285.749 181.167 278.607 162.784 279.021 143.402C279.435 124.02 287.351 105.959 301.309 92.5425C315.272 79.1305 333.6 71.9693 352.933 72.3843C392.837 73.2409 424.607 106.49 423.757 146.503C422.916 185.99 390.608 217.539 351.411 217.539V217.534ZM351.353 78.6129C334.218 78.6129 318.03 85.1271 305.621 97.0534C292.859 109.314 285.629 125.818 285.25 143.536C284.472 180.105 313.51 210.494 349.978 211.275C386.447 212.051 416.753 182.938 417.532 146.369C418.311 109.801 389.273 79.4115 352.804 78.6307C352.319 78.6218 351.834 78.6173 351.353 78.6173V78.6129Z" fill="black"/>
<path d="M364.911 198.703C364.711 198.703 364.533 198.569 364.479 198.368C364.417 198.127 364.564 197.886 364.8 197.824C386.336 192.345 402.216 174.556 405.264 152.501C405.3 152.256 405.527 152.086 405.767 152.122C406.012 152.158 406.181 152.381 406.145 152.626C404.628 163.611 399.898 173.788 392.463 182.056C385.103 190.243 375.612 195.994 365.018 198.694C364.982 198.703 364.942 198.707 364.906 198.707L364.911 198.703Z" fill="black"/>
<path d="M299.372 127.921C299.328 127.921 299.279 127.912 299.23 127.899C298.999 127.818 298.87 127.568 298.95 127.332C302.14 117.77 307.902 109.244 315.609 102.681C323.373 96.0684 332.775 91.7405 342.791 90.17C343.032 90.1298 343.263 90.2993 343.299 90.5403C343.339 90.7857 343.17 91.0132 342.929 91.0489C322.795 94.2034 306.269 108.213 299.795 127.613C299.733 127.8 299.559 127.917 299.372 127.917V127.921Z" fill="black"/>
<path d="M201.576 276.125C201.576 276.125 209.941 281.144 211.316 285.914C212.691 290.688 211.552 293.343 208.976 294.574C208.976 294.574 207.885 298.046 204.61 297.715C204.61 297.715 204.397 301.062 201.318 301.169C201.318 301.169 200.726 303.819 197.812 303.288C194.897 302.753 194.261 300.973 195.044 299.817C195.044 299.817 188.365 295.614 186.234 292.763C184.102 289.907 191.871 276.879 201.567 276.125H201.576Z" fill="white"/>
<path d="M201.43 301.34C201.43 301.34 201.408 301.34 201.399 301.34C201.154 301.323 200.967 301.108 200.985 300.863C201.047 299.993 200.896 299.11 200.549 298.306C200.451 298.079 200.553 297.816 200.78 297.718C201.007 297.619 201.27 297.718 201.368 297.95C201.772 298.882 201.95 299.913 201.875 300.926C201.857 301.162 201.661 301.34 201.43 301.34Z" fill="black"/>
<path d="M204.686 298.281C204.686 298.281 204.668 298.281 204.659 298.281C204.414 298.268 204.227 298.053 204.241 297.808C204.307 296.719 203.938 295.626 203.226 294.801C203.066 294.613 203.084 294.332 203.271 294.172C203.458 294.011 203.738 294.029 203.898 294.216C204.761 295.216 205.215 296.545 205.131 297.862C205.117 298.098 204.921 298.281 204.686 298.281Z" fill="black"/>
<path d="M208.943 295.273C208.943 295.273 208.925 295.273 208.916 295.273C208.671 295.26 208.484 295.045 208.498 294.8C208.578 293.399 208.222 291.967 207.488 290.775C207.359 290.566 207.425 290.289 207.635 290.16C207.844 290.03 208.12 290.097 208.249 290.307C209.076 291.659 209.486 293.27 209.392 294.854C209.379 295.09 209.183 295.273 208.947 295.273H208.943Z" fill="black"/>
<path d="M279.899 232.428C279.899 232.428 275.249 244.149 259.262 248.075L254.091 240.437C254.091 240.437 248.983 240.013 250.171 231.897C250.487 229.751 252.774 230.683 252.774 230.683C252.774 230.683 251.858 226.81 256.574 226.81C256.574 226.81 255.751 221.139 261.616 223.062C261.616 223.062 262.27 218.311 266.653 219.783C271.035 221.255 279.903 232.428 279.903 232.428H279.899Z" fill="white"/>
<path d="M259.261 248.522C259.114 248.522 258.976 248.451 258.891 248.326L253.828 240.848C253.311 240.75 252.003 240.389 250.958 239.068C249.672 237.448 249.258 235.012 249.725 231.831C249.832 231.104 250.148 230.586 250.659 230.292C251.18 229.993 251.794 230.006 252.252 230.082C252.235 229.457 252.332 228.529 252.955 227.739C253.605 226.914 254.66 226.454 256.088 226.37C256.057 225.544 256.155 223.884 257.298 222.921C258.206 222.153 259.541 222.011 261.276 222.488C261.472 221.734 261.984 220.324 263.212 219.561C264.186 218.954 265.392 218.883 266.789 219.356C271.248 220.855 279.88 231.688 280.245 232.148C280.343 232.273 280.369 232.442 280.311 232.589C280.263 232.71 275.39 244.569 259.367 248.505C259.332 248.513 259.296 248.518 259.261 248.518V248.522ZM251.718 230.93C251.5 230.93 251.282 230.965 251.104 231.068C250.837 231.224 250.677 231.514 250.611 231.96C250.183 234.874 250.535 237.073 251.647 238.497C252.702 239.844 254.072 239.983 254.13 239.991C254.264 240.005 254.384 240.076 254.459 240.183L259.456 247.568C273.548 243.985 278.625 234.142 279.386 232.496C278.145 230.961 270.393 221.511 266.509 220.204C265.374 219.824 264.422 219.864 263.683 220.324C262.34 221.158 262.059 223.104 262.055 223.122C262.037 223.251 261.961 223.367 261.85 223.438C261.739 223.51 261.601 223.523 261.476 223.483C259.826 222.943 258.615 222.983 257.877 223.603C256.715 224.581 257.013 226.718 257.013 226.74C257.031 226.869 256.996 226.999 256.911 227.097C256.827 227.195 256.702 227.253 256.573 227.253C255.189 227.253 254.21 227.601 253.663 228.293C252.911 229.239 253.205 230.568 253.209 230.582C253.245 230.742 253.191 230.912 253.062 231.023C252.938 231.13 252.76 231.162 252.608 231.099C252.448 231.037 252.088 230.93 251.723 230.93H251.718Z" fill="black"/>
<path d="M254.171 240.228C254.002 240.228 253.842 240.134 253.767 239.969C253.33 239.023 252.756 238.148 252.062 237.368C251.898 237.185 251.915 236.904 252.098 236.738C252.28 236.573 252.561 236.591 252.725 236.774C253.473 237.617 254.096 238.568 254.567 239.594C254.67 239.817 254.572 240.085 254.349 240.187C254.287 240.214 254.225 240.228 254.163 240.228H254.171Z" fill="black"/>
<path d="M211.81 203.77L205.465 219.957C205.465 219.957 211.116 221.305 213.861 221.274C214.822 221.265 215.73 220.872 216.509 220.372C217.901 219.471 218.943 218.11 219.552 216.562L223.085 207.598L211.81 203.766V203.77Z" fill="white"/>
<path d="M213.769 221.718C210.974 221.718 205.59 220.446 205.359 220.388C205.234 220.357 205.127 220.276 205.065 220.16C205.007 220.044 204.998 219.911 205.047 219.79L211.393 203.603C211.477 203.38 211.726 203.268 211.949 203.344L223.224 207.177C223.34 207.217 223.433 207.302 223.486 207.413C223.54 207.525 223.54 207.65 223.495 207.766L219.962 216.729C219.291 218.434 218.178 219.826 216.745 220.749C215.762 221.383 214.792 221.713 213.862 221.722C213.831 221.722 213.8 221.722 213.769 221.722V221.718ZM206.066 219.634C207.504 219.955 211.659 220.848 213.853 220.825C214.614 220.816 215.424 220.54 216.265 219.995C217.537 219.174 218.53 217.93 219.135 216.399L222.499 207.873L212.069 204.33L206.066 219.638V219.634Z" fill="black"/>
<path d="M211.491 228.935C211.371 228.935 211.256 228.886 211.171 228.797C208.675 226.173 205.529 224.237 202.067 223.188C201.831 223.117 201.698 222.867 201.769 222.631C201.84 222.394 202.09 222.26 202.325 222.332C205.747 223.367 208.88 225.241 211.411 227.766L214.081 223.42C214.21 223.211 214.482 223.144 214.695 223.273C214.904 223.403 214.971 223.679 214.842 223.889L211.874 228.721C211.803 228.837 211.678 228.917 211.54 228.931C211.523 228.931 211.509 228.931 211.491 228.931V228.935Z" fill="black"/>
<path d="M217.019 228.515C217.019 228.515 216.988 228.515 216.974 228.515C216.823 228.497 216.69 228.408 216.623 228.274C215.871 226.779 215.297 225.195 214.919 223.567C214.861 223.326 215.012 223.085 215.252 223.032C215.493 222.974 215.733 223.125 215.786 223.366C216.098 224.705 216.543 226.008 217.117 227.252C218.452 225.637 219.902 224.107 221.446 222.701C221.629 222.536 221.909 222.55 222.074 222.733C222.238 222.916 222.225 223.197 222.042 223.362C220.36 224.897 218.79 226.579 217.366 228.359C217.281 228.466 217.152 228.524 217.019 228.524V228.515Z" fill="black"/>
<path d="M229.713 199.116C229.753 201.637 229.575 204.314 228.156 206.393C226.594 208.682 223.68 209.837 220.939 209.579C218.198 209.315 215.675 207.763 213.895 205.652C212.462 205.929 210.909 205.84 209.637 205.117C208.369 204.394 207.452 202.944 207.617 201.481C207.781 200.017 209.214 198.737 210.651 198.991C211.617 199.16 212.369 199.91 213.014 200.655C213.232 200.909 213.472 201.182 213.797 201.24C214.336 201.342 214.812 200.789 214.874 200.24C214.941 199.691 214.727 199.156 214.58 198.625C213.642 195.221 215.452 191.468 218.282 189.376C220.578 187.676 223.408 186.917 226.207 186.667C226.608 186.632 227.858 186.355 228.183 186.601C228.552 186.882 228.588 188.332 228.668 188.791C228.957 190.415 229.193 192.053 229.366 193.695C229.558 195.497 229.673 197.309 229.705 199.12L229.713 199.116Z" fill="white"/>
<path d="M221.729 210.06C221.453 210.06 221.177 210.046 220.897 210.019C218.276 209.77 215.678 208.355 213.724 206.129C212.114 206.388 210.592 206.164 209.417 205.495C207.9 204.63 206.997 202.992 207.175 201.422C207.272 200.538 207.78 199.677 208.523 199.119C209.195 198.615 209.978 198.41 210.725 198.544C211.82 198.736 212.634 199.53 213.351 200.355C213.515 200.547 213.702 200.761 213.88 200.797C213.96 200.81 214.045 200.788 214.129 200.726C214.285 200.61 214.41 200.391 214.432 200.186C214.472 199.829 214.361 199.449 214.241 199.043C214.209 198.941 214.183 198.843 214.152 198.74C213.226 195.385 214.815 191.383 218.018 189.013C220.127 187.452 222.868 186.515 226.17 186.216C226.254 186.207 226.379 186.189 226.521 186.167C227.389 186.033 228.079 185.957 228.448 186.238C228.849 186.542 228.951 187.269 229.049 188.259C229.067 188.442 229.084 188.603 229.102 188.71C229.4 190.392 229.636 192.052 229.805 193.64C230.001 195.501 230.117 197.339 230.148 199.106C230.188 201.591 230.023 204.424 228.515 206.642C227.064 208.77 224.461 210.06 221.72 210.06H221.729ZM213.898 205.201C214.027 205.201 214.152 205.259 214.236 205.357C216.056 207.516 218.517 208.895 220.982 209.127C223.7 209.386 226.375 208.212 227.79 206.138C229.16 204.13 229.302 201.462 229.267 199.119C229.24 197.379 229.124 195.568 228.933 193.734C228.764 192.163 228.533 190.521 228.239 188.862C228.217 188.741 228.199 188.558 228.177 188.344C228.145 188.018 228.061 187.171 227.923 186.952C227.692 186.89 226.953 187.001 226.668 187.046C226.499 187.073 226.357 187.095 226.259 187.099C223.122 187.38 220.532 188.264 218.557 189.723C215.647 191.878 214.192 195.483 215.019 198.495C215.046 198.588 215.073 198.682 215.104 198.78C215.237 199.231 215.389 199.744 215.326 200.284C215.273 200.734 215.019 201.176 214.668 201.435C214.383 201.645 214.049 201.725 213.729 201.667C213.244 201.578 212.923 201.207 212.688 200.935C212.078 200.23 211.406 199.561 210.583 199.418C210.08 199.329 209.537 199.476 209.066 199.829C208.514 200.244 208.14 200.873 208.069 201.52C207.935 202.72 208.674 204.036 209.867 204.719C210.917 205.321 212.323 205.491 213.818 205.205C213.845 205.201 213.876 205.196 213.902 205.196L213.898 205.201Z" fill="black"/>
<path d="M212.689 203.945C212.666 203.945 212.64 203.945 212.617 203.941L210.535 203.597C210.29 203.557 210.13 203.329 210.17 203.084C210.21 202.843 210.437 202.673 210.682 202.718L212.769 203.062C213.013 203.102 213.174 203.329 213.134 203.575C213.098 203.793 212.911 203.95 212.693 203.95L212.689 203.945Z" fill="black"/>
<path d="M351.666 250.442C355.399 249.558 357.712 245.807 356.83 242.063C355.949 238.319 352.208 236.001 348.475 236.884C344.741 237.768 342.429 241.519 343.31 245.263C344.192 249.007 347.932 251.325 351.666 250.442Z" fill="#D16CD6"/>
<path d="M354.988 268.894C357.701 266.174 357.701 261.764 354.988 259.044C352.276 256.324 347.878 256.324 345.165 259.044C342.453 261.764 342.453 266.174 345.165 268.894C347.878 271.614 352.276 271.614 354.988 268.894Z" fill="#D16CD6"/>
<path d="M351.666 291.09C355.399 290.206 357.712 286.455 356.83 282.712C355.949 278.968 352.208 276.649 348.475 277.533C344.741 278.417 342.429 282.168 343.31 285.911C344.192 289.655 347.932 291.974 351.666 291.09Z" fill="#D16CD6"/>
<path d="M395.505 332.432H350.07C349.825 332.432 349.625 332.231 349.625 331.985V298.54C349.625 298.295 349.825 298.094 350.07 298.094C350.315 298.094 350.515 298.295 350.515 298.54V331.539H395.505C395.749 331.539 395.95 331.74 395.95 331.985C395.95 332.231 395.749 332.432 395.505 332.432Z" fill="black"/>
<path d="M559.758 235.719H403.707V428.253H559.758V235.719Z" fill="white"/>
<path d="M559.758 428.7H403.707C403.462 428.7 403.262 428.499 403.262 428.254V235.72C403.262 235.474 403.462 235.273 403.707 235.273H559.758C560.003 235.273 560.203 235.474 560.203 235.72V428.254C560.203 428.499 560.003 428.7 559.758 428.7ZM404.152 427.808H559.313V236.166H404.152V427.808Z" fill="black"/>
<path d="M572.555 249.141H416.504V441.675H572.555V249.141Z" fill="white"/>
<path d="M572.555 442.122H416.504C416.259 442.122 416.059 441.921 416.059 441.676V249.141C416.059 248.896 416.259 248.695 416.504 248.695H572.555C572.8 248.695 573 248.896 573 249.141V441.676C573 441.921 572.8 442.122 572.555 442.122ZM416.949 441.23H572.11V249.588H416.949V441.23Z" fill="black"/>
<path d="M451.343 304.255L453.964 309.578L459.824 310.43C460.981 310.6 461.444 312.023 460.607 312.84L456.367 316.985L457.368 322.838C457.564 323.994 456.358 324.873 455.321 324.329L450.08 321.567L444.838 324.329C443.806 324.873 442.595 323.994 442.791 322.838L443.792 316.985L439.552 312.84C438.715 312.023 439.178 310.595 440.335 310.43L446.195 309.578L448.816 304.255C449.332 303.207 450.827 303.207 451.343 304.255Z" fill="#7859BC"/>
<path d="M480.14 304.255L482.761 309.578L488.621 310.43C489.778 310.6 490.241 312.023 489.404 312.84L485.164 316.985L486.165 322.838C486.361 323.994 485.155 324.873 484.118 324.329L478.876 321.567L473.635 324.329C472.602 324.873 471.392 323.994 471.588 322.838L472.589 316.985L468.349 312.84C467.512 312.023 467.975 310.595 469.132 310.43L474.992 309.578L477.613 304.255C478.129 303.207 479.624 303.207 480.14 304.255Z" fill="#7859BC"/>
<path d="M508.945 304.255L511.566 309.578L517.426 310.43C518.583 310.6 519.045 312.023 518.209 312.84L513.968 316.985L514.97 322.838C515.165 323.994 513.959 324.873 512.923 324.329L507.681 321.567L502.439 324.329C501.407 324.873 500.197 323.994 500.393 322.838L501.394 316.985L497.153 312.84C496.317 312.023 496.78 310.595 497.937 310.43L503.797 309.578L506.417 304.255C506.934 303.207 508.429 303.207 508.945 304.255Z" fill="#7859BC"/>
<path d="M537.742 304.255L540.362 309.578L546.223 310.43C547.379 310.6 547.842 312.023 547.006 312.84L542.765 316.985L543.766 322.838C543.962 323.994 542.756 324.873 541.72 324.329L536.478 321.567L531.236 324.329C530.204 324.873 528.994 323.994 529.19 322.838L530.191 316.985L525.95 312.84C525.114 312.023 525.576 310.595 526.733 310.43L532.593 309.578L535.214 304.255C535.73 303.207 537.225 303.207 537.742 304.255Z" fill="#7859BC"/>
<path d="M539.489 289.562H446.332C441.709 289.562 437.949 285.792 437.949 281.156C437.949 276.52 441.709 272.75 446.332 272.75H539.489C544.112 272.75 547.872 276.52 547.872 281.156C547.872 285.792 544.112 289.562 539.489 289.562ZM446.332 273.638C442.199 273.638 438.839 277.011 438.839 281.152C438.839 285.292 442.203 288.665 446.332 288.665H539.489C543.622 288.665 546.982 285.292 546.982 281.152C546.982 277.011 543.618 273.638 539.489 273.638H446.332Z" fill="black"/>
<path d="M511.996 418.692H438.992C438.747 418.692 438.547 418.491 438.547 418.245V371.134C438.547 370.888 438.747 370.688 438.992 370.688C439.237 370.688 439.437 370.888 439.437 371.134V417.799H511.996C512.241 417.799 512.441 418 512.441 418.245C512.441 418.491 512.241 418.692 511.996 418.692Z" fill="black"/>
<path d="M446.375 411.492H507.357V371.742L490.172 376.195L477.206 386.194L464.725 376.195L446.375 380.866V411.492Z" fill="#D7CDEB"/>
<path d="M546.276 389.931H524.406C524.161 389.931 523.961 389.731 523.961 389.485C523.961 389.24 524.161 389.039 524.406 389.039H546.276C546.52 389.039 546.721 389.24 546.721 389.485C546.721 389.731 546.52 389.931 546.276 389.931Z" fill="black"/>
<path d="M546.276 382.174H524.406C524.161 382.174 523.961 381.973 523.961 381.727C523.961 381.482 524.161 381.281 524.406 381.281H546.276C546.52 381.281 546.721 381.482 546.721 381.727C546.721 381.973 546.52 382.174 546.276 382.174Z" fill="black"/>
<path d="M546.276 374.416H524.406C524.161 374.416 523.961 374.215 523.961 373.97C523.961 373.724 524.161 373.523 524.406 373.523H546.276C546.52 373.523 546.721 373.724 546.721 373.97C546.721 374.215 546.52 374.416 546.276 374.416Z" fill="black"/>
<path d="M546.279 339.586H438.395V356.683H546.279V339.586Z" fill="#D7CDEB"/>
<path d="M527.619 339.594H494.527V356.691H527.619V339.594Z" fill="white"/>
<path d="M527.622 357.138H494.531C494.286 357.138 494.086 356.938 494.086 356.692V339.595C494.086 339.349 494.286 339.148 494.531 339.148H527.622C527.867 339.148 528.067 339.349 528.067 339.595V356.692C528.067 356.938 527.867 357.138 527.622 357.138ZM494.976 356.246H527.177V340.041H494.976V356.246Z" fill="black"/>
<path d="M262.309 109.533H130.027C129.782 109.533 129.582 109.332 129.582 109.087C129.582 108.841 129.782 108.641 130.027 108.641H262.309C262.553 108.641 262.754 108.841 262.754 109.087C262.754 109.332 262.553 109.533 262.309 109.533Z" fill="black"/>
<path d="M262.31 170.291H239.23C238.985 170.291 238.785 170.09 238.785 169.845C238.785 169.599 238.985 169.398 239.23 169.398H262.31C262.555 169.398 262.755 169.599 262.755 169.845C262.755 170.09 262.555 170.291 262.31 170.291Z" fill="black"/>
<path d="M262.307 99.2986H220.281C220.036 99.2986 219.836 99.0978 219.836 98.8524C219.836 98.607 220.036 98.4062 220.281 98.4062H262.307C262.552 98.4062 262.752 98.607 262.752 98.8524C262.752 99.0978 262.552 99.2986 262.307 99.2986Z" fill="black"/>
<path d="M476.275 109.533H436.429C436.185 109.533 435.984 109.332 435.984 109.087C435.984 108.841 436.185 108.641 436.429 108.641H476.275C476.52 108.641 476.72 108.841 476.72 109.087C476.72 109.332 476.52 109.533 476.275 109.533Z" fill="black"/>
<path d="M447.972 170.291H436.429C436.185 170.291 435.984 170.09 435.984 169.845C435.984 169.599 436.185 169.398 436.429 169.398H447.972C448.216 169.398 448.417 169.599 448.417 169.845C448.417 170.09 448.216 170.291 447.972 170.291Z" fill="black"/>
<path d="M447.972 99.2986H436.429C436.185 99.2986 435.984 99.0978 435.984 98.8524C435.984 98.607 436.185 98.4062 436.429 98.4062H447.972C448.216 98.4062 448.417 98.607 448.417 98.8524C448.417 99.0978 448.216 99.2986 447.972 99.2986Z" fill="black"/>
<path d="M114.686 184.33C117.507 184.33 119.794 182.037 119.794 179.208C119.794 176.379 117.507 174.086 114.686 174.086C111.865 174.086 109.578 176.379 109.578 179.208C109.578 182.037 111.865 184.33 114.686 184.33Z" fill="#D7CDEB"/>
<path d="M114.686 199.283C117.507 199.283 119.794 196.99 119.794 194.161C119.794 191.332 117.507 189.039 114.686 189.039C111.865 189.039 109.578 191.332 109.578 194.161C109.578 196.99 111.865 199.283 114.686 199.283Z" fill="#D7CDEB"/>
<path d="M114.686 214.236C117.507 214.236 119.794 211.943 119.794 209.114C119.794 206.285 117.507 203.992 114.686 203.992C111.865 203.992 109.578 206.285 109.578 209.114C109.578 211.943 111.865 214.236 114.686 214.236Z" fill="#D7CDEB"/>
<path d="M114.688 259.813H103.839C103.595 259.813 103.395 259.612 103.395 259.367C103.395 259.121 103.595 258.921 103.839 258.921H114.243V219.595C114.243 219.349 114.443 219.148 114.688 219.148C114.932 219.148 115.133 219.349 115.133 219.595V259.367C115.133 259.612 114.932 259.813 114.688 259.813Z" fill="black"/>
<path d="M88.356 208.703H19.4453V293.722H88.356V208.703Z" fill="white"/>
<path d="M88.3557 294.169H19.445C19.2002 294.169 19 293.968 19 293.723V208.704C19 208.459 19.2002 208.258 19.445 208.258H88.3557C88.6004 208.258 88.8006 208.459 88.8006 208.704V293.723C88.8006 293.968 88.6004 294.169 88.3557 294.169ZM19.8899 293.277H87.9107V209.15H19.8899V293.277Z" fill="black"/>
<path d="M96.2857 217.75H27.375V302.769H96.2857V217.75Z" fill="#D16CD6"/>
<path d="M467.014 228.027C466.578 228.027 466.137 227.978 465.701 227.875C462.613 227.157 460.686 224.051 461.407 220.955C461.429 220.857 461.456 220.759 461.487 220.656C459.761 219.737 458.172 218.595 456.748 217.252C456.664 217.314 456.579 217.372 456.495 217.421C455.191 218.233 453.651 218.492 452.156 218.144C450.661 217.796 449.389 216.881 448.579 215.574C446.906 212.875 447.729 209.314 450.421 207.632C450.506 207.579 450.595 207.529 450.688 207.476C450.119 205.602 449.798 203.666 449.736 201.707C449.629 201.689 449.531 201.671 449.433 201.644C446.345 200.926 444.419 197.821 445.139 194.724C445.487 193.225 446.399 191.949 447.698 191.137C449.002 190.325 450.541 190.066 452.036 190.414C452.134 190.436 452.232 190.463 452.334 190.494C453.251 188.763 454.39 187.166 455.725 185.738C455.663 185.649 455.605 185.564 455.556 185.484C453.883 182.784 454.706 179.224 457.398 177.542C458.702 176.73 460.241 176.471 461.736 176.819C463.231 177.167 464.504 178.082 465.314 179.389C465.367 179.474 465.416 179.563 465.47 179.657C467.334 179.086 469.265 178.764 471.218 178.702C471.236 178.595 471.254 178.497 471.276 178.399C471.623 176.899 472.536 175.623 473.835 174.811C475.139 173.999 476.678 173.74 478.173 174.088C481.261 174.807 483.188 177.912 482.467 181.009C482.445 181.107 482.418 181.205 482.387 181.308C484.113 182.227 485.702 183.369 487.126 184.712C487.21 184.649 487.295 184.591 487.379 184.542C488.683 183.73 490.223 183.472 491.718 183.82C493.213 184.168 494.485 185.082 495.295 186.39C496.968 189.089 496.145 192.649 493.453 194.332C493.369 194.385 493.279 194.434 493.186 194.488C493.756 196.362 494.076 198.298 494.138 200.257C494.245 200.275 494.343 200.292 494.441 200.319C497.529 201.038 499.456 204.143 498.735 207.239C498.388 208.739 497.475 210.015 496.176 210.827C494.872 211.639 493.333 211.897 491.838 211.549C491.74 211.527 491.642 211.5 491.54 211.469C490.623 213.2 489.484 214.798 488.149 216.225C488.211 216.315 488.269 216.399 488.318 216.48C489.991 219.179 489.168 222.74 486.476 224.422C485.172 225.234 483.633 225.493 482.138 225.144C480.643 224.796 479.37 223.882 478.56 222.575C478.507 222.49 478.458 222.4 478.405 222.307C476.536 222.878 474.609 223.199 472.656 223.262C472.638 223.369 472.62 223.467 472.598 223.565C472.251 225.064 471.339 226.34 470.039 227.152C469.118 227.728 468.073 228.027 467.014 228.027ZM456.78 216.221C456.891 216.221 457.002 216.266 457.091 216.346C458.608 217.827 460.339 219.068 462.23 220.036C462.431 220.138 462.524 220.375 462.448 220.585C462.373 220.794 462.315 220.977 462.275 221.151C461.67 223.766 463.298 226.394 465.906 227.001C467.169 227.295 468.473 227.081 469.572 226.389C470.676 225.702 471.441 224.622 471.735 223.355C471.775 223.181 471.806 222.989 471.828 222.771C471.85 222.548 472.037 222.374 472.264 222.374C474.387 222.342 476.482 221.994 478.502 221.339C478.716 221.267 478.947 221.37 479.041 221.575C479.134 221.776 479.223 221.945 479.317 222.097C480.002 223.204 481.074 223.971 482.338 224.266C483.602 224.56 484.905 224.346 486.004 223.654C488.278 222.235 488.977 219.224 487.562 216.944C487.468 216.792 487.357 216.636 487.215 216.462C487.072 216.288 487.086 216.034 487.241 215.873C488.719 214.347 489.956 212.616 490.921 210.715C491.024 210.514 491.259 210.421 491.469 210.496C491.678 210.572 491.86 210.63 492.034 210.671C493.297 210.965 494.601 210.751 495.7 210.059C496.804 209.372 497.569 208.292 497.863 207.025C498.468 204.406 496.839 201.783 494.232 201.176C494.058 201.136 493.867 201.104 493.649 201.082C493.426 201.06 493.257 200.872 493.253 200.645C493.222 198.517 492.875 196.411 492.221 194.39C492.149 194.175 492.252 193.943 492.456 193.845C492.657 193.751 492.826 193.662 492.977 193.564C495.251 192.145 495.949 189.134 494.534 186.854C493.849 185.747 492.777 184.98 491.513 184.685C490.249 184.391 488.946 184.605 487.847 185.296C487.695 185.39 487.54 185.506 487.366 185.644C487.192 185.787 486.939 185.774 486.779 185.618C485.257 184.136 483.53 182.896 481.639 181.928C481.439 181.825 481.346 181.589 481.421 181.379C481.497 181.169 481.555 180.986 481.595 180.812C482.2 178.198 480.571 175.57 477.964 174.963C476.7 174.669 475.397 174.883 474.298 175.574C473.194 176.261 472.429 177.341 472.135 178.608C472.095 178.782 472.064 178.974 472.042 179.193C472.019 179.416 471.833 179.59 471.606 179.59C469.483 179.621 467.383 179.969 465.367 180.625C465.154 180.696 464.922 180.594 464.824 180.389C464.731 180.188 464.642 180.018 464.549 179.866C463.863 178.76 462.791 177.993 461.527 177.698C460.264 177.404 458.96 177.618 457.861 178.309C455.587 179.728 454.888 182.74 456.303 185.02C456.397 185.172 456.508 185.328 456.651 185.502C456.793 185.676 456.78 185.93 456.624 186.091C455.147 187.617 453.91 189.348 452.944 191.248C452.842 191.449 452.606 191.543 452.397 191.467C452.188 191.391 452.005 191.333 451.832 191.293C450.568 190.999 449.264 191.213 448.165 191.904C447.062 192.591 446.296 193.671 446.003 194.938C445.398 197.557 447.026 200.181 449.634 200.788C449.807 200.828 449.998 200.859 450.216 200.881C450.439 200.904 450.608 201.091 450.612 201.319C450.644 203.447 450.991 205.553 451.645 207.574C451.716 207.788 451.614 208.02 451.409 208.114C451.209 208.208 451.04 208.297 450.888 208.395C448.615 209.814 447.916 212.826 449.331 215.106C450.016 216.212 451.089 216.979 452.352 217.274C453.616 217.568 454.92 217.354 456.019 216.663C456.17 216.569 456.326 216.453 456.499 216.315C456.579 216.248 456.682 216.216 456.78 216.216V216.221ZM471.957 211.313C471.174 211.313 470.386 211.224 469.608 211.041C466.929 210.416 464.655 208.783 463.205 206.441C461.754 204.098 461.296 201.332 461.919 198.646C462.542 195.96 464.17 193.68 466.506 192.221C468.842 190.762 471.601 190.307 474.28 190.932C476.958 191.556 479.232 193.189 480.683 195.532C482.133 197.874 482.592 200.64 481.969 203.326C481.346 206.012 479.717 208.292 477.381 209.751C475.726 210.782 473.862 211.313 471.962 211.313H471.957ZM471.922 191.552C470.186 191.552 468.482 192.038 466.969 192.98C464.838 194.309 463.347 196.397 462.782 198.851C462.212 201.305 462.631 203.835 463.957 205.972C465.283 208.109 467.361 209.604 469.808 210.175C472.255 210.746 474.774 210.327 476.909 208.997C479.041 207.668 480.531 205.58 481.097 203.126C481.666 200.672 481.248 198.142 479.922 196.005C478.596 193.868 476.518 192.373 474.071 191.802C473.359 191.637 472.638 191.552 471.922 191.552Z" fill="black"/>
<path d="M503.037 218.402C501.849 218.125 500.665 218.866 500.389 220.053C500.367 220.142 500.353 220.231 500.345 220.316C499.432 220.329 498.542 220.481 497.697 220.758C497.661 220.677 497.617 220.597 497.573 220.521C496.927 219.486 495.57 219.169 494.538 219.812C493.506 220.459 493.19 221.819 493.83 222.859C493.879 222.935 493.933 223.006 493.986 223.078C493.368 223.716 492.838 224.452 492.424 225.268C492.34 225.237 492.255 225.21 492.166 225.188C490.983 224.911 489.795 225.652 489.519 226.839C489.243 228.026 489.982 229.217 491.165 229.494C491.254 229.516 491.343 229.529 491.428 229.538C491.441 230.453 491.592 231.345 491.864 232.193C491.784 232.229 491.703 232.273 491.628 232.318C490.596 232.965 490.28 234.326 490.92 235.365C491.566 236.4 492.923 236.717 493.955 236.075C494.031 236.026 494.102 235.972 494.173 235.919C494.809 236.539 495.544 237.07 496.353 237.485C496.322 237.569 496.295 237.654 496.273 237.743C495.997 238.935 496.736 240.122 497.92 240.398C499.103 240.675 500.291 239.934 500.567 238.747C500.589 238.658 500.603 238.569 500.612 238.484C501.524 238.471 502.414 238.319 503.259 238.042C503.295 238.123 503.339 238.203 503.384 238.279C504.029 239.314 505.386 239.631 506.418 238.988C507.451 238.341 507.766 236.98 507.126 235.941C507.077 235.865 507.023 235.794 506.97 235.722C507.589 235.084 508.118 234.348 508.532 233.532C508.616 233.563 508.701 233.59 508.79 233.612C509.973 233.888 511.162 233.148 511.437 231.961C511.713 230.77 510.975 229.583 509.791 229.306C509.702 229.284 509.613 229.271 509.529 229.262C509.515 228.347 509.364 227.455 509.092 226.607C509.173 226.571 509.253 226.527 509.328 226.482C510.361 225.835 510.677 224.474 510.036 223.435C509.395 222.395 508.033 222.083 507.001 222.725C506.926 222.774 506.854 222.828 506.783 222.881C506.147 222.261 505.413 221.73 504.603 221.315C504.634 221.23 504.661 221.146 504.683 221.056C504.959 219.865 504.22 218.678 503.037 218.402ZM501.413 225.398C503.615 225.911 504.986 228.119 504.474 230.328C503.962 232.537 501.76 233.911 499.557 233.398C497.354 232.885 495.984 230.676 496.496 228.467C497.007 226.259 499.21 224.885 501.413 225.398Z" fill="#D7CDEB"/>
</g>
<defs>
<clipPath id="clip0_1027_2548">
<rect width="554" height="369.867" fill="white" transform="translate(19 72.3672)"/>
</clipPath>
</defs>
</svg>
