<svg width="592" height="522" viewBox="0 0 592 522" fill="none" xmlns="http://www.w3.org/2000/svg">
<path d="M91.8856 167.512C81.6119 189.108 67.8524 239.167 73.6357 291.051C81.0528 357.612 118.295 410.16 154.559 439.714C274.917 537.787 494.073 474.205 523.479 382.099C528.817 365.387 527.349 349.26 525.567 329.42C519.862 266.301 500.503 248.043 488.919 178.931C479.291 121.551 472.582 104.795 461.819 85.1215C428.167 23.6713 304.48 24.2042 228.65 52.2386C199.524 63.0103 128.525 90.5205 91.8944 167.512H91.8856Z" fill="#D7CDEB"/>
<g clip-path="url(#clip0_1027_2817)">
<path d="M514.892 309.5H157.114L142.359 311.653V317.18C142.359 323.838 147.743 329.237 154.38 329.237H508.058C514.698 329.237 520.079 323.838 520.079 317.18V312.761L514.889 309.5H514.892Z" fill="white"/>
<path d="M152.787 86.8203H509.653C515.409 86.8203 520.081 91.5058 520.081 97.2784V312.763H142.359V97.2784C142.359 91.5058 147.031 86.8203 152.787 86.8203Z" fill="white"/>
<path d="M520.081 313.236H142.359C142.099 313.236 141.891 313.024 141.891 312.766V97.2794C141.891 91.2528 146.78 86.3516 152.787 86.3516H509.653C515.662 86.3516 520.549 91.2549 520.549 97.2794V312.764C520.549 313.024 520.338 313.234 520.081 313.234V313.236ZM142.83 312.294H519.612V97.2794C519.612 91.7717 515.145 87.2912 509.653 87.2912H152.787C147.295 87.2912 142.828 91.7717 142.828 97.2794V312.294H142.83Z" fill="black"/>
<path d="M155.261 200.403C155.002 200.403 154.793 200.192 154.793 199.934V100.805C154.793 99.9682 155.47 99.2891 156.305 99.2891H400.229C400.489 99.2891 400.697 99.5005 400.697 99.7589C400.697 100.017 400.487 100.229 400.229 100.229H156.305C155.99 100.229 155.732 100.487 155.732 100.803V199.931C155.732 200.192 155.521 200.401 155.264 200.401L155.261 200.403Z" fill="black"/>
<path d="M507.18 300.294H199.172C198.912 300.294 198.703 300.082 198.703 299.824C198.703 299.565 198.914 299.354 199.172 299.354H506.712V194.579C506.712 194.319 506.923 194.109 507.18 194.109C507.438 194.109 507.649 194.321 507.649 194.579V299.826C507.649 300.086 507.438 300.296 507.18 300.296V300.294Z" fill="black"/>
<path d="M508.058 329.708H154.382C147.495 329.708 141.891 324.087 141.891 317.181C141.891 316.92 142.101 316.711 142.359 316.711C142.617 316.711 142.828 316.922 142.828 317.181C142.828 323.568 148.011 328.766 154.38 328.766H508.058C514.427 328.766 519.61 323.568 519.61 317.181C519.61 316.92 519.821 316.711 520.079 316.711C520.336 316.711 520.547 316.922 520.547 317.181C520.547 324.087 514.945 329.708 508.056 329.708H508.058Z" fill="black"/>
<path d="M262.273 329.242H400.168V356.982C400.168 361.874 396.207 365.844 391.331 365.844H271.113C266.234 365.844 262.276 361.872 262.276 356.982V329.242H262.273Z" fill="white"/>
<path d="M391.327 366.317H271.108C265.977 366.317 261.801 362.129 261.801 356.983V329.243C261.801 328.983 262.012 328.773 262.269 328.773H400.164C400.423 328.773 400.632 328.985 400.632 329.243V356.983C400.632 362.129 396.456 366.317 391.324 366.317H391.327ZM262.74 329.715V356.985C262.74 361.613 266.494 365.378 271.108 365.378H391.327C395.941 365.378 399.695 361.613 399.695 356.985V329.715H262.74Z" fill="black"/>
<path d="M395.026 338.315H267.406C267.146 338.315 266.938 338.103 266.938 337.845C266.938 337.586 267.148 337.375 267.406 337.375H395.026C395.286 337.375 395.494 337.586 395.494 337.845C395.494 338.103 395.284 338.315 395.026 338.315Z" fill="black"/>
<path d="M374.98 118.58H324.636C324.377 118.58 324.168 118.369 324.168 118.11C324.168 117.852 324.379 117.641 324.636 117.641H374.98C375.24 117.641 375.448 117.852 375.448 118.11C375.448 118.369 375.238 118.58 374.98 118.58Z" fill="black"/>
<path d="M295.41 118.58H176.363C176.103 118.58 175.895 118.369 175.895 118.11C175.895 117.852 176.105 117.641 176.363 117.641H295.41C295.67 117.641 295.878 117.852 295.878 118.11C295.878 118.369 295.668 118.58 295.41 118.58Z" fill="black"/>
<path d="M400.226 132.862H176.363C176.103 132.862 175.895 132.65 175.895 132.392C175.895 132.133 176.105 131.922 176.363 131.922H400.226C400.486 131.922 400.694 132.133 400.694 132.392C400.694 132.65 400.484 132.862 400.226 132.862Z" fill="black"/>
<path d="M374.981 147.151H256.203C255.943 147.151 255.734 146.939 255.734 146.681C255.734 146.422 255.945 146.211 256.203 146.211H374.981C375.241 146.211 375.45 146.422 375.45 146.681C375.45 146.939 375.239 147.151 374.981 147.151Z" fill="black"/>
<path d="M228.402 147.151H176.363C176.103 147.151 175.895 146.939 175.895 146.681C175.895 146.422 176.105 146.211 176.363 146.211H228.402C228.661 146.211 228.87 146.422 228.87 146.681C228.87 146.939 228.659 147.151 228.402 147.151Z" fill="black"/>
<path d="M395.929 229.18H387.371V284.253H395.929V229.18Z" fill="#D7CDEB"/>
<path d="M409.398 254.656H400.84V284.247H409.398V254.656Z" fill="#D7CDEB"/>
<path d="M422.867 243.148H414.309V284.254H422.867V243.148Z" fill="#D7CDEB"/>
<path d="M436.339 225.133H427.781V284.251H436.339V225.133Z" fill="#D7CDEB"/>
<path d="M449.591 212.766H441.465V284.251H449.591V212.766Z" fill="#D7CDEB"/>
<path d="M463.277 208.969H454.719V284.249H463.277V208.969Z" fill="#D7CDEB"/>
<path d="M476.75 218.344H468.191V284.246H476.75V218.344Z" fill="#D7CDEB"/>
<path d="M490.218 229.18H481.66V284.253H490.218V229.18Z" fill="#D7CDEB"/>
<path d="M188.801 250.815C188.665 250.815 188.53 250.757 188.439 250.644C188.275 250.443 188.303 250.146 188.503 249.982L238.848 208.412C238.931 208.344 239.038 208.306 239.146 208.306H311.432L382.558 184.284L404.823 158.29C404.994 158.091 405.29 158.07 405.486 158.238C405.681 158.407 405.705 158.704 405.537 158.903L383.186 184.995C383.131 185.059 383.061 185.109 382.98 185.134L311.659 209.22C311.61 209.237 311.561 209.245 311.51 209.245H239.317L189.101 250.708C189.014 250.781 188.907 250.815 188.803 250.815H188.801Z" fill="black"/>
<path d="M310.712 217.607C315.489 217.607 319.362 213.652 319.362 208.772C319.362 203.893 315.489 199.938 310.712 199.938C305.935 199.938 302.062 203.893 302.062 208.772C302.062 213.652 305.935 217.607 310.712 217.607Z" fill="#7859BC"/>
<path d="M382.829 193.522C387.606 193.522 391.479 189.566 391.479 184.687C391.479 179.807 387.606 175.852 382.829 175.852C378.052 175.852 374.18 179.807 374.18 184.687C374.18 189.566 378.052 193.522 382.829 193.522Z" fill="white"/>
<path d="M382.829 193.997C377.802 193.997 373.711 189.822 373.711 184.69C373.711 179.558 377.802 175.383 382.829 175.383C387.857 175.383 391.949 179.558 391.949 184.69C391.949 189.822 387.859 193.997 382.829 193.997ZM382.829 176.325C378.319 176.325 374.648 180.077 374.648 184.69C374.648 189.303 378.317 193.055 382.829 193.055C387.341 193.055 391.01 189.303 391.01 184.69C391.01 180.077 387.341 176.325 382.829 176.325Z" fill="black"/>
<path d="M239.146 217.584C243.923 217.584 247.795 213.628 247.795 208.749C247.795 203.87 243.923 199.914 239.146 199.914C234.369 199.914 230.496 203.87 230.496 208.749C230.496 213.628 234.369 217.584 239.146 217.584Z" fill="white"/>
<path d="M239.146 218.059C234.118 218.059 230.027 213.884 230.027 208.752C230.027 203.62 234.118 199.445 239.146 199.445C244.173 199.445 248.264 203.62 248.264 208.752C248.264 213.884 244.173 218.059 239.146 218.059ZM239.146 200.387C234.635 200.387 230.964 204.139 230.964 208.752C230.964 213.365 234.633 217.117 239.146 217.117C243.658 217.117 247.327 213.365 247.327 208.752C247.327 204.139 243.658 200.387 239.146 200.387Z" fill="black"/>
<path d="M476.873 182.326C507.023 182.326 531.465 157.842 531.465 127.639C531.465 97.437 507.023 72.9531 476.873 72.9531C446.723 72.9531 422.281 97.437 422.281 127.639C422.281 157.842 446.723 182.326 476.873 182.326Z" fill="white"/>
<path d="M476.871 182.793C446.51 182.793 421.809 158.05 421.809 127.635C421.809 97.2196 446.51 72.4766 476.871 72.4766C507.232 72.4766 531.933 97.2196 531.933 127.635C531.933 158.05 507.232 182.793 476.871 182.793ZM476.871 73.4184C447.027 73.4184 422.748 97.7407 422.748 127.635C422.748 157.529 447.027 181.851 476.871 181.851C506.715 181.851 530.994 157.531 530.994 127.635C530.994 97.7386 506.715 73.4184 476.871 73.4184Z" fill="black"/>
<path d="M538.031 112.628C531.498 84.9078 506.677 64.263 477.027 64.1797V127.419C477.027 127.419 527.861 114.981 538.031 112.628Z" fill="#7859BC"/>
<path d="M440.96 80.5234C428.271 90.0504 420.179 104.231 418.066 119.528C432.353 121.444 476.353 127.272 476.353 127.272C476.353 127.272 446.762 88.3611 440.96 80.5234Z" fill="white"/>
<path d="M476.351 127.745C476.331 127.745 476.31 127.745 476.289 127.741C475.848 127.683 432.125 121.891 418 119.997C417.877 119.98 417.764 119.916 417.69 119.816C417.615 119.715 417.581 119.589 417.598 119.465C419.751 103.873 428.162 89.5434 440.674 80.1489C440.775 80.0741 440.898 80.0421 441.024 80.0592C441.147 80.0763 441.258 80.1446 441.332 80.2428C447.067 87.9865 476.425 126.596 476.721 126.987C476.836 127.139 476.849 127.344 476.753 127.508C476.668 127.655 476.512 127.743 476.346 127.743L476.351 127.745ZM418.595 119.128C431.859 120.905 468.416 125.748 475.292 126.66C470.893 120.875 446.665 88.9945 440.862 81.1889C428.88 90.3421 420.792 104.123 418.595 119.128Z" fill="black"/>
<path d="M195.185 272.116C195.634 259.189 189.925 239.104 189.925 239.104L175.245 237.867L149.585 257.848C149.585 257.848 142.684 291.024 170.986 294.008C192.078 296.231 194.759 284.267 195.183 272.116H195.185Z" fill="white"/>
<path d="M175.833 294.751C174.3 294.751 172.669 294.659 170.937 294.478C163.278 293.67 157.452 290.593 153.625 285.331C145.757 274.512 149.09 257.921 149.126 257.754C149.149 257.645 149.209 257.547 149.296 257.478L174.956 237.498C175.047 237.425 175.162 237.387 175.284 237.402L189.964 238.638C190.158 238.655 190.322 238.79 190.375 238.978C190.432 239.178 196.099 259.281 195.651 272.135C195.421 278.787 194.502 286.183 189.438 290.597C186.248 293.38 181.77 294.753 175.833 294.753V294.751ZM150.012 258.113C149.688 259.862 147.18 274.875 154.386 284.78C158.05 289.816 163.651 292.763 171.035 293.542C179.197 294.403 185.015 293.205 188.822 289.886C193.614 285.709 194.489 278.55 194.714 272.101C195.125 260.27 190.275 242.145 189.559 239.548L175.388 238.354L150.014 258.113H150.012Z" fill="black"/>
<path d="M166.128 310.178C167.312 309.595 170.526 308.852 170.526 308.852L174.129 285.383C174.129 285.383 170.8 269.221 167.981 265.935C165.162 262.648 156.544 263.21 154.992 268.348C153.441 273.486 150.535 273.221 148.146 272.237L135.016 307.592C145.639 307.408 153.878 307.777 166.128 310.178Z" fill="white"/>
<path d="M135.587 305.754C135.529 305.754 135.472 305.744 135.414 305.722C135.174 305.626 135.055 305.355 135.15 305.111L147.995 272.345C148.091 272.104 148.363 271.984 148.604 272.08C148.845 272.176 148.964 272.447 148.868 272.691L136.023 305.457C135.951 305.643 135.774 305.756 135.587 305.756V305.754Z" fill="black"/>
<path d="M170.985 307.193C170.962 307.193 170.938 307.193 170.917 307.189C170.661 307.15 170.482 306.911 170.521 306.655L173.666 285.31C173.704 285.053 173.941 284.87 174.198 284.912C174.454 284.951 174.633 285.19 174.594 285.446L171.449 306.792C171.415 307.024 171.215 307.193 170.985 307.193Z" fill="black"/>
<path d="M34.9924 399.494C34.9924 399.494 19.0346 438.323 68.1942 439.999L82.6657 392.425L43.6719 385.969L34.9903 399.494H34.9924Z" fill="white"/>
<path d="M68.193 440.471C68.193 440.471 68.1823 440.471 68.176 440.471C52.1415 439.925 41.273 435.389 35.8685 426.985C28.2175 415.092 34.4929 399.472 34.5568 399.316C34.5674 399.291 34.5802 399.265 34.5973 399.242L43.2767 385.717C43.3768 385.559 43.5621 385.473 43.7473 385.507L82.7411 391.963C82.8753 391.985 82.9924 392.064 83.0627 392.179C83.1329 392.294 83.1521 392.435 83.1117 392.566L68.638 440.14C68.5784 440.339 68.3953 440.474 68.1887 440.474L68.193 440.471ZM35.4107 399.711C35.0742 400.566 29.4547 415.284 36.6607 426.481C41.85 434.543 52.3416 438.927 67.8502 439.519L82.0619 392.805L43.9007 386.488L35.4107 399.713V399.711Z" fill="black"/>
<path d="M285.702 312.821C285.702 312.821 293.86 293.575 295.898 285.409C297.936 277.242 282.427 267.083 274.953 266.692C267.479 266.301 267.261 275.252 267.261 275.252C259.547 274.553 262.391 284.076 262.391 284.076C258.182 282.991 258.761 289.923 258.761 289.923C254.947 289.998 256.661 296.524 256.661 296.524C248.816 313.703 257.975 342.463 257.975 342.463C255.377 341.291 253.435 339.93 250.499 338.436C249.115 350.653 246.608 373.479 231.57 390.54C249.34 398.892 271.635 408.927 288.268 391.732C309.119 370.175 285.702 312.823 285.702 312.823V312.821Z" fill="white"/>
<path d="M264.492 301.283C264.292 301.283 264.106 301.155 264.045 300.952C263.968 300.705 264.106 300.44 264.353 300.363C267.961 299.237 270.814 295.908 273.075 290.187C273.393 289.386 273.695 288.572 273.997 287.759C275.375 284.055 276.8 280.224 279.628 277.392C281.171 275.844 283.744 274.467 285.907 275.667C288.19 276.935 288.256 280.07 288.109 282.317L287.132 297.151C287.115 297.412 286.889 297.599 286.633 297.591C286.374 297.574 286.18 297.35 286.197 297.091L287.174 282.257C287.306 280.265 287.27 277.499 285.454 276.491C283.855 275.603 281.71 276.639 280.292 278.059C277.609 280.747 276.221 284.478 274.879 288.087C274.572 288.91 274.268 289.728 273.951 290.535C271.578 296.538 268.531 300.049 264.634 301.264C264.588 301.279 264.541 301.286 264.496 301.286L264.492 301.283Z" fill="black"/>
<path d="M263.471 301.474C262.639 301.474 261.806 301.279 260.991 300.891C257.982 299.455 255.963 295.742 255.769 294.234C255.737 293.975 255.918 293.741 256.174 293.706C256.44 293.676 256.666 293.856 256.7 294.112C256.877 295.498 258.795 298.798 261.393 300.038C262.979 300.794 264.577 300.686 266.142 299.714C266.361 299.575 266.653 299.645 266.787 299.865C266.923 300.085 266.855 300.376 266.636 300.513C265.609 301.151 264.54 301.471 263.471 301.471V301.474Z" fill="black"/>
<path d="M266.665 297.273C265.443 297.273 264.199 296.98 263.077 296.376C260.507 294.992 258.659 292.1 258.25 288.833C258.218 288.574 258.399 288.34 258.656 288.308C258.921 288.28 259.148 288.459 259.18 288.715C259.553 291.686 261.216 294.304 263.522 295.547C266.018 296.893 269.335 296.433 271.069 294.501C271.241 294.306 271.539 294.291 271.731 294.467C271.925 294.642 271.94 294.939 271.765 295.131C270.509 296.53 268.614 297.273 266.663 297.273H266.665Z" fill="black"/>
<path d="M270.195 291.608C268.455 291.608 266.707 290.89 265.482 289.84C263.643 288.261 262.365 285.771 261.686 282.44C261.632 282.186 261.799 281.936 262.052 281.884C262.305 281.833 262.555 281.995 262.606 282.252C263.242 285.372 264.416 287.685 266.094 289.124C267.895 290.67 270.966 291.324 272.993 289.746C273.199 289.585 273.493 289.624 273.651 289.829C273.811 290.034 273.772 290.331 273.568 290.489C272.559 291.275 271.379 291.608 270.195 291.608Z" fill="black"/>
<path d="M273.917 284.606C271.916 284.606 269.937 283.434 268.79 281.967C267.35 280.13 267.139 278.274 266.892 276.126C266.86 275.857 266.831 275.584 266.797 275.304C266.765 275.045 266.948 274.81 267.205 274.778C267.465 274.74 267.697 274.93 267.729 275.188C267.763 275.472 267.795 275.748 267.827 276.019C268.066 278.11 268.255 279.761 269.529 281.386C270.845 283.065 273.396 284.312 275.534 283.314C275.768 283.203 276.047 283.308 276.157 283.543C276.268 283.778 276.164 284.058 275.93 284.169C275.278 284.472 274.597 284.606 273.919 284.606H273.917Z" fill="black"/>
<path d="M278.852 279.02C278.664 279.02 278.488 278.907 278.415 278.721L275.287 270.745C275.191 270.503 275.31 270.23 275.551 270.134C275.792 270.04 276.064 270.157 276.16 270.399L279.288 278.375C279.384 278.617 279.265 278.89 279.024 278.986C278.969 279.007 278.909 279.018 278.852 279.018V279.02Z" fill="black"/>
<path d="M266.37 402.021C264.596 402.021 262.765 401.885 260.874 401.611C251.442 400.251 241.7 395.666 233.106 391.621L231.954 391.078C231.72 390.967 231.618 390.688 231.728 390.453C231.837 390.218 232.116 390.115 232.352 390.226L233.504 390.769C251.193 399.095 271.244 408.533 287.355 392.012C298.46 380.625 297.318 359.785 294.405 344.309C291.233 327.461 285.33 313.142 285.27 313.001C285.221 312.883 285.221 312.753 285.27 312.636C285.351 312.443 293.437 293.332 295.442 285.293C295.964 283.201 295.244 280.745 293.362 278.19C289.014 272.294 279.883 267.419 274.928 267.16C273.077 267.064 271.546 267.568 270.371 268.659C267.871 270.979 267.732 275.218 267.732 275.26C267.728 275.391 267.673 275.512 267.575 275.6C267.477 275.688 267.345 275.732 267.221 275.717C265.431 275.555 264.121 275.967 263.329 276.939C261.468 279.22 262.828 283.893 262.843 283.94C262.892 284.102 262.85 284.279 262.733 284.401C262.615 284.523 262.441 284.572 262.277 284.531C261.504 284.33 260.899 284.426 260.429 284.824C259.189 285.872 259.144 288.83 259.232 289.883C259.242 290.013 259.2 290.141 259.113 290.237C259.025 290.334 258.904 290.389 258.774 290.393C258.139 290.406 257.671 290.624 257.343 291.06C256.353 292.375 256.845 295.363 257.117 296.403C257.145 296.508 257.136 296.621 257.09 296.719C249.409 313.537 258.333 342.032 258.423 342.318C258.48 342.5 258.423 342.701 258.278 342.822C258.131 342.946 257.926 342.968 257.758 342.878L255.507 341.686C254.017 340.896 252.782 340.24 250.727 339.166C250.497 339.047 250.408 338.763 250.527 338.532C250.646 338.301 250.929 338.209 251.159 338.331C253.216 339.405 254.453 340.063 255.946 340.855L257.207 341.524C255.654 336.119 249.311 311.745 256.168 296.48C255.978 295.675 255.275 292.243 256.591 290.496C257.007 289.945 257.569 289.612 258.269 289.499C258.235 288.345 258.306 285.392 259.82 284.11C260.356 283.655 261.006 283.45 261.759 283.502C261.423 281.99 260.886 278.455 262.598 276.354C263.523 275.218 264.936 274.684 266.823 274.759C266.934 273.496 267.443 270.105 269.728 267.982C271.097 266.709 272.873 266.124 274.975 266.231C280.134 266.502 289.619 271.544 294.114 277.642C296.169 280.429 296.942 283.158 296.35 285.533C294.431 293.219 287.044 310.85 286.207 312.832C286.91 314.564 292.325 328.225 295.319 344.129C298.277 359.832 299.412 381 288.021 392.68C281.912 398.946 274.787 402.032 266.365 402.032L266.37 402.021Z" fill="black"/>
<path d="M273.278 351.643C273.199 351.643 273.12 351.624 273.046 351.581L257.742 342.864C257.516 342.736 257.437 342.447 257.565 342.223C257.693 341.997 257.978 341.918 258.204 342.046L273.508 350.763C273.734 350.891 273.812 351.18 273.685 351.404C273.6 351.556 273.44 351.641 273.276 351.641L273.278 351.643Z" fill="black"/>
<path d="M285.678 276.081C282.905 275.248 281.789 275.688 278.757 278.509L276.148 272.246L290.296 242.992L300.106 247.411L285.68 276.083L285.678 276.081Z" fill="black"/>
<path d="M287.84 246.14C287.566 245.95 287.295 245.76 287.023 245.562C277.015 238.331 270.411 227.625 268.433 215.413C266.455 203.202 269.334 190.95 276.544 180.911C283.754 170.873 294.429 164.251 306.605 162.267C318.781 160.283 330.997 163.17 341.008 170.401C361.669 185.329 366.369 214.331 351.486 235.052C336.8 255.501 308.44 260.361 287.84 246.138V246.14ZM336.766 174.636C328.137 168.68 317.74 166.322 307.382 167.994C296.731 169.714 287.4 175.486 281.103 184.251C268.107 202.341 272.255 227.695 290.351 240.767C308.447 253.835 333.742 249.756 346.738 231.663C359.734 213.572 355.586 188.219 337.49 175.147C337.249 174.974 337.006 174.803 336.766 174.634V174.636Z" fill="black"/>
<path d="M314.281 243.349C302.981 243.349 292.41 237.998 285.692 228.772C285.539 228.563 285.585 228.268 285.794 228.114C286.005 227.96 286.297 228.007 286.45 228.217C293.381 237.737 304.531 243.012 316.27 242.352C316.528 242.335 316.752 242.536 316.764 242.794C316.779 243.055 316.581 243.277 316.324 243.29C315.64 243.328 314.959 243.347 314.279 243.347L314.281 243.349Z" fill="black"/>
<path d="M294.416 179.619C294.273 179.619 294.133 179.552 294.039 179.431C293.883 179.224 293.926 178.929 294.135 178.773C304.782 170.784 318.825 169.423 330.782 175.226C331.016 175.339 331.112 175.621 330.999 175.854C330.886 176.086 330.607 176.187 330.373 176.071C318.734 170.423 305.063 171.747 294.697 179.525C294.612 179.589 294.514 179.619 294.416 179.619Z" fill="black"/>
<path d="M282.754 195.054C282.698 195.054 282.641 195.044 282.585 195.022C282.343 194.928 282.223 194.655 282.317 194.414C287.11 181.974 298.29 173.344 311.494 171.894C311.75 171.864 311.984 172.052 312.012 172.31C312.039 172.569 311.854 172.801 311.597 172.829C298.743 174.241 287.858 182.642 283.192 194.753C283.12 194.939 282.943 195.054 282.754 195.054Z" fill="black"/>
<path d="M64.4335 454.752L191.836 454.76L205.09 378.47C205.09 378.47 238.766 329.118 212.934 316.632C187.103 304.145 122.952 300.032 95.2099 309.734C67.468 319.436 37.1132 387.721 34.5664 399.294L76.4094 399.501L64.4335 454.752Z" fill="#7859BC"/>
<path d="M76.4122 399.273C76.3803 399.273 76.3462 399.271 76.3121 399.263C76.0587 399.207 75.8969 398.957 75.9523 398.703C75.9757 398.592 78.3841 387.429 79.8448 380.96C80.4389 378.338 80.4176 375.741 79.7831 373.245L79.2529 371.158C79.189 370.906 79.3402 370.65 79.5914 370.586C79.8406 370.519 80.0982 370.673 80.1621 370.925L80.6923 373.012C81.3652 375.653 81.3865 378.398 80.7605 381.168C79.2997 387.632 76.8935 398.788 76.87 398.902C76.8232 399.122 76.6273 399.273 76.4122 399.273Z" fill="black"/>
<path d="M209.132 315C213.116 354.716 203.766 377.992 203.766 377.992C207.735 379.649 226.173 387.997 231.571 390.534C246.609 373.473 249.175 350.124 250.559 337.906C231.906 323.342 209.132 315.002 209.132 315.002V315Z" fill="#7859BC"/>
<path d="M204.673 378.462C204.601 378.462 204.528 378.445 204.458 378.409L197.733 374.939C197.599 374.868 197.463 374.798 197.327 374.725C196.554 374.311 195.828 373.92 195.065 373.98C194.612 374.016 194.139 374.302 193.888 374.695C193.771 374.877 193.656 375.158 193.766 375.462C193.856 375.705 193.73 375.976 193.487 376.066C193.245 376.158 192.974 376.03 192.885 375.786C192.693 375.265 192.77 374.697 193.098 374.187C193.506 373.548 194.25 373.1 194.993 373.04C196.023 372.961 196.911 373.433 197.77 373.892C197.902 373.963 198.031 374.033 198.164 374.099L204.888 377.572C205.118 377.691 205.21 377.975 205.091 378.206C205.007 378.368 204.843 378.46 204.673 378.46V378.462Z" fill="black"/>
<path d="M169.582 222.632C169.582 222.632 139.025 212.71 126.662 245.889C119.051 266.316 115.842 279.678 97.8124 294.13C62.758 322.224 61.0651 356.485 93.6046 368.558C127.017 380.955 170.283 369.311 166.842 339.78C163.926 314.768 161.558 277.572 178.402 269.073C195.246 260.573 199.845 243.213 192.103 230.7C184.663 218.677 169.582 222.632 169.582 222.632Z" fill="black"/>
<path d="M509.23 362.513C508.634 358.653 508.198 354.876 507.469 351.051C501.839 321.479 485.349 321.088 485.513 297.738C485.538 294.154 485.66 276.875 497.825 268.956C499.784 267.681 504.848 264.303 510.342 265.866C516.945 267.745 520.035 275.564 523.61 284.977C524.811 288.138 528.146 297.449 530.214 317.176C531.193 326.511 531.483 334.314 531.561 339.775L531.627 344.971C531.627 344.971 517.955 365.622 518.534 379.901C513.519 371.995 509.799 366.891 509.799 366.891L509.228 362.517L509.23 362.513Z" fill="white"/>
<path d="M509.232 362.98C509.004 362.98 508.804 362.813 508.768 362.58C508.564 361.254 508.376 359.938 508.191 358.627C507.844 356.173 507.486 353.638 507.009 351.136C504.271 336.757 498.941 329.316 494.237 322.749C489.258 315.8 484.959 309.801 485.044 297.731C485.14 284.114 489.588 273.754 497.569 268.558L497.663 268.498C499.631 267.217 504.854 263.813 510.472 265.41C517.437 267.392 520.65 275.851 524.051 284.806C527.023 292.633 529.255 303.507 530.684 317.122C531.474 324.641 531.927 332.259 532.034 339.761C532.038 340.022 531.83 340.235 531.572 340.24H531.565C531.31 340.24 531.099 340.033 531.097 339.776C530.991 332.3 530.537 324.712 529.751 317.22C528.331 303.685 526.118 292.891 523.176 285.139C519.86 276.411 516.73 268.167 510.218 266.314C505.016 264.834 500.223 267.954 498.178 269.286L498.085 269.348C490.376 274.367 486.081 284.449 485.988 297.739C485.904 309.502 490.121 315.388 495.003 322.202C499.765 328.846 505.159 336.379 507.935 350.96C508.417 353.485 508.776 356.032 509.126 358.497C509.311 359.804 509.496 361.117 509.701 362.439C509.741 362.696 509.564 362.937 509.309 362.977C509.285 362.982 509.26 362.984 509.236 362.984L509.232 362.98Z" fill="black"/>
<path d="M520.211 361.28C520.188 361.28 520.164 361.28 520.141 361.273C519.883 361.235 519.709 360.993 519.747 360.737L519.962 359.334C520.675 354.715 521.41 349.94 521.363 344.099C521.295 335.605 519.268 328.438 517.639 322.676C517.441 321.98 517.251 321.305 517.07 320.654C515.976 316.697 515.092 314.2 513.97 311.042C513.178 308.81 512.281 306.281 511.125 302.711C508.621 294.978 506.408 286.971 504.547 278.912C504.49 278.657 504.645 278.405 504.898 278.348C505.152 278.29 505.403 278.448 505.461 278.7C507.315 286.732 509.521 294.713 512.017 302.42C513.169 305.978 514.063 308.5 514.853 310.728C515.98 313.906 516.87 316.415 517.973 320.404C518.152 321.053 518.344 321.726 518.54 322.422C520.183 328.238 522.23 335.473 522.3 344.092C522.347 350.01 521.606 354.824 520.886 359.479L520.671 360.88C520.635 361.113 520.437 361.28 520.207 361.28H520.211Z" fill="black"/>
<path d="M532.481 405.343C533.043 400.743 534.034 395.399 536.163 389.853C548.71 357.193 587.597 352.036 588.306 328.42C588.368 326.338 588.455 320.771 584.603 317.431C579.013 312.585 567.872 314.808 561.825 317.14C561.825 317.14 559.418 318.069 557.41 319.239C550.066 323.526 523.846 345.445 518.365 375.395L517.727 378.71C517.727 378.71 527.079 396.181 529.287 407.816C529.447 408.51 530.282 408.772 530.282 408.772H532.268L532.479 405.343H532.481Z" fill="white"/>
<path d="M532.482 405.816C532.463 405.816 532.444 405.816 532.425 405.812C532.167 405.78 531.984 405.545 532.016 405.286C532.744 399.337 533.922 394.378 535.725 389.684C542.075 373.156 555.071 363.649 566.54 355.26C577.783 347.036 587.491 339.933 587.838 328.405C587.894 326.585 588.058 321.046 584.297 317.784C578.735 312.962 567.277 315.54 561.996 317.577C561.972 317.586 559.598 318.506 557.65 319.645C551.295 323.35 524.42 344.937 518.83 375.48C518.784 375.736 518.543 375.909 518.283 375.858C518.028 375.811 517.859 375.565 517.906 375.311C523.56 344.418 550.748 322.583 557.177 318.833C559.193 317.656 561.559 316.738 561.659 316.7C567.526 314.436 579.025 311.969 584.912 317.073C589.012 320.627 588.835 326.504 588.777 328.435C588.417 340.424 578.535 347.653 567.094 356.022C555.731 364.334 542.852 373.754 536.602 390.023C534.827 394.643 533.666 399.529 532.948 405.402C532.919 405.641 532.716 405.814 532.484 405.814L532.482 405.816Z" fill="black"/>
<path d="M524.841 388.77C524.801 388.77 524.758 388.763 524.716 388.753C524.467 388.684 524.32 388.424 524.388 388.174C531.802 361.163 548.001 339.207 569.998 326.346C570.404 326.109 570.79 325.883 570.898 325.802C571.039 325.639 571.277 325.592 571.473 325.695C571.703 325.817 571.788 326.103 571.667 326.331C571.569 326.517 571.422 326.602 570.472 327.158C548.689 339.892 532.646 361.65 525.295 388.422C525.237 388.631 525.048 388.768 524.843 388.768L524.841 388.77Z" fill="black"/>
<path d="M464.738 345.646C465.603 345.101 469.538 342.793 477.745 344.563C494.454 348.17 507.578 364.102 508.843 365.669C530.094 392.031 533.929 425.91 529.556 427.422C528.561 427.766 524.856 423.504 517.49 414.963C499.343 393.928 499.591 394.131 498.255 392.638C477.166 369.048 458.088 366.359 459.034 354.716C459.351 350.814 462.034 347.348 464.738 345.646Z" fill="white"/>
<path d="M529.455 427.907C528.102 427.907 525.326 424.763 517.136 415.269C506.612 403.072 502.3 398.043 500.226 395.627C498.734 393.887 498.463 393.573 497.907 392.949C488.223 382.118 478.775 375.576 471.873 370.801C463.541 365.033 458.036 361.223 458.566 354.675C458.903 350.524 461.784 346.946 464.488 345.244C465.919 344.343 470.089 342.425 477.844 344.102C494.575 347.713 507.76 363.576 509.208 365.372C528.326 389.088 533.266 418.506 531.167 425.84C530.845 426.961 530.355 427.642 529.708 427.864C529.629 427.892 529.544 427.905 529.455 427.905V427.907ZM464.987 346.043C462.48 347.621 459.812 350.927 459.501 354.754C459.014 360.759 464.054 364.249 472.406 370.03C479.345 374.833 488.847 381.411 498.606 392.326C499.17 392.956 499.438 393.272 500.938 395.019C503.009 397.434 507.324 402.461 517.845 414.658C523.782 421.539 528.471 426.974 529.433 426.974C529.734 426.865 530.04 426.369 530.266 425.584C532.325 418.391 527.395 389.432 508.48 365.968C507.053 364.198 494.064 348.569 477.648 345.026C470.229 343.425 466.324 345.206 464.989 346.047L464.987 346.043Z" fill="black"/>
<path d="M523.739 410.852C523.545 410.852 523.364 410.731 523.296 410.539C518.296 396.256 507.768 376.454 486.01 363.237C480.554 359.923 474.63 357.191 468.404 355.12C468.157 355.038 468.025 354.772 468.106 354.526C468.187 354.278 468.453 354.146 468.698 354.227C474.992 356.322 480.978 359.081 486.495 362.432C508.492 375.792 519.129 395.799 524.18 410.229C524.265 410.474 524.137 410.744 523.892 410.829C523.841 410.848 523.788 410.855 523.737 410.855L523.739 410.852Z" fill="black"/>
<path d="M540.691 454.756H498.578L496.012 404.805H543.257L540.691 454.756Z" fill="#D7CDEB"/>
<path d="M47.5273 310.648H47.5231C47.2633 310.648 47.0546 310.434 47.0567 310.174L48.0448 158.516H4.46847C4.20868 158.516 4 158.305 4 158.046V64.4151C4 64.1567 4.21081 63.9453 4.46847 63.9453H106.461C106.721 63.9453 106.929 64.1567 106.929 64.4151C106.929 64.6736 106.719 64.885 106.461 64.885H4.93907V157.574H48.5196C48.6453 157.574 48.7645 157.623 48.8518 157.713C48.9412 157.803 48.9902 157.922 48.9881 158.048L47.9979 310.18C47.9979 310.439 47.7871 310.648 47.5294 310.648H47.5273Z" fill="black"/>
<path d="M33.071 96.0277C37.0625 96.0277 40.2982 92.7826 40.2982 88.7795C40.2982 84.7764 37.0625 81.5312 33.071 81.5312C29.0795 81.5312 25.8438 84.7764 25.8438 88.7795C25.8438 92.7826 29.0795 96.0277 33.071 96.0277Z" fill="#D7CDEB"/>
<path d="M33.071 117.184C37.0625 117.184 40.2982 113.939 40.2982 109.936C40.2982 105.933 37.0625 102.688 33.071 102.688C29.0795 102.688 25.8438 105.933 25.8438 109.936C25.8438 113.939 29.0795 117.184 33.071 117.184Z" fill="#D7CDEB"/>
<path d="M33.071 138.332C37.0625 138.332 40.2982 135.087 40.2982 131.084C40.2982 127.081 37.0625 123.836 33.071 123.836C29.0795 123.836 25.8438 127.081 25.8438 131.084C25.8438 135.087 29.0795 138.332 33.071 138.332Z" fill="#D7CDEB"/>
<path d="M29.9294 326.333C29.6696 326.333 29.4609 326.122 29.4609 325.864V278.235C29.4609 277.975 29.6718 277.766 29.9294 277.766C30.1871 277.766 30.3979 277.977 30.3979 278.235V325.864C30.3979 326.124 30.1871 326.333 29.9294 326.333Z" fill="black"/>
<path d="M29.9294 360.975C29.6696 360.975 29.4609 360.764 29.4609 360.506V335.72C29.4609 335.459 29.6718 335.25 29.9294 335.25C30.1871 335.25 30.3979 335.461 30.3979 335.72V360.506C30.3979 360.766 30.1871 360.975 29.9294 360.975Z" fill="black"/>
<path d="M64.9489 193.789C64.6892 193.789 64.4805 193.577 64.4805 193.319V176.454C64.4805 176.194 64.6913 175.984 64.9489 175.984C65.2066 175.984 65.4174 176.196 65.4174 176.454V193.319C65.4174 193.58 65.2066 193.789 64.9489 193.789Z" fill="black"/>
<path d="M64.9489 259.189C64.6892 259.189 64.4805 258.977 64.4805 258.719V212.9C64.4805 212.639 64.6913 212.43 64.9489 212.43C65.2066 212.43 65.4174 212.641 65.4174 212.9V258.719C65.4174 258.979 65.2066 259.189 64.9489 259.189Z" fill="black"/>
<path d="M286.641 435.264C290.463 434.103 292.623 430.054 291.466 426.221C290.308 422.387 286.271 420.221 282.448 421.382C278.626 422.543 276.466 426.592 277.624 430.425C278.781 434.259 282.818 436.425 286.641 435.264Z" fill="white"/>
<path d="M284.52 436.08C280.274 436.08 276.82 432.616 276.82 428.355C276.82 424.095 280.274 420.633 284.52 420.633C288.766 420.633 292.222 424.097 292.222 428.355C292.222 432.614 288.768 436.08 284.52 436.08ZM284.52 421.575C280.792 421.575 277.757 424.618 277.757 428.357C277.757 432.097 280.792 435.14 284.52 435.14C288.249 435.14 291.283 432.097 291.283 428.357C291.283 424.618 288.249 421.575 284.52 421.575Z" fill="black"/>
<path d="M311.78 432.184C313.88 428.777 312.829 424.307 309.431 422.201C306.034 420.095 301.578 421.15 299.478 424.557C297.378 427.965 298.43 432.434 301.827 434.54C305.224 436.646 309.681 435.591 311.78 432.184Z" fill="white"/>
<path d="M305.626 436.08C301.38 436.08 297.926 432.616 297.926 428.355C297.926 424.095 301.38 420.633 305.626 420.633C309.872 420.633 313.328 424.097 313.328 428.355C313.328 432.614 309.872 436.08 305.626 436.08ZM305.626 421.575C301.897 421.575 298.863 424.618 298.863 428.357C298.863 432.097 301.897 435.14 305.626 435.14C309.354 435.14 312.389 432.097 312.389 428.357C312.389 424.618 309.354 421.575 305.626 421.575Z" fill="black"/>
<path d="M328.852 435.257C332.674 434.096 334.834 430.047 333.676 426.213C332.519 422.38 328.482 420.213 324.659 421.374C320.837 422.535 318.677 426.584 319.834 430.418C320.992 434.251 325.029 436.418 328.852 435.257Z" fill="white"/>
<path d="M326.731 436.072C322.485 436.072 319.031 432.608 319.031 428.347C319.031 424.087 322.485 420.625 326.731 420.625C330.977 420.625 334.433 424.089 334.433 428.347C334.433 432.606 330.977 436.072 326.731 436.072ZM326.731 421.567C323.003 421.567 319.968 424.61 319.968 428.349C319.968 432.089 323.003 435.132 326.731 435.132C330.46 435.132 333.494 432.089 333.494 428.349C333.494 424.61 330.46 421.567 326.731 421.567Z" fill="black"/>
<path d="M431.331 428.823H339.093C338.834 428.823 338.625 428.612 338.625 428.353C338.625 428.095 338.836 427.883 339.093 427.883H430.863V356.228C430.863 355.967 431.073 355.758 431.331 355.758C431.589 355.758 431.8 355.969 431.8 356.228V428.353C431.8 428.614 431.589 428.823 431.331 428.823Z" fill="black"/>
</g>
<defs>
<clipPath id="clip0_1027_2817">
<rect width="584.796" height="390.815" fill="white" transform="translate(4 63.9453)"/>
</clipPath>
</defs>
</svg>
