<svg width="592" height="522" viewBox="0 0 592 522" fill="none" xmlns="http://www.w3.org/2000/svg">
<path d="M91.8856 167.512C81.6119 189.108 67.8524 239.167 73.6357 291.051C81.0528 357.612 118.295 410.16 154.559 439.714C274.917 537.787 494.073 474.205 523.479 382.099C528.817 365.387 527.349 349.26 525.567 329.42C519.862 266.301 500.503 248.043 488.919 178.931C479.291 121.551 472.582 104.795 461.819 85.1215C428.167 23.6713 304.48 24.2042 228.65 52.2386C199.524 63.0103 128.525 90.5205 91.8944 167.512H91.8856Z" fill="#D7CDEB"/>
<g clip-path="url(#clip0_1027_3364)">
<path d="M190.386 426.028C188.961 426.028 187.514 425.859 186.069 425.504C181.355 424.348 177.371 421.426 174.854 417.27C172.336 413.116 171.585 408.226 172.737 403.505C172.871 402.957 173.044 402.386 173.266 401.769C167.074 398.475 161.4 394.311 156.391 389.38C155.865 389.78 155.373 390.118 154.895 390.407C150.746 392.929 145.864 393.681 141.15 392.527C136.436 391.372 132.452 388.449 129.935 384.293C127.417 380.139 126.664 375.249 127.818 370.528C128.972 365.808 131.891 361.819 136.041 359.298C136.519 359.006 137.046 358.725 137.643 358.444C135.587 351.719 134.516 344.755 134.457 337.735C133.806 337.645 133.22 337.537 132.674 337.403C122.943 335.02 116.963 325.151 119.342 315.406C120.496 310.685 123.415 306.697 127.565 304.175C131.713 301.654 136.594 300.902 141.31 302.055C141.856 302.19 142.428 302.363 143.045 302.585C146.334 296.385 150.492 290.702 155.416 285.686C155.015 285.158 154.683 284.675 154.388 284.188C149.189 275.611 151.929 264.399 160.494 259.193C169.057 253.987 180.256 256.731 185.454 265.308C185.745 265.789 186.026 266.315 186.307 266.912C193.022 264.855 199.974 263.781 206.988 263.722C207.078 263.07 207.186 262.483 207.32 261.937C209.702 252.192 219.555 246.201 229.286 248.586C234 249.742 237.983 252.664 240.501 256.82C243.019 260.974 243.772 265.864 242.618 270.585C242.484 271.133 242.311 271.704 242.089 272.321C248.28 275.615 253.955 279.781 258.964 284.71C259.487 284.31 259.98 283.974 260.46 283.683C269.025 278.477 280.222 281.22 285.42 289.797C290.619 298.374 287.879 309.587 279.314 314.792C278.836 315.084 278.309 315.365 277.714 315.646C279.77 322.373 280.841 329.335 280.9 336.355C281.549 336.445 282.135 336.553 282.683 336.687C287.397 337.843 291.38 340.766 293.898 344.922C296.415 349.076 297.168 353.966 296.014 358.686C293.633 368.431 283.778 374.422 274.048 372.037C273.503 371.904 272.933 371.729 272.314 371.507C269.025 377.709 264.865 383.392 259.943 388.406C260.342 388.93 260.678 389.423 260.969 389.902C263.487 394.056 264.24 398.946 263.086 403.666C261.932 408.387 259.013 412.376 254.863 414.897C246.298 420.103 235.101 417.359 229.903 408.782C229.612 408.301 229.331 407.775 229.05 407.18C222.333 409.239 215.38 410.311 208.368 410.37C208.279 411.022 208.171 411.609 208.037 412.156C206.009 420.455 198.562 426.03 190.386 426.03V426.028ZM156.427 388.337C156.541 388.337 156.657 388.381 156.743 388.467C161.85 393.548 167.667 397.819 174.029 401.159C174.231 401.265 174.32 401.504 174.241 401.716C173.966 402.445 173.759 403.102 173.608 403.721C172.511 408.21 173.227 412.857 175.619 416.805C178.013 420.755 181.798 423.535 186.28 424.632C195.531 426.898 204.9 421.203 207.161 411.94C207.312 411.322 207.43 410.643 207.524 409.867C207.55 409.64 207.741 409.471 207.967 409.471C215.152 409.449 222.28 408.35 229.154 406.204C229.37 406.137 229.604 406.241 229.695 406.449C230.017 407.162 230.334 407.771 230.664 408.316C235.606 416.469 246.251 419.076 254.391 414.127C258.335 411.73 261.109 407.939 262.207 403.45C263.304 398.962 262.587 394.315 260.194 390.367C259.86 389.816 259.477 389.268 258.987 388.644C258.846 388.465 258.86 388.21 259.021 388.049C264.093 382.937 268.357 377.112 271.696 370.736C271.801 370.535 272.04 370.445 272.251 370.524C272.982 370.8 273.637 371.007 274.254 371.16C283.509 373.427 292.874 367.732 295.135 358.468C296.232 353.98 295.516 349.335 293.124 345.385C290.73 341.434 286.945 338.656 282.463 337.558C281.844 337.407 281.168 337.287 280.393 337.195C280.169 337.168 279.998 336.977 279.998 336.751C279.975 329.555 278.878 322.418 276.735 315.534C276.668 315.318 276.772 315.084 276.979 314.992C277.692 314.668 278.302 314.352 278.844 314.022C286.985 309.073 289.589 298.415 284.649 290.262C279.707 282.109 269.064 279.502 260.92 284.451C260.379 284.781 259.815 285.177 259.2 285.66C259.021 285.8 258.769 285.786 258.606 285.625C253.499 280.544 247.682 276.274 241.319 272.933C241.118 272.827 241.028 272.588 241.108 272.376C241.382 271.649 241.59 270.992 241.741 270.371C242.838 265.883 242.121 261.237 239.73 257.287C237.336 253.337 233.55 250.559 229.068 249.46C219.817 247.194 210.449 252.889 208.187 262.153C208.037 262.77 207.919 263.449 207.825 264.225C207.798 264.452 207.607 264.621 207.381 264.621C200.194 264.643 193.066 265.742 186.195 267.888C185.979 267.955 185.747 267.852 185.653 267.644C185.332 266.93 185.014 266.319 184.687 265.777C179.745 257.624 169.102 255.017 160.958 259.966C152.816 264.914 150.213 275.572 155.153 283.725C155.487 284.276 155.87 284.822 156.36 285.448C156.501 285.627 156.486 285.882 156.325 286.043C151.251 291.157 146.987 296.982 143.651 303.356C143.545 303.558 143.307 303.647 143.095 303.568C142.367 303.293 141.711 303.085 141.093 302.934C136.611 301.835 131.972 302.551 128.027 304.95C124.083 307.347 121.309 311.138 120.211 315.626C117.948 324.89 123.635 334.27 132.886 336.537C133.503 336.687 134.18 336.808 134.956 336.899C135.18 336.926 135.351 337.117 135.351 337.344C135.373 344.541 136.47 351.679 138.613 358.56C138.681 358.776 138.577 359.01 138.369 359.102C137.657 359.424 137.046 359.742 136.505 360.072C132.56 362.469 129.786 366.26 128.689 370.749C127.592 375.237 128.308 379.884 130.702 383.832C133.096 387.782 136.881 390.56 141.363 391.659C145.845 392.756 150.484 392.042 154.428 389.643C154.978 389.309 155.524 388.926 156.148 388.434C156.23 388.369 156.327 388.339 156.425 388.339L156.427 388.337ZM207.737 370.465C205.077 370.465 202.401 370.145 199.751 369.495C191.096 367.375 183.783 362.007 179.161 354.379C169.617 338.634 174.646 318.048 190.369 308.49C206.093 298.933 226.65 303.969 236.194 319.715C240.819 327.342 242.199 336.316 240.08 344.983C237.963 353.65 232.602 360.973 224.985 365.602C219.699 368.814 213.766 370.463 207.739 370.463L207.737 370.465ZM179.926 353.913C184.424 361.336 191.54 366.56 199.964 368.623C208.387 370.685 217.106 369.34 224.519 364.836C231.932 360.331 237.149 353.205 239.209 344.771C241.268 336.337 239.925 327.605 235.427 320.182C226.139 304.858 206.138 299.958 190.836 309.259C175.533 318.559 170.642 338.591 179.928 353.913H179.926Z" fill="#D7CDEB"/>
<path d="M332.82 345.164C331.957 345.164 331.088 345.06 330.227 344.85C324.428 343.429 320.864 337.549 322.282 331.742C322.352 331.46 322.437 331.167 322.545 330.857C319.006 328.957 315.755 326.571 312.875 323.758C312.61 323.954 312.358 324.125 312.112 324.274C307.009 327.376 300.337 325.741 297.239 320.631C295.739 318.155 295.291 315.242 295.977 312.429C296.665 309.617 298.403 307.24 300.876 305.738C301.125 305.587 301.391 305.442 301.686 305.297C300.524 301.441 299.909 297.452 299.861 293.429C299.537 293.38 299.238 293.323 298.957 293.253C296.148 292.565 293.775 290.822 292.275 288.347C290.775 285.871 290.327 282.958 291.013 280.145C291.699 277.333 293.439 274.956 295.912 273.454C298.383 271.952 301.294 271.503 304.102 272.19C304.383 272.259 304.674 272.345 304.986 272.453C306.883 268.909 309.264 265.653 312.075 262.769C311.88 262.504 311.709 262.254 311.558 262.005C310.058 259.529 309.61 256.616 310.296 253.803C310.984 250.99 312.722 248.614 315.195 247.111C317.666 245.609 320.575 245.161 323.386 245.848C326.195 246.537 328.568 248.277 330.068 250.754C330.218 251 330.363 251.27 330.508 251.565C334.358 250.401 338.342 249.786 342.36 249.737C342.408 249.411 342.465 249.111 342.535 248.832C343.223 246.019 344.961 243.642 347.434 242.14C349.905 240.638 352.813 240.19 355.624 240.876C361.423 242.297 364.987 248.177 363.568 253.984C363.499 254.268 363.414 254.559 363.306 254.869C366.845 256.769 370.096 259.156 372.976 261.968C373.239 261.773 373.491 261.603 373.739 261.453C376.21 259.95 379.121 259.502 381.93 260.189C384.738 260.878 387.112 262.619 388.612 265.095C390.112 267.571 390.56 270.484 389.874 273.297C389.186 276.11 387.448 278.486 384.975 279.988C384.728 280.139 384.462 280.284 384.165 280.429C385.327 284.287 385.941 288.276 385.99 292.297C386.316 292.346 386.613 292.403 386.894 292.473C392.693 293.893 396.257 299.774 394.838 305.581C393.419 311.388 387.545 314.957 381.749 313.536C381.468 313.467 381.177 313.381 380.865 313.273C378.968 316.82 376.585 320.075 373.776 322.957C373.971 323.222 374.142 323.473 374.293 323.721C375.793 326.198 376.241 329.11 375.555 331.923C374.867 334.736 373.129 337.113 370.656 338.615C368.185 340.117 365.274 340.565 362.465 339.878C359.656 339.19 357.283 337.449 355.783 334.972C355.632 334.722 355.488 334.459 355.343 334.161C351.49 335.325 347.509 335.941 343.491 335.989C343.442 336.316 343.385 336.615 343.316 336.894C342.628 339.707 340.89 342.084 338.417 343.586C336.701 344.628 334.776 345.164 332.82 345.164ZM312.912 322.714C313.026 322.714 313.142 322.759 313.227 322.845C316.205 325.806 319.596 328.297 323.306 330.246C323.508 330.352 323.597 330.59 323.518 330.802C323.359 331.222 323.241 331.599 323.154 331.956C321.853 337.282 325.122 342.675 330.44 343.977C333.015 344.607 335.684 344.197 337.951 342.82C340.218 341.442 341.814 339.261 342.443 336.682C342.531 336.324 342.598 335.947 342.651 335.49C342.677 335.264 342.868 335.095 343.094 335.095C347.283 335.082 351.439 334.44 355.447 333.189C355.665 333.122 355.897 333.226 355.989 333.433C356.178 333.851 356.355 334.194 356.544 334.508C357.92 336.778 360.098 338.376 362.673 339.008C365.25 339.64 367.916 339.228 370.183 337.85C372.451 336.473 374.047 334.294 374.678 331.713C375.309 329.133 374.897 326.463 373.521 324.192C373.332 323.878 373.104 323.554 372.827 323.201C372.687 323.022 372.701 322.767 372.862 322.606C375.819 319.626 378.305 316.229 380.252 312.513C380.358 312.311 380.596 312.221 380.808 312.301C381.227 312.46 381.604 312.58 381.958 312.666C387.279 313.968 392.662 310.695 393.963 305.369C395.264 300.043 391.995 294.65 386.676 293.347C386.322 293.26 385.933 293.192 385.485 293.139C385.262 293.113 385.091 292.921 385.091 292.695C385.078 288.5 384.437 284.338 383.188 280.325C383.12 280.109 383.224 279.874 383.432 279.783C383.841 279.597 384.193 279.416 384.504 279.226C386.772 277.848 388.368 275.667 388.999 273.089C389.63 270.509 389.218 267.838 387.842 265.568C385.001 260.88 378.883 259.382 374.201 262.227C373.888 262.417 373.564 262.645 373.212 262.922C373.035 263.063 372.781 263.049 372.618 262.888C369.64 259.924 366.249 257.435 362.538 255.487C362.337 255.381 362.247 255.142 362.327 254.93C362.486 254.51 362.604 254.133 362.691 253.777C363.992 248.451 360.723 243.057 355.404 241.755C352.826 241.123 350.159 241.535 347.894 242.913C345.626 244.291 344.031 246.471 343.402 249.05C343.314 249.409 343.247 249.788 343.194 250.242C343.168 250.468 342.976 250.638 342.75 250.638C338.56 250.65 334.403 251.292 330.398 252.543C330.182 252.611 329.95 252.507 329.856 252.299C329.671 251.889 329.488 251.537 329.301 251.225C327.925 248.954 325.747 247.356 323.17 246.724C320.591 246.092 317.925 246.504 315.659 247.882C310.98 250.727 309.482 256.854 312.323 261.542C312.513 261.856 312.741 262.178 313.017 262.533C313.158 262.712 313.144 262.967 312.983 263.128C310.023 266.112 307.536 269.508 305.592 273.221C305.486 273.423 305.248 273.513 305.037 273.433C304.617 273.274 304.241 273.154 303.887 273.069C301.31 272.437 298.641 272.848 296.376 274.226C294.109 275.604 292.513 277.783 291.884 280.364C291.253 282.944 291.664 285.614 293.04 287.885C294.416 290.155 296.592 291.753 299.169 292.385C299.525 292.473 299.914 292.54 300.359 292.593C300.583 292.62 300.754 292.811 300.754 293.037C300.766 297.234 301.408 301.396 302.657 305.408C302.724 305.624 302.621 305.858 302.413 305.952C302.006 306.137 301.654 306.319 301.34 306.508C296.661 309.354 295.163 315.481 298.004 320.169C300.846 324.854 306.964 326.355 311.646 323.509C311.957 323.32 312.281 323.093 312.635 322.814C312.716 322.749 312.814 322.718 312.912 322.718V322.714ZM342.962 312.621C341.389 312.621 339.807 312.431 338.24 312.048C333.123 310.795 328.8 307.621 326.066 303.11C323.333 298.602 322.517 293.294 323.768 288.17C325.02 283.046 328.189 278.717 332.694 275.979C337.198 273.242 342.496 272.425 347.613 273.678C352.73 274.932 357.053 278.105 359.787 282.616C365.429 291.924 362.457 304.095 353.159 309.747C350.035 311.647 346.526 312.621 342.962 312.621ZM342.893 274.006C339.49 274.006 336.144 274.936 333.16 276.75C328.861 279.363 325.836 283.494 324.642 288.386C323.447 293.278 324.226 298.341 326.834 302.646C329.443 306.95 333.569 309.979 338.454 311.176C343.341 312.372 348.395 311.592 352.693 308.981C361.566 303.587 364.405 291.971 359.019 283.085C356.41 278.78 352.284 275.751 347.399 274.555C345.905 274.188 344.393 274.008 342.893 274.008V274.006Z" fill="#D7CDEB"/>
<path d="M555.922 149.297H63.7928C52.3998 149.297 43.1641 158.546 43.1641 169.955V171.683C43.1641 183.092 52.3998 192.341 63.7928 192.341H555.922C567.315 192.341 576.551 183.092 576.551 171.683V169.955C576.551 158.546 567.315 149.297 555.922 149.297Z" fill="white"/>
<path d="M555.921 192.794H63.7913C52.1692 192.794 42.7148 183.327 42.7148 171.688V169.958C42.7148 158.319 52.1692 148.852 63.7913 148.852H555.921C567.543 148.852 576.997 158.319 576.997 169.958V171.688C576.997 183.327 567.543 192.794 555.921 192.794ZM63.7913 149.748C52.6638 149.748 43.6104 158.815 43.6104 169.958V171.688C43.6104 182.831 52.6638 191.897 63.7913 191.897H555.921C567.048 191.897 576.102 182.831 576.102 171.688V169.958C576.102 158.815 567.048 149.748 555.921 149.748H63.7913Z" fill="black"/>
<path d="M547.156 177.384C542.155 177.384 538.086 173.309 538.086 168.301C538.086 163.293 542.155 159.219 547.156 159.219C552.157 159.219 556.225 163.293 556.225 168.301C556.225 173.309 552.157 177.384 547.156 177.384ZM547.156 160.116C542.649 160.116 538.982 163.786 538.982 168.301C538.982 172.816 542.647 176.487 547.156 176.487C551.664 176.487 555.33 172.816 555.33 168.301C555.33 163.786 551.664 160.116 547.156 160.116Z" fill="black"/>
<path d="M561.291 182.703C561.177 182.703 561.061 182.658 560.974 182.57L553.034 174.619C552.859 174.444 552.859 174.158 553.034 173.983C553.209 173.808 553.494 173.808 553.669 173.983L561.607 181.932C561.782 182.107 561.782 182.393 561.607 182.568C561.519 182.656 561.405 182.701 561.289 182.701L561.291 182.703Z" fill="black"/>
<path d="M513.761 163.609H435.631C432.057 163.609 429.16 166.51 429.16 170.089V170.633C429.16 174.212 432.057 177.113 435.631 177.113H513.761C517.335 177.113 520.232 174.212 520.232 170.633V170.089C520.232 166.51 517.335 163.609 513.761 163.609Z" fill="#D7CDEB"/>
<path d="M401.987 163.609H308.178C304.604 163.609 301.707 166.51 301.707 170.089V170.633C301.707 174.212 304.604 177.113 308.178 177.113H401.987C405.56 177.113 408.457 174.212 408.457 170.633V170.089C408.457 166.51 405.56 163.609 401.987 163.609Z" fill="#D7CDEB"/>
<path d="M229.361 162.008H131.082C126.673 162.008 123.098 165.588 123.098 170.004V170.672C123.098 175.089 126.673 178.668 131.082 178.668H229.361C233.771 178.668 237.346 175.089 237.346 170.672V170.004C237.346 165.588 233.771 162.008 229.361 162.008Z" fill="#7859BC"/>
<path d="M182.599 267.853C159.612 267.853 137.621 259.722 119.999 244.564C79.7145 209.914 75.0901 148.905 109.692 108.562C144.291 68.2206 205.217 63.5897 245.503 98.24C265.019 115.025 276.838 138.416 278.784 164.102C280.73 189.79 272.572 214.698 255.811 234.24C239.049 253.783 215.691 265.619 190.041 267.568C187.554 267.757 185.068 267.851 182.599 267.851V267.853ZM118.91 116.493C88.6763 151.744 92.7166 205.057 127.919 235.333C144.971 250 166.709 257.14 189.121 255.436C211.535 253.732 231.946 243.39 246.592 226.313C261.239 209.237 268.369 187.471 266.667 165.025C264.966 142.58 254.638 122.141 237.586 107.473C202.381 77.193 149.144 81.241 118.91 116.493Z" fill="black"/>
<path d="M25.7719 331.792C24.0378 331.792 22.3036 331.129 20.9806 329.804C18.3346 327.155 18.3346 322.856 20.9806 320.206L110.418 230.644C113.064 227.994 117.356 227.994 120.002 230.644C122.648 233.293 122.648 237.592 120.002 240.242L30.5653 329.804C29.2423 331.129 27.5081 331.792 25.7739 331.792H25.7719Z" fill="black"/>
<path d="M247.589 420.887L266.822 416.163L272.12 437.795L282.694 435.198L280.107 424.632L290.377 414.377L294.751 432.236L321.903 425.567L318.732 412.624L329.023 410.097L332.194 423.04L431.815 398.571L421.216 355.305L186.09 413.059C191.942 436.953 216.03 451.573 239.891 445.711L252.885 442.519L247.587 420.887H247.589Z" fill="white"/>
<path d="M229.297 447.446C209.087 447.446 190.679 433.674 185.654 413.163C185.625 413.047 185.644 412.924 185.707 412.822C185.768 412.72 185.867 412.647 185.983 412.619L421.11 354.865C421.226 354.836 421.346 354.854 421.45 354.918C421.552 354.979 421.625 355.079 421.653 355.195L432.25 398.461C432.309 398.701 432.162 398.946 431.92 399.005L332.3 423.474C332.184 423.503 332.064 423.484 331.96 423.421C331.858 423.36 331.785 423.26 331.756 423.144L328.693 410.637L319.273 412.951L322.336 425.457C322.395 425.698 322.249 425.943 322.007 426.002L294.854 432.671C294.738 432.699 294.616 432.681 294.515 432.618C294.413 432.557 294.34 432.457 294.311 432.341L290.126 415.256L280.599 424.769L283.127 435.088C283.155 435.204 283.137 435.327 283.074 435.429C283.013 435.53 282.913 435.604 282.797 435.632L272.223 438.229C272.107 438.258 271.985 438.239 271.883 438.176C271.781 438.115 271.708 438.015 271.68 437.899L266.487 416.703L248.126 421.214L253.318 442.41C253.347 442.526 253.328 442.648 253.265 442.75C253.204 442.852 253.105 442.925 252.989 442.954L239.995 446.146C236.414 447.026 232.824 447.446 229.292 447.446H229.297ZM186.635 413.385C192.605 436.743 216.349 451.029 239.785 445.273L252.343 442.189L247.151 420.994C247.123 420.878 247.141 420.755 247.202 420.653C247.263 420.551 247.363 420.478 247.479 420.449L266.711 415.725C266.827 415.696 266.949 415.715 267.051 415.778C267.153 415.839 267.226 415.939 267.255 416.055L272.447 437.251L282.15 434.868L279.668 424.738C279.632 424.585 279.677 424.424 279.789 424.312L290.059 414.058C290.173 413.943 290.342 413.901 290.497 413.943C290.653 413.986 290.774 414.111 290.812 414.27L295.08 431.69L321.361 425.235L318.298 412.729C318.27 412.612 318.288 412.49 318.351 412.388C318.412 412.286 318.512 412.213 318.628 412.184L328.919 409.657C329.159 409.598 329.403 409.745 329.462 409.987L332.526 422.494L431.275 398.239L420.89 355.845L186.639 413.383L186.635 413.385Z" fill="black"/>
<path d="M572.126 341.178C560.874 295.242 514.569 267.14 468.697 278.408C422.828 289.675 394.762 336.045 406.013 381.979C417.265 427.915 463.57 456.019 509.442 444.751C555.311 433.484 583.377 387.114 572.126 341.178ZM503.395 358.06C500.822 347.559 507.237 336.96 517.724 334.384C528.21 331.808 538.796 338.232 541.369 348.733C543.942 359.234 537.526 369.835 527.04 372.412C516.553 374.988 505.967 368.561 503.395 358.06Z" fill="white"/>
<path d="M489.073 447.672C450.41 447.672 415.19 421.323 405.579 382.081C394.286 335.98 422.554 289.273 468.59 277.965C514.631 266.657 561.268 294.964 572.56 341.065C583.853 387.168 555.585 433.875 509.549 445.183C502.697 446.867 495.832 447.672 489.073 447.672ZM489.066 276.377C482.376 276.377 475.586 277.174 468.804 278.839C423.248 290.029 395.276 336.249 406.45 381.869C415.961 420.7 450.817 446.771 489.073 446.775C495.763 446.775 502.553 445.978 509.335 444.313C554.893 433.123 582.863 386.903 571.689 341.283C562.178 302.455 527.322 276.379 489.066 276.379V276.377ZM522.384 373.422C513.389 373.422 505.197 367.293 502.96 358.164C501.688 352.969 502.512 347.59 505.28 343.014C508.049 338.44 512.431 335.217 517.619 333.944C522.807 332.67 528.181 333.493 532.748 336.267C537.315 339.039 540.533 343.428 541.805 348.623C543.078 353.819 542.253 359.2 539.485 363.773C536.717 368.349 532.335 371.57 527.147 372.844C525.553 373.235 523.955 373.422 522.384 373.422ZM522.418 334.257C520.892 334.257 519.355 334.443 517.833 334.816C512.876 336.033 508.692 339.111 506.048 343.478C503.404 347.848 502.616 352.987 503.831 357.948C505.966 366.668 513.794 372.522 522.384 372.522C523.886 372.522 525.41 372.342 526.933 371.969C531.887 370.752 536.074 367.675 538.718 363.305C541.362 358.935 542.149 353.796 540.934 348.833C539.719 343.872 536.648 339.679 532.284 337.032C529.259 335.197 525.866 334.255 522.418 334.255V334.257Z" fill="black"/>
<path d="M439.389 431.733C439.299 431.733 439.208 431.706 439.128 431.649C422.393 419.701 410.476 402.096 405.575 382.083C394.282 335.982 422.55 289.275 468.588 277.967C476.97 275.908 485.549 275.115 494.086 275.613C494.334 275.627 494.521 275.839 494.507 276.088C494.493 276.336 494.283 276.524 494.033 276.51C485.586 276.018 477.098 276.801 468.802 278.839C423.246 290.029 395.274 336.249 406.448 381.869C411.298 401.674 423.091 419.095 439.651 430.919C439.853 431.064 439.9 431.343 439.757 431.545C439.67 431.667 439.531 431.733 439.391 431.733H439.389Z" fill="black"/>
<path d="M482.171 447.412H227.26C227.012 447.412 226.812 447.211 226.812 446.964C226.812 446.717 227.014 446.516 227.26 446.516H482.171C482.419 446.516 482.619 446.717 482.619 446.964C482.619 447.211 482.417 447.412 482.171 447.412Z" fill="black"/>
<path d="M576.369 447.686H489.065C488.817 447.686 488.617 447.484 488.617 447.237C488.617 446.991 488.819 446.789 489.065 446.789H575.919V419.745C575.919 419.497 576.121 419.297 576.367 419.297C576.613 419.297 576.815 419.499 576.815 419.745V447.237C576.815 447.486 576.613 447.686 576.367 447.686H576.369Z" fill="black"/>
<path d="M541.822 200.595C540.986 191.139 534.645 183.161 528.14 176.258C514.031 161.287 497.86 148.356 480.744 136.952C475.753 133.628 470.557 130.375 464.726 128.989C458.894 127.603 452.236 128.369 447.763 132.364C442.475 137.087 441.447 144.971 441.901 152.052C443.205 172.428 454.404 191.94 471.33 203.326C484.347 212.08 500.424 215.818 515.979 214.224C527.194 213.075 543.422 218.688 541.822 200.595Z" fill="black"/>
<path d="M364.528 232.053L425.134 240.471L450.112 252.203C457.737 279.452 389.446 277.826 389.446 277.826L425.067 322.596C428.484 326.89 428.973 332.84 426.26 337.61C418.778 350.762 402.922 371.809 394.792 382.359C392.779 384.972 388.642 384.071 387.89 380.859L383.616 362.603L333.788 278.329C320.643 256.098 338.974 228.504 364.528 232.053Z" fill="white"/>
<path d="M391.716 384.333C391.405 384.333 391.09 384.301 390.776 384.231C389.115 383.87 387.841 382.617 387.454 380.96L383.18 362.703C383.123 362.461 383.274 362.22 383.514 362.163C383.758 362.106 383.996 362.257 384.053 362.497L388.328 380.754C388.637 382.071 389.646 383.067 390.965 383.353C392.282 383.638 393.613 383.153 394.438 382.083C403.005 370.964 418.482 350.372 425.87 337.386C428.502 332.759 428.05 327.062 424.716 322.874L420.039 316.995C419.884 316.802 419.917 316.518 420.11 316.364C420.304 316.209 420.586 316.241 420.741 316.435L425.418 322.313C428.982 326.791 429.465 332.882 426.65 337.83C419.235 350.865 403.731 371.494 395.148 382.631C394.307 383.722 393.048 384.331 391.716 384.331V384.333Z" fill="black"/>
<path d="M364.53 232.055L425.136 240.471L461.987 257.164C469.611 284.413 389.446 277.826 389.446 277.826L420.39 316.717C418.914 318.96 383.75 360.493 382.955 361.484L333.788 278.329C320.643 256.098 338.974 228.504 364.528 232.053L364.53 232.055Z" fill="#7859BC"/>
<path d="M456.222 260.304L404.653 259.004C379.812 258.378 357.054 272.817 346.993 295.57C330.486 332.895 304.728 387.675 286.499 410.108C284.356 412.745 286.525 416.648 289.894 416.206L341.422 409.439C349.745 408.347 357.068 403.396 361.194 396.074L408.576 311.988C408.576 311.988 503.46 316.572 495.062 297.761C486.664 278.948 456.222 260.306 456.222 260.306V260.304Z" fill="white"/>
<path d="M289.372 416.693C287.855 416.693 286.498 415.9 285.738 414.536C284.882 413 285.04 411.196 286.152 409.828C289.589 405.597 293.485 399.965 297.729 393.09C297.859 392.878 298.136 392.813 298.346 392.943C298.557 393.074 298.622 393.351 298.492 393.561C294.228 400.471 290.31 406.133 286.848 410.395C285.804 411.681 285.995 413.15 286.524 414.098C287.051 415.044 288.203 415.978 289.838 415.764L341.366 408.997C349.503 407.928 356.772 403.016 360.806 395.858L362.357 393.104C362.479 392.888 362.752 392.811 362.967 392.933C363.183 393.055 363.26 393.328 363.138 393.545L361.587 396.298C357.415 403.701 349.9 408.782 341.484 409.887L289.956 416.654C289.76 416.681 289.567 416.693 289.376 416.693H289.372Z" fill="black"/>
<path d="M354.439 392.145C350.354 392.503 346.269 392.844 342.174 393.07C338.074 393.296 333.985 393.335 329.882 393.317C321.657 393.28 313.428 393.202 305.211 392.825C303.021 392.725 300.829 392.601 298.641 392.454C314.999 365.739 333.904 325.168 346.993 295.57C357.056 272.817 379.814 258.378 404.654 259.004L456.223 260.304C456.223 260.304 486.664 278.948 495.062 297.759C503.46 316.572 408.576 311.988 408.576 311.988L363.883 391.301C360.73 391.566 357.581 391.867 354.439 392.145Z" fill="#7859BC"/>
<path d="M346.99 296.017C346.929 296.017 346.868 296.004 346.809 295.978C346.583 295.878 346.482 295.613 346.581 295.385C356.542 272.862 378.602 258.531 403.08 258.531C403.607 258.531 404.134 258.537 404.665 258.552L449.727 259.689C449.975 259.695 450.171 259.901 450.164 260.15C450.158 260.394 449.959 260.588 449.717 260.588C449.713 260.588 449.708 260.588 449.704 260.588L404.643 259.451C404.122 259.438 403.601 259.43 403.082 259.43C378.956 259.43 357.22 273.551 347.404 295.748C347.33 295.915 347.165 296.015 346.992 296.015L346.99 296.017Z" fill="black"/>
<path d="M382.48 358.748C382.405 358.748 382.329 358.729 382.26 358.688C382.044 358.566 381.967 358.293 382.089 358.077L408.185 311.768C408.268 311.621 408.429 311.531 408.598 311.54C408.629 311.54 411.72 311.688 416.64 311.821C416.888 311.827 417.084 312.035 417.078 312.282C417.071 312.53 416.852 312.726 416.618 312.718C412.526 312.608 409.695 312.487 408.832 312.449L382.873 358.517C382.791 358.664 382.639 358.745 382.482 358.745L382.48 358.748Z" fill="black"/>
<path d="M389.444 312.509C389.198 312.509 388.996 312.309 388.996 312.061C388.996 311.812 389.196 311.61 389.444 311.61L405.981 311.547C406.228 311.547 406.429 311.747 406.429 311.995C406.429 312.244 406.23 312.446 405.981 312.446L389.444 312.509Z" fill="black"/>
<path d="M425.133 240.469L451.668 259.859C451.668 259.859 478.263 283.845 480.26 309.091C480.26 309.091 531.908 303.595 517.568 246.457L452.122 244.592L425.129 240.469H425.133Z" fill="#7859BC"/>
<path d="M511.297 252.892L492.002 175.068C492.002 175.068 456.36 174.342 443.838 177.175C443.838 177.175 442.448 240.387 441.805 252.892H511.297Z" fill="white"/>
<path d="M420.73 239.602C420.73 239.602 431.215 176.563 443.84 177.168L441.807 239.602H420.73Z" fill="white"/>
<path d="M441.806 240.056H420.729C420.597 240.056 420.473 239.997 420.387 239.897C420.302 239.797 420.265 239.663 420.288 239.532C420.314 239.375 422.96 223.571 427.116 208.045C432.752 186.998 438.409 176.459 443.862 176.724C444.106 176.736 444.297 176.942 444.289 177.186L442.256 239.62C442.248 239.863 442.05 240.054 441.808 240.054L441.806 240.056ZM421.263 239.157H441.372L443.377 177.631C438.568 178.028 433.255 188.59 427.986 208.274C424.265 222.171 421.757 236.296 421.263 239.157Z" fill="black"/>
<path d="M369.029 241.806H465.642V238.891C465.642 236.329 463.568 234.25 461.008 234.25H362.234L363.028 237.199C363.759 239.916 366.218 241.804 369.029 241.804V241.806Z" fill="black"/>
<path d="M366.274 238.386H424.562C427.051 238.386 428.879 236.046 428.28 233.627L417.265 189.124C416.842 187.411 415.307 186.211 413.546 186.211H355.259C352.769 186.211 350.942 188.551 351.54 190.97L362.556 235.473C362.979 237.186 364.514 238.386 366.274 238.386Z" fill="black"/>
<path d="M386.062 205.309C387.126 205.309 387.988 204.446 387.988 203.381C387.988 202.316 387.126 201.453 386.062 201.453C384.999 201.453 384.137 202.316 384.137 203.381C384.137 204.446 384.999 205.309 386.062 205.309Z" fill="#7859BC"/>
<path d="M445.988 234.253C445.988 234.253 456.623 216.007 471.152 221.406C485.68 226.805 506.393 239.773 506.393 239.773C506.393 239.773 487.27 187.758 492.004 175.07C492.004 175.07 517.052 182.6 528.635 220.095C540.221 257.591 522.938 270.328 510.681 270.548C498.422 270.768 467.686 238.372 462.839 238.387L445.99 234.251L445.988 234.253Z" fill="white"/>
<path d="M510.554 270.997C502.803 270.997 488.541 259.008 477.068 249.365C470.626 243.95 464.54 238.834 462.84 238.834C462.84 238.834 462.838 238.834 462.836 238.834C462.8 238.834 462.765 238.829 462.728 238.821L445.879 234.686C445.741 234.651 445.629 234.555 445.574 234.425C445.519 234.294 445.529 234.146 445.601 234.023C445.709 233.838 456.598 215.514 471.308 220.98C483.805 225.624 501.045 235.966 505.529 238.709C502.616 230.619 487.194 186.675 491.582 174.91C491.664 174.688 491.902 174.567 492.132 174.637C492.39 174.714 498.572 176.622 506.265 183.177C513.345 189.21 523.047 200.488 529.064 219.959C536.173 242.971 532.107 255.494 527.444 261.947C523.434 267.495 517.171 270.877 510.688 270.995C510.644 270.995 510.601 270.995 510.556 270.995L510.554 270.997ZM462.895 237.937C464.862 238.01 469.563 241.883 477.646 248.676C488.409 257.724 503.131 270.098 510.554 270.098C510.595 270.098 510.633 270.098 510.672 270.098C516.874 269.986 522.872 266.743 526.717 261.423C531.26 255.135 535.207 242.884 528.207 220.226C522.264 200.987 512.701 189.852 505.726 183.897C499.276 178.389 493.791 176.178 492.284 175.638C488.205 188.713 506.626 239.101 506.815 239.614C506.882 239.794 506.825 239.997 506.677 240.118C506.528 240.238 506.318 240.252 506.156 240.15C505.948 240.02 485.317 227.144 470.998 221.824C458.361 217.128 448.566 231.066 446.7 233.962L462.897 237.937H462.895Z" fill="black"/>
<path d="M459.05 236.213C459.001 236.213 458.952 236.205 458.903 236.189C458.669 236.107 458.545 235.85 458.627 235.616C459.638 232.703 461.924 230.225 464.743 228.983C464.971 228.883 465.235 228.987 465.333 229.214C465.433 229.44 465.329 229.707 465.103 229.805C462.508 230.946 460.403 233.229 459.473 235.909C459.408 236.095 459.235 236.211 459.05 236.211V236.213Z" fill="black"/>
<path d="M453.753 235.154C453.71 235.154 453.668 235.148 453.625 235.136C453.387 235.064 453.253 234.814 453.324 234.577C454.374 231.057 456.983 228.02 460.305 226.457C460.529 226.351 460.796 226.449 460.902 226.673C461.007 226.897 460.91 227.164 460.686 227.27C457.592 228.727 455.162 231.555 454.183 234.834C454.124 235.03 453.947 235.154 453.753 235.154Z" fill="black"/>
<path d="M465.645 241.806V238.891C465.645 236.329 463.571 234.25 461.01 234.25H441.809L465.645 241.806Z" fill="black"/>
<path d="M469.69 153.932L478.068 175.193C478.068 175.193 473.372 181.395 462.841 182.808C452.31 184.22 461.27 175.397 461.27 175.397L456.184 160.819L469.692 153.93L469.69 153.932Z" fill="white"/>
<path d="M460.809 183.414C459.01 183.414 457.911 182.966 457.467 182.057C456.431 179.935 459.799 176.264 460.754 175.284L455.759 160.971C455.686 160.759 455.78 160.525 455.979 160.423L469.488 153.534C469.602 153.476 469.732 153.468 469.85 153.513C469.968 153.558 470.062 153.65 470.109 153.768L478.486 175.029C478.543 175.176 478.521 175.341 478.427 175.465C478.232 175.724 473.498 181.835 462.901 183.255C462.122 183.359 461.426 183.412 460.809 183.412V183.414ZM456.736 161.047L461.694 175.253C461.751 175.416 461.709 175.6 461.585 175.722C459.962 177.32 457.628 180.347 458.273 181.663C458.66 182.456 460.259 182.705 462.781 182.367C471.973 181.133 476.665 176.154 477.554 175.115L469.455 154.559L456.736 161.044V161.047Z" fill="black"/>
<path d="M445.708 152.216C446.015 155.447 446.919 158.685 448.79 161.335C450.66 163.985 453.587 165.989 456.815 166.276C459.614 166.525 462.439 165.471 464.637 163.718C466.835 161.965 468.447 159.558 469.591 156.988C472.524 157.177 475.455 155.151 476.314 152.336C476.811 150.712 476.605 148.8 475.468 147.54C474.33 146.281 472.178 145.946 470.902 147.063C470.176 147.699 469.807 148.682 469.054 149.287C468.213 149.962 467.008 150.047 465.983 149.713C464.957 149.379 464.092 148.68 463.341 147.907C460.974 145.474 459.535 142.157 459.372 138.766C459.388 139.086 457.92 139.993 457.662 140.17C457.015 140.616 456.329 141.004 455.616 141.332C454.21 141.98 452.696 142.394 451.155 142.555C450.373 142.636 449.586 142.655 448.802 142.604C448.179 142.563 447.294 142.237 446.689 142.402C445.425 142.746 445.702 145.154 445.651 146.128C445.543 148.154 445.515 150.19 445.708 152.212V152.216Z" fill="white"/>
<path d="M457.625 166.764C457.342 166.764 457.057 166.752 456.776 166.728C453.615 166.447 450.493 164.529 448.425 161.598C446.683 159.129 445.62 155.988 445.264 152.262C445.095 150.491 445.077 148.536 445.205 146.111C445.213 145.948 445.213 145.744 445.211 145.516C445.205 144.256 445.197 142.35 446.573 141.975C447.067 141.841 447.649 141.955 448.162 142.057C448.409 142.106 448.643 142.151 448.832 142.163C449.581 142.212 450.348 142.195 451.11 142.114C452.612 141.955 454.065 141.557 455.431 140.93C456.125 140.61 456.79 140.233 457.409 139.805C457.448 139.778 457.509 139.737 457.588 139.684C458.527 139.069 458.842 138.796 458.934 138.675C458.974 138.48 459.143 138.331 459.351 138.321C459.599 138.311 459.809 138.5 459.821 138.749C459.978 142.024 461.378 145.251 463.664 147.599C464.531 148.49 465.313 149.028 466.123 149.293C467.096 149.609 468.111 149.476 468.773 148.944C469.113 148.671 469.373 148.294 469.65 147.892C469.927 147.491 470.216 147.075 470.607 146.733C472.013 145.501 474.439 145.742 475.799 147.246C476.971 148.543 477.332 150.546 476.743 152.474C475.846 155.411 472.939 157.503 469.874 157.456C468.588 160.25 466.921 162.476 464.914 164.076C462.738 165.811 460.124 166.767 457.621 166.767L457.625 166.764ZM447.08 142.811C446.98 142.811 446.888 142.819 446.811 142.842C446.101 143.035 446.107 144.584 446.111 145.51C446.111 145.758 446.111 145.98 446.103 146.158C445.976 148.536 445.993 150.448 446.158 152.177C446.497 155.746 447.509 158.74 449.158 161.08C451.077 163.799 453.955 165.574 456.858 165.833C459.377 166.057 462.115 165.16 464.36 163.371C466.318 161.81 467.942 159.602 469.186 156.81C469.261 156.638 469.436 156.532 469.624 156.545C472.355 156.722 475.093 154.816 475.888 152.209C476.379 150.605 476.084 148.893 475.137 147.847C474.112 146.712 472.235 146.502 471.201 147.409C470.894 147.678 470.649 148.031 470.391 148.404C470.09 148.84 469.78 149.289 469.337 149.645C468.441 150.365 467.102 150.558 465.846 150.149C464.891 149.837 463.994 149.227 463.021 148.229C460.818 145.966 459.388 142.939 459.009 139.8C458.767 139.982 458.461 140.192 458.079 140.44C458.008 140.487 457.951 140.524 457.916 140.549C457.254 141.005 456.544 141.409 455.803 141.749C454.35 142.418 452.801 142.844 451.201 143.011C450.389 143.096 449.573 143.113 448.771 143.062C448.525 143.045 448.262 142.994 447.985 142.939C447.68 142.88 447.346 142.813 447.073 142.813L447.08 142.811Z" fill="black"/>
<path d="M469.692 154.383C469.668 154.383 469.643 154.383 469.619 154.377C469.375 154.336 469.208 154.106 469.248 153.861C469.527 152.153 470.899 150.69 472.582 150.3C472.824 150.245 473.065 150.396 473.12 150.637C473.175 150.879 473.024 151.12 472.784 151.175C471.447 151.485 470.356 152.648 470.134 154.004C470.097 154.224 469.908 154.381 469.692 154.381V154.383Z" fill="black"/>
<path d="M153.386 448.002H18.4478C18.1995 448.002 18 447.8 18 447.554V431.284C18 431.036 18.2015 430.836 18.4478 430.836C18.6941 430.836 18.8956 431.038 18.8956 431.284V447.103H153.384C153.632 447.103 153.832 447.305 153.832 447.552C153.832 447.798 153.63 448 153.384 448L153.386 448.002Z" fill="black"/>
<path d="M67.1264 365.568C51.6717 355.95 40.0923 341.706 34.8125 325.82C45.2113 327.064 55.0565 331.566 62.1336 338.313L64.9139 340.74L77.6697 367.352H71.9421L67.1264 365.566V365.568Z" fill="white"/>
<path d="M67.1274 366.021C67.046 366.021 66.9646 365.998 66.8913 365.954C51.2697 356.231 39.727 342.031 34.3902 325.967C34.3413 325.82 34.3718 325.661 34.4675 325.541C34.5652 325.423 34.7158 325.36 34.8685 325.378C45.2938 326.626 55.3466 331.222 62.446 337.993C62.6251 338.164 62.6333 338.447 62.4623 338.629C62.2913 338.808 62.0064 338.816 61.8273 338.645C55.025 332.159 45.4546 327.706 35.471 326.363C40.8403 341.949 52.1429 355.717 67.3656 365.191C67.5752 365.322 67.6403 365.599 67.5101 365.811C67.4246 365.947 67.278 366.023 67.1294 366.023L67.1274 366.021Z" fill="black"/>
<path d="M71.945 365.248C71.7862 365.248 71.6335 365.165 71.5521 365.016C64.8801 352.941 55.3402 341.784 43.9624 332.755C43.769 332.6 43.7365 332.318 43.8891 332.123C44.0438 331.929 44.3267 331.897 44.5201 332.049C55.9895 341.152 65.6088 352.401 72.3378 364.58C72.4579 364.796 72.3785 365.071 72.1627 365.191C72.0935 365.23 72.0203 365.248 71.945 365.248Z" fill="black"/>
<path d="M44.0255 162C55.8573 187.085 64.6542 213.254 70.221 239.933L71.8412 248.206L70.9497 256.921C70.0134 267.398 69.5758 279.43 70.2149 292.707C70.8011 304.867 72.1832 315.88 73.8908 325.541C77.7642 339.479 85.5129 367.356 85.5129 367.356H77.6726L75.5232 363.648C60.3209 331.542 45.7495 298.948 38.2674 264.84C30.7833 230.73 30.6856 194.732 44.0276 162.004L44.0255 162Z" fill="white"/>
<path d="M75.5235 364.098C75.3545 364.098 75.1937 364.002 75.1184 363.841C60.4188 332.796 45.4323 299.589 37.828 264.935C33.8753 246.925 32.2144 229.412 32.8881 212.884C33.631 194.638 37.2398 177.461 43.6106 161.834C43.6777 161.669 43.8365 161.559 44.0136 161.555C44.209 161.551 44.3555 161.651 44.4308 161.812C56.2666 186.902 65.0921 213.157 70.6589 239.844C70.7098 240.087 70.5551 240.325 70.3108 240.376C70.0686 240.427 69.8305 240.27 69.7796 240.027C64.2942 213.738 55.6397 187.871 44.0543 163.124C32.2165 192.789 30.4131 226.972 38.7012 264.741C46.2851 299.302 61.2472 332.458 75.9244 363.454C76.0303 363.678 75.9346 363.945 75.7107 364.053C75.6476 364.082 75.5825 364.096 75.5194 364.096L75.5235 364.098Z" fill="black"/>
<path d="M77.6699 360.181C77.4765 360.181 77.2974 360.055 77.2404 359.859C59.9192 301.639 48.5048 241.71 43.3104 181.739C43.2881 181.492 43.4712 181.274 43.7196 181.252C43.9679 181.231 44.1836 181.413 44.204 181.661C49.3922 241.572 60.7965 301.441 78.0994 359.603C78.1706 359.841 78.0342 360.09 77.7981 360.161C77.7554 360.173 77.7126 360.179 77.6699 360.179V360.181Z" fill="black"/>
<path d="M97.2815 362.155C101.191 330.617 116.032 300.17 139.369 275.805C139.899 307.915 128.105 340.089 106.306 365.999L105.287 367.359H96.6953L97.2815 362.155Z" fill="white"/>
<path d="M106.308 366.447C106.206 366.447 106.102 366.412 106.019 366.341C105.83 366.182 105.805 365.898 105.966 365.707C127.499 340.112 139.184 308.617 138.937 276.91C116.192 300.982 101.57 331.234 97.7309 362.207C97.7004 362.454 97.4785 362.627 97.2302 362.598C96.9839 362.568 96.8089 362.344 96.8394 362.097C100.745 330.588 115.736 299.831 139.047 275.49C139.174 275.359 139.367 275.316 139.536 275.382C139.705 275.449 139.817 275.61 139.821 275.793C140.354 308.092 128.573 340.229 106.652 366.286C106.564 366.392 106.436 366.445 106.308 366.445V366.447Z" fill="black"/>
<path d="M101.862 365.339C101.803 365.339 101.744 365.327 101.687 365.302C101.459 365.204 101.353 364.942 101.45 364.713L128.275 301.532C128.373 301.303 128.635 301.197 128.863 301.293C129.091 301.391 129.197 301.654 129.099 301.882L102.275 365.064C102.202 365.235 102.037 365.337 101.862 365.337V365.339Z" fill="black"/>
<path d="M84.5276 365.542C63.9274 307.896 65.2158 244.499 88.1445 187.523C100.782 215.425 104.792 245.836 104.149 275.823C103.504 305.809 98.3418 335.568 93.1882 365.222L92.7058 367.356H85.0853L84.5276 365.542Z" fill="white"/>
<path d="M84.5279 365.988C84.3447 365.988 84.1717 365.874 84.1066 365.691C63.4372 307.853 64.7236 244.517 87.7316 187.352C87.7988 187.185 87.9576 187.075 88.1387 187.071C88.3158 187.063 88.4827 187.171 88.558 187.334C100.086 212.785 105.334 241.733 104.601 275.828C103.956 305.899 98.7065 336.095 93.6322 365.297C93.5895 365.542 93.3615 365.707 93.1132 365.662C92.869 365.62 92.7061 365.387 92.7489 365.143C97.817 335.973 103.058 305.811 103.703 275.81C104.424 242.281 99.3435 213.764 88.1713 188.669C65.6252 245.373 64.4752 308.088 84.9513 365.387C85.0347 365.622 84.9126 365.878 84.6806 365.962C84.6297 365.98 84.5788 365.988 84.5299 365.988H84.5279Z" fill="black"/>
<path d="M87.9947 362.627C87.7463 362.627 87.5469 362.426 87.5469 362.177L88.0801 215.894C88.0801 215.647 88.2817 215.445 88.5279 215.445C88.7763 215.445 88.9757 215.647 88.9757 215.896L88.4424 362.179C88.4424 362.426 88.2409 362.627 87.9947 362.627Z" fill="black"/>
<path d="M128.814 367.359H60.0508V447.554H128.814V367.359Z" fill="white"/>
<path d="M128.813 448.006H60.0493C59.801 448.006 59.6016 447.804 59.6016 447.557V367.362C59.6016 367.114 59.8031 366.914 60.0493 366.914H128.813C129.061 366.914 129.261 367.116 129.261 367.362V447.557C129.261 447.806 129.059 448.006 128.813 448.006ZM60.4971 447.107H128.363V367.809H60.4971V447.107Z" fill="black"/>
<path d="M441.588 80.9984H304.417C304.168 80.9984 303.969 80.7966 303.969 80.55C303.969 80.3033 304.17 80.1016 304.417 80.1016H441.588C441.836 80.1016 442.036 80.3033 442.036 80.55C442.036 80.7966 441.834 80.9984 441.588 80.9984Z" fill="black"/>
<path d="M329.981 92.3656H304.417C304.168 92.3656 303.969 92.1638 303.969 91.9172C303.969 91.6705 304.17 91.4688 304.417 91.4688H329.981C330.229 91.4688 330.429 91.6705 330.429 91.9172C330.429 92.1638 330.227 92.3656 329.981 92.3656Z" fill="black"/>
<path d="M395.078 92.3656H344.936C344.688 92.3656 344.488 92.1638 344.488 91.9172C344.488 91.6705 344.69 91.4688 344.936 91.4688H395.078C395.326 91.4688 395.526 91.6705 395.526 91.9172C395.526 92.1638 395.324 92.3656 395.078 92.3656Z" fill="black"/>
<path d="M349.073 103.733H304.417C304.168 103.733 303.969 103.531 303.969 103.284C303.969 103.038 304.17 102.836 304.417 102.836H349.073C349.321 102.836 349.521 103.038 349.521 103.284C349.521 103.531 349.319 103.733 349.073 103.733Z" fill="black"/>
<path d="M395.078 103.733H374.565C374.317 103.733 374.117 103.531 374.117 103.284C374.117 103.038 374.319 102.836 374.565 102.836H395.078C395.326 102.836 395.525 103.038 395.525 103.284C395.525 103.531 395.324 103.733 395.078 103.733Z" fill="black"/>
<path d="M327.72 115.1H304.417C304.168 115.1 303.969 114.898 303.969 114.652C303.969 114.405 304.17 114.203 304.417 114.203H327.72C327.968 114.203 328.168 114.405 328.168 114.652C328.168 114.898 327.966 115.1 327.72 115.1Z" fill="black"/>
<path d="M395.075 115.1H340.463C340.215 115.1 340.016 114.898 340.016 114.652C340.016 114.405 340.217 114.203 340.463 114.203H395.075C395.323 114.203 395.523 114.405 395.523 114.652C395.523 114.898 395.321 115.1 395.075 115.1Z" fill="black"/>
<path d="M455.12 85.9811C458.115 85.9811 460.544 83.5491 460.544 80.5491C460.544 77.5491 458.115 75.1172 455.12 75.1172C452.124 75.1172 449.695 77.5491 449.695 80.5491C449.695 83.5491 452.124 85.9811 455.12 85.9811Z" fill="#7859BC"/>
<path d="M455.116 119.814C454.867 119.814 454.668 119.612 454.668 119.366V94.9719C454.668 94.7232 454.87 94.5234 455.116 94.5234C455.362 94.5234 455.564 94.7252 455.564 94.9719V119.366C455.564 119.614 455.362 119.814 455.116 119.814Z" fill="black"/>
</g>
<defs>
<clipPath id="clip0_1027_3364">
<rect width="559" height="373" fill="white" transform="translate(18 75)"/>
</clipPath>
</defs>
</svg>
