<svg width="592" height="522" viewBox="0 0 592 522" fill="none" xmlns="http://www.w3.org/2000/svg">
<path d="M91.8856 167.512C81.6119 189.108 67.8524 239.167 73.6357 291.051C81.0528 357.612 118.295 410.16 154.559 439.714C274.917 537.787 494.073 474.205 523.479 382.099C528.817 365.387 527.349 349.26 525.567 329.42C519.862 266.301 500.503 248.043 488.919 178.931C479.291 121.551 472.582 104.795 461.819 85.1215C428.167 23.6713 304.48 24.2042 228.65 52.2386C199.524 63.0103 128.525 90.5205 91.8944 167.512H91.8856Z" fill="#D7CDEB"/>
<g clip-path="url(#clip0_1027_3063)">
<path d="M530.32 187.852H61.6371C50.34 187.852 41.0977 178.62 41.0977 167.336C41.0977 156.052 50.34 146.82 61.6371 146.82H530.32C541.617 146.82 550.859 156.052 550.859 167.336C550.859 178.62 541.617 187.852 530.32 187.852Z" fill="white"/>
<path d="M530.321 188.299H61.6385C50.0644 188.299 40.6523 178.893 40.6523 167.337C40.6523 155.781 50.0689 146.375 61.6385 146.375H530.321C541.895 146.375 551.307 155.781 551.307 167.337C551.307 178.893 541.891 188.299 530.321 188.299ZM61.6385 147.267C50.5603 147.267 41.5458 156.271 41.5458 167.337C41.5458 178.402 50.5603 187.406 61.6385 187.406H530.321C541.399 187.406 550.414 178.402 550.414 167.337C550.414 156.271 541.399 147.267 530.321 147.267H61.6385Z" fill="black"/>
<path d="M522.767 173.607C517.978 173.607 514.078 169.716 514.078 164.928C514.078 160.141 517.973 156.25 522.767 156.25C527.56 156.25 531.455 160.141 531.455 164.928C531.455 169.716 527.56 173.607 522.767 173.607ZM522.767 157.147C518.469 157.147 514.972 160.64 514.972 164.933C514.972 169.225 518.469 172.719 522.767 172.719C527.064 172.719 530.562 169.225 530.562 164.933C530.562 160.64 527.064 157.147 522.767 157.147Z" fill="black"/>
<path d="M536.275 178.681C536.159 178.681 536.047 178.636 535.958 178.551L528.373 170.971C528.199 170.797 528.199 170.515 528.373 170.341C528.547 170.167 528.828 170.167 529.003 170.341L536.588 177.922C536.762 178.096 536.762 178.377 536.588 178.551C536.498 178.641 536.387 178.681 536.271 178.681H536.275Z" fill="black"/>
<path d="M490.594 173.337H416.442C412.881 173.337 410 170.454 410 166.903C410 163.351 412.886 160.469 416.442 160.469H490.594C494.155 160.469 497.036 163.351 497.036 166.903C497.036 170.454 494.15 173.337 490.594 173.337Z" fill="#D7CDEB"/>
<path d="M383.772 173.337H294.637C291.077 173.337 288.195 170.454 288.195 166.903C288.195 163.351 291.081 160.469 294.637 160.469H383.772C387.333 160.469 390.214 163.351 390.214 166.903C390.214 170.454 387.328 173.337 383.772 173.337Z" fill="#D7CDEB"/>
<path d="M218.733 174.814H125.447C121.056 174.814 117.496 171.258 117.496 166.872C117.496 162.486 121.056 158.93 125.447 158.93H218.733C223.124 158.93 226.684 162.486 226.684 166.872C226.684 171.258 223.124 174.814 218.733 174.814Z" fill="#7859BC"/>
<path d="M432.668 133.674H285.13C284.885 133.674 284.684 133.473 284.684 133.227C284.684 132.982 284.885 132.781 285.13 132.781H432.668C432.914 132.781 433.115 132.982 433.115 133.227C433.115 133.473 432.914 133.674 432.668 133.674Z" fill="black"/>
<path d="M310.874 201.181H285.13C284.885 201.181 284.684 200.981 284.684 200.735C284.684 200.49 284.885 200.289 285.13 200.289H310.874C311.12 200.289 311.321 200.49 311.321 200.735C311.321 200.981 311.12 201.181 310.874 201.181Z" fill="black"/>
<path d="M332.003 122.306H285.13C284.885 122.306 284.684 122.106 284.684 121.86C284.684 121.615 284.885 121.414 285.13 121.414H332.003C332.249 121.414 332.45 121.615 332.45 121.86C332.45 122.106 332.249 122.306 332.003 122.306Z" fill="black"/>
<path d="M78.2899 133.674H55.6733C55.4276 133.674 55.2266 133.473 55.2266 133.227C55.2266 132.982 55.4276 132.781 55.6733 132.781H78.2899C78.5356 132.781 78.7366 132.982 78.7366 133.227C78.7366 133.473 78.5356 133.674 78.2899 133.674Z" fill="black"/>
<path d="M78.2889 201.181H65.4194C65.1737 201.181 64.9727 200.981 64.9727 200.735C64.9727 200.49 65.1737 200.289 65.4194 200.289H78.2889C78.5346 200.289 78.7356 200.49 78.7356 200.735C78.7356 200.981 78.5346 201.181 78.2889 201.181Z" fill="black"/>
<path d="M78.29 122.306H71.853C71.6073 122.306 71.4062 122.106 71.4062 121.86C71.4062 121.615 71.6073 121.414 71.853 121.414H78.29C78.5357 121.414 78.7367 121.615 78.7367 121.86C78.7367 122.106 78.5357 122.306 78.29 122.306Z" fill="black"/>
<path d="M389.275 205.506C386.738 204.917 384.205 206.492 383.616 209.027C383.571 209.214 383.544 209.406 383.522 209.593C381.574 209.62 379.667 209.946 377.862 210.53C377.782 210.361 377.697 210.191 377.594 210.026C376.218 207.818 373.31 207.144 371.099 208.518C368.888 209.892 368.213 212.797 369.589 215.006C369.692 215.171 369.804 215.322 369.924 215.47C368.602 216.83 367.472 218.397 366.583 220.132C366.404 220.065 366.225 220.012 366.033 219.967C363.496 219.378 360.963 220.953 360.374 223.488C359.784 226.022 361.361 228.552 363.898 229.141C364.086 229.185 364.278 229.212 364.465 229.234C364.492 231.184 364.818 233.085 365.403 234.892C365.234 234.972 365.064 235.062 364.899 235.16C362.688 236.534 362.013 239.439 363.389 241.647C364.765 243.856 367.673 244.53 369.884 243.155C370.049 243.053 370.201 242.941 370.349 242.821C371.711 244.142 373.279 245.27 375.012 246.158C374.945 246.337 374.892 246.515 374.847 246.707C374.257 249.241 375.834 251.771 378.371 252.36C380.909 252.949 383.441 251.374 384.031 248.84C384.076 248.652 384.103 248.461 384.125 248.273C386.073 248.246 387.98 247.921 389.785 247.336C389.865 247.506 389.95 247.675 390.053 247.84C391.429 250.049 394.337 250.723 396.548 249.349C398.759 247.974 399.433 245.07 398.058 242.861C397.955 242.696 397.843 242.544 397.723 242.397C399.045 241.036 400.175 239.47 401.064 237.734C401.243 237.797 401.421 237.855 401.613 237.899C404.151 238.488 406.683 236.913 407.273 234.379C407.863 231.845 406.286 229.315 403.749 228.726C403.561 228.681 403.369 228.654 403.181 228.632C403.155 226.682 402.828 224.782 402.243 222.974C402.413 222.894 402.583 222.805 402.748 222.707C404.959 221.332 405.634 218.428 404.258 216.219C402.882 214.011 399.974 213.337 397.763 214.711C397.597 214.814 397.446 214.925 397.298 215.046C395.936 213.725 394.368 212.596 392.635 211.708C392.697 211.53 392.755 211.351 392.8 211.159C393.39 208.625 391.813 206.095 389.275 205.506ZM385.804 220.413C390.513 221.507 393.443 226.209 392.349 230.912C391.254 235.619 386.546 238.546 381.838 237.449C377.129 236.356 374.199 231.653 375.294 226.95C376.388 222.243 381.096 219.316 385.804 220.413Z" fill="white"/>
<path d="M379.441 252.932C379.047 252.932 378.654 252.888 378.261 252.798C376.917 252.486 375.778 251.669 375.049 250.5C374.321 249.331 374.093 247.948 374.406 246.605C374.424 246.529 374.442 246.454 374.464 246.378C372.954 245.57 371.556 244.571 370.305 243.406C370.238 243.451 370.176 243.495 370.109 243.535C368.939 244.263 367.554 244.495 366.214 244.182C364.869 243.87 363.73 243.054 363.002 241.885C361.496 239.471 362.238 236.285 364.655 234.781C364.717 234.741 364.784 234.701 364.856 234.661C364.36 233.023 364.078 231.332 364.02 229.623C363.94 229.61 363.864 229.592 363.793 229.574C362.448 229.262 361.309 228.445 360.581 227.276C359.853 226.107 359.625 224.724 359.937 223.381C360.25 222.038 361.068 220.9 362.238 220.173C363.408 219.446 364.793 219.214 366.133 219.526C366.209 219.544 366.281 219.562 366.361 219.584C367.17 218.076 368.17 216.679 369.336 215.43C369.291 215.363 369.247 215.301 369.207 215.234C367.706 212.82 368.447 209.634 370.859 208.131C372.03 207.403 373.415 207.171 374.755 207.484C376.099 207.796 377.238 208.612 377.966 209.781C378.007 209.844 378.047 209.911 378.083 209.982C379.722 209.487 381.415 209.206 383.126 209.148C383.139 209.068 383.157 208.992 383.175 208.92C383.488 207.577 384.305 206.44 385.476 205.712C386.646 204.985 388.031 204.753 389.371 205.065C390.715 205.378 391.854 206.194 392.583 207.363C393.311 208.532 393.539 209.915 393.226 211.258C393.208 211.334 393.19 211.41 393.168 211.486C394.678 212.293 396.071 213.293 397.327 214.457C397.394 214.413 397.456 214.368 397.523 214.328C398.694 213.601 400.078 213.369 401.418 213.681C402.763 213.993 403.902 214.81 404.63 215.979C406.136 218.393 405.394 221.579 402.977 223.082C402.915 223.122 402.848 223.163 402.776 223.203C403.272 224.84 403.554 226.531 403.612 228.24C403.692 228.254 403.768 228.271 403.84 228.285C405.184 228.597 406.323 229.414 407.051 230.583C407.78 231.752 408.007 233.135 407.695 234.478C407.382 235.821 406.564 236.959 405.394 237.686C404.224 238.413 402.839 238.645 401.499 238.333C401.423 238.315 401.351 238.297 401.271 238.275C400.462 239.783 399.462 241.18 398.296 242.429C398.341 242.496 398.385 242.558 398.426 242.625C399.931 245.039 399.189 248.225 396.773 249.729C395.602 250.456 394.218 250.688 392.877 250.375C391.533 250.063 390.394 249.247 389.666 248.078C389.625 248.015 389.585 247.948 389.549 247.877C387.91 248.372 386.217 248.653 384.506 248.711C384.493 248.792 384.475 248.867 384.457 248.939C384.144 250.282 383.327 251.42 382.157 252.147C381.326 252.664 380.392 252.928 379.436 252.928L379.441 252.932ZM370.341 242.375C370.453 242.375 370.565 242.42 370.654 242.5C372.003 243.808 373.535 244.905 375.21 245.757C375.411 245.86 375.505 246.097 375.429 246.306C375.362 246.485 375.313 246.65 375.277 246.802C375.018 247.913 375.21 249.055 375.809 250.023C376.412 250.991 377.354 251.665 378.462 251.924C379.575 252.183 380.718 251.991 381.683 251.388C382.652 250.786 383.327 249.845 383.586 248.734C383.622 248.582 383.649 248.412 383.671 248.22C383.693 247.997 383.881 247.823 384.109 247.823C385.989 247.797 387.852 247.489 389.639 246.909C389.853 246.837 390.086 246.94 390.184 247.145C390.269 247.324 390.345 247.471 390.425 247.605C391.028 248.573 391.971 249.247 393.083 249.505C394.195 249.764 395.339 249.572 396.304 248.97C398.3 247.725 398.912 245.093 397.671 243.098C397.586 242.964 397.492 242.83 397.367 242.674C397.224 242.5 397.237 242.246 397.394 242.085C398.702 240.738 399.801 239.207 400.655 237.53C400.757 237.329 400.994 237.235 401.204 237.311C401.392 237.378 401.548 237.427 401.7 237.463C402.812 237.722 403.956 237.53 404.921 236.927C405.89 236.325 406.564 235.384 406.824 234.273C407.083 233.162 406.891 232.019 406.292 231.051C405.689 230.083 404.746 229.409 403.639 229.15C403.487 229.115 403.321 229.088 403.125 229.066C402.902 229.043 402.732 228.856 402.727 228.628C402.7 226.745 402.392 224.889 401.812 223.105C401.74 222.89 401.843 222.658 402.048 222.565C402.227 222.48 402.374 222.404 402.508 222.319C404.505 221.074 405.122 218.442 403.875 216.447C403.272 215.479 402.33 214.806 401.217 214.547C400.105 214.288 398.962 214.48 397.997 215.082C397.863 215.167 397.729 215.261 397.577 215.386C397.403 215.528 397.148 215.515 396.987 215.359C395.638 214.051 394.106 212.954 392.431 212.102C392.23 211.999 392.136 211.763 392.212 211.553C392.279 211.374 392.328 211.209 392.364 211.058C392.623 209.947 392.431 208.804 391.832 207.836C391.229 206.868 390.287 206.194 389.179 205.935C388.066 205.677 386.923 205.868 385.958 206.471C384.989 207.073 384.314 208.015 384.055 209.126C384.019 209.277 383.992 209.447 383.97 209.639C383.948 209.862 383.76 210.036 383.532 210.036C381.652 210.063 379.789 210.37 378.002 210.95C377.788 211.022 377.555 210.919 377.457 210.714C377.372 210.536 377.296 210.388 377.216 210.254C376.613 209.286 375.67 208.612 374.558 208.354C373.446 208.095 372.302 208.287 371.337 208.889C369.341 210.134 368.729 212.766 369.97 214.761C370.055 214.895 370.149 215.029 370.274 215.18C370.417 215.354 370.404 215.609 370.247 215.769C368.939 217.117 367.84 218.647 366.986 220.325C366.884 220.526 366.647 220.619 366.437 220.543C366.249 220.477 366.093 220.427 365.941 220.392C364.829 220.133 363.685 220.325 362.72 220.927C361.751 221.53 361.077 222.471 360.817 223.582C360.558 224.693 360.75 225.835 361.349 226.803C361.952 227.772 362.895 228.445 364.002 228.704C364.154 228.74 364.32 228.767 364.516 228.789C364.74 228.811 364.909 228.999 364.914 229.226C364.941 231.109 365.249 232.965 365.829 234.75C365.901 234.964 365.798 235.196 365.593 235.29C365.414 235.375 365.267 235.451 365.133 235.535C363.136 236.78 362.519 239.413 363.766 241.407C364.369 242.375 365.311 243.049 366.424 243.308C367.536 243.567 368.679 243.375 369.644 242.772C369.778 242.688 369.912 242.594 370.064 242.469C370.145 242.402 370.247 242.371 370.346 242.371L370.341 242.375ZM383.818 238.128C383.13 238.128 382.433 238.052 381.732 237.887C376.792 236.74 373.705 231.787 374.857 226.853C375.416 224.461 376.872 222.431 378.958 221.132C381.044 219.834 383.51 219.424 385.904 219.981C388.299 220.539 390.331 221.994 391.631 224.077C392.931 226.161 393.338 228.628 392.779 231.02C391.792 235.259 387.999 238.132 383.818 238.132V238.128ZM383.805 220.628C382.273 220.628 380.763 221.057 379.432 221.886C377.547 223.06 376.233 224.894 375.728 227.053C374.692 231.511 377.475 235.982 381.938 237.017C386.4 238.052 390.872 235.272 391.913 230.81C392.417 228.651 392.047 226.424 390.872 224.541C389.701 222.658 387.861 221.347 385.703 220.842C385.074 220.695 384.439 220.624 383.805 220.624V220.628Z" fill="black"/>
<path d="M419.176 244.381C417.447 243.979 415.723 245.055 415.321 246.781C415.29 246.911 415.272 247.04 415.259 247.165C413.932 247.183 412.632 247.406 411.403 247.803C411.35 247.687 411.287 247.571 411.22 247.46C410.282 245.956 408.303 245.496 406.798 246.433C405.293 247.37 404.832 249.351 405.771 250.855C405.842 250.967 405.918 251.074 405.998 251.172C405.096 252.1 404.328 253.166 403.725 254.349C403.604 254.304 403.479 254.264 403.349 254.237C401.621 253.836 399.896 254.911 399.494 256.638C399.092 258.364 400.169 260.091 401.893 260.488C402.023 260.52 402.152 260.537 402.277 260.551C402.295 261.876 402.519 263.174 402.916 264.406C402.8 264.459 402.684 264.522 402.572 264.589C401.067 265.526 400.607 267.507 401.545 269.01C402.483 270.514 404.462 270.974 405.967 270.037C406.079 269.965 406.182 269.889 406.284 269.809C407.213 270.71 408.281 271.478 409.465 272.085C409.42 272.205 409.38 272.33 409.353 272.459C408.951 274.186 410.028 275.913 411.752 276.31C413.481 276.712 415.205 275.636 415.607 273.91C415.638 273.78 415.656 273.651 415.67 273.526C416.996 273.508 418.296 273.285 419.525 272.888C419.578 273.004 419.641 273.12 419.708 273.231C420.646 274.735 422.625 275.195 424.13 274.258C425.636 273.321 426.096 271.34 425.158 269.836C425.086 269.724 425.01 269.617 424.93 269.519C425.832 268.591 426.6 267.525 427.203 266.342C427.324 266.387 427.449 266.427 427.579 266.454C429.307 266.855 431.032 265.78 431.434 264.053C431.836 262.327 430.759 260.6 429.035 260.203C428.905 260.171 428.776 260.154 428.651 260.14C428.633 258.815 428.41 257.517 428.012 256.285C428.128 256.232 428.244 256.169 428.356 256.102C429.861 255.165 430.321 253.184 429.383 251.681C428.445 250.177 426.466 249.717 424.961 250.654C424.849 250.726 424.747 250.802 424.644 250.882C423.715 249.981 422.647 249.213 421.463 248.606C421.508 248.486 421.548 248.361 421.575 248.232C421.977 246.505 420.9 244.778 419.176 244.377V244.381ZM416.809 254.536C420.016 255.281 422.013 258.485 421.267 261.693C420.521 264.901 417.313 266.896 414.106 266.146C410.899 265.401 408.902 262.197 409.648 258.989C410.394 255.781 413.601 253.787 416.809 254.536Z" fill="white"/>
<path d="M412.471 276.84C412.198 276.84 411.921 276.809 411.64 276.746C410.688 276.523 409.88 275.947 409.362 275.117C408.843 274.288 408.683 273.31 408.906 272.356C408.906 272.338 408.915 272.32 408.919 272.307C407.95 271.78 407.052 271.138 406.239 270.388C406.226 270.397 406.208 270.406 406.195 270.415C405.364 270.932 404.385 271.093 403.429 270.874C402.478 270.651 401.669 270.076 401.151 269.246C400.084 267.537 400.611 265.275 402.322 264.213C402.335 264.204 402.353 264.195 402.366 264.186C402.054 263.128 401.875 262.04 401.83 260.938C401.812 260.938 401.795 260.929 401.781 260.924C400.83 260.701 400.021 260.126 399.503 259.296C398.985 258.466 398.824 257.489 399.047 256.534C399.271 255.583 399.847 254.776 400.678 254.258C401.509 253.741 402.491 253.58 403.438 253.803C403.456 253.803 403.474 253.812 403.488 253.817C404.015 252.848 404.658 251.951 405.408 251.139C405.399 251.126 405.39 251.108 405.382 251.095C404.314 249.386 404.841 247.124 406.556 246.062C407.387 245.544 408.37 245.384 409.317 245.602C410.268 245.825 411.077 246.401 411.595 247.231C411.604 247.244 411.613 247.262 411.622 247.275C412.681 246.963 413.771 246.785 414.874 246.736C414.874 246.718 414.883 246.7 414.887 246.687C415.343 244.723 417.317 243.496 419.279 243.956C420.23 244.179 421.039 244.755 421.557 245.584C422.075 246.414 422.236 247.391 422.012 248.346C422.012 248.364 422.003 248.382 421.999 248.395C422.968 248.922 423.866 249.564 424.679 250.314C424.693 250.305 424.71 250.296 424.724 250.287C425.555 249.77 426.533 249.609 427.489 249.828C428.44 250.051 429.249 250.626 429.767 251.456C430.835 253.165 430.308 255.427 428.597 256.489C428.583 256.498 428.566 256.507 428.552 256.516C428.865 257.573 429.043 258.662 429.088 259.764C429.106 259.764 429.124 259.773 429.137 259.778C431.103 260.233 432.327 262.2 431.871 264.164C431.415 266.127 429.441 267.354 427.48 266.894C427.462 266.894 427.444 266.885 427.431 266.881C426.904 267.849 426.261 268.746 425.515 269.558C425.523 269.571 425.532 269.589 425.541 269.603C426.609 271.312 426.082 273.574 424.366 274.636C423.536 275.153 422.553 275.314 421.606 275.091C420.654 274.868 419.846 274.292 419.328 273.462C419.319 273.449 419.31 273.431 419.301 273.418C418.242 273.73 417.152 273.908 416.049 273.957C416.049 273.975 416.04 273.993 416.035 274.006C415.642 275.693 414.132 276.835 412.471 276.835V276.84ZM406.275 269.362C406.387 269.362 406.498 269.406 406.588 269.487C407.494 270.366 408.526 271.106 409.657 271.682C409.858 271.784 409.951 272.021 409.875 272.231C409.84 272.333 409.804 272.44 409.777 272.552C409.607 273.27 409.732 274.011 410.121 274.64C410.51 275.265 411.122 275.702 411.841 275.872C413.328 276.215 414.816 275.292 415.16 273.806C415.187 273.694 415.2 273.583 415.214 273.476C415.236 273.252 415.423 273.078 415.651 273.074C416.92 273.056 418.171 272.846 419.377 272.458C419.591 272.387 419.824 272.489 419.922 272.695C419.966 272.797 420.02 272.895 420.078 272.989C420.467 273.614 421.079 274.051 421.798 274.221C422.517 274.386 423.259 274.265 423.884 273.877C425.179 273.07 425.577 271.365 424.769 270.071C424.706 269.973 424.639 269.884 424.572 269.799C424.429 269.625 424.442 269.371 424.599 269.21C425.483 268.304 426.22 267.269 426.797 266.14C426.899 265.939 427.136 265.846 427.346 265.922C427.449 265.962 427.556 265.993 427.668 266.02C429.151 266.363 430.643 265.44 430.987 263.954C431.331 262.468 430.406 260.982 428.918 260.639C428.807 260.612 428.695 260.599 428.583 260.585C428.36 260.563 428.19 260.375 428.186 260.148C428.168 258.881 427.962 257.627 427.569 256.427C427.498 256.213 427.601 255.981 427.806 255.887C427.909 255.838 428.007 255.789 428.105 255.731C429.401 254.928 429.798 253.219 428.99 251.925C428.601 251.3 427.989 250.863 427.27 250.693C426.551 250.524 425.809 250.649 425.184 251.037C425.086 251.095 424.996 251.162 424.911 251.233C424.737 251.376 424.483 251.363 424.317 251.206C423.411 250.323 422.379 249.587 421.249 249.011C421.047 248.909 420.954 248.672 421.03 248.462C421.065 248.36 421.101 248.253 421.128 248.141C421.298 247.423 421.173 246.682 420.784 246.053C420.395 245.428 419.783 244.991 419.064 244.821C417.581 244.478 416.089 245.401 415.745 246.887C415.718 246.999 415.705 247.11 415.692 247.217C415.669 247.441 415.482 247.615 415.254 247.619C413.985 247.637 412.73 247.847 411.528 248.235C411.314 248.306 411.081 248.204 410.988 247.998C410.939 247.896 410.889 247.798 410.827 247.699C410.438 247.075 409.826 246.637 409.107 246.468C408.388 246.303 407.646 246.423 407.021 246.811C405.726 247.615 405.328 249.323 406.136 250.617C406.195 250.716 406.262 250.805 406.333 250.89C406.476 251.064 406.463 251.318 406.306 251.483C405.422 252.389 404.685 253.424 404.108 254.553C404.006 254.754 403.769 254.847 403.559 254.771C403.456 254.731 403.349 254.7 403.237 254.673C402.518 254.508 401.777 254.629 401.151 255.017C400.526 255.405 400.088 256.016 399.918 256.735C399.749 257.453 399.874 258.194 400.262 258.823C400.651 259.447 401.263 259.885 401.982 260.054C402.094 260.081 402.205 260.094 402.313 260.108C402.536 260.13 402.706 260.317 402.71 260.545C402.728 261.812 402.934 263.066 403.327 264.266C403.398 264.48 403.295 264.712 403.09 264.806C402.987 264.855 402.889 264.904 402.791 264.967C401.495 265.77 401.098 267.479 401.906 268.773C402.295 269.397 402.907 269.835 403.626 270.004C404.345 270.174 405.087 270.049 405.712 269.661C405.81 269.603 405.9 269.536 405.985 269.464C406.065 269.397 406.168 269.366 406.266 269.366L406.275 269.362ZM415.468 266.756C414.981 266.756 414.49 266.698 414.003 266.586C412.337 266.198 410.916 265.185 410.014 263.731C409.107 262.276 408.826 260.558 409.214 258.894C409.603 257.225 410.617 255.811 412.069 254.905C413.52 253.999 415.24 253.714 416.911 254.102C418.577 254.49 419.998 255.503 420.9 256.958C421.807 258.412 422.088 260.13 421.7 261.794C421.311 263.463 420.297 264.878 418.845 265.783C417.813 266.426 416.652 266.752 415.468 266.752V266.756ZM415.446 254.834C414.427 254.834 413.427 255.119 412.538 255.668C411.287 256.445 410.411 257.667 410.081 259.099C409.746 260.536 409.992 262.013 410.769 263.262C411.546 264.512 412.766 265.386 414.204 265.716C415.638 266.051 417.121 265.806 418.372 265.025C419.623 264.248 420.498 263.026 420.829 261.594C421.164 260.157 420.918 258.68 420.141 257.431C419.363 256.181 418.144 255.307 416.706 254.977C416.286 254.878 415.866 254.829 415.446 254.829V254.834Z" fill="black"/>
<path d="M573.554 290.43H187.977V445.56H573.554V290.43Z" fill="white"/>
<path d="M573.556 445.999H187.978C187.732 445.999 187.531 445.798 187.531 445.553V290.423C187.531 290.177 187.732 289.977 187.978 289.977H573.556C573.801 289.977 574.002 290.177 574.002 290.423V445.553C574.002 445.798 573.801 445.999 573.556 445.999ZM188.425 445.107H573.109V290.869H188.425V445.107Z" fill="black"/>
<path d="M400.524 313.904L403.7 320.329L410.798 321.359C412.2 321.565 412.759 323.282 411.745 324.268L406.608 329.27L407.818 336.333C408.059 337.725 406.594 338.792 405.339 338.131L398.987 334.798L392.635 338.131C391.384 338.787 389.919 337.725 390.156 336.333L391.366 329.27L386.229 324.268C385.215 323.282 385.773 321.56 387.176 321.359L394.274 320.329L397.45 313.904C398.076 312.636 399.885 312.636 400.515 313.904H400.524Z" fill="#D7CDEB"/>
<path d="M435.422 313.904L438.598 320.329L445.696 321.359C447.099 321.565 447.657 323.282 446.643 324.268L441.506 329.27L442.717 336.333C442.958 337.725 441.493 338.792 440.237 338.131L433.885 334.798L427.533 338.131C426.282 338.787 424.817 337.725 425.054 336.333L426.265 329.27L421.127 324.268C420.113 323.282 420.672 321.56 422.074 321.359L429.173 320.329L432.349 313.904C432.974 312.636 434.783 312.636 435.413 313.904H435.422Z" fill="#D7CDEB"/>
<path d="M470.313 313.904L473.489 320.329L480.587 321.359C481.99 321.565 482.548 323.282 481.534 324.268L476.397 329.27L477.607 336.333C477.849 337.725 476.383 338.792 475.128 338.131L468.776 334.798L462.424 338.131C461.173 338.787 459.708 337.725 459.945 336.333L461.155 329.27L456.018 324.268C455.004 323.282 455.562 321.56 456.965 321.359L464.063 320.329L467.239 313.904C467.865 312.636 469.674 312.636 470.304 313.904H470.313Z" fill="#D7CDEB"/>
<path d="M505.207 313.904L508.383 320.329L515.481 321.359C516.884 321.565 517.442 323.282 516.428 324.268L511.291 329.27L512.502 336.333C512.743 337.725 511.278 338.792 510.023 338.131L503.67 334.798L497.318 338.131C496.068 338.787 494.602 337.725 494.839 336.333L496.05 329.27L490.913 324.268C489.899 323.282 490.457 321.56 491.86 321.359L498.958 320.329L502.134 313.904C502.759 312.636 504.568 312.636 505.198 313.904H505.207Z" fill="white"/>
<path d="M510.821 338.775C510.477 338.775 510.133 338.694 509.816 338.525L503.674 335.299L497.532 338.525C496.799 338.909 495.933 338.846 495.263 338.36C494.593 337.874 494.266 337.07 494.405 336.254L495.58 329.423L490.612 324.586C490.023 324.01 489.813 323.163 490.067 322.382C490.322 321.597 490.988 321.034 491.805 320.918L498.671 319.923L501.744 313.708C502.111 312.967 502.852 312.508 503.679 312.508C504.505 312.508 505.246 312.967 505.613 313.708L508.686 319.923L515.552 320.918C516.369 321.039 517.035 321.597 517.29 322.382C517.544 323.167 517.334 324.01 516.745 324.586L511.777 329.423L512.952 336.254C513.091 337.066 512.764 337.874 512.094 338.36C511.715 338.632 511.277 338.775 510.83 338.775H510.821ZM503.674 334.349C503.746 334.349 503.817 334.366 503.884 334.398L510.232 337.731C510.665 337.958 511.161 337.923 511.558 337.637C511.956 337.347 512.144 336.887 512.059 336.406L510.848 329.342C510.821 329.2 510.87 329.048 510.978 328.945L516.115 323.944C516.468 323.6 516.584 323.118 516.432 322.654C516.28 322.186 515.9 321.869 515.413 321.797L508.315 320.767C508.168 320.744 508.043 320.655 507.98 320.521L504.804 314.096C504.585 313.655 504.165 313.396 503.674 313.396C503.183 313.396 502.758 313.659 502.544 314.096L499.368 320.521C499.301 320.655 499.176 320.744 499.033 320.767L491.935 321.797C491.448 321.869 491.068 322.19 490.916 322.654C490.764 323.123 490.885 323.604 491.233 323.944L496.37 328.945C496.478 329.048 496.522 329.195 496.5 329.342L495.289 336.406C495.204 336.887 495.392 337.351 495.79 337.637C496.187 337.927 496.683 337.963 497.116 337.731L503.464 334.398C503.531 334.362 503.603 334.349 503.674 334.349Z" fill="black"/>
<path d="M540.101 313.904L543.277 320.329L550.375 321.359C551.778 321.565 552.336 323.282 551.322 324.268L546.185 329.27L547.396 336.333C547.637 337.725 546.172 338.792 544.917 338.131L538.564 334.798L532.217 338.131C530.966 338.787 529.501 337.725 529.738 336.333L530.948 329.27L525.811 324.268C524.797 323.282 525.355 321.56 526.758 321.359L533.856 320.329L537.032 313.904C537.658 312.636 539.467 312.636 540.097 313.904H540.101Z" fill="white"/>
<path d="M545.716 338.775C545.372 338.775 545.028 338.694 544.711 338.525L538.569 335.299L532.426 338.525C531.694 338.909 530.827 338.846 530.157 338.36C529.487 337.874 529.161 337.07 529.299 336.254L530.474 329.423L525.507 324.586C524.917 324.01 524.707 323.163 524.962 322.382C525.217 321.597 525.882 321.034 526.7 320.918L533.565 319.923L536.639 313.708C537.005 312.967 537.747 312.508 538.573 312.508C539.399 312.508 540.141 312.967 540.503 313.708L543.572 319.923L550.438 320.918C551.255 321.039 551.921 321.597 552.175 322.382C552.43 323.167 552.22 324.01 551.63 324.586L546.663 329.423L547.838 336.254C547.976 337.066 547.65 337.874 546.98 338.36C546.6 338.632 546.163 338.775 545.716 338.775ZM538.569 313.396C538.077 313.396 537.653 313.659 537.438 314.096L534.262 320.521C534.195 320.655 534.07 320.744 533.927 320.767L526.829 321.797C526.342 321.869 525.963 322.19 525.811 322.654C525.659 323.123 525.779 323.604 526.128 323.944L531.265 328.945C531.372 329.048 531.417 329.195 531.395 329.342L530.184 336.406C530.099 336.887 530.287 337.351 530.684 337.637C531.082 337.927 531.578 337.963 532.011 337.735L538.359 334.402C538.488 334.335 538.645 334.335 538.774 334.402L545.126 337.735C545.56 337.963 546.055 337.927 546.453 337.641C546.85 337.351 547.038 336.892 546.953 336.41L545.743 329.347C545.716 329.204 545.765 329.052 545.872 328.95L551.009 323.948C551.362 323.604 551.478 323.123 551.326 322.659C551.175 322.19 550.795 321.873 550.308 321.802L543.21 320.771C543.062 320.749 542.937 320.66 542.875 320.526L539.699 314.101C539.48 313.659 539.06 313.4 538.569 313.4V313.396Z" fill="black"/>
<path d="M317.21 335.629H232.752C227.226 335.629 222.75 331.158 222.75 325.639C222.75 320.119 227.226 315.648 232.752 315.648H317.21C322.736 315.648 327.212 320.119 327.212 325.639C327.212 331.158 322.736 335.629 317.21 335.629Z" fill="#7859BC"/>
<path d="M400.524 356.325L403.7 362.75L410.798 363.781C412.2 363.986 412.759 365.704 411.745 366.69L406.608 371.692L407.818 378.755C408.059 380.147 406.594 381.214 405.339 380.553L398.987 377.22L392.635 380.553C391.384 381.209 389.919 380.147 390.156 378.755L391.366 371.692L386.229 366.69C385.215 365.704 385.773 363.982 387.176 363.781L394.274 362.75L397.45 356.325C398.076 355.058 399.885 355.058 400.515 356.325H400.524Z" fill="#D7CDEB"/>
<path d="M435.422 356.325L438.598 362.75L445.696 363.781C447.099 363.986 447.657 365.704 446.643 366.69L441.506 371.692L442.717 378.755C442.958 380.147 441.493 381.214 440.237 380.553L433.885 377.22L427.533 380.553C426.282 381.209 424.817 380.147 425.054 378.755L426.265 371.692L421.127 366.69C420.113 365.704 420.672 363.982 422.074 363.781L429.173 362.75L432.349 356.325C432.974 355.058 434.783 355.058 435.413 356.325H435.422Z" fill="#D7CDEB"/>
<path d="M470.313 356.325L473.489 362.75L480.587 363.781C481.99 363.986 482.548 365.704 481.534 366.69L476.397 371.692L477.607 378.755C477.849 380.147 476.383 381.214 475.128 380.553L468.776 377.22L462.424 380.553C461.173 381.209 459.708 380.147 459.945 378.755L461.155 371.692L456.018 366.69C455.004 365.704 455.562 363.982 456.965 363.781L464.063 362.75L467.239 356.325C467.865 355.058 469.674 355.058 470.304 356.325H470.313Z" fill="#D7CDEB"/>
<path d="M505.203 356.325L508.379 362.75L515.477 363.781C516.88 363.986 517.439 365.704 516.424 366.69L511.287 371.692L512.498 378.755C512.739 380.147 511.274 381.214 510.019 380.553L503.667 377.22L497.314 380.553C496.064 381.209 494.598 380.147 494.835 378.755L496.046 371.692L490.909 366.69C489.895 365.704 490.453 363.982 491.856 363.781L498.954 362.75L502.13 356.325C502.755 355.058 504.564 355.058 505.194 356.325H505.203Z" fill="#D7CDEB"/>
<path d="M540.101 356.325L543.277 362.75L550.375 363.781C551.778 363.986 552.336 365.704 551.322 366.69L546.185 371.692L547.396 378.755C547.637 380.147 546.172 381.214 544.917 380.553L538.564 377.22L532.217 380.553C530.966 381.209 529.501 380.147 529.738 378.755L530.948 371.692L525.811 366.69C524.797 365.704 525.355 363.982 526.758 363.781L533.856 362.75L537.032 356.325C537.658 355.058 539.467 355.058 540.097 356.325H540.101Z" fill="white"/>
<path d="M531.421 381.197C530.975 381.197 530.532 381.058 530.157 380.782C529.487 380.295 529.161 379.492 529.299 378.676L530.474 371.845L525.507 367.008C524.917 366.432 524.707 365.585 524.962 364.804C525.217 364.019 525.882 363.456 526.7 363.34L533.565 362.345L536.639 356.13C537.005 355.389 537.747 354.93 538.573 354.93C539.399 354.93 540.141 355.389 540.503 356.13L543.572 362.345L550.438 363.34C551.255 363.461 551.921 364.019 552.175 364.804C552.43 365.589 552.22 366.432 551.63 367.008L546.663 371.845L547.838 378.676C547.976 379.488 547.65 380.295 546.98 380.782C546.31 381.268 545.443 381.331 544.711 380.947L538.569 377.721L532.426 380.947C532.109 381.112 531.765 381.197 531.421 381.197ZM538.569 355.818C538.077 355.818 537.653 356.081 537.438 356.518L534.262 362.943C534.195 363.077 534.07 363.166 533.927 363.189L526.829 364.219C526.342 364.291 525.963 364.612 525.811 365.076C525.659 365.544 525.779 366.026 526.128 366.365L531.265 371.367C531.372 371.47 531.417 371.617 531.395 371.764L530.184 378.827C530.099 379.309 530.287 379.773 530.684 380.059C531.082 380.349 531.578 380.385 532.011 380.157L538.359 376.824C538.488 376.757 538.645 376.757 538.774 376.824L545.126 380.157C545.56 380.385 546.055 380.349 546.453 380.063C546.85 379.773 547.038 379.314 546.953 378.832L545.743 371.769C545.716 371.626 545.765 371.474 545.872 371.372L551.009 366.37C551.362 366.026 551.478 365.544 551.326 365.08C551.175 364.612 550.795 364.295 550.308 364.224L543.21 363.193C543.062 363.171 542.937 363.081 542.875 362.948L539.699 356.523C539.48 356.081 539.06 355.822 538.569 355.822V355.818Z" fill="black"/>
<path d="M350.106 378.051H232.752C227.226 378.051 222.75 373.58 222.75 368.06C222.75 362.541 227.226 358.07 232.752 358.07H350.106C355.631 358.07 360.107 362.541 360.107 368.06C360.107 373.58 355.631 378.051 350.106 378.051Z" fill="#7859BC"/>
<path d="M400.524 398.739L403.7 405.165L410.798 406.195C412.2 406.4 412.759 408.118 411.745 409.104L406.608 414.106L407.818 421.169C408.059 422.561 406.594 423.628 405.339 422.967L398.987 419.634L392.635 422.967C391.384 423.623 389.919 422.561 390.156 421.169L391.366 414.106L386.229 409.104C385.215 408.118 385.773 406.396 387.176 406.195L394.274 405.165L397.45 398.739C398.076 397.472 399.885 397.472 400.515 398.739H400.524Z" fill="#D7CDEB"/>
<path d="M435.422 398.739L438.598 405.165L445.696 406.195C447.099 406.4 447.657 408.118 446.643 409.104L441.506 414.106L442.717 421.169C442.958 422.561 441.493 423.628 440.237 422.967L433.885 419.634L427.533 422.967C426.282 423.623 424.817 422.561 425.054 421.169L426.265 414.106L421.127 409.104C420.113 408.118 420.672 406.396 422.074 406.195L429.173 405.165L432.349 398.739C432.974 397.472 434.783 397.472 435.413 398.739H435.422Z" fill="#D7CDEB"/>
<path d="M470.313 398.739L473.489 405.165L480.587 406.195C481.99 406.4 482.548 408.118 481.534 409.104L476.397 414.106L477.607 421.169C477.849 422.561 476.383 423.628 475.128 422.967L468.776 419.634L462.424 422.967C461.173 423.623 459.708 422.561 459.945 421.169L461.155 414.106L456.018 409.104C455.004 408.118 455.562 406.396 456.965 406.195L464.063 405.165L467.239 398.739C467.865 397.472 469.674 397.472 470.304 398.739H470.313Z" fill="white"/>
<path d="M475.927 423.611C475.583 423.611 475.239 423.53 474.922 423.361L468.78 420.135L462.637 423.361C461.905 423.745 461.038 423.682 460.368 423.196C459.698 422.709 459.372 421.906 459.51 421.09L460.685 414.259L455.718 409.422C455.128 408.846 454.918 407.999 455.173 407.218C455.428 406.433 456.093 405.87 456.911 405.754L463.776 404.759L466.85 398.544C467.216 397.803 467.958 397.344 468.78 397.344C469.601 397.344 470.347 397.803 470.714 398.544L473.783 404.759L480.648 405.754C481.466 405.875 482.132 406.433 482.386 407.218C482.641 408.003 482.431 408.846 481.841 409.422L476.874 414.259L478.049 421.09C478.187 421.902 477.861 422.709 477.191 423.196C476.811 423.468 476.369 423.611 475.927 423.611ZM468.78 419.185C468.851 419.185 468.922 419.202 468.985 419.234L475.337 422.567C475.77 422.794 476.266 422.759 476.664 422.473C477.061 422.183 477.249 421.723 477.164 421.241L475.954 414.178C475.927 414.036 475.976 413.884 476.083 413.781L481.22 408.78C481.573 408.436 481.689 407.954 481.537 407.49C481.386 407.022 481.006 406.705 480.519 406.633L473.421 405.603C473.273 405.58 473.148 405.491 473.086 405.357L469.91 398.932C469.691 398.49 469.271 398.232 468.78 398.232C468.288 398.232 467.868 398.495 467.649 398.932L464.473 405.357C464.406 405.491 464.281 405.58 464.138 405.603L457.04 406.633C456.553 406.705 456.174 407.026 456.022 407.49C455.87 407.959 455.99 408.44 456.339 408.78L461.476 413.781C461.583 413.884 461.628 414.031 461.605 414.178L460.395 421.241C460.31 421.723 460.498 422.187 460.895 422.473C461.293 422.763 461.789 422.799 462.222 422.567L468.57 419.234C468.637 419.198 468.708 419.185 468.78 419.185Z" fill="black"/>
<path d="M505.207 398.739L508.383 405.165L515.481 406.195C516.884 406.4 517.442 408.118 516.428 409.104L511.291 414.106L512.502 421.169C512.743 422.561 511.278 423.628 510.023 422.967L503.67 419.634L497.318 422.967C496.068 423.623 494.602 422.561 494.839 421.169L496.05 414.106L490.913 409.104C489.899 408.118 490.457 406.396 491.86 406.195L498.958 405.165L502.134 398.739C502.759 397.472 504.568 397.472 505.198 398.739H505.207Z" fill="white"/>
<path d="M510.821 423.611C510.477 423.611 510.133 423.53 509.816 423.361L503.674 420.135L497.532 423.361C496.799 423.745 495.933 423.682 495.263 423.196C494.593 422.709 494.266 421.906 494.405 421.09L495.58 414.259L490.612 409.422C490.023 408.846 489.813 407.999 490.067 407.218C490.322 406.437 490.988 405.87 491.805 405.754L498.671 404.759L501.744 398.544C502.111 397.803 502.852 397.344 503.679 397.344C504.505 397.344 505.246 397.803 505.613 398.544L508.686 404.759L515.552 405.754C516.369 405.875 517.035 406.433 517.29 407.218C517.544 408.003 517.334 408.846 516.745 409.422L511.777 414.259L512.952 421.09C513.091 421.902 512.764 422.709 512.094 423.196C511.715 423.468 511.277 423.611 510.83 423.611H510.821ZM503.674 419.185C503.746 419.185 503.817 419.202 503.884 419.234L510.232 422.567C510.665 422.794 511.161 422.759 511.558 422.473C511.956 422.183 512.144 421.723 512.059 421.241L510.848 414.178C510.821 414.036 510.87 413.884 510.978 413.781L516.115 408.78C516.468 408.436 516.584 407.954 516.432 407.49C516.28 407.022 515.9 406.705 515.413 406.633L508.315 405.603C508.168 405.58 508.043 405.491 507.98 405.357L504.804 398.932C504.585 398.49 504.165 398.232 503.674 398.232C503.183 398.232 502.758 398.495 502.544 398.932L499.368 405.357C499.301 405.491 499.176 405.58 499.033 405.603L491.935 406.633C491.448 406.705 491.068 407.026 490.916 407.49C490.764 407.959 490.885 408.44 491.233 408.78L496.37 413.781C496.478 413.884 496.522 414.031 496.5 414.178L495.289 421.241C495.204 421.723 495.392 422.187 495.79 422.473C496.187 422.763 496.683 422.799 497.116 422.567L503.464 419.234C503.531 419.198 503.603 419.185 503.674 419.185Z" fill="black"/>
<path d="M540.101 398.739L543.277 405.165L550.375 406.195C551.778 406.4 552.336 408.118 551.322 409.104L546.185 414.106L547.396 421.169C547.637 422.561 546.172 423.628 544.917 422.967L538.564 419.634L532.217 422.967C530.966 423.623 529.501 422.561 529.738 421.169L530.948 414.106L525.811 409.104C524.797 408.118 525.355 406.396 526.758 406.195L533.856 405.165L537.032 398.739C537.658 397.472 539.467 397.472 540.097 398.739H540.101Z" fill="white"/>
<path d="M545.716 423.611C545.372 423.611 545.028 423.53 544.711 423.361L538.569 420.135L532.426 423.361C531.694 423.745 530.827 423.682 530.157 423.196C529.487 422.709 529.161 421.906 529.299 421.09L530.474 414.259L525.507 409.422C524.917 408.846 524.707 407.999 524.962 407.218C525.217 406.433 525.882 405.87 526.7 405.754L533.565 404.759L536.639 398.544C537.005 397.803 537.747 397.344 538.573 397.344C539.399 397.344 540.141 397.803 540.503 398.544L543.572 404.759L550.438 405.754C551.255 405.875 551.921 406.433 552.175 407.218C552.43 408.003 552.22 408.846 551.63 409.422L546.663 414.259L547.838 421.09C547.976 421.902 547.65 422.709 546.98 423.196C546.6 423.468 546.163 423.611 545.716 423.611ZM538.569 398.232C538.077 398.232 537.653 398.495 537.438 398.932L534.262 405.357C534.195 405.491 534.07 405.58 533.927 405.603L526.829 406.633C526.342 406.705 525.963 407.026 525.811 407.49C525.659 407.959 525.779 408.44 526.128 408.78L531.265 413.781C531.372 413.884 531.417 414.031 531.395 414.178L530.184 421.241C530.099 421.723 530.287 422.187 530.684 422.473C531.082 422.763 531.578 422.799 532.011 422.571L538.359 419.238C538.488 419.171 538.645 419.171 538.774 419.238L545.126 422.571C545.56 422.799 546.055 422.763 546.453 422.477C546.85 422.187 547.038 421.728 546.953 421.246L545.743 414.183C545.716 414.04 545.765 413.888 545.872 413.786L551.009 408.784C551.362 408.44 551.478 407.959 551.326 407.494C551.175 407.026 550.795 406.709 550.308 406.638L543.21 405.607C543.062 405.585 542.937 405.496 542.875 405.362L539.699 398.937C539.48 398.495 539.06 398.236 538.569 398.236V398.232Z" fill="black"/>
<path d="M338.808 420.472H232.752C227.226 420.472 222.75 416.002 222.75 410.482C222.75 404.963 227.226 400.492 232.752 400.492H338.808C344.334 400.492 348.81 404.963 348.81 410.482C348.81 416.002 344.334 420.472 338.808 420.472Z" fill="#7859BC"/>
<path d="M138.304 332.23C141.027 329.51 141.027 325.1 138.304 322.38C135.581 319.66 131.166 319.66 128.442 322.38C125.719 325.1 125.719 329.51 128.442 332.23C131.166 334.95 135.581 334.95 138.304 332.23Z" fill="#D7CDEB"/>
<path d="M134.963 354.418C138.711 353.535 141.032 349.784 140.148 346.04C139.263 342.296 135.507 339.977 131.759 340.861C128.011 341.745 125.69 345.496 126.574 349.24C127.459 352.983 131.215 355.302 134.963 354.418Z" fill="#D7CDEB"/>
<path d="M138.3 372.878C141.023 370.158 141.023 365.748 138.3 363.028C135.577 360.308 131.162 360.308 128.439 363.028C125.715 365.748 125.715 370.158 128.439 372.878C131.162 375.598 135.577 375.598 138.3 372.878Z" fill="#D7CDEB"/>
<path d="M178.986 416.096H133.372C133.127 416.096 132.926 415.896 132.926 415.65V382.204C132.926 381.959 133.127 381.758 133.372 381.758C133.618 381.758 133.819 381.959 133.819 382.204V415.204H178.986C179.231 415.204 179.432 415.405 179.432 415.65C179.432 415.896 179.231 416.096 178.986 416.096Z" fill="black"/>
<path d="M447.226 230.53C448.11 226.787 445.789 223.035 442.041 222.152C438.293 221.268 434.537 223.587 433.653 227.331C432.768 231.074 435.089 234.826 438.837 235.709C442.586 236.593 446.341 234.274 447.226 230.53Z" fill="#D7CDEB"/>
<path d="M464.714 234.708C467.903 232.552 468.738 228.221 466.579 225.036C464.42 221.851 460.084 221.017 456.895 223.173C453.706 225.33 452.871 229.66 455.03 232.846C457.19 236.031 461.525 236.865 464.714 234.708Z" fill="#D7CDEB"/>
<path d="M487.925 230.538C488.81 226.795 486.488 223.043 482.74 222.16C478.992 221.276 475.236 223.595 474.352 227.339C473.467 231.082 475.788 234.833 479.537 235.717C483.285 236.601 487.04 234.282 487.925 230.538Z" fill="#D7CDEB"/>
<path d="M528.904 274.952C528.659 274.952 528.458 274.752 528.458 274.506V229.392H495.419C495.174 229.392 494.973 229.192 494.973 228.946C494.973 228.701 495.174 228.5 495.419 228.5H528.904C529.15 228.5 529.351 228.701 529.351 228.946V274.506C529.351 274.752 529.15 274.952 528.904 274.952Z" fill="black"/>
<path d="M174.361 259.837C152.392 259.837 131.375 252.087 114.534 237.64C76.0327 204.608 71.6148 146.452 104.684 107.996C137.749 69.5389 195.977 65.1216 234.479 98.1528C253.129 114.153 264.426 136.449 266.284 160.936C268.147 185.422 260.348 209.168 244.329 227.797C228.31 246.425 205.988 257.709 181.473 259.565C179.096 259.744 176.72 259.833 174.361 259.833V259.837ZM113.493 115.554C84.596 149.156 88.46 199.977 122.101 228.841C138.397 242.824 159.173 249.629 180.593 248.004C202.017 246.38 221.52 236.52 235.52 220.243C249.519 203.966 256.332 183.214 254.706 161.819C253.08 140.424 243.208 120.94 226.912 106.956C193.266 78.0923 142.386 81.9473 113.493 115.554Z" fill="black"/>
<path d="M24.4789 320.788C22.8216 320.788 21.1643 320.155 19.9002 318.892C17.3718 316.366 17.3718 312.27 19.9002 309.741L105.377 224.363C107.905 221.837 112.006 221.837 114.539 224.363C117.067 226.888 117.067 230.984 114.539 233.514L29.0576 318.892C27.7934 320.155 26.1362 320.788 24.4789 320.788Z" fill="black"/>
<path d="M296.525 268.05H270.326C270.08 268.05 269.879 267.849 269.879 267.604C269.879 267.358 270.08 267.158 270.326 267.158H296.078V228.946C296.078 228.701 296.279 228.5 296.525 228.5H326.713C326.959 228.5 327.16 228.701 327.16 228.946C327.16 229.192 326.959 229.392 326.713 229.392H296.972V267.604C296.972 267.849 296.771 268.05 296.525 268.05Z" fill="black"/>
<path d="M329.533 235.605C333.216 235.605 336.202 232.621 336.202 228.939C336.202 225.258 333.216 222.273 329.533 222.273C325.849 222.273 322.863 225.258 322.863 228.939C322.863 232.621 325.849 235.605 329.533 235.605Z" fill="#D7CDEB"/>
<path d="M265.161 274.27C268.845 274.27 271.831 271.285 271.831 267.604C271.831 263.922 268.845 260.938 265.161 260.938C261.478 260.938 258.492 263.922 258.492 267.604C258.492 271.285 261.478 274.27 265.161 274.27Z" fill="#D7CDEB"/>
</g>
<defs>
<clipPath id="clip0_1027_3063">
<rect width="556" height="370" fill="white" transform="translate(18 76)"/>
</clipPath>
</defs>
</svg>
