<svg width="272" height="283" viewBox="0 0 272 283" fill="none" xmlns="http://www.w3.org/2000/svg">
<g clip-path="url(#clip0_2_568)">
<path d="M272 266.276H16.5078V267.089H272V266.276Z" fill="black"/>
<path d="M87.8691 145.657L180.111 128.332L192.523 266.626L97.9373 266.683L92.4689 187.08L87.8691 145.657Z" fill="white"/>
<path d="M97.5589 267.09L97.5318 266.711L92.0662 187.108L87.4258 145.327L87.7965 145.257L180.477 127.851L180.518 128.295L192.97 267.03L97.5589 267.087V267.09ZM88.316 145.988L92.8752 187.035L98.3165 266.274L192.079 266.217L179.747 128.812L88.316 145.986V145.988Z" fill="black"/>
<path d="M140.795 122.522C140.668 122.579 140.54 122.633 140.413 122.684C138.376 123.955 136.13 124.632 133.676 124.719C130.467 124.944 127.417 124.353 124.528 122.947L120.25 121.52C120.967 126.282 121.024 134.765 121.024 139.43C121.024 143.027 126.203 156.706 136.563 154.232C146.923 151.759 144.223 139.538 143.038 135.296C142.218 132.362 141.274 126.125 140.795 122.522Z" fill="white"/>
<path d="M134.103 154.939C131.79 154.939 129.611 154.143 127.606 152.558C123.017 148.93 120.617 142.084 120.617 139.432C120.617 136.279 120.617 126.68 119.849 121.581L119.749 120.926L124.706 122.581C127.517 123.949 130.523 124.532 133.648 124.315C136.032 124.231 138.232 123.567 140.199 122.34L140.261 122.307C140.386 122.256 140.51 122.205 140.632 122.15L141.127 121.931L141.198 122.47C141.747 126.618 142.659 132.437 143.427 135.187C145.67 143.209 144.455 147.76 143.043 150.166C141.709 152.433 139.561 153.937 136.657 154.63C135.789 154.839 134.936 154.942 134.103 154.942V154.939ZM120.742 122.112C121.429 127.395 121.429 136.392 121.429 139.429C121.429 141.876 123.786 148.499 128.11 151.918C130.634 153.915 133.445 154.56 136.468 153.836C139.149 153.197 141.124 151.821 142.342 149.751C144.885 145.425 143.625 138.906 142.645 135.403C141.898 132.735 141.024 127.252 140.467 123.126C138.419 124.364 136.14 125.036 133.692 125.122C130.448 125.35 127.309 124.743 124.376 123.321L120.745 122.11L120.742 122.112Z" fill="black"/>
<path d="M120.915 124.721C126.532 124.721 131.086 119.912 131.086 113.979C131.086 108.047 126.532 103.237 120.915 103.237C115.298 103.237 110.744 108.047 110.744 113.979C110.744 119.912 115.298 124.721 120.915 124.721Z" fill="black"/>
<path d="M118.71 112.903C124.327 112.903 128.881 108.094 128.881 102.162C128.881 96.2292 124.327 91.4199 118.71 91.4199C113.093 91.4199 108.539 96.2292 108.539 102.162C108.539 108.094 113.093 112.903 118.71 112.903Z" fill="black"/>
<path d="M128.881 105.074C134.498 105.074 139.052 100.265 139.052 94.3326C139.052 88.4001 134.498 83.5908 128.881 83.5908C123.264 83.5908 118.71 88.4001 118.71 94.3326C118.71 100.265 123.264 105.074 128.881 105.074Z" fill="black"/>
<path d="M133.395 97.5312C132.25 101.692 123.927 100.85 121.433 105.038C119.763 107.84 119.842 110.402 119.601 110.191C112.858 104.318 112.084 116.988 119.631 117.224C119.674 117.224 119.842 120.795 120.334 124.699C122.81 126.254 135.275 132.506 140.939 127.251C144.716 121.686 141.171 98.7856 133.398 97.5312H133.395Z" fill="white"/>
<path d="M134.802 129.711C128.987 129.711 122.228 126.37 120.117 125.043L119.955 124.94L119.931 124.748C119.592 122.071 119.411 119.571 119.311 118.227C119.295 117.994 119.279 117.774 119.265 117.609C116.248 117.363 114.603 115.203 114.067 113.212C113.534 111.237 114 109.33 115.201 108.577C115.845 108.173 117.222 107.791 119.414 109.506V109.495C119.584 108.607 119.936 106.759 121.086 104.827C122.374 102.665 125.017 101.799 127.572 100.959C130.093 100.132 132.472 99.3522 133.002 97.4206L133.1 97.0684L133.459 97.1253C135.873 97.5154 138.067 99.8479 139.802 103.874C143.165 111.681 143.906 123.591 141.271 127.473L141.211 127.544C139.518 129.118 137.242 129.705 134.802 129.705V129.711ZM120.71 124.455C121.952 125.206 125.502 127.061 129.542 128.137C133.016 129.063 137.753 129.611 140.624 126.985C143.057 123.315 142.256 111.638 139.055 104.202C137.973 101.693 136.176 98.637 133.668 98.003C132.867 100.084 130.413 100.886 127.826 101.736C125.413 102.527 122.918 103.345 121.784 105.247C120.707 107.054 120.385 108.745 120.212 109.65C120.098 110.243 120.052 110.487 119.771 110.584C119.622 110.636 119.46 110.603 119.335 110.495C117.807 109.162 116.492 108.726 115.631 109.265C114.744 109.82 114.416 111.392 114.849 112.998C115.331 114.786 116.843 116.726 119.644 116.815C120.014 116.826 120.044 117.17 120.066 117.444C120.079 117.612 120.098 117.856 120.12 118.164C120.215 119.468 120.391 121.868 120.71 124.45V124.455Z" fill="black"/>
<path d="M131.07 108.797C131.192 109.531 130.607 110.214 129.768 110.322C128.927 110.431 128.148 109.921 128.026 109.187C127.904 108.453 128.489 107.77 129.327 107.662C130.169 107.554 130.948 108.063 131.07 108.797Z" fill="black"/>
<path d="M137.228 108.009C137.347 108.762 136.887 109.442 136.2 109.528C135.513 109.615 134.858 109.076 134.736 108.323C134.617 107.57 135.077 106.89 135.764 106.803C136.452 106.716 137.106 107.256 137.228 108.009Z" fill="black"/>
<path d="M126.243 107.521C126.243 107.521 127.91 105.833 131.243 106.372L126.243 107.521Z" fill="white"/>
<path d="M126.243 107.925C126.14 107.925 126.034 107.884 125.956 107.806C125.799 107.648 125.796 107.391 125.953 107.234C126.026 107.158 127.804 105.403 131.308 105.969C131.53 106.004 131.679 106.213 131.643 106.435C131.608 106.657 131.4 106.809 131.178 106.771C128.112 106.275 126.592 107.743 126.53 107.806C126.451 107.884 126.346 107.925 126.243 107.925Z" fill="black"/>
<path d="M133.943 105.952C133.943 105.952 134.966 104.494 136.148 105.207L133.943 105.952Z" fill="white"/>
<path d="M133.943 106.358C133.862 106.358 133.781 106.334 133.71 106.285C133.526 106.155 133.483 105.903 133.613 105.719C134.043 105.107 135.169 104.142 136.359 104.86C136.551 104.977 136.614 105.226 136.497 105.418C136.381 105.611 136.132 105.673 135.94 105.557C135.101 105.05 134.308 106.139 134.276 106.188C134.197 106.299 134.07 106.358 133.943 106.358Z" fill="black"/>
<path d="M118.677 112.214C116.648 110.458 115.282 113.032 118.897 115.218L118.677 112.214Z" fill="white"/>
<path d="M118.688 115.565C117.081 114.592 116.169 113.386 116.248 112.335C116.283 111.856 116.537 111.485 116.946 111.317C117.511 111.084 118.242 111.298 118.943 111.905L118.412 112.52C117.874 112.054 117.452 111.986 117.254 112.067C117.138 112.116 117.07 112.227 117.057 112.395C117.011 112.98 117.628 113.972 119.108 114.866L118.688 115.562V115.565Z" fill="black"/>
<path d="M131.879 115.627C131.765 115.627 131.69 115.624 131.673 115.621C131.449 115.608 131.278 115.418 131.292 115.193C131.305 114.968 131.497 114.801 131.719 114.811C132.296 114.841 133.897 114.727 134.355 113.836C134.593 113.37 134.044 111.346 132.074 108.307C131.952 108.117 132.006 107.868 132.193 107.746C132.382 107.624 132.631 107.678 132.753 107.865C133.272 108.667 135.824 112.744 135.074 114.207C134.406 115.516 132.509 115.63 131.876 115.63L131.879 115.627Z" fill="black"/>
<path d="M133.725 120.589C133.679 120.589 133.63 120.589 133.584 120.589C130.635 120.5 128.505 117.607 128.416 117.485L129.073 117.008C129.092 117.035 131.065 119.703 133.614 119.779C135.013 119.823 136.355 119.069 137.607 117.55L138.232 118.067C136.852 119.744 135.335 120.595 133.725 120.595V120.589Z" fill="black"/>
<path d="M134.336 164.242C134.201 164.242 134.068 164.242 133.936 164.237L133.955 163.424C134.517 163.438 135.099 163.421 135.689 163.378L135.748 164.188C135.272 164.223 134.799 164.242 134.336 164.242ZM132.125 164.099C131.517 164.017 130.919 163.901 130.342 163.749L130.548 162.964C131.089 163.104 131.657 163.216 132.234 163.294L132.125 164.099ZM137.542 163.98L137.415 163.178C138 163.085 138.571 162.966 139.112 162.825L139.315 163.611C138.746 163.757 138.151 163.882 137.542 163.98ZM128.616 163.172C128.056 162.942 127.504 162.671 126.982 162.365L127.39 161.663C127.883 161.95 128.4 162.205 128.925 162.422L128.616 163.175V163.172ZM141.046 163.064L140.76 162.303C141.306 162.097 141.834 161.858 142.329 161.595L142.708 162.313C142.183 162.59 141.623 162.842 141.046 163.061V163.064ZM144.261 161.357L143.79 160.696C144.255 160.363 144.699 159.994 145.11 159.602L145.67 160.189C145.232 160.609 144.759 160.999 144.261 161.354V161.357ZM125.472 161.341C125.001 160.972 124.544 160.566 124.111 160.13L124.687 159.555C125.096 159.967 125.529 160.352 125.973 160.699L125.475 161.341H125.472ZM146.904 158.838L146.268 158.331C146.618 157.889 146.948 157.413 147.248 156.914L147.943 157.334C147.627 157.862 147.278 158.369 146.904 158.838ZM122.907 158.77C122.542 158.307 122.187 157.811 121.854 157.291L122.539 156.852C122.855 157.348 123.194 157.824 123.543 158.266L122.907 158.77ZM120.945 155.725C120.675 155.207 120.412 154.657 120.169 154.094L120.913 153.771C121.148 154.316 121.402 154.847 121.665 155.348L120.945 155.727V155.725ZM148.785 155.725L148.046 155.389C148.279 154.877 148.49 154.332 148.677 153.774L149.448 154.032C149.253 154.617 149.031 155.186 148.788 155.722L148.785 155.725ZM119.506 152.417C119.308 151.864 119.122 151.287 118.948 150.702L119.728 150.472C119.895 151.043 120.077 151.604 120.269 152.141L119.506 152.414V152.417ZM149.94 152.29L149.15 152.1C149.283 151.55 149.396 150.973 149.488 150.388L150.289 150.515C150.192 151.122 150.075 151.718 149.937 152.29H149.94ZM118.486 148.963C118.35 148.391 118.223 147.8 118.107 147.204L118.905 147.053C119.016 147.638 119.14 148.218 119.276 148.776L118.486 148.965V148.963ZM150.517 148.724L149.707 148.648C149.759 148.08 149.797 147.489 149.818 146.898L150.63 146.928C150.609 147.535 150.571 148.139 150.517 148.724ZM117.809 145.43C117.723 144.839 117.647 144.238 117.585 143.645L118.391 143.561C118.453 144.143 118.526 144.731 118.613 145.311L117.809 145.43ZM149.835 145.143C149.827 144.568 149.802 143.978 149.767 143.385L150.576 143.336C150.611 143.94 150.636 144.544 150.644 145.129L149.832 145.143H149.835ZM117.433 141.851C117.374 140.889 117.368 140.25 117.368 140.079V140.039H118.18V140.079C118.18 140.245 118.185 140.862 118.242 141.8L117.433 141.851ZM149.626 141.629C149.567 141.052 149.496 140.464 149.415 139.879L150.219 139.765C150.303 140.358 150.376 140.957 150.435 141.545L149.629 141.626L149.626 141.629ZM149.137 138.14C149.034 137.554 148.917 136.975 148.796 136.411L149.588 136.238C149.713 136.812 149.829 137.403 149.935 137.996L149.137 138.14ZM148.387 134.699C148.338 134.515 148.306 134.398 148.292 134.36L148.355 133.989L148.679 134.233L149.072 134.125C149.085 134.173 149.12 134.295 149.172 134.488L148.387 134.696V134.699Z" fill="black"/>
<path d="M184.544 175.493C199.301 174.8 253.611 145.646 251.731 94.5899C249.555 35.4899 177.506 35.7852 177.506 35.7852C177.506 35.7852 155.173 46.4917 169.551 69.5005C169.551 69.5005 211.48 70.2834 209.521 104.364C208.723 118.246 191.138 122.036 180.109 128.332C169.08 134.628 169.784 176.187 184.544 175.493Z" fill="white"/>
<path d="M184.187 175.907C179.633 175.907 175.994 171.985 173.913 164.805C170.249 152.173 172.338 132.301 179.909 127.98C182.531 126.485 185.456 125.157 188.551 123.754C198.37 119.303 208.522 114.697 209.118 104.343C209.621 95.6003 207.226 88.3018 201.999 82.6533C190.705 70.4459 169.754 69.9122 169.543 69.9067L169.324 69.9013L169.208 69.7144C164.678 62.4674 163.287 55.6702 165.07 49.515C167.809 40.0763 177.236 35.46 177.33 35.4166L177.411 35.376H177.503C177.682 35.3841 195.8 35.3841 213.953 42.6446C224.63 46.9169 233.234 52.8229 239.525 60.2026C247.393 69.4354 251.639 80.998 252.137 94.5735C253.159 122.372 237.753 142.357 224.649 154.229C215.885 162.167 207.34 167.241 201.715 170.102C194.939 173.545 188.527 175.712 184.563 175.899C184.436 175.905 184.311 175.907 184.184 175.907H184.187ZM169.784 69.0994C172.095 69.1915 191.698 70.3239 202.594 82.0952C207.979 87.9117 210.446 95.4133 209.929 104.386C209.307 115.233 198.925 119.939 188.889 124.491C185.81 125.886 182.904 127.205 180.315 128.682C177.054 130.543 174.573 135.91 173.507 143.409C172.487 150.577 172.931 158.488 174.695 164.575C177.425 173.992 182.03 175.203 184.528 175.084C191.287 174.767 208.539 167.726 224.108 153.622C237.084 141.867 252.34 122.085 251.33 94.6006C250.838 81.2201 246.663 69.8255 238.919 60.739C232.72 53.4622 224.227 47.6294 213.677 43.4086C196.346 36.4705 179.032 36.1996 177.604 36.1887C176.692 36.6547 168.35 41.1167 165.85 49.748C164.151 55.6187 165.474 62.1261 169.784 69.0994Z" fill="black"/>
<g style="mix-blend-mode:multiply">
<path d="M75.5041 106.613C75.9992 69.5382 106.612 39.9733 143.641 40.5775C180.669 41.1816 210.917 71.7245 209.594 108.799C208.468 140.336 169.454 162.668 169.024 189.15C168.593 215.632 168.022 250.761 168.022 250.761L112.441 249.854C112.441 249.854 112.949 218.628 113.45 187.806C113.95 156.987 75.1199 135.479 75.5068 106.607L75.5041 106.613Z" fill="#D16CD6"/>
</g>
<path d="M157.342 138.786C159.318 138.743 160.887 136.887 161.406 135.01C162.031 132.761 161.604 130.231 160.237 128.063C160.148 127.923 160.056 127.784 159.961 127.649C161.393 127.505 162.951 128.196 163.961 129.429C164.832 130.494 165.092 131.715 164.67 132.786C164.548 133.094 164.707 133.441 165.029 133.558C165.349 133.674 165.709 133.52 165.83 133.211C166.412 131.737 166.087 130.09 164.937 128.687C163.639 127.102 161.585 126.235 159.704 126.473C159.499 126.5 159.296 126.536 159.096 126.584C157.805 125.208 156.154 124.249 154.379 123.875C152.412 123.461 150.269 123.761 148.346 124.701C147.802 124.16 147.182 123.68 146.498 123.29C143.11 121.361 138.418 121.683 135.087 124.07C135.031 124.111 134.971 124.154 134.914 124.198C133.951 123.328 132.831 122.667 131.608 122.261C128.934 121.375 125.858 121.748 123.171 123.287C121.545 124.219 120.238 125.474 119.353 126.915C117.879 127.313 116.464 128.126 115.316 129.288C115.078 129.529 115.089 129.908 115.338 130.136C115.587 130.364 115.979 130.355 116.217 130.114C116.918 129.405 117.735 128.844 118.598 128.456C118.417 128.939 118.279 129.437 118.19 129.941C117.941 131.35 118.136 132.883 118.723 134.146C119.397 135.589 120.528 136.567 121.908 136.901C123.158 137.201 124.527 136.89 125.666 136.042C126.913 135.113 127.671 133.72 127.687 132.314C127.72 129.703 125.495 127.256 122.627 126.747C122.108 126.655 121.577 126.622 121.039 126.649C121.767 125.744 122.7 124.951 123.802 124.319C126.175 122.962 128.872 122.624 131.199 123.396C132.217 123.732 133.153 124.279 133.97 124.991C131.535 127.281 130.12 130.672 130.209 134.162C130.263 136.24 131.297 138.57 133.44 138.77C134.882 138.905 136.308 137.968 137.263 136.267C138.608 133.866 138.732 130.878 137.598 128.074C137.146 126.953 136.527 125.942 135.775 125.078C135.794 125.064 135.81 125.051 135.829 125.037C138.77 122.93 142.896 122.637 145.867 124.328C146.365 124.612 146.822 124.951 147.236 125.338C145.053 126.758 143.567 128.884 143.156 131.176C142.888 132.664 143.259 134.308 144.092 135.365C144.668 136.093 145.44 136.524 146.319 136.605C148.292 136.79 149.855 135.115 150.475 133.484C151.457 130.903 150.873 127.914 149.171 125.652C150.773 124.934 152.515 124.715 154.117 125.051C155.483 125.338 156.769 126.037 157.827 127.042C155.367 128.221 153.552 130.965 153.503 133.926C153.468 136.058 154.631 138.48 156.858 138.767C157.023 138.789 157.185 138.797 157.345 138.794L157.342 138.786ZM158.668 127.966C158.849 128.196 159.017 128.437 159.177 128.687C160.37 130.575 160.746 132.767 160.208 134.701C159.775 136.259 158.465 137.76 157.023 137.573C155.562 137.386 154.715 135.576 154.742 133.937C154.78 131.594 156.26 128.909 158.668 127.966ZM134.828 125.85C135.488 126.614 136.034 127.508 136.438 128.502C137.439 130.979 137.339 133.598 136.167 135.69C135.62 136.665 134.646 137.673 133.559 137.57C132.073 137.432 131.483 135.432 131.448 134.124C131.367 130.968 132.639 127.909 134.825 125.85H134.828ZM148.059 126.238C149.582 128.202 150.145 130.851 149.303 133.065C148.827 134.313 147.694 135.519 146.435 135.403C145.902 135.354 145.445 135.091 145.077 134.628C144.449 133.834 144.168 132.525 144.376 131.369C144.731 129.396 146.024 127.557 147.929 126.319C147.972 126.292 148.016 126.262 148.059 126.235V126.238ZM121.247 127.836C121.637 127.828 122.021 127.855 122.397 127.923C124.651 128.324 126.467 130.288 126.442 132.298C126.429 133.322 125.842 134.392 124.906 135.088C124.072 135.709 123.09 135.944 122.208 135.733C120.46 135.313 118.896 133.054 119.413 130.136C119.548 129.377 119.805 128.643 120.173 127.95C120.53 127.882 120.89 127.841 121.247 127.833V127.836Z" fill="white"/>
<path d="M145.41 223.461C145.691 223.455 145.94 223.265 146.002 222.989L166.271 133.224C166.344 132.902 166.131 132.582 165.795 132.512C165.46 132.441 165.129 132.647 165.056 132.972L144.788 222.737C144.714 223.06 144.928 223.379 145.264 223.45C145.312 223.461 145.361 223.463 145.41 223.463V223.461Z" fill="white"/>
<path d="M135.233 225.744C135.269 225.744 135.307 225.739 135.342 225.734C135.677 225.669 135.896 225.352 135.831 225.029L116.115 129.361C116.047 129.036 115.719 128.825 115.384 128.893C115.048 128.958 114.829 129.275 114.894 129.597L134.611 225.265C134.671 225.555 134.939 225.753 135.233 225.747V225.744Z" fill="white"/>
<path d="M202.303 0.485758L180.951 26.2188L181.634 26.7866L202.986 1.05361L202.303 0.485758Z" fill="#D16CD6"/>
<path d="M235.958 27.4369L200.668 48.8105L201.127 49.5709L236.417 28.1972L235.958 27.4369Z" fill="#D16CD6"/>
<path d="M270.569 91.9488L216.98 95.8701L217.045 96.7564L270.633 92.835L270.569 91.9488Z" fill="#D16CD6"/>
<path d="M210.277 139.985L209.84 140.759L266.038 172.607L266.475 171.834L210.277 139.985Z" fill="#D16CD6"/>
<path d="M53.5082 0.0034783L52.9082 0.658203L95.1671 39.484L95.7671 38.8293L53.5082 0.0034783Z" fill="#D16CD6"/>
<path d="M16.7946 37.8752L16.4219 38.6816L74.8023 65.728L75.175 64.9215L16.7946 37.8752Z" fill="#D16CD6"/>
<path d="M63.1681 100.228L-0.00585938 107.625L0.0972234 108.508L63.2712 101.111L63.1681 100.228Z" fill="#D16CD6"/>
<path d="M69.9717 132.115L17.2539 163.956L17.7123 164.717L70.4302 132.876L69.9717 132.115Z" fill="#D16CD6"/>
<path d="M106.553 249.347C106.604 246.392 108.304 243.805 110.82 242.325C108.358 240.77 106.751 238.132 106.802 235.176C106.862 231.703 109.199 228.734 112.465 227.479C109.245 226.125 107.013 223.088 107.075 219.615C107.156 214.952 111.334 211.2 116.359 211.279L165.479 212.026C170.504 212.102 174.549 215.979 174.468 220.641C174.408 224.114 172.071 227.084 168.805 228.338C172.025 229.693 174.257 232.73 174.195 236.203C174.143 239.158 172.444 241.746 169.928 243.225C172.39 244.78 174 247.419 173.946 250.374C173.864 255.037 169.687 258.789 164.662 258.71L115.542 257.963C110.517 257.887 106.472 254.01 106.553 249.347Z" fill="black"/>
<path d="M168.729 228.082L110.748 242.073L110.873 242.592L168.854 228.601L168.729 228.082Z" fill="white"/>
<path d="M170.036 213.362L112.056 227.353L112.181 227.871L170.161 213.881L170.036 213.362Z" fill="white"/>
<path d="M170.223 243.101L112.245 257.102L112.37 257.62L170.348 243.619L170.223 243.101Z" fill="white"/>
<path d="M181.471 52.5032L183.884 37.2616C183.884 37.2616 131.698 29.7572 106.432 48.5858C85.2293 64.3855 95.054 68.2813 101.109 63.9846C98.5146 66.9538 96.8154 69.7605 97.4188 72.1635C98.2414 75.4443 102.985 75.8371 106.735 72.6484C100.674 81.4965 106.716 85.0103 111.746 80.3451C113.726 78.5083 126.752 67.5065 129.761 67.008C129.761 67.008 110.869 82.5124 117.774 85.7444C124.909 89.0821 132.199 74.5746 142.088 69.2674C153.555 63.1122 179.742 68.2244 179.742 68.2244L191.542 55.9628C191.542 55.9628 187.662 54.2696 181.471 52.5059V52.5032Z" fill="white"/>
<path d="M119.974 86.6523C119.184 86.6523 118.396 86.4816 117.603 86.1105C116.583 85.6337 116.002 84.8832 115.874 83.8808C115.366 79.8307 123.001 72.4212 127.065 68.7909C122.271 71.8549 113.772 79.0152 112.019 80.6407C109.565 82.9164 106.664 83.4826 104.967 82.0142C103.588 80.8222 103.082 78.1646 105.344 74.1063C103.425 75.1845 101.328 75.534 99.6479 74.9949C98.2869 74.5587 97.3534 73.5861 97.0206 72.2586C96.5417 70.3514 97.2912 68.1841 99.4342 65.372C97.0206 66.3852 94.5854 66.2308 93.5573 64.8139C92.5453 63.4187 91.7498 59.0109 106.185 48.2529C119.322 38.462 139.774 35.8856 154.618 35.4495C170.672 34.9754 183.808 36.8338 183.938 36.8528C184.046 36.869 184.144 36.9259 184.206 37.0126C184.271 37.0993 184.298 37.2104 184.279 37.3161L181.92 52.2028C187.867 53.9177 191.658 55.5621 191.695 55.5784C191.817 55.6326 191.907 55.741 191.931 55.871C191.958 56.001 191.917 56.1365 191.825 56.2313L180.025 68.4929C179.931 68.5931 179.79 68.6365 179.655 68.6094C179.395 68.5579 153.479 63.5948 142.272 69.6118C138.362 71.7114 134.907 75.2224 131.568 78.6197C127.39 82.8703 123.681 86.6415 119.966 86.6415L119.974 86.6523ZM129.76 66.6019C129.917 66.6019 130.063 66.694 130.131 66.8403C130.207 67.0083 130.161 67.2061 130.017 67.3225C129.877 67.4363 116.061 78.8391 116.681 83.7806C116.77 84.4958 117.184 85.0187 117.947 85.3736C121.962 87.251 126.148 82.9922 131 78.0589C134.382 74.621 137.878 71.0639 141.898 68.9047C146.723 66.3147 154.578 65.3476 165.244 66.0276C172.352 66.48 178.399 67.5555 179.603 67.7804L190.838 56.104C189.569 55.5865 186.141 54.2536 181.359 52.8909C181.162 52.834 181.037 52.639 181.07 52.4358L183.419 37.6032C181.083 37.2971 169.037 35.8396 154.632 36.2649C139.91 36.6984 119.638 39.245 106.675 48.9085C95.3458 57.3529 92.8835 62.4976 94.2202 64.3398C95.2294 65.7323 98.4033 65.4045 100.874 63.6489C101.041 63.5297 101.271 63.5541 101.409 63.7085C101.547 63.8603 101.55 64.0932 101.415 64.2477C98.4655 67.6233 97.321 70.1048 97.8134 72.0608C98.1489 73.3992 99.1338 73.9762 99.9023 74.2227C101.821 74.8404 104.402 74.0981 106.475 72.3372C106.629 72.2044 106.859 72.2098 107.01 72.3453C107.162 72.4808 107.189 72.7083 107.073 72.8763C105.111 75.7372 103.525 79.6871 105.503 81.3993C107.035 82.724 109.665 81.7217 111.472 80.0447C113.345 78.3081 126.514 67.1329 129.695 66.6046C129.717 66.6019 129.739 66.5992 129.763 66.5992L129.76 66.6019Z" fill="black"/>
<path d="M106.734 72.6493C106.734 72.6493 112.676 64.4297 123.602 58.96L106.734 72.6493Z" fill="white"/>
<path d="M106.734 73.0554C106.65 73.0554 106.569 73.031 106.496 72.9768C106.315 72.844 106.274 72.5921 106.407 72.4106C106.466 72.3266 112.533 64.0474 123.423 58.5966C123.624 58.4964 123.867 58.5777 123.967 58.7782C124.067 58.9786 123.986 59.2225 123.786 59.3227C113.082 64.6814 107.124 72.8034 107.064 72.8847C106.986 72.993 106.861 73.0526 106.734 73.0526V73.0554Z" fill="black"/>
<path d="M101.109 63.9824C101.109 63.9824 108.921 54.4326 118.713 50.2822L101.109 63.9824Z" fill="white"/>
<path d="M101.106 64.389C101.017 64.389 100.925 64.3592 100.849 64.2969C100.676 64.1533 100.649 63.8986 100.792 63.7253C100.871 63.6304 108.783 54.0509 118.55 49.9086C118.759 49.8219 118.994 49.9195 119.083 50.1254C119.17 50.3312 119.075 50.5697 118.867 50.6591C109.28 54.7228 101.499 64.1479 101.42 64.2427C101.339 64.3402 101.223 64.3917 101.106 64.3917V64.389Z" fill="black"/>
<path d="M251.734 94.5899C249.558 35.4899 177.509 35.7852 177.509 35.7852C177.509 35.7852 155.176 46.4917 169.554 69.5005C169.554 69.5005 208.295 70.2238 209.559 100.547C209.689 100.588 209.819 100.626 209.949 100.664C221.453 103.684 249.65 101.561 251.747 99.3526C251.796 97.7867 251.793 96.1991 251.734 94.5899Z" fill="white"/>
<path d="M209.838 101.054C209.702 101.016 209.57 100.975 209.437 100.935L209.164 100.851L209.153 100.563C208.869 93.7472 206.623 87.8982 202.478 83.1789C199.153 79.3942 194.601 76.3193 188.952 74.0355C179.289 70.1316 169.643 69.9068 169.549 69.9041L169.33 69.8986L169.213 69.7117C164.684 62.4647 163.293 55.6675 165.076 49.5123C167.814 40.0737 177.241 35.4573 177.336 35.4139L177.417 35.3733H177.509C177.69 35.3679 195.811 35.3841 213.958 42.6419C224.635 46.9143 233.24 52.8202 239.531 60.1999C247.399 69.4327 251.644 80.9953 252.142 94.5708C252.202 96.1665 252.204 97.7785 252.156 99.3606L251.344 99.3362C251.393 97.7703 251.39 96.1773 251.331 94.6006C250.838 81.2202 246.663 69.8255 238.919 60.739C232.72 53.4623 224.227 47.6295 213.677 43.4086C196.347 36.4705 179.032 36.1996 177.604 36.1888C176.692 36.6547 168.35 41.1167 165.85 49.748C164.151 55.6187 165.474 62.1261 169.784 69.0967C171.297 69.1563 180.255 69.6494 189.233 73.2715C195.007 75.6014 199.667 78.7494 203.079 82.6316C207.297 87.4268 209.608 93.349 209.951 100.238C209.986 100.249 210.024 100.26 210.059 100.268L209.84 101.051L209.838 101.054Z" fill="black"/>
<path d="M174.969 70.2487C174.682 69.761 174.406 69.268 174.152 68.7858L174.869 68.4038C175.12 68.8779 175.391 69.3601 175.67 69.8369L174.969 70.2487ZM173.348 67.1792C173.091 66.6293 172.85 66.0766 172.631 65.5294L173.383 65.2259C173.597 65.7569 173.832 66.2988 174.084 66.8325L173.348 67.1765V67.1792ZM172.009 63.8416C171.817 63.2672 171.646 62.6848 171.497 62.1131L172.282 61.9099C172.425 62.4626 172.593 63.0288 172.777 63.5869L172.006 63.8443L172.009 63.8416ZM171.108 60.3495C170.999 59.7508 170.913 59.1493 170.853 58.5587L171.66 58.4775C171.716 59.0464 171.8 59.6261 171.903 60.2032L171.105 60.3495H171.108ZM170.748 56.7517C170.748 56.6461 170.748 56.5404 170.748 56.4348C170.748 55.9336 170.767 55.4324 170.802 54.942L171.611 55.0016C171.576 55.4703 171.56 55.9552 171.557 56.4348C171.557 56.535 171.557 56.6379 171.557 56.7409L170.745 56.7544L170.748 56.7517ZM171.817 53.2786L171.016 53.1432C171.116 52.5498 171.243 51.9538 171.397 51.3714L172.182 51.5773C172.036 52.1353 171.911 52.707 171.817 53.2759V53.2786ZM172.699 49.922L171.936 49.6456C172.139 49.0848 172.371 48.5213 172.628 47.9741L173.364 48.3182C173.118 48.8464 172.896 49.3883 172.699 49.9247V49.922ZM174.163 46.7685L173.456 46.3649C173.751 45.8501 174.073 45.3327 174.414 44.8315L175.085 45.2893C174.758 45.7743 174.447 46.2728 174.163 46.7685ZM176.119 43.8806L175.483 43.3767C175.851 42.9134 176.243 42.4502 176.649 42.0004L177.25 42.5477C176.855 42.9839 176.476 43.4309 176.119 43.8806ZM178.465 41.2879L177.899 40.7055C178.324 40.2937 178.77 39.8846 179.228 39.4891L179.758 40.104C179.312 40.4887 178.879 40.887 178.465 41.2879ZM181.116 38.9933L180.621 38.3485C181.095 37.9828 181.582 37.6279 182.077 37.2892L182.537 37.9584C182.055 38.2889 181.579 38.6384 181.119 38.9933H181.116ZM184.009 37.0048L183.589 36.3085C184.55 35.7261 185.156 35.4335 185.183 35.4199L185.535 36.1514C185.535 36.1514 184.937 36.4413 184.012 37.0021L184.009 37.0048Z" fill="black"/>
<path d="M99.6593 231.806C99.6593 231.806 118.221 232.297 128.251 223.007C138.281 213.717 149.007 213.509 165.269 210.027C173.741 224.773 147.34 222.335 147.34 227.599C147.34 232.863 168.169 228.542 172.261 221.53C176.354 214.516 181.744 229.777 176.162 233.667C182.802 233.667 183.157 242.323 178.992 245.777C184.215 246.468 186.336 254.119 179.693 257.573C179.693 257.573 184.907 263.541 177.504 266.345C167.447 270.154 96.4341 269.033 98.228 265.164L99.6566 231.806H99.6593Z" fill="white"/>
<path d="M142.383 269.111C140.199 269.111 137.91 269.097 135.508 269.07C119.422 268.886 99.9511 267.935 98.0273 265.86C97.8109 265.627 97.7432 265.348 97.8298 265.082L99.2557 231.789C99.2665 231.573 99.4451 231.399 99.6616 231.399H99.6724C99.8591 231.405 118.185 231.776 127.977 222.708C136.135 215.155 144.577 213.573 156.266 211.384C159.094 210.856 162.016 210.309 165.187 209.629C165.36 209.591 165.536 209.669 165.623 209.824C167.371 212.866 167.793 215.372 166.913 217.485C165.301 221.359 159.705 222.849 154.77 224.16C151.158 225.122 147.746 226.03 147.746 227.598C147.746 228.368 148.344 228.918 149.521 229.237C152.034 229.92 156.845 229.365 161.488 227.858C166.591 226.203 170.485 223.759 171.908 221.324C172.991 219.468 174.111 219.214 174.86 219.327C176.424 219.563 177.885 221.657 178.586 224.664C179.233 227.441 179.187 231.191 177.168 233.328C179.322 233.634 180.94 234.937 181.687 237.01C182.691 239.8 181.879 243.382 179.839 245.536C182.052 246.148 183.743 248.014 184.16 250.396C184.558 252.658 183.732 255.717 180.307 257.7C180.948 258.567 182.301 260.734 181.755 262.926C181.343 264.57 179.963 265.849 177.647 266.727C174.617 267.875 163.61 269.111 142.38 269.111H142.383ZM98.6145 265.302C98.7822 265.535 100.073 266.442 110.027 267.244C116.581 267.772 125.404 268.13 134.869 268.249C152.432 268.471 172.387 267.851 177.366 265.965C179.414 265.188 180.629 264.101 180.973 262.731C181.565 260.371 179.414 257.865 179.392 257.841C179.311 257.746 179.276 257.621 179.3 257.496C179.325 257.375 179.401 257.269 179.512 257.212C182.396 255.711 183.838 253.216 183.37 250.537C182.964 248.228 181.186 246.478 178.946 246.18C178.786 246.159 178.654 246.045 178.608 245.89C178.562 245.736 178.616 245.568 178.738 245.465C180.956 243.626 181.917 240.033 180.929 237.286C180.183 235.214 178.491 234.073 176.167 234.073C175.989 234.073 175.832 233.957 175.78 233.789C175.726 233.618 175.791 233.434 175.934 233.334C177.461 232.269 178.865 229.411 177.801 224.851C177.195 222.253 175.94 220.313 174.744 220.135C173.832 219.996 173.085 220.931 172.612 221.738C171.07 224.383 167.108 226.897 161.743 228.636C156.886 230.21 152.007 230.757 149.312 230.026C147.351 229.495 146.937 228.414 146.937 227.601C146.937 225.407 150.303 224.51 154.564 223.377C159.321 222.112 164.711 220.679 166.167 217.174C166.919 215.367 166.559 213.178 165.065 210.487C161.997 211.14 159.161 211.671 156.415 212.183C144.861 214.345 136.514 215.908 128.529 223.304C119.311 231.841 102.825 232.215 100.051 232.215L98.6388 265.18C98.6388 265.22 98.628 265.261 98.6145 265.299V265.302Z" fill="black"/>
<path d="M176.021 246.877C175.837 246.877 175.669 246.749 175.626 246.562C175.574 246.343 175.71 246.126 175.929 246.075L178.9 245.384C179.119 245.332 179.335 245.468 179.387 245.687C179.438 245.907 179.303 246.124 179.084 246.175L176.113 246.866C176.083 246.874 176.051 246.877 176.021 246.877Z" fill="black"/>
<path d="M176.021 258.829C175.837 258.829 175.669 258.702 175.626 258.515C175.575 258.296 175.713 258.079 175.929 258.027L179.603 257.177C179.825 257.125 180.039 257.263 180.091 257.48C180.142 257.7 180.004 257.916 179.787 257.968L176.113 258.819C176.083 258.827 176.051 258.829 176.021 258.829Z" fill="black"/>
<path d="M172.982 234.78C172.795 234.78 172.628 234.65 172.587 234.461C172.538 234.241 172.676 234.024 172.895 233.976L176.075 233.269C176.294 233.22 176.51 233.358 176.559 233.577C176.608 233.797 176.47 234.014 176.251 234.062L173.071 234.769C173.042 234.775 173.012 234.78 172.982 234.78Z" fill="black"/>
<path d="M87.8701 145.657C73.1128 146.351 10.5717 172.908 19.5467 228.985C27.4557 278.402 114.251 269.43 114.251 269.43C114.251 269.43 129.487 258.374 114.251 230.413C114.251 230.413 73.9814 229.73 69.9119 215.848C65.3906 200.422 81.4412 197.521 92.4699 191.225C103.499 184.929 102.627 144.964 87.8701 145.654V145.657Z" fill="white"/>
<path d="M98.912 270.462C90.811 270.462 80.3802 269.974 69.7953 268.137C56.5668 265.843 45.6869 261.925 37.4559 256.491C27.128 249.669 20.967 240.436 19.1433 229.047C16.121 210.167 20.81 192.931 33.0807 177.814C42.7646 165.883 54.9839 158.067 63.526 153.611C74.0352 148.13 83.3133 145.462 87.8454 145.248C92.6915 145.018 96.5283 148.967 98.6712 156.358C100.403 162.334 100.825 170.018 99.7968 176.912C98.6983 184.27 96.1007 189.615 92.6644 191.577C90.378 192.883 87.8509 194.056 85.4048 195.188C75.84 199.626 66.8027 203.82 70.2958 215.732C74.2327 229.169 113.853 229.995 114.254 230.003L114.489 230.009L114.603 230.217C118.983 238.258 123.537 250.043 120.347 260.525C118.426 266.842 114.643 269.641 114.484 269.757L114.394 269.822L114.286 269.833C114.17 269.844 108.009 270.462 98.9039 270.462H98.912ZM88.2459 146.055C88.1268 146.055 88.0078 146.058 87.8887 146.063C83.4432 146.272 74.3058 148.911 63.9048 154.334C55.4303 158.756 43.3112 166.506 33.7139 178.329C21.5947 193.257 16.9624 210.278 19.9469 228.92C21.7327 240.073 27.7747 249.122 37.9051 255.813C46.0413 261.186 56.8184 265.065 69.936 267.338C91.4685 271.071 112.368 269.202 114.097 269.037C114.657 268.59 117.915 265.805 119.595 260.232C122.642 250.122 118.269 238.692 114.008 230.813C112.419 230.773 103.13 230.464 93.5357 228.736C79.3358 226.178 71.2564 221.879 69.522 215.962C65.834 203.375 75.6127 198.84 85.0693 194.451C87.4991 193.324 90.0101 192.159 92.2667 190.87C99.3341 186.836 101.301 168.338 97.8947 156.586C96.7447 152.617 93.9713 146.052 88.2432 146.052L88.2459 146.055Z" fill="black"/>
<path d="M110.316 269.262L109.675 268.764C110.03 268.306 110.371 267.829 110.684 267.344L111.366 267.788C111.039 268.292 110.687 268.788 110.316 269.262ZM112.286 266.231L111.572 265.846C111.843 265.339 112.1 264.814 112.332 264.28L113.076 264.605C112.836 265.158 112.57 265.705 112.289 266.231H112.286ZM113.731 262.92L112.963 262.654C113.149 262.113 113.32 261.552 113.471 260.986L114.256 261.194C114.102 261.779 113.923 262.362 113.731 262.923V262.92ZM114.657 259.433L113.858 259.279C113.967 258.715 114.059 258.133 114.132 257.55L114.938 257.653C114.862 258.255 114.767 258.854 114.654 259.433H114.657ZM115.114 255.863L114.305 255.808C114.343 255.234 114.367 254.646 114.375 254.056L115.187 254.066C115.179 254.671 115.154 255.275 115.114 255.863ZM114.356 252.297C114.337 251.726 114.302 251.135 114.253 250.545L115.062 250.48C115.111 251.084 115.146 251.685 115.168 252.27L114.356 252.3V252.297ZM114.075 248.792C114.004 248.217 113.921 247.63 113.826 247.047L114.627 246.917C114.724 247.51 114.808 248.106 114.881 248.692L114.075 248.792ZM113.512 245.313C113.398 244.744 113.274 244.165 113.139 243.59L113.929 243.406C114.064 243.988 114.194 244.579 114.307 245.156L113.512 245.316V245.313ZM112.708 241.878C112.557 241.312 112.395 240.74 112.227 240.179L113.003 239.946C113.174 240.515 113.339 241.095 113.49 241.669L112.706 241.881L112.708 241.878ZM111.696 238.494C111.515 237.942 111.32 237.381 111.12 236.825L111.883 236.549C112.086 237.113 112.284 237.682 112.468 238.24L111.696 238.494ZM110.498 235.17C110.281 234.615 110.057 234.065 109.829 233.534L110.576 233.217C110.804 233.756 111.031 234.311 111.253 234.875L110.498 235.173V235.17ZM109.115 231.919C108.652 230.917 108.349 230.342 108.347 230.337L109.064 229.955C109.077 229.979 109.38 230.554 109.854 231.578L109.118 231.919H109.115Z" fill="black"/>
<g style="mix-blend-mode:multiply" opacity="0.5">
<path d="M13.9645 216.832C21.8761 182.881 21.105 222.721 51.2635 241.834C81.284 260.861 156.558 252.828 183.854 255.591C209.169 258.154 203.227 279.939 121.024 282.753C21.8761 286.148 5.35741 253.755 13.9645 216.832Z" fill="#7979C6"/>
</g>
</g>
<defs>
<clipPath id="clip0_2_568">
<rect width="272" height="283" fill="white"/>
</clipPath>
</defs>
</svg>
