<svg width="311" height="319" viewBox="0 0 311 319" fill="none" xmlns="http://www.w3.org/2000/svg">
<path d="M132.453 21.6204C124.872 25.9093 129.796 29.4866 132.166 30.7277C127.474 29.8587 121.154 37.1531 127.671 41.5257C124.315 42.8205 120.583 51.4172 125.306 53.4149C120.83 55.4127 102.791 73.1767 106.658 76.5916C110.739 80.1964 128.182 61.3823 141.669 62.5985C148.392 63.2053 147.734 71.4236 143.682 80.6059C151.394 86.9301 167.708 71.7658 171.736 59.6205C181.169 60.1175 248.299 64.1143 237.685 98.3212C227.292 131.813 184.786 144.749 186.911 185.105C188.434 214.025 214.268 225.331 243.809 208.497C287.497 183.601 315.85 122.987 309.372 84.9735C291.857 -17.8145 134.52 20.4504 132.453 21.6204Z" fill="white"/>
<path d="M217.379 216.858C211.767 216.858 206.563 215.632 202.024 213.152C192.638 208.023 187.093 198.071 186.411 185.131C186.113 179.472 186.656 174.214 188.07 169.056C189.329 164.46 191.259 160.052 193.964 155.579C198.979 147.293 205.986 140.033 212.762 133.014C222.64 122.781 232.853 112.199 237.206 98.1726C239.215 91.6985 238.478 85.8975 235.019 80.9318C232.179 76.8576 227.466 73.2653 221.01 70.2562C215.685 67.7739 209.141 65.6688 201.56 64.0019C192.762 62.0665 182.31 60.6968 172.085 60.1387C170.572 64.4664 167.498 69.3072 163.602 73.4826C159.523 77.8539 154.978 81.0004 151.131 82.1142C148.039 83.0095 145.353 82.6211 143.364 80.9904C143.191 80.8481 143.133 80.6084 143.225 80.4024C146.244 73.56 147.03 68.0336 145.385 65.2405C144.638 63.9744 143.373 63.2527 141.624 63.0941C134.285 62.4324 125.657 67.895 118.723 72.2851C112.741 76.0734 108.418 78.8104 106.328 76.9637C105.735 76.4405 105.513 75.6626 105.668 74.6538C106.537 68.9776 119.481 56.3604 124.278 53.4062C123.147 52.5871 122.549 51.2423 122.576 49.528C122.624 46.5401 124.582 42.8642 126.733 41.4545C123.614 38.9498 124.336 36.0255 124.821 34.8344C125.79 32.4558 128.118 30.6428 130.434 30.2407C129.225 29.3617 127.923 28.0294 127.895 26.3626C127.867 24.5621 129.316 22.819 132.207 21.1846C133.118 20.6689 153.504 15.6532 179.683 13.8502C194.996 12.7964 209.436 13.0187 222.602 14.5133C238.98 16.3712 253.381 20.2094 265.402 25.9218C290.25 37.7286 305.209 57.5678 309.864 84.8874C311.47 94.3131 311.009 105.089 308.492 116.912C306.061 128.334 301.688 140.425 295.847 151.879C289.76 163.814 282.331 174.745 273.768 184.369C264.631 194.638 254.633 202.901 244.056 208.929C234.831 214.186 225.661 216.857 217.381 216.857L217.379 216.858ZM171.734 59.1198C171.743 59.1198 171.752 59.1198 171.76 59.1198C182.156 59.6667 192.816 61.0539 201.773 63.0242C209.426 64.7073 216.04 66.8362 221.431 69.3497C228.049 72.435 232.896 76.1384 235.838 80.3599C239.484 85.5916 240.265 91.6835 238.16 98.4672C233.738 112.721 223.439 123.389 213.481 133.705C206.744 140.685 199.777 147.903 194.82 156.094C192.161 160.487 190.268 164.813 189.034 169.318C187.649 174.371 187.117 179.526 187.409 185.076C188.072 197.658 193.432 207.316 202.504 212.273C213.425 218.241 228.39 216.706 243.56 208.06C254.044 202.087 263.955 193.892 273.02 183.704C281.527 174.143 288.907 163.283 294.956 151.423C300.758 140.046 305.101 128.039 307.514 116.702C309.969 105.167 310.441 94.222 308.878 85.0522C306.574 71.536 301.672 59.7566 294.308 50.0412C287.691 41.3134 278.945 34.0615 268.314 28.4889C256.458 22.2746 242.067 18.0306 225.538 15.8742C212.208 14.1349 197.492 13.7429 181.8 14.7105C154.11 16.4174 133.493 21.6978 132.69 22.0561C130.148 23.4957 128.871 24.9379 128.894 26.3438C128.926 28.2579 131.354 29.735 132.398 30.2819C132.616 30.3968 132.719 30.654 132.639 30.8875C132.558 31.121 132.319 31.2608 132.076 31.2159C129.747 30.7851 126.789 32.6505 125.747 35.2089C125.218 36.505 124.801 38.9947 127.95 41.1074C128.105 41.211 128.189 41.3921 128.169 41.5781C128.148 41.7629 128.027 41.9215 127.852 41.9889C125.969 42.7156 123.625 46.344 123.575 49.5417C123.556 50.7179 123.876 52.2637 125.502 52.9517C125.685 53.0291 125.805 53.2076 125.806 53.4074C125.809 53.606 125.692 53.787 125.511 53.8682C123.6 54.721 119.06 58.6191 114.951 62.9356C110.116 68.0149 107.015 72.4512 106.655 74.8036C106.554 75.4641 106.664 75.9261 106.99 76.2145C108.518 77.5643 113.217 74.5901 118.19 71.4411C125.251 66.9698 134.039 61.406 141.715 62.099C143.803 62.2875 145.327 63.1728 146.246 64.7323C148.054 67.7989 147.361 73.3702 144.297 80.4461C146.006 81.6809 148.21 81.9194 150.855 81.1528C154.533 80.0877 158.915 77.0423 162.874 72.7983C166.783 68.608 169.841 63.7459 171.262 59.4594C171.33 59.2547 171.522 59.1173 171.735 59.1173L171.734 59.1198Z" fill="black"/>
<path d="M168.961 131.813C140.256 135.661 145.512 223.854 179.414 226.45C254.4 232.192 297.406 169.602 304.239 149.806C284.782 108.757 242.776 103.391 234.33 103.126C214.509 122.918 199.956 127.656 168.962 131.813H168.961Z" fill="white"/>
<path d="M188.987 227.317C185.802 227.317 182.598 227.194 179.376 226.948C170.706 226.283 163.253 220.108 157.823 209.087C153.143 199.589 150.249 186.755 149.882 173.875C149.574 163.075 151.057 152.999 154.054 145.503C157.427 137.073 162.558 132.167 168.894 131.318C189.117 128.606 198.21 125.98 205.642 122.872C215.537 118.733 224.012 112.722 233.977 102.773L234.129 102.621L234.345 102.627C235.84 102.674 249.407 103.298 265.365 110.72C273.307 114.413 280.462 119.173 286.633 124.865C294.105 131.76 300.18 140.079 304.689 149.593L304.777 149.777L304.71 149.97C302.749 155.651 298.298 163.599 292.802 171.232C285.745 181.034 277.066 190.321 267.703 198.088C255.993 207.803 243.229 215.224 229.764 220.149C216.728 224.916 203.05 227.317 188.987 227.317ZM168.96 131.812L169.027 132.307C163.068 133.106 158.212 137.797 154.982 145.873C152.034 153.243 150.577 163.177 150.881 173.845C151.587 198.705 161.629 224.586 179.452 225.951C182.648 226.196 185.828 226.318 188.986 226.318C202.933 226.318 216.494 223.938 229.421 219.211C242.778 214.327 255.444 206.961 267.065 197.319C276.363 189.604 284.984 180.382 291.992 170.648C297.372 163.176 301.735 155.416 303.7 149.835C299.255 140.514 293.287 132.36 285.958 125.598C279.863 119.976 272.793 115.273 264.946 111.624C249.757 104.56 236.791 103.726 234.53 103.632C224.535 113.588 216 119.622 206.029 123.793C195.652 128.133 183.733 130.335 169.028 132.307L168.962 131.812H168.96Z" fill="black"/>
<path d="M125.306 53.9119L125.304 52.913C125.475 52.913 142.502 52.8306 146.395 48.9075C146.875 48.4243 147.107 47.9223 147.105 47.3742C147.101 46.7561 146.841 46.2005 146.309 45.6748C144.089 43.4835 138.062 42.6057 133.457 42.2549C130.292 42.2274 127.891 42.0414 127.631 42.0201L127.668 41.0225C127.914 41.0213 130.362 41.01 133.48 41.246C138.82 41.291 146.316 40.8976 148.96 38.5315C149.536 38.0171 149.824 37.4502 149.844 36.7985C149.868 36.0031 149.573 35.3064 148.941 34.6696C147.216 32.9315 143.445 32.065 139.915 31.6342C135.955 31.7666 132.37 31.2571 132.094 31.2172L132.155 30.2233C132.439 30.217 136.008 30.1471 139.951 30.6266C143.243 30.5167 146.743 29.9598 148.584 28.2967C149.488 27.4801 149.9 26.4775 149.845 25.2301C149.789 23.9503 149.286 22.9776 148.306 22.2559C144.048 19.1219 132.696 22.0686 132.582 22.0986L132.327 21.1334C132.812 21.0048 144.255 18.0356 148.898 21.4518C150.12 22.3508 150.774 23.6082 150.843 25.1876C150.91 26.7297 150.376 28.0245 149.254 29.0396C147.939 30.227 145.93 30.9075 143.745 31.2759C146.167 31.8327 148.373 32.6805 149.651 33.9679C150.475 34.7982 150.875 35.7609 150.843 36.8309C150.816 37.7574 150.406 38.5802 149.627 39.2782C147.749 40.9588 143.822 41.7317 139.798 42.0551C142.803 42.637 145.574 43.5459 147.012 44.9656C147.733 45.6773 148.1 46.4864 148.105 47.3704C148.11 48.1858 147.773 48.9399 147.106 49.6129C142.922 53.8282 126.024 53.9119 125.308 53.9131L125.306 53.9119Z" fill="black"/>
<path d="M299.485 156.468C299.322 156.468 299.162 156.388 299.066 156.241C298.794 155.821 298.52 155.404 298.248 154.992C298.096 154.762 298.158 154.453 298.388 154.3C298.618 154.148 298.927 154.21 299.08 154.44C299.354 154.856 299.629 155.274 299.904 155.698C300.053 155.929 299.987 156.238 299.756 156.388C299.673 156.443 299.578 156.468 299.485 156.468ZM297.268 153.145C297.109 153.145 296.953 153.069 296.856 152.929C296.572 152.517 296.288 152.108 296.004 151.703C295.846 151.477 295.901 151.166 296.125 151.008C296.351 150.849 296.662 150.904 296.821 151.129C297.107 151.536 297.393 151.948 297.679 152.364C297.835 152.591 297.777 152.902 297.55 153.058C297.464 153.118 297.365 153.145 297.268 153.145ZM294.959 149.885C294.806 149.885 294.653 149.814 294.556 149.68C294.261 149.276 293.965 148.876 293.669 148.479C293.505 148.258 293.549 147.945 293.771 147.78C293.992 147.615 294.305 147.66 294.47 147.881C294.768 148.281 295.065 148.683 295.362 149.091C295.525 149.313 295.476 149.627 295.254 149.789C295.165 149.854 295.062 149.885 294.959 149.885ZM292.557 146.694C292.408 146.694 292.261 146.628 292.162 146.5C291.859 146.109 291.549 145.715 291.241 145.327C291.069 145.111 291.105 144.796 291.321 144.625C291.537 144.454 291.851 144.489 292.022 144.705C292.333 145.096 292.646 145.494 292.951 145.887C293.12 146.106 293.081 146.419 292.863 146.588C292.772 146.659 292.664 146.693 292.557 146.693V146.694ZM290.058 143.577C289.915 143.577 289.772 143.516 289.674 143.396C289.355 143.012 289.033 142.627 288.716 142.252C288.538 142.043 288.564 141.727 288.774 141.548C288.985 141.37 289.299 141.396 289.478 141.606C289.797 141.983 290.122 142.37 290.444 142.758C290.62 142.97 290.59 143.285 290.378 143.461C290.284 143.539 290.172 143.576 290.06 143.576L290.058 143.577ZM287.461 140.542C287.323 140.542 287.185 140.484 287.087 140.373C286.758 140.003 286.424 139.629 286.092 139.262C285.907 139.057 285.922 138.741 286.125 138.557C286.33 138.372 286.646 138.387 286.831 138.59C287.167 138.96 287.504 139.337 287.835 139.71C288.017 139.916 287.998 140.232 287.791 140.416C287.696 140.499 287.577 140.541 287.46 140.541L287.461 140.542ZM284.764 137.596C284.632 137.596 284.5 137.544 284.402 137.44C284.059 137.078 283.71 136.716 283.368 136.365C283.176 136.168 283.18 135.851 283.377 135.659C283.574 135.466 283.891 135.47 284.084 135.667C284.428 136.022 284.779 136.387 285.126 136.752C285.316 136.952 285.307 137.268 285.108 137.458C285.011 137.549 284.888 137.595 284.764 137.595V137.596ZM281.965 134.748C281.839 134.748 281.713 134.701 281.615 134.606C281.258 134.255 280.897 133.907 280.544 133.57C280.344 133.38 280.337 133.063 280.528 132.863C280.718 132.663 281.035 132.656 281.234 132.847C281.592 133.188 281.956 133.54 282.316 133.893C282.513 134.087 282.516 134.402 282.322 134.6C282.225 134.7 282.095 134.75 281.965 134.75V134.748ZM279.062 132.005C278.942 132.005 278.822 131.963 278.726 131.875C278.359 131.542 277.986 131.207 277.616 130.88C277.409 130.698 277.39 130.382 277.572 130.175C277.755 129.967 278.07 129.949 278.278 130.131C278.651 130.461 279.028 130.798 279.399 131.135C279.603 131.321 279.618 131.637 279.433 131.84C279.334 131.949 279.199 132.004 279.063 132.004L279.062 132.005ZM276.054 129.377C275.94 129.377 275.827 129.338 275.733 129.259C275.354 128.941 274.966 128.621 274.584 128.311C274.371 128.137 274.338 127.822 274.512 127.608C274.687 127.394 275.001 127.362 275.215 127.535C275.602 127.85 275.992 128.172 276.376 128.494C276.587 128.671 276.615 128.986 276.437 129.198C276.339 129.316 276.198 129.377 276.054 129.377ZM272.942 126.873C272.836 126.873 272.729 126.84 272.638 126.77C272.247 126.469 271.847 126.165 271.45 125.869C271.229 125.705 271.183 125.391 271.348 125.17C271.513 124.949 271.826 124.904 272.047 125.068C272.448 125.368 272.853 125.673 273.247 125.978C273.466 126.147 273.506 126.46 273.338 126.679C273.24 126.806 273.092 126.873 272.942 126.873ZM269.727 124.504C269.629 124.504 269.527 124.474 269.44 124.412C269.037 124.128 268.625 123.843 268.215 123.566C267.987 123.411 267.928 123.1 268.083 122.872C268.238 122.643 268.549 122.584 268.777 122.739C269.19 123.02 269.607 123.309 270.016 123.596C270.242 123.754 270.295 124.066 270.137 124.291C270.039 124.43 269.885 124.504 269.729 124.504H269.727ZM266.41 122.278C266.317 122.278 266.225 122.254 266.141 122.2C265.723 121.933 265.298 121.667 264.879 121.409C264.644 121.265 264.571 120.957 264.714 120.723C264.859 120.488 265.166 120.414 265.401 120.558C265.825 120.819 266.255 121.087 266.678 121.357C266.91 121.506 266.979 121.814 266.831 122.046C266.736 122.196 266.573 122.277 266.408 122.277L266.41 122.278ZM262.994 120.208C262.91 120.208 262.824 120.187 262.745 120.142C262.314 119.895 261.879 119.65 261.446 119.413C261.204 119.279 261.117 118.976 261.249 118.735C261.382 118.494 261.685 118.405 261.927 118.538C262.363 118.777 262.805 119.026 263.241 119.276C263.48 119.413 263.563 119.718 263.426 119.957C263.333 120.118 263.165 120.208 262.992 120.208H262.994ZM259.482 118.304C259.406 118.304 259.329 118.287 259.255 118.249C258.816 118.024 258.367 117.801 257.923 117.585C257.674 117.464 257.572 117.165 257.693 116.917C257.814 116.668 258.113 116.566 258.361 116.687C258.811 116.907 259.265 117.133 259.71 117.36C259.956 117.485 260.053 117.786 259.927 118.032C259.838 118.204 259.663 118.304 259.481 118.304H259.482ZM255.881 116.577C255.813 116.577 255.744 116.564 255.678 116.534C255.227 116.331 254.768 116.13 254.314 115.938C254.061 115.831 253.942 115.537 254.05 115.283C254.157 115.029 254.451 114.91 254.705 115.018C255.165 115.214 255.63 115.416 256.087 115.621C256.34 115.733 256.452 116.029 256.338 116.281C256.256 116.466 256.074 116.576 255.883 116.576L255.881 116.577ZM252.196 115.038C252.136 115.038 252.074 115.027 252.016 115.004C251.554 114.826 251.086 114.649 250.622 114.481C250.363 114.387 250.229 114.1 250.324 113.84C250.418 113.581 250.705 113.447 250.964 113.542C251.434 113.713 251.908 113.89 252.377 114.071C252.634 114.171 252.761 114.46 252.663 114.717C252.586 114.915 252.397 115.037 252.197 115.037L252.196 115.038ZM248.432 113.698C248.381 113.698 248.329 113.691 248.277 113.673C247.808 113.521 247.33 113.371 246.858 113.227C246.594 113.147 246.444 112.869 246.524 112.604C246.604 112.341 246.883 112.191 247.147 112.271C247.627 112.416 248.11 112.568 248.587 112.723C248.849 112.808 248.993 113.09 248.908 113.352C248.839 113.563 248.643 113.697 248.433 113.697L248.432 113.698ZM244.599 112.571C244.557 112.571 244.514 112.566 244.472 112.554C243.992 112.428 243.508 112.306 243.03 112.191C242.761 112.126 242.596 111.856 242.66 111.589C242.725 111.321 242.993 111.156 243.262 111.22C243.747 111.336 244.239 111.461 244.725 111.588C244.992 111.658 245.151 111.931 245.081 112.198C245.022 112.423 244.82 112.571 244.598 112.571H244.599ZM240.707 111.668C240.675 111.668 240.642 111.664 240.608 111.658C240.122 111.56 239.63 111.468 239.146 111.383C238.874 111.336 238.693 111.076 238.741 110.805C238.788 110.533 239.048 110.352 239.319 110.399C239.809 110.485 240.309 110.579 240.803 110.679C241.074 110.733 241.249 110.996 241.195 111.267C241.148 111.504 240.939 111.669 240.706 111.669L240.707 111.668ZM236.765 111.007C236.743 111.007 236.72 111.006 236.698 111.002C236.205 110.936 235.708 110.876 235.222 110.823C234.947 110.793 234.75 110.547 234.779 110.272C234.809 109.997 235.055 109.799 235.329 109.829C235.824 109.882 236.328 109.943 236.83 110.011C237.104 110.047 237.296 110.299 237.258 110.573C237.225 110.824 237.01 111.006 236.764 111.006L236.765 111.007ZM227.292 110.631C227.042 110.631 226.826 110.444 226.796 110.189C226.765 109.916 226.961 109.668 227.235 109.636C227.257 109.634 227.789 109.573 228.772 109.541C229.051 109.53 229.277 109.749 229.287 110.025C229.296 110.301 229.08 110.532 228.804 110.54C227.868 110.57 227.356 110.629 227.351 110.629C227.331 110.631 227.312 110.633 227.293 110.633L227.292 110.631ZM232.786 110.613C232.776 110.613 232.765 110.613 232.755 110.613C232.255 110.582 231.756 110.559 231.271 110.543C230.995 110.534 230.779 110.304 230.788 110.028C230.797 109.752 231.025 109.534 231.303 109.545C231.797 109.56 232.306 109.584 232.817 109.616C233.093 109.634 233.302 109.87 233.285 110.146C233.269 110.41 233.049 110.614 232.787 110.614L232.786 110.613Z" fill="black"/>
<path d="M52.5363 198.514C52.5363 165.925 50.2289 141.554 89.9172 134.624C121.202 129.161 172.725 134.212 190.068 128.134C159.722 241.084 209.089 342.557 209.089 342.557L60.4225 342.647C60.4225 342.647 52.5363 271.604 52.5363 198.514Z" fill="white"/>
<path d="M59.9761 343.147L59.9261 342.702C59.9062 342.525 57.9309 324.625 55.9818 298.026C54.1825 273.477 52.0374 236.285 52.0374 198.514C52.0374 196.794 52.0312 195.081 52.0249 193.423C51.9675 178.302 51.9176 165.244 56.6286 155.017C59.1358 149.573 62.8316 145.296 67.926 141.941C73.4673 138.293 80.6331 135.738 89.8328 134.132C104.99 131.487 124.464 131.304 143.297 131.128C162.695 130.947 181.019 130.776 189.904 127.662L190.797 127.349L190.551 128.263C183.642 153.975 180.341 181.227 180.737 209.261C181.054 231.694 183.727 254.674 188.68 277.565C193.089 297.935 198.524 314.461 202.309 324.738C206.409 335.874 209.507 342.274 209.538 342.337L209.888 343.055L59.9748 343.144L59.9761 343.147ZM189.348 128.898C180.027 131.786 162.173 131.952 143.306 132.128C124.513 132.303 105.08 132.485 90.0039 135.117C52.8278 141.609 52.9102 163.341 53.0238 193.419C53.0301 195.077 53.0363 196.793 53.0363 198.514C53.0363 219.345 53.7205 253.507 56.9782 297.952C58.7562 322.214 60.5554 339.229 60.8713 342.147L208.303 342.058C207.389 340.092 204.715 334.155 201.382 325.11C197.587 314.805 192.134 298.233 187.711 277.807C182.741 254.848 180.059 231.797 179.739 209.295C179.344 181.487 182.577 154.442 189.348 128.896V128.898Z" fill="black"/>
<path d="M85.1516 215.177C85.1516 215.177 81.2485 296.391 95.1867 331.098L85.1516 215.177Z" fill="white"/>
<path d="M94.7234 331.285C91.5282 323.329 89.0123 312.267 87.243 298.408C85.8308 287.338 84.8881 274.462 84.4424 260.139C83.6845 235.76 84.6422 215.357 84.6521 215.154L85.6498 215.202C85.6398 215.404 84.6834 235.774 85.4413 260.115C85.8858 274.406 86.826 287.248 88.2344 298.285C89.9925 312.06 92.4872 323.037 95.6499 330.913L94.7234 331.285Z" fill="black"/>
<path d="M141.667 64.3775C135.443 61.5157 131.753 66.0544 123.79 69.4868C93.6101 82.4973 117.108 112.344 123.747 111.734C129.017 111.249 128.775 104.149 132.62 100.53C141.372 92.2927 171.413 78.0548 141.667 64.3763V64.3775Z" fill="black"/>
<path d="M149.528 114.78C149.324 114.853 149.118 114.923 148.911 114.991C145.572 116.745 141.975 117.549 138.119 117.403C133.062 117.387 128.35 116.112 123.981 113.579L120.77 111.098C121.349 118.637 121.73 130.658 119.759 132.034C115.131 135.267 135.33 151.707 146.206 152.484C154.516 153.078 157.655 147.099 153.802 141.355C150.952 137.109 149.862 120.477 149.528 114.779V114.78Z" fill="white"/>
<path d="M147.315 153.025C146.942 153.025 146.56 153.011 146.17 152.984C141.89 152.678 135.652 149.893 129.486 145.537C123.702 141.449 119.474 137.03 118.715 134.28C118.309 132.807 118.903 132.025 119.472 131.626C119.733 131.444 120.596 130.345 120.72 123.87C120.815 118.895 120.436 113.309 120.27 111.138L120.184 110.017L124.258 113.164C128.522 115.632 133.186 116.889 138.119 116.905H138.137C141.886 117.048 145.434 116.255 148.677 114.55L148.715 114.53L148.755 114.518C148.948 114.455 149.146 114.387 149.358 114.312L149.986 114.087L150.025 114.754C150.856 128.944 152.345 138.294 154.215 141.081C156.128 143.933 156.458 147.037 155.097 149.384C153.737 151.729 150.935 153.027 147.315 153.027V153.025ZM121.348 112.178C121.531 114.819 121.801 119.577 121.719 123.887C121.59 130.599 120.701 131.985 120.044 132.444C119.756 132.645 119.405 133.027 119.677 134.012C120.368 136.516 124.541 140.819 130.062 144.72C136.085 148.977 142.133 151.694 146.241 151.987C150.02 152.257 152.931 151.125 154.232 148.881C155.416 146.841 155.107 144.2 153.386 141.635C150.917 137.957 149.678 125.527 149.067 115.473C145.688 117.232 142.002 118.05 138.107 117.904C132.989 117.887 128.152 116.578 123.729 114.012L123.674 113.976L121.348 112.179V112.178Z" fill="black"/>
<path d="M141.25 77.9609C138.982 84.3463 128.64 78.6289 124.249 84.8982C121.311 89.0948 121.142 93.1141 120.786 92.7557C110.888 82.7843 108.224 102.535 120.024 103.771C120.094 103.778 120.74 109.443 121.063 115.61C124.766 118.33 142.795 129.49 152.274 121.909C158.833 113.629 153.291 80.814 141.25 77.9609Z" fill="white"/>
<path d="M144.059 125.005C144.011 125.005 143.964 125.005 143.915 125.005C141.077 124.984 137.854 124.341 134.336 123.093C128.331 120.964 122.835 117.531 120.767 116.014L120.576 115.874L120.563 115.638C120.288 110.381 119.778 105.508 119.6 104.223C114.855 103.561 112.51 100 111.897 96.8276C111.299 93.7323 112.219 90.863 114.134 89.8504C116.429 88.6367 119.034 90.4335 120.641 91.9231C120.662 91.8444 120.683 91.7633 120.705 91.6859C121.069 90.3224 121.828 87.4843 123.839 84.6125C126.156 81.3024 130.023 81.1301 133.434 80.979C136.822 80.8279 139.747 80.6981 140.778 77.7951L140.928 77.373L141.364 77.4767C145.758 78.518 149.687 83.44 152.428 91.335C156.063 101.807 157.025 116.717 152.664 122.221L152.629 122.266L152.584 122.3C150.338 124.096 147.47 125.006 144.056 125.006L144.059 125.005ZM121.55 115.346C123.707 116.895 128.952 120.123 134.67 122.151C138.084 123.361 141.198 123.985 143.924 124.005C147.144 124.024 149.831 123.204 151.919 121.554C153.731 119.224 154.668 114.74 154.557 108.918C154.448 103.26 153.329 96.97 151.486 91.6596C148.952 84.3565 145.436 79.7292 141.55 78.5567C140.165 81.6758 136.769 81.8281 133.48 81.9742C130.144 82.1228 126.693 82.2763 124.658 85.1831C122.747 87.9101 122.047 90.5321 121.67 91.9406C121.432 92.8258 121.344 93.1567 120.968 93.2566C120.776 93.3078 120.575 93.2516 120.43 93.1055C118.139 90.7981 116.068 89.9553 114.601 90.7307C113.094 91.5273 112.37 94.0108 112.877 96.6353C113.439 99.5383 115.624 102.806 120.075 103.272C120.474 103.313 120.526 103.668 120.568 103.953C120.595 104.131 120.627 104.38 120.665 104.695C120.748 105.392 120.847 106.328 120.944 107.331C121.092 108.86 121.363 111.907 121.549 115.343L121.55 115.346Z" fill="black"/>
<path d="M138.924 91.8847C139.03 93.0484 138.037 94.0523 136.708 94.1247C135.378 94.1971 134.213 93.3131 134.107 92.1494C134.001 90.9857 134.993 89.9818 136.323 89.9094C137.653 89.837 138.818 90.721 138.924 91.8847Z" fill="black"/>
<path d="M148.668 91.3553C148.771 92.5465 147.971 93.5591 146.883 93.6166C145.794 93.674 144.829 92.7538 144.726 91.5626C144.624 90.3714 145.423 89.3588 146.512 89.3014C147.601 89.2439 148.566 90.1642 148.668 91.3553Z" fill="black"/>
<path d="M131.507 89.3326C131.507 89.3326 134.311 86.8816 139.477 88.1065L131.507 89.3326Z" fill="white"/>
<path d="M131.507 89.831C131.367 89.831 131.228 89.7723 131.129 89.6587C130.95 89.4515 130.971 89.1368 131.177 88.9558C131.299 88.8484 134.236 86.3499 139.591 87.6197C139.86 87.6834 140.026 87.9531 139.962 88.2216C139.898 88.49 139.629 88.6561 139.36 88.5924C136.834 87.9931 134.924 88.329 133.765 88.7148C132.509 89.1343 131.839 89.7037 131.832 89.7087C131.738 89.7898 131.621 89.8298 131.507 89.8298V89.831Z" fill="black"/>
<path d="M143.758 87.7635C143.758 87.7635 145.528 85.5972 147.3 86.852L143.758 87.7635Z" fill="white"/>
<path d="M143.758 88.2625C143.647 88.2625 143.534 88.225 143.442 88.1488C143.23 87.974 143.197 87.6606 143.372 87.4471C144.086 86.5731 145.888 85.2383 147.59 86.4445C147.814 86.6043 147.868 86.9152 147.708 87.1412C147.548 87.366 147.238 87.4196 147.012 87.2598C145.646 86.2922 144.205 88.0077 144.144 88.0802C144.045 88.2 143.901 88.2625 143.758 88.2625Z" fill="black"/>
<path d="M119.111 95.8132C116.13 92.8328 113.694 96.7035 119.111 100.54V95.8132Z" fill="white"/>
<path d="M118.822 100.948C116.996 99.6546 115.144 97.6093 115.424 95.7464C115.528 95.0534 115.935 94.5415 116.539 94.3417C117.403 94.057 118.468 94.4641 119.463 95.4592L118.757 96.1659C117.924 95.3331 117.226 95.1671 116.851 95.2907C116.548 95.3906 116.444 95.674 116.412 95.895C116.279 96.779 116.981 98.4209 119.398 100.133L118.822 100.948Z" fill="black"/>
<path d="M140.867 106.279C139.775 106.279 138.881 106.091 138.8 106.073C138.496 106.007 138.304 105.707 138.37 105.404C138.436 105.1 138.735 104.908 139.039 104.974C140.062 105.195 142.896 105.471 143.722 104.114C144.395 103.006 142.659 96.6386 140.593 91.121C140.484 90.8301 140.631 90.5067 140.922 90.398C141.213 90.2894 141.537 90.4367 141.645 90.7277C141.657 90.7564 142.738 93.6519 143.656 96.7547C145.374 102.562 145.064 104.069 144.682 104.698C143.899 105.986 142.23 106.279 140.867 106.279Z" fill="black"/>
<path d="M145.831 158.291C145.558 158.291 145.336 158.073 145.331 157.799C145.327 157.523 145.547 157.296 145.823 157.292C146.31 157.285 146.805 157.265 147.294 157.232C147.569 157.215 147.807 157.422 147.826 157.698C147.845 157.973 147.636 158.211 147.36 158.23C146.853 158.264 146.341 158.285 145.838 158.293C145.836 158.293 145.833 158.293 145.831 158.293V158.291ZM143.337 158.22C143.325 158.22 143.312 158.22 143.3 158.219C142.795 158.183 142.285 158.131 141.784 158.067C141.51 158.032 141.317 157.782 141.352 157.507C141.387 157.234 141.637 157.04 141.911 157.075C142.394 157.138 142.886 157.186 143.373 157.221C143.648 157.241 143.855 157.481 143.835 157.756C143.817 158.018 143.597 158.219 143.338 158.219L143.337 158.22ZM149.809 157.964C149.565 157.964 149.352 157.786 149.316 157.537C149.276 157.264 149.464 157.01 149.736 156.97C150.216 156.899 150.705 156.815 151.191 156.721C151.462 156.668 151.724 156.844 151.777 157.115C151.829 157.386 151.653 157.648 151.382 157.701C150.883 157.798 150.378 157.884 149.882 157.958C149.857 157.962 149.832 157.963 149.809 157.963V157.964ZM139.393 157.642C139.357 157.642 139.32 157.638 139.284 157.63C138.791 157.52 138.294 157.396 137.806 157.259C137.54 157.184 137.385 156.909 137.46 156.643C137.535 156.377 137.81 156.222 138.076 156.297C138.546 156.428 139.026 156.549 139.5 156.654C139.77 156.714 139.94 156.98 139.88 157.25C139.829 157.482 139.621 157.641 139.393 157.641V157.642ZM153.717 157.144C153.497 157.144 153.295 156.998 153.235 156.774C153.162 156.508 153.32 156.234 153.587 156.161C154.056 156.034 154.533 155.895 155.007 155.747C155.27 155.664 155.55 155.81 155.632 156.074C155.715 156.337 155.569 156.617 155.305 156.699C154.819 156.852 154.33 156.994 153.848 157.125C153.804 157.136 153.761 157.143 153.717 157.143V157.144ZM135.572 156.498C135.513 156.498 135.453 156.488 135.395 156.466C134.924 156.287 134.45 156.094 133.985 155.889C133.733 155.778 133.618 155.483 133.729 155.231C133.84 154.979 134.135 154.864 134.387 154.975C134.837 155.172 135.295 155.36 135.748 155.532C136.007 155.629 136.136 155.918 136.038 156.176C135.962 156.376 135.772 156.498 135.571 156.498H135.572ZM157.408 155.677C157.252 155.677 157.099 155.604 157.001 155.468C156.84 155.243 156.892 154.933 157.116 154.771C157.489 154.504 157.824 154.191 158.112 153.841C158.287 153.628 158.603 153.598 158.815 153.773C159.028 153.947 159.058 154.262 158.884 154.476C158.54 154.893 158.141 155.266 157.697 155.584C157.609 155.648 157.508 155.678 157.406 155.678L157.408 155.677ZM131.946 154.833C131.865 154.833 131.784 154.813 131.708 154.771C131.267 154.533 130.824 154.277 130.388 154.014C130.152 153.871 130.077 153.563 130.219 153.328C130.362 153.092 130.669 153.017 130.905 153.159C131.327 153.415 131.756 153.661 132.183 153.894C132.426 154.025 132.515 154.328 132.384 154.57C132.294 154.738 132.122 154.831 131.945 154.831L131.946 154.833ZM128.562 152.712C128.462 152.712 128.36 152.683 128.273 152.62C127.866 152.33 127.456 152.024 127.055 151.711C126.838 151.541 126.798 151.228 126.968 151.011C127.138 150.793 127.451 150.753 127.668 150.923C128.059 151.228 128.457 151.525 128.853 151.806C129.078 151.966 129.13 152.278 128.969 152.503C128.872 152.639 128.718 152.712 128.562 152.712ZM159.655 152.463C159.605 152.463 159.555 152.455 159.507 152.44C159.243 152.358 159.097 152.078 159.18 151.815C159.313 151.389 159.414 150.924 159.483 150.434C159.52 150.16 159.774 149.971 160.046 150.008C160.32 150.045 160.509 150.298 160.472 150.571C160.396 151.116 160.282 151.635 160.132 152.113C160.065 152.327 159.869 152.464 159.655 152.464V152.463ZM125.443 150.217C125.325 150.217 125.206 150.175 125.111 150.09C124.739 149.758 124.363 149.412 123.996 149.06C123.798 148.869 123.79 148.553 123.981 148.354C124.172 148.154 124.488 148.148 124.688 148.339C125.046 148.682 125.412 149.02 125.775 149.344C125.982 149.527 126 149.843 125.817 150.049C125.718 150.16 125.581 150.217 125.443 150.217ZM160.069 148.508C159.804 148.508 159.583 148.301 159.57 148.034C159.548 147.569 159.503 147.081 159.439 146.581C159.404 146.307 159.598 146.057 159.871 146.021C160.145 145.986 160.396 146.18 160.431 146.453C160.498 146.98 160.544 147.495 160.568 147.985C160.582 148.261 160.369 148.495 160.094 148.508C160.085 148.508 160.077 148.508 160.069 148.508ZM122.589 147.417C122.455 147.417 122.322 147.363 122.223 147.257C121.884 146.891 121.543 146.512 121.209 146.131C121.028 145.923 121.049 145.608 121.258 145.427C121.465 145.246 121.781 145.267 121.962 145.476C122.288 145.849 122.621 146.221 122.955 146.578C123.142 146.78 123.131 147.096 122.929 147.284C122.833 147.373 122.71 147.417 122.589 147.417ZM159.49 144.557C159.262 144.557 159.057 144.399 159.003 144.168C158.897 143.703 158.776 143.221 158.644 142.736C158.571 142.47 158.728 142.195 158.993 142.122C159.261 142.049 159.534 142.205 159.608 142.471C159.745 142.971 159.87 143.468 159.979 143.947C160.04 144.216 159.871 144.484 159.603 144.545C159.565 144.554 159.528 144.558 159.492 144.558L159.49 144.557ZM119.993 144.376C119.845 144.376 119.699 144.311 119.6 144.184C119.291 143.791 118.982 143.385 118.682 142.98C118.519 142.757 118.565 142.445 118.787 142.282C119.009 142.118 119.321 142.164 119.485 142.386C119.78 142.785 120.083 143.182 120.385 143.568C120.555 143.785 120.518 144.098 120.3 144.269C120.209 144.342 120.101 144.376 119.992 144.376H119.993ZM117.643 141.138C117.482 141.138 117.325 141.06 117.228 140.917C116.948 140.5 116.671 140.073 116.401 139.648C116.254 139.415 116.324 139.106 116.556 138.959C116.789 138.812 117.098 138.882 117.245 139.114C117.51 139.532 117.783 139.952 118.057 140.36C118.21 140.59 118.149 140.899 117.92 141.053C117.836 141.11 117.738 141.138 117.643 141.138ZM158.39 140.713C158.182 140.713 157.988 140.582 157.917 140.374C157.762 139.917 157.595 139.446 157.419 138.974C157.323 138.716 157.454 138.428 157.712 138.332C157.971 138.236 158.258 138.367 158.354 138.626C158.533 139.106 158.704 139.587 158.862 140.053C158.951 140.314 158.811 140.597 158.55 140.686C158.497 140.703 158.443 140.712 158.389 140.712L158.39 140.713ZM115.534 137.737C115.361 137.737 115.192 137.647 115.1 137.486C114.849 137.047 114.602 136.602 114.364 136.16C114.235 135.916 114.326 135.614 114.568 135.483C114.81 135.352 115.114 135.444 115.245 135.686C115.477 136.12 115.72 136.558 115.966 136.989C116.104 137.228 116.02 137.533 115.782 137.67C115.703 137.715 115.618 137.737 115.534 137.737ZM156.963 136.978C156.768 136.978 156.584 136.863 156.503 136.672C156.313 136.222 156.113 135.763 155.907 135.307C155.793 135.055 155.907 134.76 156.158 134.646C156.41 134.533 156.705 134.646 156.818 134.897C157.027 135.359 157.23 135.826 157.423 136.283C157.53 136.538 157.411 136.83 157.157 136.938C157.093 136.964 157.027 136.978 156.963 136.978ZM113.675 134.188C113.488 134.188 113.309 134.082 113.223 133.902C112.809 133.027 112.603 132.517 112.595 132.496C112.493 132.24 112.616 131.949 112.872 131.847C113.128 131.745 113.419 131.868 113.522 132.124C113.524 132.129 113.726 132.631 114.126 133.475C114.245 133.725 114.137 134.022 113.889 134.141C113.82 134.173 113.746 134.189 113.675 134.189V134.188ZM155.296 133.34C155.113 133.34 154.936 133.238 154.848 133.062C154.621 132.604 154.394 132.157 154.171 131.735C154.043 131.49 154.138 131.189 154.381 131.06C154.626 130.932 154.927 131.027 155.055 131.27C155.281 131.7 155.512 132.154 155.742 132.62C155.864 132.867 155.763 133.167 155.516 133.289C155.445 133.324 155.369 133.342 155.295 133.342L155.296 133.34Z" fill="black"/>
<path d="M119.761 87.6077C119.761 87.6077 127.844 103.792 136.772 106.887C148.913 111.097 154.516 103.961 154.516 103.961C154.516 103.961 160.738 126.699 147.605 129.849C134.472 133 121.201 117.908 121.065 115.608C120.929 113.308 119.761 87.6064 119.761 87.6064V87.6077Z" fill="black"/>
<path d="M143.826 112.84C142.589 112.84 141.278 112.671 139.912 112.333C137.246 111.673 135.331 110.615 135.249 110.57L135.735 109.697C135.823 109.746 143.198 113.769 148.665 110.664L149.158 111.533C147.627 112.403 145.821 112.841 143.825 112.841L143.826 112.84Z" fill="white"/>
<path d="M222.206 171.699L200.655 172.248L201.016 186.409L222.567 185.86L222.206 171.699Z" fill="black"/>
<path d="M223.848 177.171L199.291 177.797L199.652 191.958L224.209 191.332L223.848 177.171Z" fill="white"/>
<path d="M224.873 191.969L199.015 192.627L198.622 177.166L224.479 176.508L224.873 191.969ZM200.282 191.294L223.538 190.702L223.211 177.843L199.954 178.434L200.281 191.294H200.282Z" fill="black"/>
<path d="M210.238 348.059C203.273 348.237 197.558 342.588 197.653 335.622L199.637 191.454L224.194 190.828L222.196 335.959C222.105 342.549 216.826 347.891 210.237 348.059H210.238Z" fill="black"/>
<path d="M164.856 60.4359C192.762 36.6362 234.678 39.965 258.478 67.8702C265.351 75.9299 269.961 85.1571 272.371 94.7789C271.582 81.872 266.751 69.105 257.713 58.5081C235.574 32.5495 196.582 29.453 170.623 51.592C164.71 56.6364 159.982 62.5548 156.47 68.9939C158.96 65.9473 161.757 63.0792 164.856 60.4347V60.4359Z" fill="white"/>
<path d="M207.562 20.1312C164.476 21.2288 130.438 57.0463 131.534 100.132C132.632 143.218 168.449 177.256 211.535 176.16C254.621 175.062 288.659 139.245 287.563 96.159C286.465 53.0733 250.648 19.0349 207.562 20.1312ZM279.163 95.4198C280.13 133.354 250.161 164.889 212.227 165.855C174.293 166.822 142.758 136.852 141.792 98.9184C140.825 60.9845 170.794 29.4496 208.728 28.4832C246.662 27.5167 278.197 57.4859 279.163 95.4198Z" fill="white"/>
<path d="M209.491 177.058C199.565 177.058 189.888 175.231 180.693 171.615C171.197 167.88 162.617 162.407 155.188 155.348C147.758 148.288 141.856 139.996 137.643 130.703C133.282 121.081 130.932 110.802 130.661 100.153C130.39 89.5035 132.213 79.1188 136.079 69.2885C139.814 59.7929 145.286 51.2124 152.346 43.7832C159.405 36.354 167.698 30.4518 176.991 26.239C186.613 21.8776 196.891 19.5277 207.539 19.2568C218.189 18.9858 228.573 20.8088 238.405 24.6745C247.901 28.4091 256.481 33.8817 263.91 40.9414C271.34 48.001 277.243 56.293 281.455 65.5864C285.816 75.2082 288.165 85.4867 288.437 96.1361C288.708 106.786 286.885 117.17 283.019 127C279.284 136.496 273.812 145.077 266.752 152.506C259.693 159.935 251.401 165.838 242.107 170.05C232.485 174.411 222.207 176.76 211.557 177.032C210.868 177.05 210.178 177.058 209.49 177.058H209.491ZM207.584 21.0036C197.17 21.2683 187.12 23.5657 177.713 27.8297C168.626 31.9489 160.518 37.7212 153.613 44.9869C146.708 52.2525 141.357 60.6432 137.706 69.9278C133.926 79.5396 132.143 89.6946 132.409 100.108C132.674 110.523 134.971 120.573 139.235 129.98C143.355 139.067 149.127 147.174 156.393 154.079C163.658 160.984 172.049 166.335 181.334 169.986C190.322 173.521 199.787 175.309 209.492 175.309C210.165 175.309 210.838 175.3 211.514 175.283C221.928 175.018 231.978 172.721 241.385 168.457C250.472 164.338 258.58 158.565 265.485 151.3C272.39 144.034 277.741 135.643 281.392 126.359C285.172 116.747 286.955 106.592 286.689 96.1786C286.424 85.7639 284.127 75.7139 279.863 66.3069C275.743 57.2207 269.971 49.1123 262.705 42.2075C255.44 35.3027 247.049 29.9511 237.764 26.3002C228.153 22.5206 217.998 20.7376 207.584 21.0036ZM210.426 166.75C201.673 166.75 193.14 165.138 185.033 161.949C176.661 158.656 169.093 153.831 162.543 147.605C155.993 141.379 150.788 134.069 147.073 125.874C143.227 117.39 141.156 108.328 140.916 98.938C140.676 89.5472 142.285 80.3912 145.693 71.7221C148.986 63.3502 153.812 55.7836 160.037 49.2321C166.263 42.6819 173.573 37.4765 181.768 33.7619C190.252 29.9162 199.315 27.8447 208.704 27.605C218.095 27.3652 227.251 28.9735 235.919 32.3822C244.291 35.6747 251.859 40.5006 258.409 46.7262C264.959 52.9517 270.165 60.2623 273.879 68.457C277.725 76.9413 279.796 86.0037 280.036 95.3932C280.276 104.783 278.668 113.94 275.259 122.608C271.966 130.98 267.14 138.548 260.915 145.098C254.689 151.648 247.379 156.853 239.184 160.568C230.7 164.414 221.637 166.485 212.248 166.725C211.64 166.74 211.03 166.749 210.425 166.749L210.426 166.75ZM210.527 29.3318C209.935 29.3318 209.344 29.3393 208.749 29.3543C199.594 29.5878 190.759 31.6068 182.49 35.3551C174.501 38.9761 167.374 44.0504 161.305 50.437C155.235 56.8237 150.53 64.2005 147.32 72.3626C143.998 80.812 142.431 89.7383 142.664 98.8943C142.898 108.049 144.917 116.884 148.665 125.154C152.286 133.142 157.36 140.269 163.747 146.339C170.134 152.408 177.51 157.113 185.672 160.323C194.122 163.646 203.049 165.213 212.203 164.979C221.358 164.746 230.193 162.727 238.462 158.979C246.451 155.358 253.578 150.283 259.648 143.897C265.717 137.51 270.422 130.133 273.632 121.971C276.955 113.522 278.522 104.595 278.288 95.4407C278.055 86.2859 276.036 77.4507 272.287 69.1812C268.666 61.1926 263.592 54.0655 257.205 47.996C250.819 41.9265 243.442 37.2218 235.28 34.0116C227.379 30.9038 219.058 29.3331 210.526 29.3331L210.527 29.3318Z" fill="black"/>
<path d="M230.051 291.202C231.577 285.104 227.538 283.452 226.804 281.533C231.891 278.718 231.577 268.467 227.64 269.445C233.146 264.18 232.937 256.549 226.525 257.002C232.205 250.695 230.088 238.204 223.396 236.809C223.932 240.503 226.142 249.44 212.096 253.154C205.571 254.879 198.842 249.196 198.981 239.16C189.409 236.356 175.652 252.054 172.491 272.676C163.614 275.907 114.774 304.413 107.027 269.444C96.7912 223.236 136.069 196.196 118.332 159.885C105.621 133.863 68.63 132.349 48.023 159.394C17.5482 199.391 23.9486 267.474 44.7754 299.929C101.088 387.682 227.292 302.229 230.053 291.2L230.051 291.202Z" fill="white"/>
<path d="M116.96 339.619C106.164 339.619 96.1107 338.027 86.9147 334.851C69.5877 328.866 55.2687 317.208 44.3546 300.201C33.664 283.542 27.0501 258.233 26.6618 232.5C26.4545 218.752 27.9966 205.643 31.2479 193.536C34.809 180.27 40.3191 168.683 47.6259 159.094C52.9675 152.083 59.7662 146.588 67.2865 143.203C74.3824 140.009 82.0189 138.704 89.3732 139.43C102.409 140.716 113.127 148.092 118.78 159.667C123.006 168.319 124.345 176.913 122.997 186.713C121.802 195.395 118.662 203.853 115.338 212.807C112.258 221.104 109.074 229.684 107.272 238.977C105.237 249.479 105.317 259.41 107.515 269.337C109.092 276.454 112.541 281.374 117.768 283.959C131.791 290.893 155.492 279.897 166.882 274.613C169.079 273.594 170.849 272.772 172.042 272.313C173.132 265.437 175.445 258.759 178.741 252.986C181.85 247.538 185.715 243.169 189.623 240.682C192.988 238.539 196.273 237.849 199.122 238.684C199.337 238.748 199.484 238.946 199.482 239.17C199.412 244.252 201.172 248.572 204.31 251.024C206.576 252.795 209.297 253.38 211.97 252.673C217.55 251.199 221.114 248.71 222.562 245.277C223.77 242.416 223.306 239.463 222.999 237.509C222.964 237.287 222.932 237.078 222.903 236.884C222.879 236.722 222.937 236.56 223.056 236.448C223.174 236.337 223.34 236.289 223.5 236.323C226.203 236.886 228.402 239.19 229.532 242.645C230.301 244.996 230.505 247.698 230.106 250.255C229.734 252.64 228.868 254.779 227.583 256.503C229.493 256.642 230.902 257.558 231.605 259.146C232.795 261.833 231.616 265.824 228.799 268.969C229.577 269.199 230.214 269.863 230.625 270.909C231.234 272.46 231.271 274.706 230.722 276.773C230.138 278.972 228.989 280.708 227.461 281.72C227.67 282.052 227.984 282.408 228.332 282.802C229.759 284.417 231.713 286.628 230.537 291.324C229.934 293.735 224.819 298.073 221.823 300.444C216.254 304.852 208.858 309.752 200.993 314.242C191.474 319.678 181.573 324.4 171.565 328.279C159.765 332.854 148.185 336.092 137.15 337.902C130.17 339.047 123.433 339.619 116.961 339.619H116.96ZM85.3814 140.234C79.4293 140.234 73.386 141.552 67.6948 144.113C60.3255 147.429 53.6605 152.82 48.4188 159.698C41.1919 169.184 35.7392 180.655 32.2119 193.794C28.9855 205.813 27.4534 218.83 27.6594 232.485C28.0453 258.04 34.6005 283.153 45.1949 299.661C55.9841 316.475 70.1309 327.997 87.2406 333.907C101.791 338.932 118.528 339.945 136.986 336.916C147.954 335.117 159.466 331.896 171.203 327.346C181.166 323.485 191.021 318.784 200.497 313.373C218.379 303.162 228.87 293.866 229.567 291.081C230.615 286.894 228.933 284.991 227.582 283.463C227.039 282.849 226.569 282.317 226.337 281.711C226.248 281.479 226.343 281.217 226.562 281.096C229.893 279.253 230.744 273.95 229.692 271.274C229.393 270.516 228.817 269.666 227.76 269.929C227.541 269.984 227.312 269.884 227.202 269.686C227.092 269.487 227.131 269.24 227.295 269.084C230.807 265.725 231.661 261.745 230.688 259.55C230.03 258.064 228.602 257.354 226.56 257.499C226.356 257.514 226.166 257.403 226.076 257.22C225.986 257.036 226.017 256.818 226.153 256.666C229.637 252.798 229.853 246.846 228.579 242.953C227.669 240.169 226.026 238.225 224.006 237.499C224.329 239.564 224.766 242.613 223.48 245.662C221.904 249.395 218.117 252.078 212.223 253.636C209.241 254.424 206.211 253.776 203.692 251.808C200.387 249.227 198.498 244.772 198.478 239.544C195.993 238.951 193.126 239.632 190.156 241.522C186.383 243.923 182.637 248.17 179.606 253.479C176.325 259.229 174.034 265.892 172.983 272.751C172.955 272.931 172.831 273.082 172.659 273.144C171.51 273.563 169.653 274.424 167.299 275.517C161.463 278.225 152.643 282.317 143.444 284.87C132.36 287.948 123.571 287.942 117.321 284.851C111.811 282.127 108.182 276.979 106.537 269.551C104.308 259.487 104.225 249.423 106.288 238.785C108.105 229.411 111.305 220.791 114.399 212.456C117.703 203.554 120.824 195.148 122.004 186.575C123.325 176.979 122.016 168.568 117.88 160.104C112.381 148.848 101.954 141.673 89.272 140.422C87.9822 140.295 86.6824 140.231 85.3801 140.231L85.3814 140.234Z" fill="black"/>
<path d="M122.509 159.887C109.798 133.865 68.6278 132.351 48.022 159.396C35.5122 175.814 22.694 217.363 24.1461 238.253C58.1045 268.426 104.149 263.971 108.764 251.846C108.862 227.279 135.834 187.165 122.509 159.887Z" fill="white"/>
<path d="M82.8493 261.598C76.5088 261.598 69.7064 260.774 62.9951 259.141C48.495 255.611 34.9464 248.518 23.8138 238.627L23.6614 238.492L23.6477 238.288C22.956 228.339 25.407 213.291 30.3702 197.003C35.2248 181.074 41.6739 166.903 47.6235 159.094C52.9925 152.048 60.1083 146.528 68.2056 143.13C75.8046 139.941 84.0442 138.673 92.034 139.461C98.6829 140.116 104.968 142.215 110.211 145.528C115.815 149.069 120.104 153.827 122.957 159.667C126.722 167.373 127.633 176.772 125.743 188.399C124.086 198.591 120.567 209.086 117.165 219.234C113.119 231.301 109.299 242.698 109.262 251.848V251.939L109.23 252.024C107.888 255.553 103.386 258.418 96.5552 260.093C92.4436 261.1 87.7863 261.601 82.848 261.601L82.8493 261.598ZM24.6304 238.015C35.6131 247.728 48.9558 254.696 63.2311 258.17C75.018 261.039 87.077 261.385 96.318 259.12C102.67 257.563 107.016 254.88 108.265 251.749C108.327 242.456 112.16 231.02 116.218 218.916C119.608 208.805 123.113 198.35 124.758 188.238C126.613 176.822 125.731 167.619 122.061 160.105C119.29 154.433 115.125 149.813 109.679 146.372C104.568 143.142 98.4331 141.095 91.9379 140.455C84.1128 139.682 76.0393 140.925 68.5939 144.051C60.659 147.381 53.683 152.791 48.4201 159.698C42.5392 167.417 36.1488 181.471 31.3279 197.293C26.5045 213.12 24.0073 228.317 24.6328 238.015H24.6304Z" fill="black"/>
<path d="M24.0323 228.289C24.0323 228.289 63.1999 269.267 108.763 245.851L24.0323 228.289Z" fill="white"/>
<path d="M78.7691 253.571H78.7616C78.2622 253.564 77.754 253.55 77.2521 253.53C76.9761 253.519 76.7614 253.286 76.7726 253.012C76.7838 252.736 77.0148 252.52 77.2908 252.532C77.7852 252.551 78.2847 252.565 78.7766 252.572C79.0526 252.576 79.2723 252.803 79.2686 253.079C79.2648 253.353 79.0413 253.571 78.7691 253.571ZM81.2651 253.559C80.9954 253.559 80.7732 253.344 80.7657 253.072C80.7582 252.796 80.9767 252.567 81.2526 252.56C81.7433 252.547 82.2428 252.528 82.7372 252.503C83.0119 252.492 83.2467 252.702 83.2604 252.978C83.2741 253.254 83.0619 253.487 82.7859 253.501C82.284 253.526 81.7758 253.545 81.2776 253.559C81.2738 253.559 81.2688 253.559 81.2651 253.559ZM74.7798 253.385C74.7661 253.385 74.7536 253.385 74.7399 253.384C74.2392 253.344 73.7335 253.299 73.2365 253.248C72.9619 253.22 72.7621 252.974 72.7908 252.699C72.8183 252.425 73.0642 252.226 73.3389 252.254C73.8271 252.304 74.3253 252.349 74.8198 252.387C75.0945 252.409 75.3005 252.65 75.278 252.924C75.2568 253.185 75.0383 253.385 74.7811 253.385H74.7798ZM85.2519 253.328C84.9959 253.328 84.7787 253.133 84.755 252.873C84.73 252.598 84.9323 252.355 85.207 252.33C85.6989 252.285 86.1959 252.234 86.6853 252.176C86.96 252.145 87.2072 252.341 87.2385 252.615C87.2697 252.888 87.0736 253.137 86.8002 253.168C86.3032 253.225 85.7976 253.278 85.2981 253.324C85.2831 253.325 85.2669 253.326 85.2519 253.326V253.328ZM70.8105 252.949C70.7868 252.949 70.7643 252.948 70.7406 252.944C70.2499 252.876 69.7479 252.798 69.2485 252.717C68.9763 252.672 68.7915 252.415 68.8365 252.143C68.8814 251.87 69.1386 251.687 69.4108 251.731C69.9028 251.812 70.3972 251.887 70.8804 251.955C71.1539 251.994 71.3437 252.246 71.305 252.52C71.27 252.769 71.0565 252.949 70.8105 252.949ZM89.2162 252.836C88.9753 252.836 88.7618 252.66 88.7231 252.414C88.6806 252.141 88.8666 251.885 89.1388 251.843C89.6233 251.767 90.1165 251.682 90.6035 251.593C90.8757 251.543 91.1354 251.723 91.1841 251.994C91.234 252.265 91.0542 252.526 90.7833 252.575C90.2876 252.666 89.7869 252.751 89.2937 252.828C89.2674 252.832 89.2412 252.834 89.215 252.834L89.2162 252.836ZM66.8736 252.274C66.8412 252.274 66.8075 252.27 66.7737 252.264C66.2868 252.165 65.7898 252.059 65.2979 251.949C65.0282 251.889 64.8596 251.622 64.9208 251.352C64.9808 251.083 65.2479 250.914 65.5176 250.974C66.0021 251.083 66.4916 251.187 66.9723 251.285C67.2432 251.34 67.418 251.603 67.3631 251.873C67.3156 252.11 67.1071 252.274 66.8736 252.274ZM93.1394 252.085C92.9109 252.085 92.7049 251.928 92.6524 251.696C92.5912 251.426 92.7611 251.159 93.0295 251.099C93.5115 250.99 93.9984 250.874 94.4754 250.754C94.7426 250.687 95.0148 250.849 95.081 251.118C95.1484 251.385 94.9861 251.657 94.7176 251.723C94.2332 251.844 93.7387 251.963 93.248 252.073C93.2105 252.081 93.1743 252.085 93.1381 252.085H93.1394ZM62.9817 251.371C62.9393 251.371 62.8968 251.366 62.8544 251.355C62.3687 251.227 61.878 251.094 61.3997 250.956C61.135 250.882 60.9802 250.604 61.0564 250.34C61.1313 250.075 61.4085 249.921 61.6732 249.996C62.1464 250.131 62.6284 250.262 63.1091 250.388C63.3763 250.458 63.5349 250.732 63.4649 250.998C63.4062 251.222 63.204 251.371 62.9817 251.371ZM97.0063 251.083C96.7903 251.083 96.5918 250.941 96.5269 250.724C96.4494 250.459 96.6005 250.182 96.8652 250.104C97.3397 249.964 97.8179 249.818 98.2861 249.668C98.5484 249.584 98.8305 249.729 98.9142 249.991C98.9979 250.253 98.853 250.536 98.5908 250.619C98.1138 250.772 97.6281 250.92 97.1474 251.061C97.1 251.075 97.0525 251.081 97.0063 251.081V251.083ZM59.1448 250.252C59.0936 250.252 59.0424 250.245 58.9924 250.228C58.5167 250.076 58.0347 249.916 57.5615 249.754C57.3006 249.664 57.162 249.381 57.2506 249.12C57.3405 248.859 57.6239 248.72 57.8849 248.809C58.3531 248.97 58.8288 249.127 59.2983 249.278C59.5605 249.363 59.7054 249.644 59.6217 249.906C59.5543 250.119 59.357 250.253 59.146 250.253L59.1448 250.252ZM100.802 249.836C100.597 249.836 100.406 249.71 100.333 249.507C100.239 249.247 100.373 248.961 100.632 248.868C101.093 248.7 101.561 248.524 102.024 248.344C102.282 248.244 102.571 248.372 102.671 248.629C102.771 248.886 102.644 249.176 102.387 249.276C101.917 249.458 101.441 249.637 100.973 249.806C100.917 249.826 100.86 249.836 100.803 249.836H100.802ZM55.3727 248.932C55.314 248.932 55.2541 248.922 55.1954 248.9C54.7284 248.723 54.2552 248.539 53.7907 248.353C53.5348 248.251 53.4099 247.96 53.5123 247.704C53.6147 247.448 53.9056 247.324 54.1616 247.425C54.621 247.609 55.088 247.791 55.5488 247.966C55.8072 248.063 55.9371 248.352 55.8384 248.61C55.7623 248.81 55.5725 248.932 55.3715 248.932H55.3727ZM104.514 248.362C104.321 248.362 104.137 248.249 104.056 248.061C103.946 247.807 104.063 247.514 104.317 247.404C104.768 247.209 105.225 247.006 105.675 246.8C105.926 246.685 106.222 246.795 106.337 247.046C106.452 247.297 106.342 247.593 106.091 247.708C105.634 247.917 105.17 248.123 104.713 248.321C104.648 248.348 104.58 248.362 104.515 248.362H104.514ZM51.6706 247.424C51.6044 247.424 51.5357 247.41 51.4708 247.383C51.0151 247.184 50.5518 246.977 50.0936 246.769C49.8426 246.654 49.7327 246.358 49.8464 246.107C49.9612 245.856 50.2572 245.746 50.5081 245.861C50.9601 246.068 51.4184 246.272 51.8691 246.468C52.1226 246.578 52.2374 246.872 52.1276 247.124C52.0452 247.312 51.8616 247.424 51.6693 247.424H51.6706ZM108.133 246.674C107.949 246.674 107.773 246.573 107.686 246.398C107.562 246.151 107.662 245.851 107.908 245.727C108.116 245.622 108.325 245.516 108.533 245.409C108.778 245.283 109.08 245.379 109.206 245.625C109.333 245.87 109.236 246.172 108.99 246.298C108.778 246.407 108.567 246.514 108.355 246.62C108.283 246.656 108.206 246.674 108.131 246.674H108.133ZM48.0446 245.742C47.9709 245.742 47.8948 245.726 47.8249 245.691C47.3766 245.47 46.9234 245.243 46.4776 245.014C46.2316 244.888 46.1355 244.587 46.2616 244.341C46.3877 244.095 46.6886 243.999 46.9346 244.125C47.3754 244.351 47.8236 244.577 48.2656 244.795C48.5128 244.917 48.6152 245.215 48.4929 245.464C48.4055 245.64 48.2282 245.742 48.0446 245.742ZM44.4986 243.897C44.4174 243.897 44.335 243.877 44.2588 243.836C43.8181 243.593 43.3761 243.346 42.9441 243.1C42.7043 242.964 42.6207 242.658 42.7568 242.418C42.8929 242.179 43.1988 242.095 43.4385 242.231C43.8655 242.475 44.3038 242.719 44.7395 242.959C44.9818 243.091 45.0692 243.396 44.9368 243.637C44.8457 243.803 44.6746 243.897 44.4986 243.897ZM41.0349 241.899C40.9463 241.899 40.8576 241.875 40.7765 241.827C40.3494 241.568 39.9174 241.302 39.4929 241.036C39.2594 240.89 39.1882 240.582 39.3356 240.348C39.4817 240.115 39.7901 240.044 40.0236 240.191C40.4431 240.454 40.8714 240.718 41.2934 240.973C41.5294 241.115 41.6055 241.422 41.462 241.658C41.3683 241.813 41.2035 241.899 41.0337 241.899H41.0349ZM37.6574 239.758C37.5625 239.758 37.4664 239.731 37.3815 239.674C36.9682 239.399 36.5474 239.116 36.1316 238.831C35.9044 238.675 35.8457 238.364 36.0018 238.137C36.1579 237.91 36.4688 237.851 36.696 238.007C37.1081 238.289 37.5238 238.569 37.9334 238.841C38.1631 238.994 38.2268 239.303 38.0732 239.533C37.9771 239.678 37.8185 239.756 37.6562 239.756L37.6574 239.758ZM34.3686 237.481C34.2675 237.481 34.1651 237.45 34.0764 237.387C33.6706 237.093 33.2611 236.792 32.8615 236.495C32.6405 236.33 32.5943 236.017 32.7591 235.796C32.924 235.575 33.2374 235.53 33.4584 235.693C33.8542 235.989 34.2587 236.287 34.662 236.577C34.8855 236.739 34.9355 237.051 34.7744 237.275C34.677 237.41 34.5247 237.483 34.3686 237.483V237.481ZM31.1734 235.073C31.0648 235.073 30.9562 235.038 30.865 234.965C30.4717 234.656 30.0746 234.34 29.6863 234.024C29.4728 233.851 29.4391 233.536 29.6139 233.321C29.7875 233.106 30.1021 233.074 30.3169 233.249C30.7014 233.561 31.0935 233.874 31.4831 234.18C31.7003 234.351 31.7378 234.665 31.5667 234.882C31.4681 235.007 31.322 235.073 31.1734 235.073ZM28.0794 232.533C27.9645 232.533 27.8484 232.493 27.7547 232.413C27.3702 232.082 26.9868 231.749 26.6172 231.419C26.4112 231.236 26.3925 230.92 26.576 230.714C26.7596 230.508 27.0755 230.489 27.2815 230.673C27.6473 230.997 28.0257 231.328 28.4065 231.655C28.6163 231.835 28.64 232.15 28.4602 232.36C28.3615 232.475 28.2217 232.534 28.0806 232.534L28.0794 232.533ZM25.1052 229.85C24.9816 229.85 24.8567 229.804 24.7606 229.711C24.0538 229.037 23.6855 228.651 23.6693 228.635C23.4782 228.435 23.4857 228.119 23.6855 227.93C23.8853 227.739 24.2012 227.746 24.3922 227.946C24.396 227.95 24.7631 228.333 25.451 228.99C25.6508 229.181 25.6583 229.497 25.4673 229.696C25.3686 229.799 25.2375 229.851 25.1064 229.851L25.1052 229.85Z" fill="black"/>
<g style="mix-blend-mode:multiply">
<path d="M259.059 145.752C285.891 118.92 285.891 75.4161 259.059 48.5838C232.227 21.7514 188.723 21.7514 161.891 48.5838C135.058 75.4161 135.058 118.92 161.891 145.752C188.723 172.585 232.227 172.585 259.059 145.752Z" fill="#D16CD6"/>
<path d="M210.426 166.377C201.72 166.377 193.234 164.773 185.17 161.602C176.843 158.327 169.317 153.527 162.801 147.335C156.286 141.143 151.109 133.871 147.415 125.722C143.59 117.284 141.53 108.27 141.291 98.9304C141.053 89.5908 142.652 80.4834 146.042 71.8618C149.318 63.5348 154.117 56.0082 160.309 49.493C166.501 42.9777 173.773 37.801 181.922 34.1064C190.361 30.2819 199.374 28.2217 208.714 27.9832C218.053 27.7447 227.161 29.3442 235.782 32.7341C244.109 36.0092 251.636 40.8089 258.151 47.0007C264.667 53.1926 269.843 60.4645 273.538 68.6142C277.362 77.0523 279.423 86.066 279.661 95.4056C279.9 104.745 278.3 113.853 274.91 122.474C271.635 130.801 266.835 138.328 260.644 144.843C254.452 151.358 247.18 156.535 239.03 160.23C230.592 164.054 221.578 166.114 212.239 166.353C211.634 166.368 211.029 166.377 210.426 166.377ZM210.527 28.9583C209.931 28.9583 209.337 28.9658 208.74 28.9808C199.535 29.2156 190.65 31.2458 182.336 35.0153C174.303 38.6563 167.136 43.7594 161.033 50.181C154.93 56.6026 150.199 64.0205 146.973 72.2276C143.631 80.7244 142.056 89.6994 142.29 98.9054C142.525 108.111 144.555 116.995 148.325 125.31C151.966 133.342 157.068 140.509 163.49 146.611C169.912 152.714 177.33 157.445 185.537 160.673C193.482 163.797 201.848 165.378 210.428 165.378C211.024 165.378 211.618 165.37 212.215 165.355C221.42 165.12 230.305 163.09 238.619 159.321C246.652 155.68 253.819 150.577 259.922 144.155C266.025 137.733 270.756 130.315 273.984 122.108C277.325 113.612 278.901 104.637 278.666 95.4306C278.431 86.2258 276.401 77.3407 272.631 69.0262C268.99 60.9939 263.887 53.8269 257.466 47.7237C251.044 41.6205 243.626 36.8895 235.419 33.6631C227.474 30.5391 219.109 28.9583 210.528 28.9583H210.527Z" fill="black"/>
</g>
<g style="mix-blend-mode:multiply" opacity="0.6">
<path d="M79.5518 131.812C45.682 124.505 -55.0882 201.058 39.4103 334.752C74.3701 384.211 130.8 377.82 119.11 339.12C113.686 321.162 70.7866 281.356 95.1856 233.145C109.362 205.133 113.42 139.12 79.5505 131.813L79.5518 131.812Z" fill="#7979C6"/>
</g>
</svg>
